<?xml version="1.0" encoding="utf-8" standalone="no"?>
<!DOCTYPE svg PUBLIC "-//W3C//DTD SVG 1.1//EN"
  "http://www.w3.org/Graphics/SVG/1.1/DTD/svg11.dtd">
<svg xmlns:xlink="http://www.w3.org/1999/xlink" width="432pt" height="864pt" viewBox="0 0 432 864" xmlns="http://www.w3.org/2000/svg" version="1.1">
 <metadata>
  <rdf:RDF xmlns:dc="http://purl.org/dc/elements/1.1/" xmlns:cc="http://creativecommons.org/ns#" xmlns:rdf="http://www.w3.org/1999/02/22-rdf-syntax-ns#">
   <cc:Work>
    <dc:type rdf:resource="http://purl.org/dc/dcmitype/StillImage"/>
    <dc:date>2024-03-17T16:43:21.966933</dc:date>
    <dc:format>image/svg+xml</dc:format>
    <dc:creator>
     <cc:Agent>
      <dc:title>Matplotlib v3.8.1, https://matplotlib.org/</dc:title>
     </cc:Agent>
    </dc:creator>
   </cc:Work>
  </rdf:RDF>
 </metadata>
 <defs>
  <style type="text/css">*{stroke-linejoin: round; stroke-linecap: butt}</style>
 </defs>
 <g id="figure_1">
  <g id="patch_1">
   <path d="M 0 864 
L 432 864 
L 432 0 
L 0 0 
z
" style="fill: #ffffff"/>
  </g>
  <g id="axes_1">
   <g id="patch_2">
    <path d="M 54 248.306087 
L 388.8 248.306087 
L 388.8 103.68 
L 54 103.68 
z
" style="fill: #ffffff"/>
   </g>
   <g id="matplotlib.axis_1">
    <g id="xtick_1">
     <g id="line2d_1">
      <defs>
       <path id="m1e5695f445" d="M 0 0 
L 0 4.8 
" style="stroke: #000000"/>
      </defs>
      <g>
       <use xlink:href="#m1e5695f445" x="54" y="258.306087" style="stroke: #000000"/>
      </g>
     </g>
     <g id="text_1">
      <!-- 0 -->
      <g transform="translate(51.2005 273.292712) scale(0.088 -0.088)">
       <defs>
        <path id="DejaVuSans-30" d="M 2034 4250 
Q 1547 4250 1301 3770 
Q 1056 3291 1056 2328 
Q 1056 1369 1301 889 
Q 1547 409 2034 409 
Q 2525 409 2770 889 
Q 3016 1369 3016 2328 
Q 3016 3291 2770 3770 
Q 2525 4250 2034 4250 
z
M 2034 4750 
Q 2819 4750 3233 4129 
Q 3647 3509 3647 2328 
Q 3647 1150 3233 529 
Q 2819 -91 2034 -91 
Q 1250 -91 836 529 
Q 422 1150 422 2328 
Q 422 3509 836 4129 
Q 1250 4750 2034 4750 
z
" transform="scale(0.015625)"/>
       </defs>
       <use xlink:href="#DejaVuSans-30"/>
      </g>
     </g>
    </g>
    <g id="xtick_2">
     <g id="line2d_2">
      <g>
       <use xlink:href="#m1e5695f445" x="95.85" y="258.306087" style="stroke: #000000"/>
      </g>
     </g>
     <g id="text_2">
      <!-- 1 -->
      <g transform="translate(93.0505 273.292712) scale(0.088 -0.088)">
       <defs>
        <path id="DejaVuSans-31" d="M 794 531 
L 1825 531 
L 1825 4091 
L 703 3866 
L 703 4441 
L 1819 4666 
L 2450 4666 
L 2450 531 
L 3481 531 
L 3481 0 
L 794 0 
L 794 531 
z
" transform="scale(0.015625)"/>
       </defs>
       <use xlink:href="#DejaVuSans-31"/>
      </g>
     </g>
    </g>
    <g id="xtick_3">
     <g id="line2d_3">
      <g>
       <use xlink:href="#m1e5695f445" x="137.7" y="258.306087" style="stroke: #000000"/>
      </g>
     </g>
     <g id="text_3">
      <!-- 2 -->
      <g transform="translate(134.9005 273.292712) scale(0.088 -0.088)">
       <defs>
        <path id="DejaVuSans-32" d="M 1228 531 
L 3431 531 
L 3431 0 
L 469 0 
L 469 531 
Q 828 903 1448 1529 
Q 2069 2156 2228 2338 
Q 2531 2678 2651 2914 
Q 2772 3150 2772 3378 
Q 2772 3750 2511 3984 
Q 2250 4219 1831 4219 
Q 1534 4219 1204 4116 
Q 875 4013 500 3803 
L 500 4441 
Q 881 4594 1212 4672 
Q 1544 4750 1819 4750 
Q 2544 4750 2975 4387 
Q 3406 4025 3406 3419 
Q 3406 3131 3298 2873 
Q 3191 2616 2906 2266 
Q 2828 2175 2409 1742 
Q 1991 1309 1228 531 
z
" transform="scale(0.015625)"/>
       </defs>
       <use xlink:href="#DejaVuSans-32"/>
      </g>
     </g>
    </g>
    <g id="xtick_4">
     <g id="line2d_4">
      <g>
       <use xlink:href="#m1e5695f445" x="179.55" y="258.306087" style="stroke: #000000"/>
      </g>
     </g>
     <g id="text_4">
      <!-- 3 -->
      <g transform="translate(176.7505 273.292712) scale(0.088 -0.088)">
       <defs>
        <path id="DejaVuSans-33" d="M 2597 2516 
Q 3050 2419 3304 2112 
Q 3559 1806 3559 1356 
Q 3559 666 3084 287 
Q 2609 -91 1734 -91 
Q 1441 -91 1130 -33 
Q 819 25 488 141 
L 488 750 
Q 750 597 1062 519 
Q 1375 441 1716 441 
Q 2309 441 2620 675 
Q 2931 909 2931 1356 
Q 2931 1769 2642 2001 
Q 2353 2234 1838 2234 
L 1294 2234 
L 1294 2753 
L 1863 2753 
Q 2328 2753 2575 2939 
Q 2822 3125 2822 3475 
Q 2822 3834 2567 4026 
Q 2313 4219 1838 4219 
Q 1578 4219 1281 4162 
Q 984 4106 628 3988 
L 628 4550 
Q 988 4650 1302 4700 
Q 1616 4750 1894 4750 
Q 2613 4750 3031 4423 
Q 3450 4097 3450 3541 
Q 3450 3153 3228 2886 
Q 3006 2619 2597 2516 
z
" transform="scale(0.015625)"/>
       </defs>
       <use xlink:href="#DejaVuSans-33"/>
      </g>
     </g>
    </g>
    <g id="xtick_5">
     <g id="line2d_5">
      <g>
       <use xlink:href="#m1e5695f445" x="221.4" y="258.306087" style="stroke: #000000"/>
      </g>
     </g>
     <g id="text_5">
      <!-- 4 -->
      <g transform="translate(218.6005 273.292712) scale(0.088 -0.088)">
       <defs>
        <path id="DejaVuSans-34" d="M 2419 4116 
L 825 1625 
L 2419 1625 
L 2419 4116 
z
M 2253 4666 
L 3047 4666 
L 3047 1625 
L 3713 1625 
L 3713 1100 
L 3047 1100 
L 3047 0 
L 2419 0 
L 2419 1100 
L 313 1100 
L 313 1709 
L 2253 4666 
z
" transform="scale(0.015625)"/>
       </defs>
       <use xlink:href="#DejaVuSans-34"/>
      </g>
     </g>
    </g>
    <g id="xtick_6">
     <g id="line2d_6">
      <g>
       <use xlink:href="#m1e5695f445" x="263.25" y="258.306087" style="stroke: #000000"/>
      </g>
     </g>
     <g id="text_6">
      <!-- 5 -->
      <g transform="translate(260.4505 273.292712) scale(0.088 -0.088)">
       <defs>
        <path id="DejaVuSans-35" d="M 691 4666 
L 3169 4666 
L 3169 4134 
L 1269 4134 
L 1269 2991 
Q 1406 3038 1543 3061 
Q 1681 3084 1819 3084 
Q 2600 3084 3056 2656 
Q 3513 2228 3513 1497 
Q 3513 744 3044 326 
Q 2575 -91 1722 -91 
Q 1428 -91 1123 -41 
Q 819 9 494 109 
L 494 744 
Q 775 591 1075 516 
Q 1375 441 1709 441 
Q 2250 441 2565 725 
Q 2881 1009 2881 1497 
Q 2881 1984 2565 2268 
Q 2250 2553 1709 2553 
Q 1456 2553 1204 2497 
Q 953 2441 691 2322 
L 691 4666 
z
" transform="scale(0.015625)"/>
       </defs>
       <use xlink:href="#DejaVuSans-35"/>
      </g>
     </g>
    </g>
    <g id="xtick_7">
     <g id="line2d_7">
      <g>
       <use xlink:href="#m1e5695f445" x="305.1" y="258.306087" style="stroke: #000000"/>
      </g>
     </g>
     <g id="text_7">
      <!-- 6 -->
      <g transform="translate(302.3005 273.292712) scale(0.088 -0.088)">
       <defs>
        <path id="DejaVuSans-36" d="M 2113 2584 
Q 1688 2584 1439 2293 
Q 1191 2003 1191 1497 
Q 1191 994 1439 701 
Q 1688 409 2113 409 
Q 2538 409 2786 701 
Q 3034 994 3034 1497 
Q 3034 2003 2786 2293 
Q 2538 2584 2113 2584 
z
M 3366 4563 
L 3366 3988 
Q 3128 4100 2886 4159 
Q 2644 4219 2406 4219 
Q 1781 4219 1451 3797 
Q 1122 3375 1075 2522 
Q 1259 2794 1537 2939 
Q 1816 3084 2150 3084 
Q 2853 3084 3261 2657 
Q 3669 2231 3669 1497 
Q 3669 778 3244 343 
Q 2819 -91 2113 -91 
Q 1303 -91 875 529 
Q 447 1150 447 2328 
Q 447 3434 972 4092 
Q 1497 4750 2381 4750 
Q 2619 4750 2861 4703 
Q 3103 4656 3366 4563 
z
" transform="scale(0.015625)"/>
       </defs>
       <use xlink:href="#DejaVuSans-36"/>
      </g>
     </g>
    </g>
    <g id="xtick_8">
     <g id="line2d_8">
      <g>
       <use xlink:href="#m1e5695f445" x="346.95" y="258.306087" style="stroke: #000000"/>
      </g>
     </g>
     <g id="text_8">
      <!-- 7 -->
      <g transform="translate(344.1505 273.292712) scale(0.088 -0.088)">
       <defs>
        <path id="DejaVuSans-37" d="M 525 4666 
L 3525 4666 
L 3525 4397 
L 1831 0 
L 1172 0 
L 2766 4134 
L 525 4134 
L 525 4666 
z
" transform="scale(0.015625)"/>
       </defs>
       <use xlink:href="#DejaVuSans-37"/>
      </g>
     </g>
    </g>
    <g id="xtick_9">
     <g id="line2d_9">
      <g>
       <use xlink:href="#m1e5695f445" x="388.8" y="258.306087" style="stroke: #000000"/>
      </g>
     </g>
     <g id="text_9">
      <!-- 8 -->
      <g transform="translate(386.0005 273.292712) scale(0.088 -0.088)">
       <defs>
        <path id="DejaVuSans-38" d="M 2034 2216 
Q 1584 2216 1326 1975 
Q 1069 1734 1069 1313 
Q 1069 891 1326 650 
Q 1584 409 2034 409 
Q 2484 409 2743 651 
Q 3003 894 3003 1313 
Q 3003 1734 2745 1975 
Q 2488 2216 2034 2216 
z
M 1403 2484 
Q 997 2584 770 2862 
Q 544 3141 544 3541 
Q 544 4100 942 4425 
Q 1341 4750 2034 4750 
Q 2731 4750 3128 4425 
Q 3525 4100 3525 3541 
Q 3525 3141 3298 2862 
Q 3072 2584 2669 2484 
Q 3125 2378 3379 2068 
Q 3634 1759 3634 1313 
Q 3634 634 3220 271 
Q 2806 -91 2034 -91 
Q 1263 -91 848 271 
Q 434 634 434 1313 
Q 434 1759 690 2068 
Q 947 2378 1403 2484 
z
M 1172 3481 
Q 1172 3119 1398 2916 
Q 1625 2713 2034 2713 
Q 2441 2713 2670 2916 
Q 2900 3119 2900 3481 
Q 2900 3844 2670 4047 
Q 2441 4250 2034 4250 
Q 1625 4250 1398 4047 
Q 1172 3844 1172 3481 
z
" transform="scale(0.015625)"/>
       </defs>
       <use xlink:href="#DejaVuSans-38"/>
      </g>
     </g>
    </g>
   </g>
   <g id="matplotlib.axis_2">
    <g id="ytick_1">
     <g id="line2d_10">
      <defs>
       <path id="m95e49e7e13" d="M 0 0 
L -4.8 0 
" style="stroke: #000000"/>
      </defs>
      <g>
       <use xlink:href="#m95e49e7e13" x="44" y="248.306087" style="stroke: #000000"/>
      </g>
     </g>
     <g id="text_10">
      <!-- 0 -->
      <g transform="translate(30.101 251.649399) scale(0.088 -0.088)">
       <use xlink:href="#DejaVuSans-30"/>
      </g>
     </g>
    </g>
    <g id="ytick_2">
     <g id="line2d_11">
      <g>
       <use xlink:href="#m95e49e7e13" x="44" y="212.149565" style="stroke: #000000"/>
      </g>
     </g>
     <g id="text_11">
      <!-- 5 -->
      <g transform="translate(30.101 215.492878) scale(0.088 -0.088)">
       <use xlink:href="#DejaVuSans-35"/>
      </g>
     </g>
    </g>
    <g id="ytick_3">
     <g id="line2d_12">
      <g>
       <use xlink:href="#m95e49e7e13" x="44" y="175.993043" style="stroke: #000000"/>
      </g>
     </g>
     <g id="text_12">
      <!-- 10 -->
      <g transform="translate(24.502 179.336356) scale(0.088 -0.088)">
       <use xlink:href="#DejaVuSans-31"/>
       <use xlink:href="#DejaVuSans-30" x="63.623047"/>
      </g>
     </g>
    </g>
    <g id="ytick_4">
     <g id="line2d_13">
      <g>
       <use xlink:href="#m95e49e7e13" x="44" y="139.836522" style="stroke: #000000"/>
      </g>
     </g>
     <g id="text_13">
      <!-- 15 -->
      <g transform="translate(24.502 143.179834) scale(0.088 -0.088)">
       <use xlink:href="#DejaVuSans-31"/>
       <use xlink:href="#DejaVuSans-35" x="63.623047"/>
      </g>
     </g>
    </g>
    <g id="ytick_5">
     <g id="line2d_14">
      <g>
       <use xlink:href="#m95e49e7e13" x="44" y="103.68" style="stroke: #000000"/>
      </g>
     </g>
     <g id="text_14">
      <!-- 20 -->
      <g transform="translate(24.502 107.023312) scale(0.088 -0.088)">
       <use xlink:href="#DejaVuSans-32"/>
       <use xlink:href="#DejaVuSans-30" x="63.623047"/>
      </g>
     </g>
    </g>
   </g>
   <g id="line2d_15">
    <path d="M 54 216.726539 
L 95.85 216.726539 
L 137.7 176.287561 
L 179.55 180.893737 
L 221.4 202.875519 
L 263.25 212.740173 
L 305.1 212.041014 
L 346.95 212.656869 
L 388.8 214.891366 
" clip-path="url(#p3d77e5704a)" style="fill: none; stroke: #800080; stroke-width: 2; stroke-linecap: square"/>
   </g>
   <g id="line2d_16">
    <path d="M 62.37 139.836522 
L 104.22 139.836522 
" clip-path="url(#p3d77e5704a)" style="fill: none; stroke: #800080; stroke-width: 2; stroke-linecap: square"/>
   </g>
   <g id="line2d_17">
    <path d="M 62.37 139.836522 
L 62.37 132.605217 
" clip-path="url(#p3d77e5704a)" style="fill: none; stroke: #800080; stroke-width: 2; stroke-linecap: square"/>
   </g>
   <g id="patch_3">
    <path d="M 44 248.306087 
L 44 103.68 
" style="fill: none; stroke: #000000; stroke-width: 0.5; stroke-linejoin: miter; stroke-linecap: square"/>
   </g>
   <g id="patch_4">
    <path d="M 54 258.306087 
L 388.8 258.306087 
" style="fill: none; stroke: #000000; stroke-width: 0.5; stroke-linejoin: miter; stroke-linecap: square"/>
   </g>
   <g id="legend_1">
    <g id="line2d_18">
     <path d="M 351.0315 115.206625 
L 359.8315 115.206625 
L 368.6315 115.206625 
" style="fill: none; stroke: #800080; stroke-width: 2; stroke-linecap: square"/>
    </g>
    <g id="text_15">
     <!-- γ -->
     <g transform="translate(375.6715 118.286625) scale(0.088 -0.088)">
      <defs>
       <path id="DejaVuSans-3b3" d="M 1128 2950 
L 1894 788 
L 2988 3500 
L 3597 3500 
L 2181 0 
L 2181 -1331 
L 1606 -1331 
L 1606 0 
L 688 2613 
Q 550 3006 253 3006 
L 100 3006 
L 100 3500 
L 319 3500 
Q 934 3500 1128 2950 
z
" transform="scale(0.015625)"/>
      </defs>
      <use xlink:href="#DejaVuSans-3b3"/>
     </g>
    </g>
   </g>
  </g>
  <g id="axes_2">
   <g id="patch_5">
    <path d="M 54 421.857391 
L 388.8 421.857391 
L 388.8 277.231304 
L 54 277.231304 
z
" style="fill: #ffffff"/>
   </g>
   <g id="matplotlib.axis_3">
    <g id="xtick_10">
     <g id="line2d_19">
      <g>
       <use xlink:href="#m1e5695f445" x="54" y="431.857391" style="stroke: #000000"/>
      </g>
     </g>
     <g id="text_16">
      <!-- 0 -->
      <g transform="translate(51.2005 446.844016) scale(0.088 -0.088)">
       <use xlink:href="#DejaVuSans-30"/>
      </g>
     </g>
    </g>
    <g id="xtick_11">
     <g id="line2d_20">
      <g>
       <use xlink:href="#m1e5695f445" x="95.85" y="431.857391" style="stroke: #000000"/>
      </g>
     </g>
     <g id="text_17">
      <!-- 1 -->
      <g transform="translate(93.0505 446.844016) scale(0.088 -0.088)">
       <use xlink:href="#DejaVuSans-31"/>
      </g>
     </g>
    </g>
    <g id="xtick_12">
     <g id="line2d_21">
      <g>
       <use xlink:href="#m1e5695f445" x="137.7" y="431.857391" style="stroke: #000000"/>
      </g>
     </g>
     <g id="text_18">
      <!-- 2 -->
      <g transform="translate(134.9005 446.844016) scale(0.088 -0.088)">
       <use xlink:href="#DejaVuSans-32"/>
      </g>
     </g>
    </g>
    <g id="xtick_13">
     <g id="line2d_22">
      <g>
       <use xlink:href="#m1e5695f445" x="179.55" y="431.857391" style="stroke: #000000"/>
      </g>
     </g>
     <g id="text_19">
      <!-- 3 -->
      <g transform="translate(176.7505 446.844016) scale(0.088 -0.088)">
       <use xlink:href="#DejaVuSans-33"/>
      </g>
     </g>
    </g>
    <g id="xtick_14">
     <g id="line2d_23">
      <g>
       <use xlink:href="#m1e5695f445" x="221.4" y="431.857391" style="stroke: #000000"/>
      </g>
     </g>
     <g id="text_20">
      <!-- 4 -->
      <g transform="translate(218.6005 446.844016) scale(0.088 -0.088)">
       <use xlink:href="#DejaVuSans-34"/>
      </g>
     </g>
    </g>
    <g id="xtick_15">
     <g id="line2d_24">
      <g>
       <use xlink:href="#m1e5695f445" x="263.25" y="431.857391" style="stroke: #000000"/>
      </g>
     </g>
     <g id="text_21">
      <!-- 5 -->
      <g transform="translate(260.4505 446.844016) scale(0.088 -0.088)">
       <use xlink:href="#DejaVuSans-35"/>
      </g>
     </g>
    </g>
    <g id="xtick_16">
     <g id="line2d_25">
      <g>
       <use xlink:href="#m1e5695f445" x="305.1" y="431.857391" style="stroke: #000000"/>
      </g>
     </g>
     <g id="text_22">
      <!-- 6 -->
      <g transform="translate(302.3005 446.844016) scale(0.088 -0.088)">
       <use xlink:href="#DejaVuSans-36"/>
      </g>
     </g>
    </g>
    <g id="xtick_17">
     <g id="line2d_26">
      <g>
       <use xlink:href="#m1e5695f445" x="346.95" y="431.857391" style="stroke: #000000"/>
      </g>
     </g>
     <g id="text_23">
      <!-- 7 -->
      <g transform="translate(344.1505 446.844016) scale(0.088 -0.088)">
       <use xlink:href="#DejaVuSans-37"/>
      </g>
     </g>
    </g>
    <g id="xtick_18">
     <g id="line2d_27">
      <g>
       <use xlink:href="#m1e5695f445" x="388.8" y="431.857391" style="stroke: #000000"/>
      </g>
     </g>
     <g id="text_24">
      <!-- 8 -->
      <g transform="translate(386.0005 446.844016) scale(0.088 -0.088)">
       <use xlink:href="#DejaVuSans-38"/>
      </g>
     </g>
    </g>
   </g>
   <g id="matplotlib.axis_4">
    <g id="ytick_6">
     <g id="line2d_28">
      <g>
       <use xlink:href="#m95e49e7e13" x="44" y="421.857391" style="stroke: #000000"/>
      </g>
     </g>
     <g id="text_25">
      <!-- 0 -->
      <g transform="translate(30.101 425.200704) scale(0.088 -0.088)">
       <use xlink:href="#DejaVuSans-30"/>
      </g>
     </g>
    </g>
    <g id="ytick_7">
     <g id="line2d_29">
      <g>
       <use xlink:href="#m95e49e7e13" x="44" y="385.70087" style="stroke: #000000"/>
      </g>
     </g>
     <g id="text_26">
      <!-- 5 -->
      <g transform="translate(30.101 389.044182) scale(0.088 -0.088)">
       <use xlink:href="#DejaVuSans-35"/>
      </g>
     </g>
    </g>
    <g id="ytick_8">
     <g id="line2d_30">
      <g>
       <use xlink:href="#m95e49e7e13" x="44" y="349.544348" style="stroke: #000000"/>
      </g>
     </g>
     <g id="text_27">
      <!-- 10 -->
      <g transform="translate(24.502 352.88766) scale(0.088 -0.088)">
       <use xlink:href="#DejaVuSans-31"/>
       <use xlink:href="#DejaVuSans-30" x="63.623047"/>
      </g>
     </g>
    </g>
    <g id="ytick_9">
     <g id="line2d_31">
      <g>
       <use xlink:href="#m95e49e7e13" x="44" y="313.387826" style="stroke: #000000"/>
      </g>
     </g>
     <g id="text_28">
      <!-- 15 -->
      <g transform="translate(24.502 316.731139) scale(0.088 -0.088)">
       <use xlink:href="#DejaVuSans-31"/>
       <use xlink:href="#DejaVuSans-35" x="63.623047"/>
      </g>
     </g>
    </g>
    <g id="ytick_10">
     <g id="line2d_32">
      <g>
       <use xlink:href="#m95e49e7e13" x="44" y="277.231304" style="stroke: #000000"/>
      </g>
     </g>
     <g id="text_29">
      <!-- 20 -->
      <g transform="translate(24.502 280.574617) scale(0.088 -0.088)">
       <use xlink:href="#DejaVuSans-32"/>
       <use xlink:href="#DejaVuSans-30" x="63.623047"/>
      </g>
     </g>
    </g>
   </g>
   <g id="line2d_33">
    <path d="M 54 391.727756 
L 95.85 391.727756 
L 137.7 362.81625 
L 179.55 366.44024 
L 221.4 378.218789 
L 263.25 379.30542 
L 305.1 385.221895 
L 346.95 385.376609 
L 388.8 390.436745 
" clip-path="url(#p6875ec4e68)" style="fill: none; stroke: #800080; stroke-width: 2; stroke-linecap: square"/>
   </g>
   <g id="line2d_34">
    <path d="M 62.37 313.387826 
L 104.22 313.387826 
" clip-path="url(#p6875ec4e68)" style="fill: none; stroke: #800080; stroke-width: 2; stroke-linecap: square"/>
   </g>
   <g id="line2d_35">
    <path d="M 62.37 313.387826 
L 62.37 306.156522 
" clip-path="url(#p6875ec4e68)" style="fill: none; stroke: #800080; stroke-width: 2; stroke-linecap: square"/>
   </g>
   <g id="patch_6">
    <path d="M 44 421.857391 
L 44 277.231304 
" style="fill: none; stroke: #000000; stroke-width: 0.5; stroke-linejoin: miter; stroke-linecap: square"/>
   </g>
   <g id="patch_7">
    <path d="M 54 431.857391 
L 388.8 431.857391 
" style="fill: none; stroke: #000000; stroke-width: 0.5; stroke-linejoin: miter; stroke-linecap: square"/>
   </g>
   <g id="legend_2">
    <g id="line2d_36">
     <path d="M 351.0315 288.757929 
L 359.8315 288.757929 
L 368.6315 288.757929 
" style="fill: none; stroke: #800080; stroke-width: 2; stroke-linecap: square"/>
    </g>
    <g id="text_30">
     <!-- γ -->
     <g transform="translate(375.6715 291.837929) scale(0.088 -0.088)">
      <use xlink:href="#DejaVuSans-3b3"/>
     </g>
    </g>
   </g>
  </g>
  <g id="axes_3">
   <g id="patch_8">
    <path d="M 54 595.408696 
L 388.8 595.408696 
L 388.8 450.782609 
L 54 450.782609 
z
" style="fill: #ffffff"/>
   </g>
   <g id="matplotlib.axis_5">
    <g id="xtick_19">
     <g id="line2d_37">
      <g>
       <use xlink:href="#m1e5695f445" x="54" y="605.408696" style="stroke: #000000"/>
      </g>
     </g>
     <g id="text_31">
      <!-- 0 -->
      <g transform="translate(51.2005 620.395321) scale(0.088 -0.088)">
       <use xlink:href="#DejaVuSans-30"/>
      </g>
     </g>
    </g>
    <g id="xtick_20">
     <g id="line2d_38">
      <g>
       <use xlink:href="#m1e5695f445" x="95.85" y="605.408696" style="stroke: #000000"/>
      </g>
     </g>
     <g id="text_32">
      <!-- 1 -->
      <g transform="translate(93.0505 620.395321) scale(0.088 -0.088)">
       <use xlink:href="#DejaVuSans-31"/>
      </g>
     </g>
    </g>
    <g id="xtick_21">
     <g id="line2d_39">
      <g>
       <use xlink:href="#m1e5695f445" x="137.7" y="605.408696" style="stroke: #000000"/>
      </g>
     </g>
     <g id="text_33">
      <!-- 2 -->
      <g transform="translate(134.9005 620.395321) scale(0.088 -0.088)">
       <use xlink:href="#DejaVuSans-32"/>
      </g>
     </g>
    </g>
    <g id="xtick_22">
     <g id="line2d_40">
      <g>
       <use xlink:href="#m1e5695f445" x="179.55" y="605.408696" style="stroke: #000000"/>
      </g>
     </g>
     <g id="text_34">
      <!-- 3 -->
      <g transform="translate(176.7505 620.395321) scale(0.088 -0.088)">
       <use xlink:href="#DejaVuSans-33"/>
      </g>
     </g>
    </g>
    <g id="xtick_23">
     <g id="line2d_41">
      <g>
       <use xlink:href="#m1e5695f445" x="221.4" y="605.408696" style="stroke: #000000"/>
      </g>
     </g>
     <g id="text_35">
      <!-- 4 -->
      <g transform="translate(218.6005 620.395321) scale(0.088 -0.088)">
       <use xlink:href="#DejaVuSans-34"/>
      </g>
     </g>
    </g>
    <g id="xtick_24">
     <g id="line2d_42">
      <g>
       <use xlink:href="#m1e5695f445" x="263.25" y="605.408696" style="stroke: #000000"/>
      </g>
     </g>
     <g id="text_36">
      <!-- 5 -->
      <g transform="translate(260.4505 620.395321) scale(0.088 -0.088)">
       <use xlink:href="#DejaVuSans-35"/>
      </g>
     </g>
    </g>
    <g id="xtick_25">
     <g id="line2d_43">
      <g>
       <use xlink:href="#m1e5695f445" x="305.1" y="605.408696" style="stroke: #000000"/>
      </g>
     </g>
     <g id="text_37">
      <!-- 6 -->
      <g transform="translate(302.3005 620.395321) scale(0.088 -0.088)">
       <use xlink:href="#DejaVuSans-36"/>
      </g>
     </g>
    </g>
    <g id="xtick_26">
     <g id="line2d_44">
      <g>
       <use xlink:href="#m1e5695f445" x="346.95" y="605.408696" style="stroke: #000000"/>
      </g>
     </g>
     <g id="text_38">
      <!-- 7 -->
      <g transform="translate(344.1505 620.395321) scale(0.088 -0.088)">
       <use xlink:href="#DejaVuSans-37"/>
      </g>
     </g>
    </g>
    <g id="xtick_27">
     <g id="line2d_45">
      <g>
       <use xlink:href="#m1e5695f445" x="388.8" y="605.408696" style="stroke: #000000"/>
      </g>
     </g>
     <g id="text_39">
      <!-- 8 -->
      <g transform="translate(386.0005 620.395321) scale(0.088 -0.088)">
       <use xlink:href="#DejaVuSans-38"/>
      </g>
     </g>
    </g>
   </g>
   <g id="matplotlib.axis_6">
    <g id="ytick_11">
     <g id="line2d_46">
      <g>
       <use xlink:href="#m95e49e7e13" x="44" y="595.408696" style="stroke: #000000"/>
      </g>
     </g>
     <g id="text_40">
      <!-- 0 -->
      <g transform="translate(30.101 598.752008) scale(0.088 -0.088)">
       <use xlink:href="#DejaVuSans-30"/>
      </g>
     </g>
    </g>
    <g id="ytick_12">
     <g id="line2d_47">
      <g>
       <use xlink:href="#m95e49e7e13" x="44" y="559.252174" style="stroke: #000000"/>
      </g>
     </g>
     <g id="text_41">
      <!-- 5 -->
      <g transform="translate(30.101 562.595486) scale(0.088 -0.088)">
       <use xlink:href="#DejaVuSans-35"/>
      </g>
     </g>
    </g>
    <g id="ytick_13">
     <g id="line2d_48">
      <g>
       <use xlink:href="#m95e49e7e13" x="44" y="523.095652" style="stroke: #000000"/>
      </g>
     </g>
     <g id="text_42">
      <!-- 10 -->
      <g transform="translate(24.502 526.438965) scale(0.088 -0.088)">
       <use xlink:href="#DejaVuSans-31"/>
       <use xlink:href="#DejaVuSans-30" x="63.623047"/>
      </g>
     </g>
    </g>
    <g id="ytick_14">
     <g id="line2d_49">
      <g>
       <use xlink:href="#m95e49e7e13" x="44" y="486.93913" style="stroke: #000000"/>
      </g>
     </g>
     <g id="text_43">
      <!-- 15 -->
      <g transform="translate(24.502 490.282443) scale(0.088 -0.088)">
       <use xlink:href="#DejaVuSans-31"/>
       <use xlink:href="#DejaVuSans-35" x="63.623047"/>
      </g>
     </g>
    </g>
    <g id="ytick_15">
     <g id="line2d_50">
      <g>
       <use xlink:href="#m95e49e7e13" x="44" y="450.782609" style="stroke: #000000"/>
      </g>
     </g>
     <g id="text_44">
      <!-- 20 -->
      <g transform="translate(24.502 454.125921) scale(0.088 -0.088)">
       <use xlink:href="#DejaVuSans-32"/>
       <use xlink:href="#DejaVuSans-30" x="63.623047"/>
      </g>
     </g>
    </g>
   </g>
   <g id="line2d_51">
    <path d="M 54 567.257726 
L 95.85 567.257726 
L 137.7 521.378454 
L 179.55 518.943033 
L 221.4 526.344845 
L 263.25 547.075904 
L 305.1 553.280701 
L 346.95 556.766301 
L 388.8 563.902996 
" clip-path="url(#p89afd9e92f)" style="fill: none; stroke: #800080; stroke-width: 2; stroke-linecap: square"/>
   </g>
   <g id="line2d_52">
    <path d="M 62.37 486.93913 
L 104.22 486.93913 
" clip-path="url(#p89afd9e92f)" style="fill: none; stroke: #800080; stroke-width: 2; stroke-linecap: square"/>
   </g>
   <g id="line2d_53">
    <path d="M 62.37 486.93913 
L 62.37 479.707826 
" clip-path="url(#p89afd9e92f)" style="fill: none; stroke: #800080; stroke-width: 2; stroke-linecap: square"/>
   </g>
   <g id="patch_9">
    <path d="M 44 595.408696 
L 44 450.782609 
" style="fill: none; stroke: #000000; stroke-width: 0.5; stroke-linejoin: miter; stroke-linecap: square"/>
   </g>
   <g id="patch_10">
    <path d="M 54 605.408696 
L 388.8 605.408696 
" style="fill: none; stroke: #000000; stroke-width: 0.5; stroke-linejoin: miter; stroke-linecap: square"/>
   </g>
   <g id="legend_3">
    <g id="line2d_54">
     <path d="M 351.0315 462.309234 
L 359.8315 462.309234 
L 368.6315 462.309234 
" style="fill: none; stroke: #800080; stroke-width: 2; stroke-linecap: square"/>
    </g>
    <g id="text_45">
     <!-- γ -->
     <g transform="translate(375.6715 465.389234) scale(0.088 -0.088)">
      <use xlink:href="#DejaVuSans-3b3"/>
     </g>
    </g>
   </g>
  </g>
  <g id="axes_4">
   <g id="patch_11">
    <path d="M 54 768.96 
L 388.8 768.96 
L 388.8 624.333913 
L 54 624.333913 
z
" style="fill: #ffffff"/>
   </g>
   <g id="matplotlib.axis_7">
    <g id="xtick_28">
     <g id="line2d_55">
      <g>
       <use xlink:href="#m1e5695f445" x="54" y="778.96" style="stroke: #000000"/>
      </g>
     </g>
     <g id="text_46">
      <!-- 0 -->
      <g transform="translate(51.2005 793.946625) scale(0.088 -0.088)">
       <use xlink:href="#DejaVuSans-30"/>
      </g>
     </g>
    </g>
    <g id="xtick_29">
     <g id="line2d_56">
      <g>
       <use xlink:href="#m1e5695f445" x="95.85" y="778.96" style="stroke: #000000"/>
      </g>
     </g>
     <g id="text_47">
      <!-- 1 -->
      <g transform="translate(93.0505 793.946625) scale(0.088 -0.088)">
       <use xlink:href="#DejaVuSans-31"/>
      </g>
     </g>
    </g>
    <g id="xtick_30">
     <g id="line2d_57">
      <g>
       <use xlink:href="#m1e5695f445" x="137.7" y="778.96" style="stroke: #000000"/>
      </g>
     </g>
     <g id="text_48">
      <!-- 2 -->
      <g transform="translate(134.9005 793.946625) scale(0.088 -0.088)">
       <use xlink:href="#DejaVuSans-32"/>
      </g>
     </g>
    </g>
    <g id="xtick_31">
     <g id="line2d_58">
      <g>
       <use xlink:href="#m1e5695f445" x="179.55" y="778.96" style="stroke: #000000"/>
      </g>
     </g>
     <g id="text_49">
      <!-- 3 -->
      <g transform="translate(176.7505 793.946625) scale(0.088 -0.088)">
       <use xlink:href="#DejaVuSans-33"/>
      </g>
     </g>
    </g>
    <g id="xtick_32">
     <g id="line2d_59">
      <g>
       <use xlink:href="#m1e5695f445" x="221.4" y="778.96" style="stroke: #000000"/>
      </g>
     </g>
     <g id="text_50">
      <!-- 4 -->
      <g transform="translate(218.6005 793.946625) scale(0.088 -0.088)">
       <use xlink:href="#DejaVuSans-34"/>
      </g>
     </g>
    </g>
    <g id="xtick_33">
     <g id="line2d_60">
      <g>
       <use xlink:href="#m1e5695f445" x="263.25" y="778.96" style="stroke: #000000"/>
      </g>
     </g>
     <g id="text_51">
      <!-- 5 -->
      <g transform="translate(260.4505 793.946625) scale(0.088 -0.088)">
       <use xlink:href="#DejaVuSans-35"/>
      </g>
     </g>
    </g>
    <g id="xtick_34">
     <g id="line2d_61">
      <g>
       <use xlink:href="#m1e5695f445" x="305.1" y="778.96" style="stroke: #000000"/>
      </g>
     </g>
     <g id="text_52">
      <!-- 6 -->
      <g transform="translate(302.3005 793.946625) scale(0.088 -0.088)">
       <use xlink:href="#DejaVuSans-36"/>
      </g>
     </g>
    </g>
    <g id="xtick_35">
     <g id="line2d_62">
      <g>
       <use xlink:href="#m1e5695f445" x="346.95" y="778.96" style="stroke: #000000"/>
      </g>
     </g>
     <g id="text_53">
      <!-- 7 -->
      <g transform="translate(344.1505 793.946625) scale(0.088 -0.088)">
       <use xlink:href="#DejaVuSans-37"/>
      </g>
     </g>
    </g>
    <g id="xtick_36">
     <g id="line2d_63">
      <g>
       <use xlink:href="#m1e5695f445" x="388.8" y="778.96" style="stroke: #000000"/>
      </g>
     </g>
     <g id="text_54">
      <!-- 8 -->
      <g transform="translate(386.0005 793.946625) scale(0.088 -0.088)">
       <use xlink:href="#DejaVuSans-38"/>
      </g>
     </g>
    </g>
   </g>
   <g id="matplotlib.axis_8">
    <g id="ytick_16">
     <g id="line2d_64">
      <g>
       <use xlink:href="#m95e49e7e13" x="44" y="768.96" style="stroke: #000000"/>
      </g>
     </g>
     <g id="text_55">
      <!-- 0 -->
      <g transform="translate(30.101 772.303312) scale(0.088 -0.088)">
       <use xlink:href="#DejaVuSans-30"/>
      </g>
     </g>
    </g>
    <g id="ytick_17">
     <g id="line2d_65">
      <g>
       <use xlink:href="#m95e49e7e13" x="44" y="732.803478" style="stroke: #000000"/>
      </g>
     </g>
     <g id="text_56">
      <!-- 5 -->
      <g transform="translate(30.101 736.146791) scale(0.088 -0.088)">
       <use xlink:href="#DejaVuSans-35"/>
      </g>
     </g>
    </g>
    <g id="ytick_18">
     <g id="line2d_66">
      <g>
       <use xlink:href="#m95e49e7e13" x="44" y="696.646957" style="stroke: #000000"/>
      </g>
     </g>
     <g id="text_57">
      <!-- 10 -->
      <g transform="translate(24.502 699.990269) scale(0.088 -0.088)">
       <use xlink:href="#DejaVuSans-31"/>
       <use xlink:href="#DejaVuSans-30" x="63.623047"/>
      </g>
     </g>
    </g>
    <g id="ytick_19">
     <g id="line2d_67">
      <g>
       <use xlink:href="#m95e49e7e13" x="44" y="660.490435" style="stroke: #000000"/>
      </g>
     </g>
     <g id="text_58">
      <!-- 15 -->
      <g transform="translate(24.502 663.833747) scale(0.088 -0.088)">
       <use xlink:href="#DejaVuSans-31"/>
       <use xlink:href="#DejaVuSans-35" x="63.623047"/>
      </g>
     </g>
    </g>
    <g id="ytick_20">
     <g id="line2d_68">
      <g>
       <use xlink:href="#m95e49e7e13" x="44" y="624.333913" style="stroke: #000000"/>
      </g>
     </g>
     <g id="text_59">
      <!-- 20 -->
      <g transform="translate(24.502 627.677226) scale(0.088 -0.088)">
       <use xlink:href="#DejaVuSans-32"/>
       <use xlink:href="#DejaVuSans-30" x="63.623047"/>
      </g>
     </g>
    </g>
   </g>
   <g id="line2d_69">
    <path d="M 54 733.576018 
L 95.85 733.576018 
L 137.7 650.261842 
L 179.55 667.929326 
L 221.4 682.736505 
L 263.25 697.995366 
L 305.1 712.569728 
L 346.95 721.949379 
L 388.8 730.174922 
" clip-path="url(#p8eb61d0aaa)" style="fill: none; stroke: #800080; stroke-width: 2; stroke-linecap: square"/>
   </g>
   <g id="line2d_70">
    <path d="M 62.37 660.490435 
L 104.22 660.490435 
" clip-path="url(#p8eb61d0aaa)" style="fill: none; stroke: #800080; stroke-width: 2; stroke-linecap: square"/>
   </g>
   <g id="line2d_71">
    <path d="M 62.37 660.490435 
L 62.37 653.25913 
" clip-path="url(#p8eb61d0aaa)" style="fill: none; stroke: #800080; stroke-width: 2; stroke-linecap: square"/>
   </g>
   <g id="patch_12">
    <path d="M 44 768.96 
L 44 624.333913 
" style="fill: none; stroke: #000000; stroke-width: 0.5; stroke-linejoin: miter; stroke-linecap: square"/>
   </g>
   <g id="patch_13">
    <path d="M 54 778.96 
L 388.8 778.96 
" style="fill: none; stroke: #000000; stroke-width: 0.5; stroke-linejoin: miter; stroke-linecap: square"/>
   </g>
   <g id="legend_4">
    <g id="line2d_72">
     <path d="M 351.0315 635.860538 
L 359.8315 635.860538 
L 368.6315 635.860538 
" style="fill: none; stroke: #800080; stroke-width: 2; stroke-linecap: square"/>
    </g>
    <g id="text_60">
     <!-- γ -->
     <g transform="translate(375.6715 638.940538) scale(0.088 -0.088)">
      <use xlink:href="#DejaVuSans-3b3"/>
     </g>
    </g>
   </g>
  </g>
  <g id="axes_5">
   <g id="matplotlib.axis_9">
    <g id="ytick_21">
     <g id="line2d_73">
      <defs>
       <path id="m7c91da834c" d="M 0 0 
L 4.8 0 
" style="stroke: #000000"/>
      </defs>
      <g>
       <use xlink:href="#m7c91da834c" x="398.8" y="248.306087" style="stroke: #000000"/>
      </g>
     </g>
     <g id="text_61">
      <!-- 0.0 -->
      <g transform="translate(407.1 251.649399) scale(0.088 -0.088)">
       <defs>
        <path id="DejaVuSans-2e" d="M 684 794 
L 1344 794 
L 1344 0 
L 684 0 
L 684 794 
z
" transform="scale(0.015625)"/>
       </defs>
       <use xlink:href="#DejaVuSans-30"/>
       <use xlink:href="#DejaVuSans-2e" x="63.623047"/>
       <use xlink:href="#DejaVuSans-30" x="95.410156"/>
      </g>
     </g>
    </g>
    <g id="ytick_22">
     <g id="line2d_74">
      <g>
       <use xlink:href="#m7c91da834c" x="398.8" y="200.097391" style="stroke: #000000"/>
      </g>
     </g>
     <g id="text_62">
      <!-- 0.25 -->
      <g transform="translate(407.1 203.440704) scale(0.088 -0.088)">
       <use xlink:href="#DejaVuSans-30"/>
       <use xlink:href="#DejaVuSans-2e" x="63.623047"/>
       <use xlink:href="#DejaVuSans-32" x="95.410156"/>
       <use xlink:href="#DejaVuSans-35" x="159.033203"/>
      </g>
     </g>
    </g>
    <g id="ytick_23">
     <g id="line2d_75">
      <g>
       <use xlink:href="#m7c91da834c" x="398.8" y="151.888696" style="stroke: #000000"/>
      </g>
     </g>
     <g id="text_63">
      <!-- 0.5 -->
      <g transform="translate(407.1 155.232008) scale(0.088 -0.088)">
       <use xlink:href="#DejaVuSans-30"/>
       <use xlink:href="#DejaVuSans-2e" x="63.623047"/>
       <use xlink:href="#DejaVuSans-35" x="95.410156"/>
      </g>
     </g>
    </g>
    <g id="ytick_24">
     <g id="line2d_76">
      <g>
       <use xlink:href="#m7c91da834c" x="398.8" y="103.68" style="stroke: #000000"/>
      </g>
     </g>
     <g id="text_64">
      <!-- 0.75 -->
      <g transform="translate(407.1 107.023312) scale(0.088 -0.088)">
       <use xlink:href="#DejaVuSans-30"/>
       <use xlink:href="#DejaVuSans-2e" x="63.623047"/>
       <use xlink:href="#DejaVuSans-37" x="95.410156"/>
       <use xlink:href="#DejaVuSans-35" x="159.033203"/>
      </g>
     </g>
    </g>
   </g>
   <g id="line2d_77">
    <path d="M 54 185.370237 
L 95.85 185.370237 
L 137.7 146.746334 
L 179.55 150.3073 
L 221.4 168.346994 
L 263.25 179.579544 
L 305.1 178.903417 
L 346.95 179.042394 
L 388.8 181.822303 
" clip-path="url(#p3d77e5704a)" style="fill: none; stroke: #008000; stroke-width: 2; stroke-linecap: square"/>
   </g>
   <g id="line2d_78">
    <path d="M 62.37 122.963478 
L 104.22 122.963478 
" clip-path="url(#p3d77e5704a)" style="fill: none; stroke: #008000; stroke-width: 2; stroke-linecap: square"/>
   </g>
   <g id="line2d_79">
    <path d="M 62.37 122.963478 
L 62.37 103.68 
" clip-path="url(#p3d77e5704a)" style="fill: none; stroke: #008000; stroke-width: 2; stroke-linecap: square"/>
   </g>
   <g id="patch_14">
    <path d="M 398.8 248.306087 
L 398.8 103.68 
" style="fill: none; stroke: #000000; stroke-width: 0.5; stroke-linejoin: miter; stroke-linecap: square"/>
   </g>
   <g id="patch_15">
    <path d="M 54 258.306087 
L 388.8 258.306087 
" style="fill: none; stroke: #000000; stroke-width: 0.5; stroke-linejoin: miter; stroke-linecap: square"/>
   </g>
   <g id="legend_5">
    <g id="line2d_80">
     <path d="M 347.66825 115.206625 
L 356.46825 115.206625 
L 365.26825 115.206625 
" style="fill: none; stroke: #008000; stroke-width: 2; stroke-linecap: square"/>
    </g>
    <g id="text_65">
     <!-- m -->
     <g transform="translate(372.30825 118.286625) scale(0.088 -0.088)">
      <defs>
       <path id="DejaVuSans-6d" d="M 3328 2828 
Q 3544 3216 3844 3400 
Q 4144 3584 4550 3584 
Q 5097 3584 5394 3201 
Q 5691 2819 5691 2113 
L 5691 0 
L 5113 0 
L 5113 2094 
Q 5113 2597 4934 2840 
Q 4756 3084 4391 3084 
Q 3944 3084 3684 2787 
Q 3425 2491 3425 1978 
L 3425 0 
L 2847 0 
L 2847 2094 
Q 2847 2600 2669 2842 
Q 2491 3084 2119 3084 
Q 1678 3084 1418 2786 
Q 1159 2488 1159 1978 
L 1159 0 
L 581 0 
L 581 3500 
L 1159 3500 
L 1159 2956 
Q 1356 3278 1631 3431 
Q 1906 3584 2284 3584 
Q 2666 3584 2933 3390 
Q 3200 3197 3328 2828 
z
" transform="scale(0.015625)"/>
      </defs>
      <use xlink:href="#DejaVuSans-6d"/>
     </g>
    </g>
   </g>
  </g>
  <g id="axes_6">
   <g id="matplotlib.axis_10">
    <g id="ytick_25">
     <g id="line2d_81">
      <g>
       <use xlink:href="#m7c91da834c" x="398.8" y="421.857391" style="stroke: #000000"/>
      </g>
     </g>
     <g id="text_66">
      <!-- 0.0 -->
      <g transform="translate(407.1 425.200704) scale(0.088 -0.088)">
       <use xlink:href="#DejaVuSans-30"/>
       <use xlink:href="#DejaVuSans-2e" x="63.623047"/>
       <use xlink:href="#DejaVuSans-30" x="95.410156"/>
      </g>
     </g>
    </g>
    <g id="ytick_26">
     <g id="line2d_82">
      <g>
       <use xlink:href="#m7c91da834c" x="398.8" y="373.648696" style="stroke: #000000"/>
      </g>
     </g>
     <g id="text_67">
      <!-- 0.25 -->
      <g transform="translate(407.1 376.992008) scale(0.088 -0.088)">
       <use xlink:href="#DejaVuSans-30"/>
       <use xlink:href="#DejaVuSans-2e" x="63.623047"/>
       <use xlink:href="#DejaVuSans-32" x="95.410156"/>
       <use xlink:href="#DejaVuSans-35" x="159.033203"/>
      </g>
     </g>
    </g>
    <g id="ytick_27">
     <g id="line2d_83">
      <g>
       <use xlink:href="#m7c91da834c" x="398.8" y="325.44" style="stroke: #000000"/>
      </g>
     </g>
     <g id="text_68">
      <!-- 0.5 -->
      <g transform="translate(407.1 328.783312) scale(0.088 -0.088)">
       <use xlink:href="#DejaVuSans-30"/>
       <use xlink:href="#DejaVuSans-2e" x="63.623047"/>
       <use xlink:href="#DejaVuSans-35" x="95.410156"/>
      </g>
     </g>
    </g>
    <g id="ytick_28">
     <g id="line2d_84">
      <g>
       <use xlink:href="#m7c91da834c" x="398.8" y="277.231304" style="stroke: #000000"/>
      </g>
     </g>
     <g id="text_69">
      <!-- 0.75 -->
      <g transform="translate(407.1 280.574617) scale(0.088 -0.088)">
       <use xlink:href="#DejaVuSans-30"/>
       <use xlink:href="#DejaVuSans-2e" x="63.623047"/>
       <use xlink:href="#DejaVuSans-37" x="95.410156"/>
       <use xlink:href="#DejaVuSans-35" x="159.033203"/>
      </g>
     </g>
    </g>
   </g>
   <g id="line2d_85">
    <path d="M 54 359.45018 
L 95.85 359.45018 
L 137.7 329.225588 
L 179.55 332.465513 
L 221.4 343.40482 
L 263.25 344.573278 
L 305.1 350.920405 
L 346.95 351.136515 
L 388.8 356.850074 
" clip-path="url(#p6875ec4e68)" style="fill: none; stroke: #008000; stroke-width: 2; stroke-linecap: square"/>
   </g>
   <g id="line2d_86">
    <path d="M 62.37 296.514783 
L 104.22 296.514783 
" clip-path="url(#p6875ec4e68)" style="fill: none; stroke: #008000; stroke-width: 2; stroke-linecap: square"/>
   </g>
   <g id="line2d_87">
    <path d="M 62.37 296.514783 
L 62.37 277.231304 
" clip-path="url(#p6875ec4e68)" style="fill: none; stroke: #008000; stroke-width: 2; stroke-linecap: square"/>
   </g>
   <g id="patch_16">
    <path d="M 398.8 421.857391 
L 398.8 277.231304 
" style="fill: none; stroke: #000000; stroke-width: 0.5; stroke-linejoin: miter; stroke-linecap: square"/>
   </g>
   <g id="patch_17">
    <path d="M 54 431.857391 
L 388.8 431.857391 
" style="fill: none; stroke: #000000; stroke-width: 0.5; stroke-linejoin: miter; stroke-linecap: square"/>
   </g>
   <g id="legend_6">
    <g id="line2d_88">
     <path d="M 347.66825 288.757929 
L 356.46825 288.757929 
L 365.26825 288.757929 
" style="fill: none; stroke: #008000; stroke-width: 2; stroke-linecap: square"/>
    </g>
    <g id="text_70">
     <!-- m -->
     <g transform="translate(372.30825 291.837929) scale(0.088 -0.088)">
      <use xlink:href="#DejaVuSans-6d"/>
     </g>
    </g>
   </g>
  </g>
  <g id="axes_7">
   <g id="matplotlib.axis_11">
    <g id="ytick_29">
     <g id="line2d_89">
      <g>
       <use xlink:href="#m7c91da834c" x="398.8" y="595.408696" style="stroke: #000000"/>
      </g>
     </g>
     <g id="text_71">
      <!-- 0.0 -->
      <g transform="translate(407.1 598.752008) scale(0.088 -0.088)">
       <use xlink:href="#DejaVuSans-30"/>
       <use xlink:href="#DejaVuSans-2e" x="63.623047"/>
       <use xlink:href="#DejaVuSans-30" x="95.410156"/>
      </g>
     </g>
    </g>
    <g id="ytick_30">
     <g id="line2d_90">
      <g>
       <use xlink:href="#m7c91da834c" x="398.8" y="547.2" style="stroke: #000000"/>
      </g>
     </g>
     <g id="text_72">
      <!-- 0.25 -->
      <g transform="translate(407.1 550.543313) scale(0.088 -0.088)">
       <use xlink:href="#DejaVuSans-30"/>
       <use xlink:href="#DejaVuSans-2e" x="63.623047"/>
       <use xlink:href="#DejaVuSans-32" x="95.410156"/>
       <use xlink:href="#DejaVuSans-35" x="159.033203"/>
      </g>
     </g>
    </g>
    <g id="ytick_31">
     <g id="line2d_91">
      <g>
       <use xlink:href="#m7c91da834c" x="398.8" y="498.991304" style="stroke: #000000"/>
      </g>
     </g>
     <g id="text_73">
      <!-- 0.5 -->
      <g transform="translate(407.1 502.334617) scale(0.088 -0.088)">
       <use xlink:href="#DejaVuSans-30"/>
       <use xlink:href="#DejaVuSans-2e" x="63.623047"/>
       <use xlink:href="#DejaVuSans-35" x="95.410156"/>
      </g>
     </g>
    </g>
    <g id="ytick_32">
     <g id="line2d_92">
      <g>
       <use xlink:href="#m7c91da834c" x="398.8" y="450.782609" style="stroke: #000000"/>
      </g>
     </g>
     <g id="text_74">
      <!-- 0.75 -->
      <g transform="translate(407.1 454.125921) scale(0.088 -0.088)">
       <use xlink:href="#DejaVuSans-30"/>
       <use xlink:href="#DejaVuSans-2e" x="63.623047"/>
       <use xlink:href="#DejaVuSans-37" x="95.410156"/>
       <use xlink:href="#DejaVuSans-35" x="159.033203"/>
      </g>
     </g>
    </g>
   </g>
   <g id="line2d_93">
    <path d="M 54 535.599331 
L 95.85 535.599331 
L 137.7 491.760452 
L 179.55 490.855183 
L 221.4 495.451882 
L 263.25 511.946487 
L 305.1 517.991858 
L 346.95 522.126281 
L 388.8 531.126844 
" clip-path="url(#p89afd9e92f)" style="fill: none; stroke: #008000; stroke-width: 2; stroke-linecap: square"/>
   </g>
   <g id="line2d_94">
    <path d="M 62.37 470.066087 
L 104.22 470.066087 
" clip-path="url(#p89afd9e92f)" style="fill: none; stroke: #008000; stroke-width: 2; stroke-linecap: square"/>
   </g>
   <g id="line2d_95">
    <path d="M 62.37 470.066087 
L 62.37 450.782609 
" clip-path="url(#p89afd9e92f)" style="fill: none; stroke: #008000; stroke-width: 2; stroke-linecap: square"/>
   </g>
   <g id="patch_18">
    <path d="M 398.8 595.408696 
L 398.8 450.782609 
" style="fill: none; stroke: #000000; stroke-width: 0.5; stroke-linejoin: miter; stroke-linecap: square"/>
   </g>
   <g id="patch_19">
    <path d="M 54 605.408696 
L 388.8 605.408696 
" style="fill: none; stroke: #000000; stroke-width: 0.5; stroke-linejoin: miter; stroke-linecap: square"/>
   </g>
   <g id="legend_7">
    <g id="line2d_96">
     <path d="M 347.66825 462.309234 
L 356.46825 462.309234 
L 365.26825 462.309234 
" style="fill: none; stroke: #008000; stroke-width: 2; stroke-linecap: square"/>
    </g>
    <g id="text_75">
     <!-- m -->
     <g transform="translate(372.30825 465.389234) scale(0.088 -0.088)">
      <use xlink:href="#DejaVuSans-6d"/>
     </g>
    </g>
   </g>
  </g>
  <g id="axes_8">
   <g id="matplotlib.axis_12">
    <g id="ytick_33">
     <g id="line2d_97">
      <g>
       <use xlink:href="#m7c91da834c" x="398.8" y="768.96" style="stroke: #000000"/>
      </g>
     </g>
     <g id="text_76">
      <!-- 0.0 -->
      <g transform="translate(407.1 772.303312) scale(0.088 -0.088)">
       <use xlink:href="#DejaVuSans-30"/>
       <use xlink:href="#DejaVuSans-2e" x="63.623047"/>
       <use xlink:href="#DejaVuSans-30" x="95.410156"/>
      </g>
     </g>
    </g>
    <g id="ytick_34">
     <g id="line2d_98">
      <g>
       <use xlink:href="#m7c91da834c" x="398.8" y="720.751304" style="stroke: #000000"/>
      </g>
     </g>
     <g id="text_77">
      <!-- 0.25 -->
      <g transform="translate(407.1 724.094617) scale(0.088 -0.088)">
       <use xlink:href="#DejaVuSans-30"/>
       <use xlink:href="#DejaVuSans-2e" x="63.623047"/>
       <use xlink:href="#DejaVuSans-32" x="95.410156"/>
       <use xlink:href="#DejaVuSans-35" x="159.033203"/>
      </g>
     </g>
    </g>
    <g id="ytick_35">
     <g id="line2d_99">
      <g>
       <use xlink:href="#m7c91da834c" x="398.8" y="672.542609" style="stroke: #000000"/>
      </g>
     </g>
     <g id="text_78">
      <!-- 0.5 -->
      <g transform="translate(407.1 675.885921) scale(0.088 -0.088)">
       <use xlink:href="#DejaVuSans-30"/>
       <use xlink:href="#DejaVuSans-2e" x="63.623047"/>
       <use xlink:href="#DejaVuSans-35" x="95.410156"/>
      </g>
     </g>
    </g>
    <g id="ytick_36">
     <g id="line2d_100">
      <g>
       <use xlink:href="#m7c91da834c" x="398.8" y="624.333913" style="stroke: #000000"/>
      </g>
     </g>
     <g id="text_79">
      <!-- 0.75 -->
      <g transform="translate(407.1 627.677226) scale(0.088 -0.088)">
       <use xlink:href="#DejaVuSans-30"/>
       <use xlink:href="#DejaVuSans-2e" x="63.623047"/>
       <use xlink:href="#DejaVuSans-37" x="95.410156"/>
       <use xlink:href="#DejaVuSans-35" x="159.033203"/>
      </g>
     </g>
    </g>
   </g>
   <g id="line2d_101">
    <path d="M 54 696.403051 
L 95.85 696.403051 
L 137.7 640.019667 
L 179.55 647.571559 
L 221.4 655.622034 
L 263.25 664.719015 
L 305.1 675.292463 
L 346.95 683.597616 
L 388.8 692.213037 
" clip-path="url(#p8eb61d0aaa)" style="fill: none; stroke: #008000; stroke-width: 2; stroke-linecap: square"/>
   </g>
   <g id="line2d_102">
    <path d="M 62.37 643.617391 
L 104.22 643.617391 
" clip-path="url(#p8eb61d0aaa)" style="fill: none; stroke: #008000; stroke-width: 2; stroke-linecap: square"/>
   </g>
   <g id="line2d_103">
    <path d="M 62.37 643.617391 
L 62.37 624.333913 
" clip-path="url(#p8eb61d0aaa)" style="fill: none; stroke: #008000; stroke-width: 2; stroke-linecap: square"/>
   </g>
   <g id="patch_20">
    <path d="M 398.8 768.96 
L 398.8 624.333913 
" style="fill: none; stroke: #000000; stroke-width: 0.5; stroke-linejoin: miter; stroke-linecap: square"/>
   </g>
   <g id="patch_21">
    <path d="M 54 778.96 
L 388.8 778.96 
" style="fill: none; stroke: #000000; stroke-width: 0.5; stroke-linejoin: miter; stroke-linecap: square"/>
   </g>
   <g id="legend_8">
    <g id="line2d_104">
     <path d="M 347.66825 635.860538 
L 356.46825 635.860538 
L 365.26825 635.860538 
" style="fill: none; stroke: #008000; stroke-width: 2; stroke-linecap: square"/>
    </g>
    <g id="text_80">
     <!-- m -->
     <g transform="translate(372.30825 638.940538) scale(0.088 -0.088)">
      <use xlink:href="#DejaVuSans-6d"/>
     </g>
    </g>
   </g>
  </g>
 </g>
 <defs>
  <clipPath id="p3d77e5704a">
   <rect x="54" y="103.68" width="334.8" height="144.626087"/>
  </clipPath>
  <clipPath id="p6875ec4e68">
   <rect x="54" y="277.231304" width="334.8" height="144.626087"/>
  </clipPath>
  <clipPath id="p89afd9e92f">
   <rect x="54" y="450.782609" width="334.8" height="144.626087"/>
  </clipPath>
  <clipPath id="p8eb61d0aaa">
   <rect x="54" y="624.333913" width="334.8" height="144.626087"/>
  </clipPath>
 </defs>
</svg>
