<?xml version="1.0" encoding="utf-8" standalone="no"?>
<!DOCTYPE svg PUBLIC "-//W3C//DTD SVG 1.1//EN"
  "http://www.w3.org/Graphics/SVG/1.1/DTD/svg11.dtd">
<svg xmlns:xlink="http://www.w3.org/1999/xlink" width="720pt" height="432pt" viewBox="0 0 720 432" xmlns="http://www.w3.org/2000/svg" version="1.1">
 <metadata>
  <rdf:RDF xmlns:dc="http://purl.org/dc/elements/1.1/" xmlns:cc="http://creativecommons.org/ns#" xmlns:rdf="http://www.w3.org/1999/02/22-rdf-syntax-ns#">
   <cc:Work>
    <dc:type rdf:resource="http://purl.org/dc/dcmitype/StillImage"/>
    <dc:date>2024-08-31T21:49:14.867851</dc:date>
    <dc:format>image/svg+xml</dc:format>
    <dc:creator>
     <cc:Agent>
      <dc:title>Matplotlib v3.8.1, https://matplotlib.org/</dc:title>
     </cc:Agent>
    </dc:creator>
   </cc:Work>
  </rdf:RDF>
 </metadata>
 <defs>
  <style type="text/css">*{stroke-linejoin: round; stroke-linecap: butt}</style>
 </defs>
 <g id="figure_1">
  <g id="patch_1">
   <path d="M 0 432 
L 720 432 
L 720 0 
L 0 0 
z
" style="fill: #ffffff"/>
  </g>
  <g id="axes_1">
   <g id="patch_2">
    <path d="M 90 384.48 
L 648 384.48 
L 648 51.84 
L 90 51.84 
z
" style="fill: #ffffff"/>
   </g>
   <g id="matplotlib.axis_1">
    <g id="xtick_1">
     <g id="line2d_1">
      <path d="M 171.727273 384.48 
L 171.727273 51.84 
" clip-path="url(#pb5dffb5b79)" style="fill: none; stroke: #b0b0b0; stroke-width: 0.8; stroke-linecap: square"/>
     </g>
     <g id="line2d_2">
      <defs>
       <path id="m2ecd3c6ae8" d="M 0 0 
L 0 3.5 
" style="stroke: #000000; stroke-width: 0.8"/>
      </defs>
      <g>
       <use xlink:href="#m2ecd3c6ae8" x="171.727273" y="384.48" style="stroke: #000000; stroke-width: 0.8"/>
      </g>
     </g>
     <g id="text_1">
      <text style="font: 12px 'Arial'; text-anchor: middle" x="171.727273" y="400.069375" transform="rotate(-0 171.727273 400.069375)">2</text>
     </g>
    </g>
    <g id="xtick_2">
     <g id="line2d_3">
      <path d="M 284.454545 384.48 
L 284.454545 51.84 
" clip-path="url(#pb5dffb5b79)" style="fill: none; stroke: #b0b0b0; stroke-width: 0.8; stroke-linecap: square"/>
     </g>
     <g id="line2d_4">
      <g>
       <use xlink:href="#m2ecd3c6ae8" x="284.454545" y="384.48" style="stroke: #000000; stroke-width: 0.8"/>
      </g>
     </g>
     <g id="text_2">
      <text style="font: 12px 'Arial'; text-anchor: middle" x="284.454545" y="400.069375" transform="rotate(-0 284.454545 400.069375)">4</text>
     </g>
    </g>
    <g id="xtick_3">
     <g id="line2d_5">
      <path d="M 397.181818 384.48 
L 397.181818 51.84 
" clip-path="url(#pb5dffb5b79)" style="fill: none; stroke: #b0b0b0; stroke-width: 0.8; stroke-linecap: square"/>
     </g>
     <g id="line2d_6">
      <g>
       <use xlink:href="#m2ecd3c6ae8" x="397.181818" y="384.48" style="stroke: #000000; stroke-width: 0.8"/>
      </g>
     </g>
     <g id="text_3">
      <text style="font: 12px 'Arial'; text-anchor: middle" x="397.181818" y="400.069375" transform="rotate(-0 397.181818 400.069375)">6</text>
     </g>
    </g>
    <g id="xtick_4">
     <g id="line2d_7">
      <path d="M 509.909091 384.48 
L 509.909091 51.84 
" clip-path="url(#pb5dffb5b79)" style="fill: none; stroke: #b0b0b0; stroke-width: 0.8; stroke-linecap: square"/>
     </g>
     <g id="line2d_8">
      <g>
       <use xlink:href="#m2ecd3c6ae8" x="509.909091" y="384.48" style="stroke: #000000; stroke-width: 0.8"/>
      </g>
     </g>
     <g id="text_4">
      <text style="font: 12px 'Arial'; text-anchor: middle" x="509.909091" y="400.069375" transform="rotate(-0 509.909091 400.069375)">8</text>
     </g>
    </g>
    <g id="xtick_5">
     <g id="line2d_9">
      <path d="M 622.636364 384.48 
L 622.636364 51.84 
" clip-path="url(#pb5dffb5b79)" style="fill: none; stroke: #b0b0b0; stroke-width: 0.8; stroke-linecap: square"/>
     </g>
     <g id="line2d_10">
      <g>
       <use xlink:href="#m2ecd3c6ae8" x="622.636364" y="384.48" style="stroke: #000000; stroke-width: 0.8"/>
      </g>
     </g>
     <g id="text_5">
      <text style="font: 12px 'Arial'; text-anchor: middle" x="622.636364" y="400.069375" transform="rotate(-0 622.636364 400.069375)">10</text>
     </g>
    </g>
    <g id="text_6">
     <text style="font: 12px 'Arial'; text-anchor: middle" x="369" y="415.04375" transform="rotate(-0 369 415.04375)">Pulse</text>
    </g>
   </g>
   <g id="matplotlib.axis_2">
    <g id="ytick_1">
     <g id="line2d_11">
      <path d="M 90 344.499963 
L 648 344.499963 
" clip-path="url(#pb5dffb5b79)" style="fill: none; stroke: #b0b0b0; stroke-width: 0.8; stroke-linecap: square"/>
     </g>
     <g id="line2d_12">
      <defs>
       <path id="m81e4d6234d" d="M 0 0 
L -3.5 0 
" style="stroke: #000000; stroke-width: 0.8"/>
      </defs>
      <g>
       <use xlink:href="#m81e4d6234d" x="90" y="344.499963" style="stroke: #000000; stroke-width: 0.8"/>
      </g>
     </g>
     <g id="text_7">
      <text style="font: 12px 'Arial'; text-anchor: end" x="83" y="348.794651" transform="rotate(-0 83 348.794651)">50</text>
     </g>
    </g>
    <g id="ytick_2">
     <g id="line2d_13">
      <path d="M 90 303.555876 
L 648 303.555876 
" clip-path="url(#pb5dffb5b79)" style="fill: none; stroke: #b0b0b0; stroke-width: 0.8; stroke-linecap: square"/>
     </g>
     <g id="line2d_14">
      <g>
       <use xlink:href="#m81e4d6234d" x="90" y="303.555876" style="stroke: #000000; stroke-width: 0.8"/>
      </g>
     </g>
     <g id="text_8">
      <text style="font: 12px 'Arial'; text-anchor: end" x="83" y="307.850563" transform="rotate(-0 83 307.850563)">75</text>
     </g>
    </g>
    <g id="ytick_3">
     <g id="line2d_15">
      <path d="M 90 262.611788 
L 648 262.611788 
" clip-path="url(#pb5dffb5b79)" style="fill: none; stroke: #b0b0b0; stroke-width: 0.8; stroke-linecap: square"/>
     </g>
     <g id="line2d_16">
      <g>
       <use xlink:href="#m81e4d6234d" x="90" y="262.611788" style="stroke: #000000; stroke-width: 0.8"/>
      </g>
     </g>
     <g id="text_9">
      <text style="font: 12px 'Arial'; text-anchor: end" x="83" y="266.906476" transform="rotate(-0 83 266.906476)">100</text>
     </g>
    </g>
    <g id="ytick_4">
     <g id="line2d_17">
      <path d="M 90 221.667701 
L 648 221.667701 
" clip-path="url(#pb5dffb5b79)" style="fill: none; stroke: #b0b0b0; stroke-width: 0.8; stroke-linecap: square"/>
     </g>
     <g id="line2d_18">
      <g>
       <use xlink:href="#m81e4d6234d" x="90" y="221.667701" style="stroke: #000000; stroke-width: 0.8"/>
      </g>
     </g>
     <g id="text_10">
      <text style="font: 12px 'Arial'; text-anchor: end" x="83" y="225.962388" transform="rotate(-0 83 225.962388)">125</text>
     </g>
    </g>
    <g id="ytick_5">
     <g id="line2d_19">
      <path d="M 90 180.723613 
L 648 180.723613 
" clip-path="url(#pb5dffb5b79)" style="fill: none; stroke: #b0b0b0; stroke-width: 0.8; stroke-linecap: square"/>
     </g>
     <g id="line2d_20">
      <g>
       <use xlink:href="#m81e4d6234d" x="90" y="180.723613" style="stroke: #000000; stroke-width: 0.8"/>
      </g>
     </g>
     <g id="text_11">
      <text style="font: 12px 'Arial'; text-anchor: end" x="83" y="185.018301" transform="rotate(-0 83 185.018301)">150</text>
     </g>
    </g>
    <g id="ytick_6">
     <g id="line2d_21">
      <path d="M 90 139.779526 
L 648 139.779526 
" clip-path="url(#pb5dffb5b79)" style="fill: none; stroke: #b0b0b0; stroke-width: 0.8; stroke-linecap: square"/>
     </g>
     <g id="line2d_22">
      <g>
       <use xlink:href="#m81e4d6234d" x="90" y="139.779526" style="stroke: #000000; stroke-width: 0.8"/>
      </g>
     </g>
     <g id="text_12">
      <text style="font: 12px 'Arial'; text-anchor: end" x="83" y="144.074213" transform="rotate(-0 83 144.074213)">175</text>
     </g>
    </g>
    <g id="ytick_7">
     <g id="line2d_23">
      <path d="M 90 98.835438 
L 648 98.835438 
" clip-path="url(#pb5dffb5b79)" style="fill: none; stroke: #b0b0b0; stroke-width: 0.8; stroke-linecap: square"/>
     </g>
     <g id="line2d_24">
      <g>
       <use xlink:href="#m81e4d6234d" x="90" y="98.835438" style="stroke: #000000; stroke-width: 0.8"/>
      </g>
     </g>
     <g id="text_13">
      <text style="font: 12px 'Arial'; text-anchor: end" x="83" y="103.130126" transform="rotate(-0 83 103.130126)">200</text>
     </g>
    </g>
    <g id="ytick_8">
     <g id="line2d_25">
      <path d="M 90 57.89135 
L 648 57.89135 
" clip-path="url(#pb5dffb5b79)" style="fill: none; stroke: #b0b0b0; stroke-width: 0.8; stroke-linecap: square"/>
     </g>
     <g id="line2d_26">
      <g>
       <use xlink:href="#m81e4d6234d" x="90" y="57.89135" style="stroke: #000000; stroke-width: 0.8"/>
      </g>
     </g>
     <g id="text_14">
      <text style="font: 12px 'Arial'; text-anchor: end" x="83" y="62.186038" transform="rotate(-0 83 62.186038)">225</text>
     </g>
    </g>
    <g id="text_15">
     <text style="font: 12px 'Arial'; text-anchor: middle" x="56.595625" y="218.16" transform="rotate(-90 56.595625 218.16)">Predicted Peak Response</text>
    </g>
   </g>
   <g id="line2d_27">
    <path d="M 115.363636 330.287329 
L 171.727273 335.894764 
L 228.090909 339.102535 
L 284.454545 340.348742 
L 340.818182 340.071483 
L 397.181818 338.708857 
L 453.545455 336.698964 
L 509.909091 334.479901 
L 566.272727 332.489769 
L 622.636364 331.166665 
" clip-path="url(#pb5dffb5b79)" style="fill: none; stroke: #1f77b4; stroke-width: 1.5; stroke-linecap: square"/>
    <defs>
     <path id="mf0cdee9df2" d="M 0 3 
C 0.795609 3 1.55874 2.683901 2.12132 2.12132 
C 2.683901 1.55874 3 0.795609 3 0 
C 3 -0.795609 2.683901 -1.55874 2.12132 -2.12132 
C 1.55874 -2.683901 0.795609 -3 0 -3 
C -0.795609 -3 -1.55874 -2.683901 -2.12132 -2.12132 
C -2.683901 -1.55874 -3 -0.795609 -3 0 
C -3 0.795609 -2.683901 1.55874 -2.12132 2.12132 
C -1.55874 2.683901 -0.795609 3 0 3 
z
" style="stroke: #1f77b4"/>
    </defs>
    <g clip-path="url(#pb5dffb5b79)">
     <use xlink:href="#mf0cdee9df2" x="115.363636" y="330.287329" style="fill: #1f77b4; stroke: #1f77b4"/>
     <use xlink:href="#mf0cdee9df2" x="171.727273" y="335.894764" style="fill: #1f77b4; stroke: #1f77b4"/>
     <use xlink:href="#mf0cdee9df2" x="228.090909" y="339.102535" style="fill: #1f77b4; stroke: #1f77b4"/>
     <use xlink:href="#mf0cdee9df2" x="284.454545" y="340.348742" style="fill: #1f77b4; stroke: #1f77b4"/>
     <use xlink:href="#mf0cdee9df2" x="340.818182" y="340.071483" style="fill: #1f77b4; stroke: #1f77b4"/>
     <use xlink:href="#mf0cdee9df2" x="397.181818" y="338.708857" style="fill: #1f77b4; stroke: #1f77b4"/>
     <use xlink:href="#mf0cdee9df2" x="453.545455" y="336.698964" style="fill: #1f77b4; stroke: #1f77b4"/>
     <use xlink:href="#mf0cdee9df2" x="509.909091" y="334.479901" style="fill: #1f77b4; stroke: #1f77b4"/>
     <use xlink:href="#mf0cdee9df2" x="566.272727" y="332.489769" style="fill: #1f77b4; stroke: #1f77b4"/>
     <use xlink:href="#mf0cdee9df2" x="622.636364" y="331.166665" style="fill: #1f77b4; stroke: #1f77b4"/>
    </g>
   </g>
   <g id="line2d_28">
    <path d="M 115.363636 325.10072 
L 171.727273 333.012643 
L 228.090909 338.110097 
L 284.454545 341.009385 
L 340.818182 342.326806 
L 397.181818 342.678663 
L 453.545455 342.681257 
L 509.909091 342.950888 
L 566.272727 344.103857 
L 622.636364 346.756467 
" clip-path="url(#pb5dffb5b79)" style="fill: none; stroke: #ff7f0e; stroke-width: 1.5; stroke-linecap: square"/>
    <defs>
     <path id="m035c45d990" d="M 0 3 
C 0.795609 3 1.55874 2.683901 2.12132 2.12132 
C 2.683901 1.55874 3 0.795609 3 0 
C 3 -0.795609 2.683901 -1.55874 2.12132 -2.12132 
C 1.55874 -2.683901 0.795609 -3 0 -3 
C -0.795609 -3 -1.55874 -2.683901 -2.12132 -2.12132 
C -2.683901 -1.55874 -3 -0.795609 -3 0 
C -3 0.795609 -2.683901 1.55874 -2.12132 2.12132 
C -1.55874 2.683901 -0.795609 3 0 3 
z
" style="stroke: #ff7f0e"/>
    </defs>
    <g clip-path="url(#pb5dffb5b79)">
     <use xlink:href="#m035c45d990" x="115.363636" y="325.10072" style="fill: #ff7f0e; stroke: #ff7f0e"/>
     <use xlink:href="#m035c45d990" x="171.727273" y="333.012643" style="fill: #ff7f0e; stroke: #ff7f0e"/>
     <use xlink:href="#m035c45d990" x="228.090909" y="338.110097" style="fill: #ff7f0e; stroke: #ff7f0e"/>
     <use xlink:href="#m035c45d990" x="284.454545" y="341.009385" style="fill: #ff7f0e; stroke: #ff7f0e"/>
     <use xlink:href="#m035c45d990" x="340.818182" y="342.326806" style="fill: #ff7f0e; stroke: #ff7f0e"/>
     <use xlink:href="#m035c45d990" x="397.181818" y="342.678663" style="fill: #ff7f0e; stroke: #ff7f0e"/>
     <use xlink:href="#m035c45d990" x="453.545455" y="342.681257" style="fill: #ff7f0e; stroke: #ff7f0e"/>
     <use xlink:href="#m035c45d990" x="509.909091" y="342.950888" style="fill: #ff7f0e; stroke: #ff7f0e"/>
     <use xlink:href="#m035c45d990" x="566.272727" y="344.103857" style="fill: #ff7f0e; stroke: #ff7f0e"/>
     <use xlink:href="#m035c45d990" x="622.636364" y="346.756467" style="fill: #ff7f0e; stroke: #ff7f0e"/>
    </g>
   </g>
   <g id="line2d_29">
    <path d="M 115.363636 321.120255 
L 171.727273 331.964638 
L 228.090909 339.304933 
L 284.454545 343.954369 
L 340.818182 346.726179 
L 397.181818 348.433591 
L 453.545455 349.889837 
L 509.909091 351.908148 
L 566.272727 355.301753 
L 622.636364 360.883884 
" clip-path="url(#pb5dffb5b79)" style="fill: none; stroke: #2ca02c; stroke-width: 1.5; stroke-linecap: square"/>
    <defs>
     <path id="m28b0e592fc" d="M 0 3 
C 0.795609 3 1.55874 2.683901 2.12132 2.12132 
C 2.683901 1.55874 3 0.795609 3 0 
C 3 -0.795609 2.683901 -1.55874 2.12132 -2.12132 
C 1.55874 -2.683901 0.795609 -3 0 -3 
C -0.795609 -3 -1.55874 -2.683901 -2.12132 -2.12132 
C -2.683901 -1.55874 -3 -0.795609 -3 0 
C -3 0.795609 -2.683901 1.55874 -2.12132 2.12132 
C -1.55874 2.683901 -0.795609 3 0 3 
z
" style="stroke: #2ca02c"/>
    </defs>
    <g clip-path="url(#pb5dffb5b79)">
     <use xlink:href="#m28b0e592fc" x="115.363636" y="321.120255" style="fill: #2ca02c; stroke: #2ca02c"/>
     <use xlink:href="#m28b0e592fc" x="171.727273" y="331.964638" style="fill: #2ca02c; stroke: #2ca02c"/>
     <use xlink:href="#m28b0e592fc" x="228.090909" y="339.304933" style="fill: #2ca02c; stroke: #2ca02c"/>
     <use xlink:href="#m28b0e592fc" x="284.454545" y="343.954369" style="fill: #2ca02c; stroke: #2ca02c"/>
     <use xlink:href="#m28b0e592fc" x="340.818182" y="346.726179" style="fill: #2ca02c; stroke: #2ca02c"/>
     <use xlink:href="#m28b0e592fc" x="397.181818" y="348.433591" style="fill: #2ca02c; stroke: #2ca02c"/>
     <use xlink:href="#m28b0e592fc" x="453.545455" y="349.889837" style="fill: #2ca02c; stroke: #2ca02c"/>
     <use xlink:href="#m28b0e592fc" x="509.909091" y="351.908148" style="fill: #2ca02c; stroke: #2ca02c"/>
     <use xlink:href="#m28b0e592fc" x="566.272727" y="355.301753" style="fill: #2ca02c; stroke: #2ca02c"/>
     <use xlink:href="#m28b0e592fc" x="622.636364" y="360.883884" style="fill: #2ca02c; stroke: #2ca02c"/>
    </g>
   </g>
   <g id="line2d_30">
    <path d="M 115.363636 317.22431 
L 171.727273 331.534092 
L 228.090909 341.315513 
L 284.454545 347.596772 
L 340.818182 351.406066 
L 397.181818 353.771594 
L 453.545455 355.721553 
L 509.909091 358.284142 
L 566.272727 362.487558 
L 622.636364 369.36 
" clip-path="url(#pb5dffb5b79)" style="fill: none; stroke: #d62728; stroke-width: 1.5; stroke-linecap: square"/>
    <defs>
     <path id="m08dc0282ea" d="M 0 3 
C 0.795609 3 1.55874 2.683901 2.12132 2.12132 
C 2.683901 1.55874 3 0.795609 3 0 
C 3 -0.795609 2.683901 -1.55874 2.12132 -2.12132 
C 1.55874 -2.683901 0.795609 -3 0 -3 
C -0.795609 -3 -1.55874 -2.683901 -2.12132 -2.12132 
C -2.683901 -1.55874 -3 -0.795609 -3 0 
C -3 0.795609 -2.683901 1.55874 -2.12132 2.12132 
C -1.55874 2.683901 -0.795609 3 0 3 
z
" style="stroke: #d62728"/>
    </defs>
    <g clip-path="url(#pb5dffb5b79)">
     <use xlink:href="#m08dc0282ea" x="115.363636" y="317.22431" style="fill: #d62728; stroke: #d62728"/>
     <use xlink:href="#m08dc0282ea" x="171.727273" y="331.534092" style="fill: #d62728; stroke: #d62728"/>
     <use xlink:href="#m08dc0282ea" x="228.090909" y="341.315513" style="fill: #d62728; stroke: #d62728"/>
     <use xlink:href="#m08dc0282ea" x="284.454545" y="347.596772" style="fill: #d62728; stroke: #d62728"/>
     <use xlink:href="#m08dc0282ea" x="340.818182" y="351.406066" style="fill: #d62728; stroke: #d62728"/>
     <use xlink:href="#m08dc0282ea" x="397.181818" y="353.771594" style="fill: #d62728; stroke: #d62728"/>
     <use xlink:href="#m08dc0282ea" x="453.545455" y="355.721553" style="fill: #d62728; stroke: #d62728"/>
     <use xlink:href="#m08dc0282ea" x="509.909091" y="358.284142" style="fill: #d62728; stroke: #d62728"/>
     <use xlink:href="#m08dc0282ea" x="566.272727" y="362.487558" style="fill: #d62728; stroke: #d62728"/>
     <use xlink:href="#m08dc0282ea" x="622.636364" y="369.36" style="fill: #d62728; stroke: #d62728"/>
    </g>
   </g>
   <g id="line2d_31">
    <path d="M 115.363636 312.291257 
L 171.727273 330.504344 
L 228.090909 342.77031 
L 284.454545 350.349669 
L 340.818182 354.502936 
L 397.181818 356.490625 
L 453.545455 357.573252 
L 509.909091 359.01133 
L 566.272727 362.065373 
L 622.636364 367.995897 
" clip-path="url(#pb5dffb5b79)" style="fill: none; stroke: #9467bd; stroke-width: 1.5; stroke-linecap: square"/>
    <defs>
     <path id="m027193ff5b" d="M 0 3 
C 0.795609 3 1.55874 2.683901 2.12132 2.12132 
C 2.683901 1.55874 3 0.795609 3 0 
C 3 -0.795609 2.683901 -1.55874 2.12132 -2.12132 
C 1.55874 -2.683901 0.795609 -3 0 -3 
C -0.795609 -3 -1.55874 -2.683901 -2.12132 -2.12132 
C -2.683901 -1.55874 -3 -0.795609 -3 0 
C -3 0.795609 -2.683901 1.55874 -2.12132 2.12132 
C -1.55874 2.683901 -0.795609 3 0 3 
z
" style="stroke: #9467bd"/>
    </defs>
    <g clip-path="url(#pb5dffb5b79)">
     <use xlink:href="#m027193ff5b" x="115.363636" y="312.291257" style="fill: #9467bd; stroke: #9467bd"/>
     <use xlink:href="#m027193ff5b" x="171.727273" y="330.504344" style="fill: #9467bd; stroke: #9467bd"/>
     <use xlink:href="#m027193ff5b" x="228.090909" y="342.77031" style="fill: #9467bd; stroke: #9467bd"/>
     <use xlink:href="#m027193ff5b" x="284.454545" y="350.349669" style="fill: #9467bd; stroke: #9467bd"/>
     <use xlink:href="#m027193ff5b" x="340.818182" y="354.502936" style="fill: #9467bd; stroke: #9467bd"/>
     <use xlink:href="#m027193ff5b" x="397.181818" y="356.490625" style="fill: #9467bd; stroke: #9467bd"/>
     <use xlink:href="#m027193ff5b" x="453.545455" y="357.573252" style="fill: #9467bd; stroke: #9467bd"/>
     <use xlink:href="#m027193ff5b" x="509.909091" y="359.01133" style="fill: #9467bd; stroke: #9467bd"/>
     <use xlink:href="#m027193ff5b" x="566.272727" y="362.065373" style="fill: #9467bd; stroke: #9467bd"/>
     <use xlink:href="#m027193ff5b" x="622.636364" y="367.995897" style="fill: #9467bd; stroke: #9467bd"/>
    </g>
   </g>
   <g id="line2d_32">
    <path d="M 115.363636 232.812463 
L 171.727273 273.784507 
L 228.090909 293.704026 
L 284.454545 295.229235 
L 340.818182 281.018349 
L 397.181818 253.729582 
L 453.545455 216.02115 
L 509.909091 170.551265 
L 566.272727 119.978144 
L 622.636364 66.96 
" clip-path="url(#pb5dffb5b79)" style="fill: none; stroke: #8c564b; stroke-width: 1.5; stroke-linecap: square"/>
    <defs>
     <path id="mefcfd9c1b5" d="M 0 3 
C 0.795609 3 1.55874 2.683901 2.12132 2.12132 
C 2.683901 1.55874 3 0.795609 3 0 
C 3 -0.795609 2.683901 -1.55874 2.12132 -2.12132 
C 1.55874 -2.683901 0.795609 -3 0 -3 
C -0.795609 -3 -1.55874 -2.683901 -2.12132 -2.12132 
C -2.683901 -1.55874 -3 -0.795609 -3 0 
C -3 0.795609 -2.683901 1.55874 -2.12132 2.12132 
C -1.55874 2.683901 -0.795609 3 0 3 
z
" style="stroke: #8c564b"/>
    </defs>
    <g clip-path="url(#pb5dffb5b79)">
     <use xlink:href="#mefcfd9c1b5" x="115.363636" y="232.812463" style="fill: #8c564b; stroke: #8c564b"/>
     <use xlink:href="#mefcfd9c1b5" x="171.727273" y="273.784507" style="fill: #8c564b; stroke: #8c564b"/>
     <use xlink:href="#mefcfd9c1b5" x="228.090909" y="293.704026" style="fill: #8c564b; stroke: #8c564b"/>
     <use xlink:href="#mefcfd9c1b5" x="284.454545" y="295.229235" style="fill: #8c564b; stroke: #8c564b"/>
     <use xlink:href="#mefcfd9c1b5" x="340.818182" y="281.018349" style="fill: #8c564b; stroke: #8c564b"/>
     <use xlink:href="#mefcfd9c1b5" x="397.181818" y="253.729582" style="fill: #8c564b; stroke: #8c564b"/>
     <use xlink:href="#mefcfd9c1b5" x="453.545455" y="216.02115" style="fill: #8c564b; stroke: #8c564b"/>
     <use xlink:href="#mefcfd9c1b5" x="509.909091" y="170.551265" style="fill: #8c564b; stroke: #8c564b"/>
     <use xlink:href="#mefcfd9c1b5" x="566.272727" y="119.978144" style="fill: #8c564b; stroke: #8c564b"/>
     <use xlink:href="#mefcfd9c1b5" x="622.636364" y="66.96" style="fill: #8c564b; stroke: #8c564b"/>
    </g>
   </g>
   <g id="patch_3">
    <path d="M 90 384.48 
L 90 51.84 
" style="fill: none; stroke: #000000; stroke-width: 0.8; stroke-linejoin: miter; stroke-linecap: square"/>
   </g>
   <g id="patch_4">
    <path d="M 648 384.48 
L 648 51.84 
" style="fill: none; stroke: #000000; stroke-width: 0.8; stroke-linejoin: miter; stroke-linecap: square"/>
   </g>
   <g id="patch_5">
    <path d="M 90 384.48 
L 648 384.48 
" style="fill: none; stroke: #000000; stroke-width: 0.8; stroke-linejoin: miter; stroke-linecap: square"/>
   </g>
   <g id="patch_6">
    <path d="M 90 51.84 
L 648 51.84 
" style="fill: none; stroke: #000000; stroke-width: 0.8; stroke-linejoin: miter; stroke-linecap: square"/>
   </g>
   <g id="text_16">
    <text style="font: 14.4px 'Arial'; text-anchor: middle" x="369" y="45.84" transform="rotate(-0 369 45.84)">Predicted Peak Response vs Pulse for Different stimFreq Values (clampPotential = 0)</text>
   </g>
   <g id="legend_1">
    <g id="patch_7">
     <path d="M 98.4 163.5 
L 217.1625 163.5 
Q 219.5625 163.5 219.5625 161.1 
L 219.5625 60.24 
Q 219.5625 57.84 217.1625 57.84 
L 98.4 57.84 
Q 96 57.84 96 60.24 
L 96 161.1 
Q 96 163.5 98.4 163.5 
z
" style="fill: #ffffff; opacity: 0.8; stroke: #cccccc; stroke-linejoin: miter"/>
    </g>
    <g id="line2d_33">
     <path d="M 100.8 67.065 
L 112.8 67.065 
L 124.8 67.065 
" style="fill: none; stroke: #1f77b4; stroke-width: 1.5; stroke-linecap: square"/>
     <g>
      <use xlink:href="#mf0cdee9df2" x="112.8" y="67.065" style="fill: #1f77b4; stroke: #1f77b4"/>
     </g>
    </g>
    <g id="text_17">
     <text style="font: 12px 'Arial'; text-anchor: start" x="134.4" y="71.265" transform="rotate(-0 134.4 71.265)">stimFreq = 10</text>
    </g>
    <g id="line2d_34">
     <path d="M 100.8 84.075 
L 112.8 84.075 
L 124.8 84.075 
" style="fill: none; stroke: #ff7f0e; stroke-width: 1.5; stroke-linecap: square"/>
     <g>
      <use xlink:href="#m035c45d990" x="112.8" y="84.075" style="fill: #ff7f0e; stroke: #ff7f0e"/>
     </g>
    </g>
    <g id="text_18">
     <text style="font: 12px 'Arial'; text-anchor: start" x="134.4" y="88.275" transform="rotate(-0 134.4 88.275)">stimFreq = 20</text>
    </g>
    <g id="line2d_35">
     <path d="M 100.8 101.085 
L 112.8 101.085 
L 124.8 101.085 
" style="fill: none; stroke: #2ca02c; stroke-width: 1.5; stroke-linecap: square"/>
     <g>
      <use xlink:href="#m28b0e592fc" x="112.8" y="101.085" style="fill: #2ca02c; stroke: #2ca02c"/>
     </g>
    </g>
    <g id="text_19">
     <text style="font: 12px 'Arial'; text-anchor: start" x="134.4" y="105.285" transform="rotate(-0 134.4 105.285)">stimFreq = 30</text>
    </g>
    <g id="line2d_36">
     <path d="M 100.8 118.095 
L 112.8 118.095 
L 124.8 118.095 
" style="fill: none; stroke: #d62728; stroke-width: 1.5; stroke-linecap: square"/>
     <g>
      <use xlink:href="#m08dc0282ea" x="112.8" y="118.095" style="fill: #d62728; stroke: #d62728"/>
     </g>
    </g>
    <g id="text_20">
     <text style="font: 12px 'Arial'; text-anchor: start" x="134.4" y="122.295" transform="rotate(-0 134.4 122.295)">stimFreq = 40</text>
    </g>
    <g id="line2d_37">
     <path d="M 100.8 135.105 
L 112.8 135.105 
L 124.8 135.105 
" style="fill: none; stroke: #9467bd; stroke-width: 1.5; stroke-linecap: square"/>
     <g>
      <use xlink:href="#m027193ff5b" x="112.8" y="135.105" style="fill: #9467bd; stroke: #9467bd"/>
     </g>
    </g>
    <g id="text_21">
     <text style="font: 12px 'Arial'; text-anchor: start" x="134.4" y="139.305" transform="rotate(-0 134.4 139.305)">stimFreq = 50</text>
    </g>
    <g id="line2d_38">
     <path d="M 100.8 152.115 
L 112.8 152.115 
L 124.8 152.115 
" style="fill: none; stroke: #8c564b; stroke-width: 1.5; stroke-linecap: square"/>
     <g>
      <use xlink:href="#mefcfd9c1b5" x="112.8" y="152.115" style="fill: #8c564b; stroke: #8c564b"/>
     </g>
    </g>
    <g id="text_22">
     <text style="font: 12px 'Arial'; text-anchor: start" x="134.4" y="156.315" transform="rotate(-0 134.4 156.315)">stimFreq = 100</text>
    </g>
   </g>
  </g>
 </g>
 <defs>
  <clipPath id="pb5dffb5b79">
   <rect x="90" y="51.84" width="558" height="332.64"/>
  </clipPath>
 </defs>
</svg>
