<?xml version="1.0" encoding="utf-8" standalone="no"?>
<!DOCTYPE svg PUBLIC "-//W3C//DTD SVG 1.1//EN"
  "http://www.w3.org/Graphics/SVG/1.1/DTD/svg11.dtd">
<svg xmlns:xlink="http://www.w3.org/1999/xlink" width="720pt" height="432pt" viewBox="0 0 720 432" xmlns="http://www.w3.org/2000/svg" version="1.1">
 <metadata>
  <rdf:RDF xmlns:dc="http://purl.org/dc/elements/1.1/" xmlns:cc="http://creativecommons.org/ns#" xmlns:rdf="http://www.w3.org/1999/02/22-rdf-syntax-ns#">
   <cc:Work>
    <dc:type rdf:resource="http://purl.org/dc/dcmitype/StillImage"/>
    <dc:date>2024-08-31T21:48:55.399199</dc:date>
    <dc:format>image/svg+xml</dc:format>
    <dc:creator>
     <cc:Agent>
      <dc:title>Matplotlib v3.8.1, https://matplotlib.org/</dc:title>
     </cc:Agent>
    </dc:creator>
   </cc:Work>
  </rdf:RDF>
 </metadata>
 <defs>
  <style type="text/css">*{stroke-linejoin: round; stroke-linecap: butt}</style>
 </defs>
 <g id="figure_1">
  <g id="patch_1">
   <path d="M 0 432 
L 720 432 
L 720 0 
L 0 0 
z
" style="fill: #ffffff"/>
  </g>
  <g id="axes_1">
   <g id="patch_2">
    <path d="M 90 384.48 
L 648 384.48 
L 648 51.84 
L 90 51.84 
z
" style="fill: #ffffff"/>
   </g>
   <g id="matplotlib.axis_1">
    <g id="xtick_1">
     <g id="line2d_1">
      <path d="M 155.411483 384.48 
L 155.411483 51.84 
" clip-path="url(#pfea4c6bc46)" style="fill: none; stroke: #b0b0b0; stroke-width: 0.8; stroke-linecap: square"/>
     </g>
     <g id="line2d_2">
      <defs>
       <path id="m673c58c50d" d="M 0 0 
L 0 3.5 
" style="stroke: #000000; stroke-width: 0.8"/>
      </defs>
      <g>
       <use xlink:href="#m673c58c50d" x="155.411483" y="384.48" style="stroke: #000000; stroke-width: 0.8"/>
      </g>
     </g>
     <g id="text_1">
      <text style="font: 12px 'Arial'; text-anchor: middle" x="155.411483" y="400.069375" transform="rotate(-0 155.411483 400.069375)">2.5</text>
     </g>
    </g>
    <g id="xtick_2">
     <g id="line2d_3">
      <path d="M 222.157895 384.48 
L 222.157895 51.84 
" clip-path="url(#pfea4c6bc46)" style="fill: none; stroke: #b0b0b0; stroke-width: 0.8; stroke-linecap: square"/>
     </g>
     <g id="line2d_4">
      <g>
       <use xlink:href="#m673c58c50d" x="222.157895" y="384.48" style="stroke: #000000; stroke-width: 0.8"/>
      </g>
     </g>
     <g id="text_2">
      <text style="font: 12px 'Arial'; text-anchor: middle" x="222.157895" y="400.069375" transform="rotate(-0 222.157895 400.069375)">5.0</text>
     </g>
    </g>
    <g id="xtick_3">
     <g id="line2d_5">
      <path d="M 288.904306 384.48 
L 288.904306 51.84 
" clip-path="url(#pfea4c6bc46)" style="fill: none; stroke: #b0b0b0; stroke-width: 0.8; stroke-linecap: square"/>
     </g>
     <g id="line2d_6">
      <g>
       <use xlink:href="#m673c58c50d" x="288.904306" y="384.48" style="stroke: #000000; stroke-width: 0.8"/>
      </g>
     </g>
     <g id="text_3">
      <text style="font: 12px 'Arial'; text-anchor: middle" x="288.904306" y="400.069375" transform="rotate(-0 288.904306 400.069375)">7.5</text>
     </g>
    </g>
    <g id="xtick_4">
     <g id="line2d_7">
      <path d="M 355.650718 384.48 
L 355.650718 51.84 
" clip-path="url(#pfea4c6bc46)" style="fill: none; stroke: #b0b0b0; stroke-width: 0.8; stroke-linecap: square"/>
     </g>
     <g id="line2d_8">
      <g>
       <use xlink:href="#m673c58c50d" x="355.650718" y="384.48" style="stroke: #000000; stroke-width: 0.8"/>
      </g>
     </g>
     <g id="text_4">
      <text style="font: 12px 'Arial'; text-anchor: middle" x="355.650718" y="400.069375" transform="rotate(-0 355.650718 400.069375)">10.0</text>
     </g>
    </g>
    <g id="xtick_5">
     <g id="line2d_9">
      <path d="M 422.397129 384.48 
L 422.397129 51.84 
" clip-path="url(#pfea4c6bc46)" style="fill: none; stroke: #b0b0b0; stroke-width: 0.8; stroke-linecap: square"/>
     </g>
     <g id="line2d_10">
      <g>
       <use xlink:href="#m673c58c50d" x="422.397129" y="384.48" style="stroke: #000000; stroke-width: 0.8"/>
      </g>
     </g>
     <g id="text_5">
      <text style="font: 12px 'Arial'; text-anchor: middle" x="422.397129" y="400.069375" transform="rotate(-0 422.397129 400.069375)">12.5</text>
     </g>
    </g>
    <g id="xtick_6">
     <g id="line2d_11">
      <path d="M 489.143541 384.48 
L 489.143541 51.84 
" clip-path="url(#pfea4c6bc46)" style="fill: none; stroke: #b0b0b0; stroke-width: 0.8; stroke-linecap: square"/>
     </g>
     <g id="line2d_12">
      <g>
       <use xlink:href="#m673c58c50d" x="489.143541" y="384.48" style="stroke: #000000; stroke-width: 0.8"/>
      </g>
     </g>
     <g id="text_6">
      <text style="font: 12px 'Arial'; text-anchor: middle" x="489.143541" y="400.069375" transform="rotate(-0 489.143541 400.069375)">15.0</text>
     </g>
    </g>
    <g id="xtick_7">
     <g id="line2d_13">
      <path d="M 555.889952 384.48 
L 555.889952 51.84 
" clip-path="url(#pfea4c6bc46)" style="fill: none; stroke: #b0b0b0; stroke-width: 0.8; stroke-linecap: square"/>
     </g>
     <g id="line2d_14">
      <g>
       <use xlink:href="#m673c58c50d" x="555.889952" y="384.48" style="stroke: #000000; stroke-width: 0.8"/>
      </g>
     </g>
     <g id="text_7">
      <text style="font: 12px 'Arial'; text-anchor: middle" x="555.889952" y="400.069375" transform="rotate(-0 555.889952 400.069375)">17.5</text>
     </g>
    </g>
    <g id="xtick_8">
     <g id="line2d_15">
      <path d="M 622.636364 384.48 
L 622.636364 51.84 
" clip-path="url(#pfea4c6bc46)" style="fill: none; stroke: #b0b0b0; stroke-width: 0.8; stroke-linecap: square"/>
     </g>
     <g id="line2d_16">
      <g>
       <use xlink:href="#m673c58c50d" x="622.636364" y="384.48" style="stroke: #000000; stroke-width: 0.8"/>
      </g>
     </g>
     <g id="text_8">
      <text style="font: 12px 'Arial'; text-anchor: middle" x="622.636364" y="400.069375" transform="rotate(-0 622.636364 400.069375)">20.0</text>
     </g>
    </g>
    <g id="text_9">
     <text style="font: 12px 'Arial'; text-anchor: middle" x="369" y="415.19" transform="rotate(-0 369 415.19)">numSq</text>
    </g>
   </g>
   <g id="matplotlib.axis_2">
    <g id="ytick_1">
     <g id="line2d_17">
      <path d="M 90 373.731327 
L 648 373.731327 
" clip-path="url(#pfea4c6bc46)" style="fill: none; stroke: #b0b0b0; stroke-width: 0.8; stroke-linecap: square"/>
     </g>
     <g id="line2d_18">
      <defs>
       <path id="m6fc56dfe25" d="M 0 0 
L -3.5 0 
" style="stroke: #000000; stroke-width: 0.8"/>
      </defs>
      <g>
       <use xlink:href="#m6fc56dfe25" x="90" y="373.731327" style="stroke: #000000; stroke-width: 0.8"/>
      </g>
     </g>
     <g id="text_10">
      <text style="font: 12px 'Arial'; text-anchor: end" x="83" y="378.026015" transform="rotate(-0 83 378.026015)">0</text>
     </g>
    </g>
    <g id="ytick_2">
     <g id="line2d_19">
      <path d="M 90 332.151234 
L 648 332.151234 
" clip-path="url(#pfea4c6bc46)" style="fill: none; stroke: #b0b0b0; stroke-width: 0.8; stroke-linecap: square"/>
     </g>
     <g id="line2d_20">
      <g>
       <use xlink:href="#m6fc56dfe25" x="90" y="332.151234" style="stroke: #000000; stroke-width: 0.8"/>
      </g>
     </g>
     <g id="text_11">
      <text style="font: 12px 'Arial'; text-anchor: end" x="83" y="336.445922" transform="rotate(-0 83 336.445922)">25</text>
     </g>
    </g>
    <g id="ytick_3">
     <g id="line2d_21">
      <path d="M 90 290.571141 
L 648 290.571141 
" clip-path="url(#pfea4c6bc46)" style="fill: none; stroke: #b0b0b0; stroke-width: 0.8; stroke-linecap: square"/>
     </g>
     <g id="line2d_22">
      <g>
       <use xlink:href="#m6fc56dfe25" x="90" y="290.571141" style="stroke: #000000; stroke-width: 0.8"/>
      </g>
     </g>
     <g id="text_12">
      <text style="font: 12px 'Arial'; text-anchor: end" x="83" y="294.865829" transform="rotate(-0 83 294.865829)">50</text>
     </g>
    </g>
    <g id="ytick_4">
     <g id="line2d_23">
      <path d="M 90 248.991048 
L 648 248.991048 
" clip-path="url(#pfea4c6bc46)" style="fill: none; stroke: #b0b0b0; stroke-width: 0.8; stroke-linecap: square"/>
     </g>
     <g id="line2d_24">
      <g>
       <use xlink:href="#m6fc56dfe25" x="90" y="248.991048" style="stroke: #000000; stroke-width: 0.8"/>
      </g>
     </g>
     <g id="text_13">
      <text style="font: 12px 'Arial'; text-anchor: end" x="83" y="253.285736" transform="rotate(-0 83 253.285736)">75</text>
     </g>
    </g>
    <g id="ytick_5">
     <g id="line2d_25">
      <path d="M 90 207.410956 
L 648 207.410956 
" clip-path="url(#pfea4c6bc46)" style="fill: none; stroke: #b0b0b0; stroke-width: 0.8; stroke-linecap: square"/>
     </g>
     <g id="line2d_26">
      <g>
       <use xlink:href="#m6fc56dfe25" x="90" y="207.410956" style="stroke: #000000; stroke-width: 0.8"/>
      </g>
     </g>
     <g id="text_14">
      <text style="font: 12px 'Arial'; text-anchor: end" x="83" y="211.705643" transform="rotate(-0 83 211.705643)">100</text>
     </g>
    </g>
    <g id="ytick_6">
     <g id="line2d_27">
      <path d="M 90 165.830863 
L 648 165.830863 
" clip-path="url(#pfea4c6bc46)" style="fill: none; stroke: #b0b0b0; stroke-width: 0.8; stroke-linecap: square"/>
     </g>
     <g id="line2d_28">
      <g>
       <use xlink:href="#m6fc56dfe25" x="90" y="165.830863" style="stroke: #000000; stroke-width: 0.8"/>
      </g>
     </g>
     <g id="text_15">
      <text style="font: 12px 'Arial'; text-anchor: end" x="83" y="170.12555" transform="rotate(-0 83 170.12555)">125</text>
     </g>
    </g>
    <g id="ytick_7">
     <g id="line2d_29">
      <path d="M 90 124.25077 
L 648 124.25077 
" clip-path="url(#pfea4c6bc46)" style="fill: none; stroke: #b0b0b0; stroke-width: 0.8; stroke-linecap: square"/>
     </g>
     <g id="line2d_30">
      <g>
       <use xlink:href="#m6fc56dfe25" x="90" y="124.25077" style="stroke: #000000; stroke-width: 0.8"/>
      </g>
     </g>
     <g id="text_16">
      <text style="font: 12px 'Arial'; text-anchor: end" x="83" y="128.545457" transform="rotate(-0 83 128.545457)">150</text>
     </g>
    </g>
    <g id="ytick_8">
     <g id="line2d_31">
      <path d="M 90 82.670677 
L 648 82.670677 
" clip-path="url(#pfea4c6bc46)" style="fill: none; stroke: #b0b0b0; stroke-width: 0.8; stroke-linecap: square"/>
     </g>
     <g id="line2d_32">
      <g>
       <use xlink:href="#m6fc56dfe25" x="90" y="82.670677" style="stroke: #000000; stroke-width: 0.8"/>
      </g>
     </g>
     <g id="text_17">
      <text style="font: 12px 'Arial'; text-anchor: end" x="83" y="86.965364" transform="rotate(-0 83 86.965364)">175</text>
     </g>
    </g>
    <g id="text_18">
     <text style="font: 12px 'Arial'; text-anchor: middle" x="56.595625" y="218.16" transform="rotate(-90 56.595625 218.16)">Predicted Peak Response</text>
    </g>
   </g>
   <g id="line2d_33">
    <path d="M 115.363636 347.708936 
L 168.760766 316.108328 
L 222.157895 286.355437 
L 275.555024 259.0262 
L 328.952153 234.696554 
L 382.349282 213.942433 
L 435.746411 197.339775 
L 489.143541 185.464516 
L 622.636364 180.238315 
" clip-path="url(#pfea4c6bc46)" style="fill: none; stroke: #1f77b4; stroke-width: 1.5; stroke-linecap: square"/>
    <defs>
     <path id="m5bc9f66fda" d="M 0 3 
C 0.795609 3 1.55874 2.683901 2.12132 2.12132 
C 2.683901 1.55874 3 0.795609 3 0 
C 3 -0.795609 2.683901 -1.55874 2.12132 -2.12132 
C 1.55874 -2.683901 0.795609 -3 0 -3 
C -0.795609 -3 -1.55874 -2.683901 -2.12132 -2.12132 
C -2.683901 -1.55874 -3 -0.795609 -3 0 
C -3 0.795609 -2.683901 1.55874 -2.12132 2.12132 
C -1.55874 2.683901 -0.795609 3 0 3 
z
" style="stroke: #1f77b4"/>
    </defs>
    <g clip-path="url(#pfea4c6bc46)">
     <use xlink:href="#m5bc9f66fda" x="115.363636" y="347.708936" style="fill: #1f77b4; stroke: #1f77b4"/>
     <use xlink:href="#m5bc9f66fda" x="168.760766" y="316.108328" style="fill: #1f77b4; stroke: #1f77b4"/>
     <use xlink:href="#m5bc9f66fda" x="222.157895" y="286.355437" style="fill: #1f77b4; stroke: #1f77b4"/>
     <use xlink:href="#m5bc9f66fda" x="275.555024" y="259.0262" style="fill: #1f77b4; stroke: #1f77b4"/>
     <use xlink:href="#m5bc9f66fda" x="328.952153" y="234.696554" style="fill: #1f77b4; stroke: #1f77b4"/>
     <use xlink:href="#m5bc9f66fda" x="382.349282" y="213.942433" style="fill: #1f77b4; stroke: #1f77b4"/>
     <use xlink:href="#m5bc9f66fda" x="435.746411" y="197.339775" style="fill: #1f77b4; stroke: #1f77b4"/>
     <use xlink:href="#m5bc9f66fda" x="489.143541" y="185.464516" style="fill: #1f77b4; stroke: #1f77b4"/>
     <use xlink:href="#m5bc9f66fda" x="622.636364" y="180.238315" style="fill: #1f77b4; stroke: #1f77b4"/>
    </g>
   </g>
   <g id="line2d_34">
    <path d="M 115.363636 345.104573 
L 168.760766 314.563281 
L 222.157895 287.026342 
L 275.555024 263.130917 
L 328.952153 243.514169 
L 382.349282 228.813261 
L 435.746411 219.665354 
L 489.143541 216.707612 
L 622.636364 240.576604 
" clip-path="url(#pfea4c6bc46)" style="fill: none; stroke: #ff7f0e; stroke-width: 1.5; stroke-linecap: square"/>
    <defs>
     <path id="m3aafcee3a8" d="M 0 3 
C 0.795609 3 1.55874 2.683901 2.12132 2.12132 
C 2.683901 1.55874 3 0.795609 3 0 
C 3 -0.795609 2.683901 -1.55874 2.12132 -2.12132 
C 1.55874 -2.683901 0.795609 -3 0 -3 
C -0.795609 -3 -1.55874 -2.683901 -2.12132 -2.12132 
C -2.683901 -1.55874 -3 -0.795609 -3 0 
C -3 0.795609 -2.683901 1.55874 -2.12132 2.12132 
C -1.55874 2.683901 -0.795609 3 0 3 
z
" style="stroke: #ff7f0e"/>
    </defs>
    <g clip-path="url(#pfea4c6bc46)">
     <use xlink:href="#m3aafcee3a8" x="115.363636" y="345.104573" style="fill: #ff7f0e; stroke: #ff7f0e"/>
     <use xlink:href="#m3aafcee3a8" x="168.760766" y="314.563281" style="fill: #ff7f0e; stroke: #ff7f0e"/>
     <use xlink:href="#m3aafcee3a8" x="222.157895" y="287.026342" style="fill: #ff7f0e; stroke: #ff7f0e"/>
     <use xlink:href="#m3aafcee3a8" x="275.555024" y="263.130917" style="fill: #ff7f0e; stroke: #ff7f0e"/>
     <use xlink:href="#m3aafcee3a8" x="328.952153" y="243.514169" style="fill: #ff7f0e; stroke: #ff7f0e"/>
     <use xlink:href="#m3aafcee3a8" x="382.349282" y="228.813261" style="fill: #ff7f0e; stroke: #ff7f0e"/>
     <use xlink:href="#m3aafcee3a8" x="435.746411" y="219.665354" style="fill: #ff7f0e; stroke: #ff7f0e"/>
     <use xlink:href="#m3aafcee3a8" x="489.143541" y="216.707612" style="fill: #ff7f0e; stroke: #ff7f0e"/>
     <use xlink:href="#m3aafcee3a8" x="622.636364" y="240.576604" style="fill: #ff7f0e; stroke: #ff7f0e"/>
    </g>
   </g>
   <g id="line2d_35">
    <path d="M 115.363636 346.319799 
L 168.760766 316.12088 
L 222.157895 290.017072 
L 275.555024 268.695028 
L 328.952153 252.841397 
L 382.349282 243.142834 
L 435.746411 240.285989 
L 489.143541 244.957514 
L 622.636364 294.079098 
" clip-path="url(#pfea4c6bc46)" style="fill: none; stroke: #2ca02c; stroke-width: 1.5; stroke-linecap: square"/>
    <defs>
     <path id="m9cbfb71da7" d="M 0 3 
C 0.795609 3 1.55874 2.683901 2.12132 2.12132 
C 2.683901 1.55874 3 0.795609 3 0 
C 3 -0.795609 2.683901 -1.55874 2.12132 -2.12132 
C 1.55874 -2.683901 0.795609 -3 0 -3 
C -0.795609 -3 -1.55874 -2.683901 -2.12132 -2.12132 
C -2.683901 -1.55874 -3 -0.795609 -3 0 
C -3 0.795609 -2.683901 1.55874 -2.12132 2.12132 
C -1.55874 2.683901 -0.795609 3 0 3 
z
" style="stroke: #2ca02c"/>
    </defs>
    <g clip-path="url(#pfea4c6bc46)">
     <use xlink:href="#m9cbfb71da7" x="115.363636" y="346.319799" style="fill: #2ca02c; stroke: #2ca02c"/>
     <use xlink:href="#m9cbfb71da7" x="168.760766" y="316.12088" style="fill: #2ca02c; stroke: #2ca02c"/>
     <use xlink:href="#m9cbfb71da7" x="222.157895" y="290.017072" style="fill: #2ca02c; stroke: #2ca02c"/>
     <use xlink:href="#m9cbfb71da7" x="275.555024" y="268.695028" style="fill: #2ca02c; stroke: #2ca02c"/>
     <use xlink:href="#m9cbfb71da7" x="328.952153" y="252.841397" style="fill: #2ca02c; stroke: #2ca02c"/>
     <use xlink:href="#m9cbfb71da7" x="382.349282" y="243.142834" style="fill: #2ca02c; stroke: #2ca02c"/>
     <use xlink:href="#m9cbfb71da7" x="435.746411" y="240.285989" style="fill: #2ca02c; stroke: #2ca02c"/>
     <use xlink:href="#m9cbfb71da7" x="489.143541" y="244.957514" style="fill: #2ca02c; stroke: #2ca02c"/>
     <use xlink:href="#m9cbfb71da7" x="622.636364" y="294.079098" style="fill: #2ca02c; stroke: #2ca02c"/>
    </g>
   </g>
   <g id="line2d_36">
    <path d="M 115.363636 350.254437 
L 168.760766 319.43987 
L 222.157895 293.716054 
L 275.555024 273.80529 
L 328.952153 260.429879 
L 382.349282 254.312122 
L 435.746411 256.17432 
L 489.143541 266.738775 
L 622.636364 335.962384 
" clip-path="url(#pfea4c6bc46)" style="fill: none; stroke: #d62728; stroke-width: 1.5; stroke-linecap: square"/>
    <defs>
     <path id="m68602ceabc" d="M 0 3 
C 0.795609 3 1.55874 2.683901 2.12132 2.12132 
C 2.683901 1.55874 3 0.795609 3 0 
C 3 -0.795609 2.683901 -1.55874 2.12132 -2.12132 
C 1.55874 -2.683901 0.795609 -3 0 -3 
C -0.795609 -3 -1.55874 -2.683901 -2.12132 -2.12132 
C -2.683901 -1.55874 -3 -0.795609 -3 0 
C -3 0.795609 -2.683901 1.55874 -2.12132 2.12132 
C -1.55874 2.683901 -0.795609 3 0 3 
z
" style="stroke: #d62728"/>
    </defs>
    <g clip-path="url(#pfea4c6bc46)">
     <use xlink:href="#m68602ceabc" x="115.363636" y="350.254437" style="fill: #d62728; stroke: #d62728"/>
     <use xlink:href="#m68602ceabc" x="168.760766" y="319.43987" style="fill: #d62728; stroke: #d62728"/>
     <use xlink:href="#m68602ceabc" x="222.157895" y="293.716054" style="fill: #d62728; stroke: #d62728"/>
     <use xlink:href="#m68602ceabc" x="275.555024" y="273.80529" style="fill: #d62728; stroke: #d62728"/>
     <use xlink:href="#m68602ceabc" x="328.952153" y="260.429879" style="fill: #d62728; stroke: #d62728"/>
     <use xlink:href="#m68602ceabc" x="382.349282" y="254.312122" style="fill: #d62728; stroke: #d62728"/>
     <use xlink:href="#m68602ceabc" x="435.746411" y="256.17432" style="fill: #d62728; stroke: #d62728"/>
     <use xlink:href="#m68602ceabc" x="489.143541" y="266.738775" style="fill: #d62728; stroke: #d62728"/>
     <use xlink:href="#m68602ceabc" x="622.636364" y="335.962384" style="fill: #d62728; stroke: #d62728"/>
    </g>
   </g>
   <g id="line2d_37">
    <path d="M 115.363636 355.808311 
L 168.760766 323.178998 
L 222.157895 296.511713 
L 275.555024 276.548463 
L 328.952153 264.031255 
L 382.349282 259.702095 
L 435.746411 264.302992 
L 489.143541 278.575952 
L 622.636364 361.443051 
" clip-path="url(#pfea4c6bc46)" style="fill: none; stroke: #9467bd; stroke-width: 1.5; stroke-linecap: square"/>
    <defs>
     <path id="m8928d7951e" d="M 0 3 
C 0.795609 3 1.55874 2.683901 2.12132 2.12132 
C 2.683901 1.55874 3 0.795609 3 0 
C 3 -0.795609 2.683901 -1.55874 2.12132 -2.12132 
C 1.55874 -2.683901 0.795609 -3 0 -3 
C -0.795609 -3 -1.55874 -2.683901 -2.12132 -2.12132 
C -2.683901 -1.55874 -3 -0.795609 -3 0 
C -3 0.795609 -2.683901 1.55874 -2.12132 2.12132 
C -1.55874 2.683901 -0.795609 3 0 3 
z
" style="stroke: #9467bd"/>
    </defs>
    <g clip-path="url(#pfea4c6bc46)">
     <use xlink:href="#m8928d7951e" x="115.363636" y="355.808311" style="fill: #9467bd; stroke: #9467bd"/>
     <use xlink:href="#m8928d7951e" x="168.760766" y="323.178998" style="fill: #9467bd; stroke: #9467bd"/>
     <use xlink:href="#m8928d7951e" x="222.157895" y="296.511713" style="fill: #9467bd; stroke: #9467bd"/>
     <use xlink:href="#m8928d7951e" x="275.555024" y="276.548463" style="fill: #9467bd; stroke: #9467bd"/>
     <use xlink:href="#m8928d7951e" x="328.952153" y="264.031255" style="fill: #9467bd; stroke: #9467bd"/>
     <use xlink:href="#m8928d7951e" x="382.349282" y="259.702095" style="fill: #9467bd; stroke: #9467bd"/>
     <use xlink:href="#m8928d7951e" x="435.746411" y="264.302992" style="fill: #9467bd; stroke: #9467bd"/>
     <use xlink:href="#m8928d7951e" x="489.143541" y="278.575952" style="fill: #9467bd; stroke: #9467bd"/>
     <use xlink:href="#m8928d7951e" x="622.636364" y="361.443051" style="fill: #9467bd; stroke: #9467bd"/>
    </g>
   </g>
   <g id="line2d_38">
    <path d="M 115.363636 369.36 
L 168.760766 301.232819 
L 222.157895 240.535066 
L 275.555024 187.794521 
L 328.952153 143.538962 
L 382.349282 108.296169 
L 435.746411 82.593922 
L 489.143541 66.96 
L 622.636364 75.387668 
" clip-path="url(#pfea4c6bc46)" style="fill: none; stroke: #8c564b; stroke-width: 1.5; stroke-linecap: square"/>
    <defs>
     <path id="m3364f55a96" d="M 0 3 
C 0.795609 3 1.55874 2.683901 2.12132 2.12132 
C 2.683901 1.55874 3 0.795609 3 0 
C 3 -0.795609 2.683901 -1.55874 2.12132 -2.12132 
C 1.55874 -2.683901 0.795609 -3 0 -3 
C -0.795609 -3 -1.55874 -2.683901 -2.12132 -2.12132 
C -2.683901 -1.55874 -3 -0.795609 -3 0 
C -3 0.795609 -2.683901 1.55874 -2.12132 2.12132 
C -1.55874 2.683901 -0.795609 3 0 3 
z
" style="stroke: #8c564b"/>
    </defs>
    <g clip-path="url(#pfea4c6bc46)">
     <use xlink:href="#m3364f55a96" x="115.363636" y="369.36" style="fill: #8c564b; stroke: #8c564b"/>
     <use xlink:href="#m3364f55a96" x="168.760766" y="301.232819" style="fill: #8c564b; stroke: #8c564b"/>
     <use xlink:href="#m3364f55a96" x="222.157895" y="240.535066" style="fill: #8c564b; stroke: #8c564b"/>
     <use xlink:href="#m3364f55a96" x="275.555024" y="187.794521" style="fill: #8c564b; stroke: #8c564b"/>
     <use xlink:href="#m3364f55a96" x="328.952153" y="143.538962" style="fill: #8c564b; stroke: #8c564b"/>
     <use xlink:href="#m3364f55a96" x="382.349282" y="108.296169" style="fill: #8c564b; stroke: #8c564b"/>
     <use xlink:href="#m3364f55a96" x="435.746411" y="82.593922" style="fill: #8c564b; stroke: #8c564b"/>
     <use xlink:href="#m3364f55a96" x="489.143541" y="66.96" style="fill: #8c564b; stroke: #8c564b"/>
     <use xlink:href="#m3364f55a96" x="622.636364" y="75.387668" style="fill: #8c564b; stroke: #8c564b"/>
    </g>
   </g>
   <g id="patch_3">
    <path d="M 90 384.48 
L 90 51.84 
" style="fill: none; stroke: #000000; stroke-width: 0.8; stroke-linejoin: miter; stroke-linecap: square"/>
   </g>
   <g id="patch_4">
    <path d="M 648 384.48 
L 648 51.84 
" style="fill: none; stroke: #000000; stroke-width: 0.8; stroke-linejoin: miter; stroke-linecap: square"/>
   </g>
   <g id="patch_5">
    <path d="M 90 384.48 
L 648 384.48 
" style="fill: none; stroke: #000000; stroke-width: 0.8; stroke-linejoin: miter; stroke-linecap: square"/>
   </g>
   <g id="patch_6">
    <path d="M 90 51.84 
L 648 51.84 
" style="fill: none; stroke: #000000; stroke-width: 0.8; stroke-linejoin: miter; stroke-linecap: square"/>
   </g>
   <g id="text_19">
    <text style="font: 14.4px 'Arial'; text-anchor: middle" x="369" y="45.84" transform="rotate(-0 369 45.84)">Predicted Peak Response vs numSq for Different stimFreq Values (clampPotential = 0)</text>
   </g>
   <g id="legend_1">
    <g id="patch_7">
     <path d="M 98.4 163.5 
L 217.1625 163.5 
Q 219.5625 163.5 219.5625 161.1 
L 219.5625 60.24 
Q 219.5625 57.84 217.1625 57.84 
L 98.4 57.84 
Q 96 57.84 96 60.24 
L 96 161.1 
Q 96 163.5 98.4 163.5 
z
" style="fill: #ffffff; opacity: 0.8; stroke: #cccccc; stroke-linejoin: miter"/>
    </g>
    <g id="line2d_39">
     <path d="M 100.8 67.065 
L 112.8 67.065 
L 124.8 67.065 
" style="fill: none; stroke: #1f77b4; stroke-width: 1.5; stroke-linecap: square"/>
     <g>
      <use xlink:href="#m5bc9f66fda" x="112.8" y="67.065" style="fill: #1f77b4; stroke: #1f77b4"/>
     </g>
    </g>
    <g id="text_20">
     <text style="font: 12px 'Arial'; text-anchor: start" x="134.4" y="71.265" transform="rotate(-0 134.4 71.265)">stimFreq = 10</text>
    </g>
    <g id="line2d_40">
     <path d="M 100.8 84.075 
L 112.8 84.075 
L 124.8 84.075 
" style="fill: none; stroke: #ff7f0e; stroke-width: 1.5; stroke-linecap: square"/>
     <g>
      <use xlink:href="#m3aafcee3a8" x="112.8" y="84.075" style="fill: #ff7f0e; stroke: #ff7f0e"/>
     </g>
    </g>
    <g id="text_21">
     <text style="font: 12px 'Arial'; text-anchor: start" x="134.4" y="88.275" transform="rotate(-0 134.4 88.275)">stimFreq = 20</text>
    </g>
    <g id="line2d_41">
     <path d="M 100.8 101.085 
L 112.8 101.085 
L 124.8 101.085 
" style="fill: none; stroke: #2ca02c; stroke-width: 1.5; stroke-linecap: square"/>
     <g>
      <use xlink:href="#m9cbfb71da7" x="112.8" y="101.085" style="fill: #2ca02c; stroke: #2ca02c"/>
     </g>
    </g>
    <g id="text_22">
     <text style="font: 12px 'Arial'; text-anchor: start" x="134.4" y="105.285" transform="rotate(-0 134.4 105.285)">stimFreq = 30</text>
    </g>
    <g id="line2d_42">
     <path d="M 100.8 118.095 
L 112.8 118.095 
L 124.8 118.095 
" style="fill: none; stroke: #d62728; stroke-width: 1.5; stroke-linecap: square"/>
     <g>
      <use xlink:href="#m68602ceabc" x="112.8" y="118.095" style="fill: #d62728; stroke: #d62728"/>
     </g>
    </g>
    <g id="text_23">
     <text style="font: 12px 'Arial'; text-anchor: start" x="134.4" y="122.295" transform="rotate(-0 134.4 122.295)">stimFreq = 40</text>
    </g>
    <g id="line2d_43">
     <path d="M 100.8 135.105 
L 112.8 135.105 
L 124.8 135.105 
" style="fill: none; stroke: #9467bd; stroke-width: 1.5; stroke-linecap: square"/>
     <g>
      <use xlink:href="#m8928d7951e" x="112.8" y="135.105" style="fill: #9467bd; stroke: #9467bd"/>
     </g>
    </g>
    <g id="text_24">
     <text style="font: 12px 'Arial'; text-anchor: start" x="134.4" y="139.305" transform="rotate(-0 134.4 139.305)">stimFreq = 50</text>
    </g>
    <g id="line2d_44">
     <path d="M 100.8 152.115 
L 112.8 152.115 
L 124.8 152.115 
" style="fill: none; stroke: #8c564b; stroke-width: 1.5; stroke-linecap: square"/>
     <g>
      <use xlink:href="#m3364f55a96" x="112.8" y="152.115" style="fill: #8c564b; stroke: #8c564b"/>
     </g>
    </g>
    <g id="text_25">
     <text style="font: 12px 'Arial'; text-anchor: start" x="134.4" y="156.315" transform="rotate(-0 134.4 156.315)">stimFreq = 100</text>
    </g>
   </g>
  </g>
 </g>
 <defs>
  <clipPath id="pfea4c6bc46">
   <rect x="90" y="51.84" width="558" height="332.64"/>
  </clipPath>
 </defs>
</svg>
