<?xml version="1.0" encoding="utf-8" standalone="no"?>
<!DOCTYPE svg PUBLIC "-//W3C//DTD SVG 1.1//EN"
  "http://www.w3.org/Graphics/SVG/1.1/DTD/svg11.dtd">
<svg xmlns:xlink="http://www.w3.org/1999/xlink" width="628.2pt" height="783.256095pt" viewBox="0 0 628.2 783.256095" xmlns="http://www.w3.org/2000/svg" version="1.1">
 <metadata>
  <rdf:RDF xmlns:dc="http://purl.org/dc/elements/1.1/" xmlns:cc="http://creativecommons.org/ns#" xmlns:rdf="http://www.w3.org/1999/02/22-rdf-syntax-ns#">
   <cc:Work>
    <dc:type rdf:resource="http://purl.org/dc/dcmitype/StillImage"/>
    <dc:date>2024-09-22T01:26:47.879463</dc:date>
    <dc:format>image/svg+xml</dc:format>
    <dc:creator>
     <cc:Agent>
      <dc:title>Matplotlib v3.8.1, https://matplotlib.org/</dc:title>
     </cc:Agent>
    </dc:creator>
   </cc:Work>
  </rdf:RDF>
 </metadata>
 <defs>
  <style type="text/css">*{stroke-linejoin: round; stroke-linecap: butt}</style>
 </defs>
 <g id="figure_1">
  <g id="patch_1">
   <path d="M 0 783.256095 
L 628.2 783.256095 
L 628.2 0 
L 0 0 
z
" style="fill: #ffffff"/>
  </g>
  <g id="axes_1">
   <g id="patch_2">
    <path d="M 63 732.961095 
L 621 732.961095 
L 621 455.761095 
L 63 455.761095 
z
" style="fill: #ffffff"/>
   </g>
   <g id="matplotlib.axis_1">
    <g id="xtick_1">
     <g id="line2d_1">
      <defs>
       <path id="mf589b58829" d="M 0 0 
L 0 3.5 
" style="stroke: #000000; stroke-width: 0.8"/>
      </defs>
      <g>
       <use xlink:href="#mf589b58829" x="156" y="742.961095" style="stroke: #000000; stroke-width: 0.8"/>
      </g>
     </g>
     <g id="text_1">
      <text style="font: 12px 'Arial'; text-anchor: middle" x="156" y="758.55047" transform="rotate(-0 156 758.55047)">1</text>
     </g>
    </g>
    <g id="xtick_2">
     <g id="line2d_2">
      <g>
       <use xlink:href="#mf589b58829" x="342" y="742.961095" style="stroke: #000000; stroke-width: 0.8"/>
      </g>
     </g>
     <g id="text_2">
      <text style="font: 12px 'Arial'; text-anchor: middle" x="342" y="758.55047" transform="rotate(-0 342 758.55047)">5</text>
     </g>
    </g>
    <g id="xtick_3">
     <g id="line2d_3">
      <g>
       <use xlink:href="#mf589b58829" x="528" y="742.961095" style="stroke: #000000; stroke-width: 0.8"/>
      </g>
     </g>
     <g id="text_3">
      <text style="font: 12px 'Arial'; text-anchor: middle" x="528" y="758.55047" transform="rotate(-0 528 758.55047)">15</text>
     </g>
    </g>
    <g id="text_4">
     <text style="font: 12px 'Arial'; text-anchor: middle" x="342" y="773.671095" transform="rotate(-0 342 773.671095)">Number of Squares per Pattern</text>
    </g>
   </g>
   <g id="matplotlib.axis_2">
    <g id="ytick_1">
     <g id="line2d_4">
      <defs>
       <path id="m5513414b83" d="M 0 0 
L -3.5 0 
" style="stroke: #000000; stroke-width: 0.8"/>
      </defs>
      <g>
       <use xlink:href="#m5513414b83" x="53" y="732.961095" style="stroke: #000000; stroke-width: 0.8"/>
      </g>
     </g>
     <g id="text_5">
      <text style="font: 12px 'Arial'; text-anchor: end" x="46" y="737.255783" transform="rotate(-0 46 737.255783)">0</text>
     </g>
    </g>
    <g id="ytick_2">
     <g id="line2d_5">
      <g>
       <use xlink:href="#m5513414b83" x="53" y="686.761095" style="stroke: #000000; stroke-width: 0.8"/>
      </g>
     </g>
     <g id="text_6">
      <text style="font: 12px 'Arial'; text-anchor: end" x="46" y="691.055783" transform="rotate(-0 46 691.055783)">5</text>
     </g>
    </g>
    <g id="ytick_3">
     <g id="line2d_6">
      <g>
       <use xlink:href="#m5513414b83" x="53" y="640.561095" style="stroke: #000000; stroke-width: 0.8"/>
      </g>
     </g>
     <g id="text_7">
      <text style="font: 12px 'Arial'; text-anchor: end" x="46" y="644.855783" transform="rotate(-0 46 644.855783)">10</text>
     </g>
    </g>
    <g id="ytick_4">
     <g id="line2d_7">
      <g>
       <use xlink:href="#m5513414b83" x="53" y="594.361095" style="stroke: #000000; stroke-width: 0.8"/>
      </g>
     </g>
     <g id="text_8">
      <text style="font: 12px 'Arial'; text-anchor: end" x="46" y="598.655783" transform="rotate(-0 46 598.655783)">15</text>
     </g>
    </g>
    <g id="ytick_5">
     <g id="line2d_8">
      <g>
       <use xlink:href="#m5513414b83" x="53" y="548.161095" style="stroke: #000000; stroke-width: 0.8"/>
      </g>
     </g>
     <g id="text_9">
      <text style="font: 12px 'Arial'; text-anchor: end" x="46" y="552.455783" transform="rotate(-0 46 552.455783)">20</text>
     </g>
    </g>
    <g id="ytick_6">
     <g id="line2d_9">
      <g>
       <use xlink:href="#m5513414b83" x="53" y="501.961095" style="stroke: #000000; stroke-width: 0.8"/>
      </g>
     </g>
     <g id="text_10">
      <text style="font: 12px 'Arial'; text-anchor: end" x="46" y="506.255783" transform="rotate(-0 46 506.255783)">AP</text>
     </g>
    </g>
    <g id="text_11">
     <text style="font: 12px 'Arial'; text-anchor: middle" x="23.465625" y="594.361095" transform="rotate(-90 23.465625 594.361095)">CA3 cell Response (mV)</text>
    </g>
   </g>
   <g id="line2d_10">
    <path d="M 156 29.851566 
L 342 29.851566 
" clip-path="url(#p42cdb16bfb)" style="fill: none; stroke: #808080; stroke-linecap: square"/>
   </g>
   <g id="line2d_11">
    <path d="M 156 37.29313 
L 156 22.410001 
" clip-path="url(#p42cdb16bfb)" style="fill: none; stroke: #808080; stroke-linecap: square"/>
   </g>
   <g id="line2d_12">
    <path d="M 342 37.29313 
L 342 22.410001 
" clip-path="url(#p42cdb16bfb)" style="fill: none; stroke: #808080; stroke-linecap: square"/>
   </g>
   <g id="line2d_13">
    <path d="M 156 22.82047 
L 528 22.82047 
" clip-path="url(#p42cdb16bfb)" style="fill: none; stroke: #808080; stroke-linecap: square"/>
   </g>
   <g id="line2d_14">
    <path d="M 156 30.71597 
L 156 14.92497 
" clip-path="url(#p42cdb16bfb)" style="fill: none; stroke: #808080; stroke-linecap: square"/>
   </g>
   <g id="line2d_15">
    <path d="M 528 30.71597 
L 528 14.92497 
" clip-path="url(#p42cdb16bfb)" style="fill: none; stroke: #808080; stroke-linecap: square"/>
   </g>
   <g id="line2d_16">
    <path d="M 342 15.789375 
L 528 15.789375 
" clip-path="url(#p42cdb16bfb)" style="fill: none; stroke: #808080; stroke-linecap: square"/>
   </g>
   <g id="line2d_17">
    <path d="M 342 23.76721 
L 342 7.81154 
" clip-path="url(#p42cdb16bfb)" style="fill: none; stroke: #808080; stroke-linecap: square"/>
   </g>
   <g id="line2d_18">
    <path d="M 528 23.76721 
L 528 7.81154 
" clip-path="url(#p42cdb16bfb)" style="fill: none; stroke: #808080; stroke-linecap: square"/>
   </g>
   <g id="line2d_19">
    <path d="M 84.992919 716.163582 
L 227.007081 716.163582 
" clip-path="url(#p42cdb16bfb)" style="fill: none; stroke-dasharray: 1.5625,0.9375; stroke-dashoffset: 0; stroke: #373737; stroke-width: 1.25"/>
   </g>
   <g id="line2d_20">
    <path d="M 85.442059 710.399836 
L 226.557941 710.399836 
" clip-path="url(#p42cdb16bfb)" style="fill: none; stroke-dasharray: 3.125,1.25; stroke-dashoffset: 0; stroke: #373737; stroke-width: 1.25"/>
   </g>
   <g id="line2d_21">
    <path d="M 117.173973 701.31478 
L 194.826027 701.31478 
" clip-path="url(#p42cdb16bfb)" style="fill: none; stroke-dasharray: 1.5625,0.9375; stroke-dashoffset: 0; stroke: #373737; stroke-width: 1.25"/>
   </g>
   <g id="patch_3">
    <path d="M 53 732.961095 
L 53 501.961095 
" style="fill: none; stroke: #000000; stroke-width: 0.8; stroke-linejoin: miter; stroke-linecap: square"/>
   </g>
   <g id="patch_4">
    <path d="M 156 742.961095 
L 528 742.961095 
" style="fill: none; stroke: #000000; stroke-width: 0.8; stroke-linejoin: miter; stroke-linecap: square"/>
   </g>
   <g id="text_12">
    <text style="font: 700 20px 'Arial'; text-anchor: start" x="7.2" y="428.041095" transform="rotate(-0 7.2 428.041095)">1s2</text>
   </g>
   <g id="PolyCollection_1">
    <defs>
     <path id="m435b05e282" d="M 156.980095 -43.073354 
L 155.019905 -43.073354 
L 152.990293 -46.580925 
L 148.300355 -50.088497 
L 139.484357 -53.596068 
L 126.062875 -57.103639 
L 109.706078 -60.611211 
L 94.242459 -64.118782 
L 84.006118 -67.626354 
L 81.6 -71.133925 
L 86.776373 -74.641496 
L 97.038452 -78.149068 
L 109.143954 -81.656639 
L 120.414246 -85.16421 
L 129.374779 -88.671782 
L 135.762086 -92.179353 
L 140.088424 -95.686924 
L 143.067083 -99.194496 
L 145.242863 -102.702067 
L 146.943586 -106.209638 
L 148.374062 -109.71721 
L 149.657575 -113.224781 
L 150.818392 -116.732352 
L 151.794909 -120.239924 
L 152.515288 -123.747495 
L 152.980208 -127.255066 
L 153.278495 -130.762638 
L 153.529252 -134.270209 
L 153.81389 -137.77778 
L 154.145505 -141.285352 
L 154.473515 -144.792923 
L 154.717133 -148.300494 
L 154.824626 -151.808066 
L 154.821672 -155.315637 
L 154.796374 -158.823208 
L 154.823912 -162.33078 
L 154.90356 -165.838351 
L 154.971023 -169.345922 
L 154.968037 -172.853494 
L 154.898595 -176.361065 
L 154.827482 -179.868636 
L 154.833182 -183.376208 
L 154.955823 -186.883779 
L 155.174953 -190.39135 
L 155.426336 -193.898922 
L 155.63953 -197.406493 
L 155.769961 -200.914064 
L 155.812713 -204.421636 
L 155.798879 -207.929207 
L 155.77706 -211.436779 
L 155.785275 -214.94435 
L 155.830107 -218.451921 
L 155.890284 -221.959493 
L 155.938704 -225.467064 
L 155.959125 -228.974635 
L 155.946768 -232.482207 
L 155.904384 -235.989778 
L 155.845065 -239.497349 
L 155.794688 -243.004921 
L 155.780219 -246.512492 
L 155.808517 -250.020063 
L 155.858177 -253.527635 
L 155.89467 -257.035206 
L 155.893896 -260.542777 
L 155.856354 -264.050349 
L 155.806878 -267.55792 
L 155.779954 -271.065491 
L 155.796133 -274.573063 
L 155.847771 -278.080634 
L 155.90855 -281.588205 
L 155.955817 -285.095777 
L 155.982834 -288.603348 
L 155.994637 -292.110919 
L 155.998653 -295.618491 
L 155.999728 -299.126062 
L 155.999956 -302.633633 
L 155.999994 -306.141205 
L 155.999999 -309.648776 
L 156 -313.156347 
L 156 -316.663919 
L 156 -320.17149 
L 156 -323.679061 
L 156 -327.186633 
L 156 -330.694204 
L 156 -334.201775 
L 155.999999 -337.709347 
L 155.999993 -341.216918 
L 155.999944 -344.724489 
L 155.999666 -348.232061 
L 155.998388 -351.739632 
L 155.993751 -355.247204 
L 155.980522 -358.754775 
L 155.951175 -362.262346 
L 155.901582 -365.769918 
L 155.840468 -369.277489 
L 155.792048 -372.78506 
L 155.782019 -376.292632 
L 155.816256 -379.800203 
L 155.875448 -383.307774 
L 155.932107 -386.815346 
L 155.970239 -390.322917 
L 156.029761 -390.322917 
L 156.029761 -390.322917 
L 156.067893 -386.815346 
L 156.124552 -383.307774 
L 156.183744 -379.800203 
L 156.217981 -376.292632 
L 156.207952 -372.78506 
L 156.159532 -369.277489 
L 156.098418 -365.769918 
L 156.048825 -362.262346 
L 156.019478 -358.754775 
L 156.006249 -355.247204 
L 156.001612 -351.739632 
L 156.000334 -348.232061 
L 156.000056 -344.724489 
L 156.000007 -341.216918 
L 156.000001 -337.709347 
L 156 -334.201775 
L 156 -330.694204 
L 156 -327.186633 
L 156 -323.679061 
L 156 -320.17149 
L 156 -316.663919 
L 156 -313.156347 
L 156.000001 -309.648776 
L 156.000006 -306.141205 
L 156.000044 -302.633633 
L 156.000272 -299.126062 
L 156.001347 -295.618491 
L 156.005363 -292.110919 
L 156.017166 -288.603348 
L 156.044183 -285.095777 
L 156.09145 -281.588205 
L 156.152229 -278.080634 
L 156.203867 -274.573063 
L 156.220046 -271.065491 
L 156.193122 -267.55792 
L 156.143646 -264.050349 
L 156.106104 -260.542777 
L 156.10533 -257.035206 
L 156.141823 -253.527635 
L 156.191483 -250.020063 
L 156.219781 -246.512492 
L 156.205312 -243.004921 
L 156.154935 -239.497349 
L 156.095616 -235.989778 
L 156.053232 -232.482207 
L 156.040875 -228.974635 
L 156.061296 -225.467064 
L 156.109716 -221.959493 
L 156.169893 -218.451921 
L 156.214725 -214.94435 
L 156.22294 -211.436779 
L 156.201121 -207.929207 
L 156.187287 -204.421636 
L 156.230039 -200.914064 
L 156.36047 -197.406493 
L 156.573664 -193.898922 
L 156.825047 -190.39135 
L 157.044177 -186.883779 
L 157.166818 -183.376208 
L 157.172518 -179.868636 
L 157.101405 -176.361065 
L 157.031963 -172.853494 
L 157.028977 -169.345922 
L 157.09644 -165.838351 
L 157.176088 -162.33078 
L 157.203626 -158.823208 
L 157.178328 -155.315637 
L 157.175374 -151.808066 
L 157.282867 -148.300494 
L 157.526485 -144.792923 
L 157.854495 -141.285352 
L 158.18611 -137.77778 
L 158.470748 -134.270209 
L 158.721505 -130.762638 
L 159.019792 -127.255066 
L 159.484712 -123.747495 
L 160.205091 -120.239924 
L 161.181608 -116.732352 
L 162.342425 -113.224781 
L 163.625938 -109.71721 
L 165.056414 -106.209638 
L 166.757137 -102.702067 
L 168.932917 -99.194496 
L 171.911576 -95.686924 
L 176.237914 -92.179353 
L 182.625221 -88.671782 
L 191.585754 -85.16421 
L 202.856046 -81.656639 
L 214.961548 -78.149068 
L 225.223627 -74.641496 
L 230.4 -71.133925 
L 227.993882 -67.626354 
L 217.757541 -64.118782 
L 202.293922 -60.611211 
L 185.937125 -57.103639 
L 172.515643 -53.596068 
L 163.699645 -50.088497 
L 159.009707 -46.580925 
L 156.980095 -43.073354 
z
" style="stroke: #373737; stroke-opacity: 0; stroke-width: 1.25"/>
    </defs>
    <g clip-path="url(#p42cdb16bfb)">
     <use xlink:href="#m435b05e282" x="0" y="783.256095" style="fill: #4a4c7e; fill-opacity: 0; stroke: #373737; stroke-opacity: 0; stroke-width: 1.25"/>
    </g>
   </g>
   <g id="PolyCollection_2">
    <defs>
     <path id="mbdc32f06df" d="M 344.317143 -353.346288 
L 339.682857 -353.346288 
L 339.171358 -357.045611 
L 338.571958 -360.744933 
L 337.875308 -364.444256 
L 337.072228 -368.143579 
L 336.153954 -371.842901 
L 335.112406 -375.542224 
L 333.940463 -379.241547 
L 332.632234 -382.940869 
L 331.183328 -386.640192 
L 329.591087 -390.339515 
L 327.854792 -394.038838 
L 325.975827 -397.73816 
L 323.95779 -401.437483 
L 321.80655 -405.136806 
L 319.530244 -408.836128 
L 317.139221 -412.535451 
L 314.645932 -416.234774 
L 312.064771 -419.934097 
L 309.411882 -423.633419 
L 306.704929 -427.332742 
L 303.962853 -431.032065 
L 301.205611 -434.731387 
L 298.453909 -438.43071 
L 295.728938 -442.130033 
L 293.052104 -445.829355 
L 290.444767 -449.528678 
L 287.927969 -453.228001 
L 285.522163 -456.927324 
L 283.246926 -460.626646 
L 281.12066 -464.325969 
L 279.160268 -468.025292 
L 277.380816 -471.724614 
L 275.795174 -475.423937 
L 274.413642 -479.12326 
L 273.243577 -482.822582 
L 272.289037 -486.521905 
L 271.55045 -490.221228 
L 271.024341 -493.920551 
L 270.703133 -497.619873 
L 270.575046 -501.319196 
L 270.624123 -505.018519 
L 270.830387 -508.717841 
L 271.170155 -512.417164 
L 271.616507 -516.116487 
L 272.139916 -519.81581 
L 272.709019 -523.515132 
L 273.291525 -527.214455 
L 273.855214 -530.913778 
L 274.369011 -534.6131 
L 274.804091 -538.312423 
L 275.134957 -542.011746 
L 275.340462 -545.711068 
L 275.404729 -549.410391 
L 275.317907 -553.109714 
L 275.076751 -556.809037 
L 274.684975 -560.508359 
L 274.153371 -564.207682 
L 273.499671 -567.907005 
L 272.748151 -571.606327 
L 271.929001 -575.30565 
L 271.077454 -579.004973 
L 270.232724 -582.704295 
L 269.436784 -586.403618 
L 268.733019 -590.102941 
L 268.164811 -593.802264 
L 267.774103 -597.501586 
L 267.6 -601.200909 
L 267.677445 -604.900232 
L 268.036036 -608.599554 
L 268.699011 -612.298877 
L 269.682456 -615.9982 
L 270.994749 -619.697523 
L 272.636268 -623.396845 
L 274.599381 -627.096168 
L 276.868696 -630.795491 
L 279.421588 -634.494813 
L 282.228948 -638.194136 
L 285.256152 -641.893459 
L 288.464184 -645.592781 
L 291.810884 -649.292104 
L 295.252258 -652.991427 
L 298.743793 -656.69075 
L 302.241743 -660.390072 
L 305.704312 -664.089395 
L 309.09271 -667.788718 
L 312.372034 -671.48804 
L 315.511963 -675.187363 
L 318.487236 -678.886686 
L 321.277922 -682.586008 
L 323.869485 -686.285331 
L 326.25265 -689.984654 
L 328.423117 -693.683977 
L 330.381121 -697.383299 
L 332.130899 -701.082622 
L 333.680081 -704.781945 
L 335.039045 -708.481267 
L 336.220261 -712.18059 
L 337.237669 -715.879913 
L 338.106086 -719.579236 
L 345.893914 -719.579236 
L 345.893914 -719.579236 
L 346.762331 -715.879913 
L 347.779739 -712.18059 
L 348.960955 -708.481267 
L 350.319919 -704.781945 
L 351.869101 -701.082622 
L 353.618879 -697.383299 
L 355.576883 -693.683977 
L 357.74735 -689.984654 
L 360.130515 -686.285331 
L 362.722078 -682.586008 
L 365.512764 -678.886686 
L 368.488037 -675.187363 
L 371.627966 -671.48804 
L 374.90729 -667.788718 
L 378.295688 -664.089395 
L 381.758257 -660.390072 
L 385.256207 -656.69075 
L 388.747742 -652.991427 
L 392.189116 -649.292104 
L 395.535816 -645.592781 
L 398.743848 -641.893459 
L 401.771052 -638.194136 
L 404.578412 -634.494813 
L 407.131304 -630.795491 
L 409.400619 -627.096168 
L 411.363732 -623.396845 
L 413.005251 -619.697523 
L 414.317544 -615.9982 
L 415.300989 -612.298877 
L 415.963964 -608.599554 
L 416.322555 -604.900232 
L 416.4 -601.200909 
L 416.225897 -597.501586 
L 415.835189 -593.802264 
L 415.266981 -590.102941 
L 414.563216 -586.403618 
L 413.767276 -582.704295 
L 412.922546 -579.004973 
L 412.070999 -575.30565 
L 411.251849 -571.606327 
L 410.500329 -567.907005 
L 409.846629 -564.207682 
L 409.315025 -560.508359 
L 408.923249 -556.809037 
L 408.682093 -553.109714 
L 408.595271 -549.410391 
L 408.659538 -545.711068 
L 408.865043 -542.011746 
L 409.195909 -538.312423 
L 409.630989 -534.6131 
L 410.144786 -530.913778 
L 410.708475 -527.214455 
L 411.290981 -523.515132 
L 411.860084 -519.81581 
L 412.383493 -516.116487 
L 412.829845 -512.417164 
L 413.169613 -508.717841 
L 413.375877 -505.018519 
L 413.424954 -501.319196 
L 413.296867 -497.619873 
L 412.975659 -493.920551 
L 412.44955 -490.221228 
L 411.710963 -486.521905 
L 410.756423 -482.822582 
L 409.586358 -479.12326 
L 408.204826 -475.423937 
L 406.619184 -471.724614 
L 404.839732 -468.025292 
L 402.87934 -464.325969 
L 400.753074 -460.626646 
L 398.477837 -456.927324 
L 396.072031 -453.228001 
L 393.555233 -449.528678 
L 390.947896 -445.829355 
L 388.271062 -442.130033 
L 385.546091 -438.43071 
L 382.794389 -434.731387 
L 380.037147 -431.032065 
L 377.295071 -427.332742 
L 374.588118 -423.633419 
L 371.935229 -419.934097 
L 369.354068 -416.234774 
L 366.860779 -412.535451 
L 364.469756 -408.836128 
L 362.19345 -405.136806 
L 360.04221 -401.437483 
L 358.024173 -397.73816 
L 356.145208 -394.038838 
L 354.408913 -390.339515 
L 352.816672 -386.640192 
L 351.367766 -382.940869 
L 350.059537 -379.241547 
L 348.887594 -375.542224 
L 347.846046 -371.842901 
L 346.927772 -368.143579 
L 346.124692 -364.444256 
L 345.428042 -360.744933 
L 344.828642 -357.045611 
L 344.317143 -353.346288 
z
" style="stroke: #373737; stroke-opacity: 0; stroke-width: 1.25"/>
    </defs>
    <g clip-path="url(#p42cdb16bfb)">
     <use xlink:href="#mbdc32f06df" x="0" y="783.256095" style="fill: #367182; fill-opacity: 0; stroke: #373737; stroke-opacity: 0; stroke-width: 1.25"/>
    </g>
   </g>
   <g id="PolyCollection_3">
    <defs>
     <path id="m876bad098b" d="M 531.051191 -393.117137 
L 524.948809 -393.117137 
L 524.357474 -396.331959 
L 523.676642 -399.54678 
L 522.897925 -402.761602 
L 522.013097 -405.976423 
L 521.014276 -409.191245 
L 519.894133 -412.406066 
L 518.6461 -415.620888 
L 517.264592 -418.835709 
L 515.745226 -422.05053 
L 514.085022 -425.265352 
L 512.282605 -428.480173 
L 510.338375 -431.694995 
L 508.254654 -434.909816 
L 506.035803 -438.124638 
L 503.688302 -441.339459 
L 501.22079 -444.554281 
L 498.644068 -447.769102 
L 495.971065 -450.983923 
L 493.216758 -454.198745 
L 490.398058 -457.413566 
L 487.533665 -460.628388 
L 484.643889 -463.843209 
L 481.750437 -467.058031 
L 478.87618 -470.272852 
L 476.044896 -473.487674 
L 473.280982 -476.702495 
L 470.60916 -479.917316 
L 468.054142 -483.132138 
L 465.640294 -486.346959 
L 463.391263 -489.561781 
L 461.329602 -492.776602 
L 459.476357 -495.991424 
L 457.850664 -499.206245 
L 456.469317 -502.421067 
L 455.346351 -505.635888 
L 454.492627 -508.850709 
L 453.915442 -512.065531 
L 453.618178 -515.280352 
L 453.6 -518.495174 
L 453.855634 -521.709995 
L 454.375222 -524.924817 
L 455.144292 -528.139638 
L 456.143846 -531.354459 
L 457.35057 -534.569281 
L 458.737195 -537.784102 
L 460.272992 -540.998924 
L 461.924401 -544.213745 
L 463.655789 -547.428567 
L 465.43032 -550.643388 
L 467.210904 -553.85821 
L 468.961213 -557.073031 
L 470.646712 -560.287852 
L 472.235688 -563.502674 
L 473.700218 -566.717495 
L 475.017056 -569.932317 
L 476.168385 -573.147138 
L 477.142415 -576.36196 
L 477.93378 -579.576781 
L 478.54374 -582.791603 
L 478.980138 -586.006424 
L 479.257138 -589.221245 
L 479.394738 -592.436067 
L 479.418067 -595.650888 
L 479.356501 -598.86571 
L 479.242618 -602.080531 
L 479.111052 -605.295353 
L 478.997266 -608.510174 
L 478.93631 -611.724996 
L 478.961613 -614.939817 
L 479.103842 -618.154638 
L 479.389891 -621.36946 
L 479.842029 -624.584281 
L 480.477232 -627.799103 
L 481.306735 -631.013924 
L 482.335805 -634.228746 
L 483.56374 -637.443567 
L 484.984085 -640.658389 
L 486.585047 -643.87321 
L 488.350083 -647.088031 
L 490.25863 -650.302853 
L 492.286937 -653.517674 
L 494.408961 -656.732496 
L 496.597287 -659.947317 
L 498.82403 -663.162139 
L 501.061697 -666.37696 
L 503.283957 -669.591782 
L 505.466313 -672.806603 
L 507.586655 -676.021424 
L 509.625676 -679.236246 
L 511.567154 -682.451067 
L 513.398107 -685.665889 
L 515.108815 -688.88071 
L 516.69274 -692.095532 
L 518.146341 -695.310353 
L 519.468825 -698.525175 
L 520.661833 -701.739996 
L 521.729087 -704.954817 
L 522.676027 -708.169639 
L 523.509439 -711.38446 
L 532.490561 -711.38446 
L 532.490561 -711.38446 
L 533.323973 -708.169639 
L 534.270913 -704.954817 
L 535.338167 -701.739996 
L 536.531175 -698.525175 
L 537.853659 -695.310353 
L 539.30726 -692.095532 
L 540.891185 -688.88071 
L 542.601893 -685.665889 
L 544.432846 -682.451067 
L 546.374324 -679.236246 
L 548.413345 -676.021424 
L 550.533687 -672.806603 
L 552.716043 -669.591782 
L 554.938303 -666.37696 
L 557.17597 -663.162139 
L 559.402713 -659.947317 
L 561.591039 -656.732496 
L 563.713063 -653.517674 
L 565.74137 -650.302853 
L 567.649917 -647.088031 
L 569.414953 -643.87321 
L 571.015915 -640.658389 
L 572.43626 -637.443567 
L 573.664195 -634.228746 
L 574.693265 -631.013924 
L 575.522768 -627.799103 
L 576.157971 -624.584281 
L 576.610109 -621.36946 
L 576.896158 -618.154638 
L 577.038387 -614.939817 
L 577.06369 -611.724996 
L 577.002734 -608.510174 
L 576.888948 -605.295353 
L 576.757382 -602.080531 
L 576.643499 -598.86571 
L 576.581933 -595.650888 
L 576.605262 -592.436067 
L 576.742862 -589.221245 
L 577.019862 -586.006424 
L 577.45626 -582.791603 
L 578.06622 -579.576781 
L 578.857585 -576.36196 
L 579.831615 -573.147138 
L 580.982944 -569.932317 
L 582.299782 -566.717495 
L 583.764312 -563.502674 
L 585.353288 -560.287852 
L 587.038787 -557.073031 
L 588.789096 -553.85821 
L 590.56968 -550.643388 
L 592.344211 -547.428567 
L 594.075599 -544.213745 
L 595.727008 -540.998924 
L 597.262805 -537.784102 
L 598.64943 -534.569281 
L 599.856154 -531.354459 
L 600.855708 -528.139638 
L 601.624778 -524.924817 
L 602.144366 -521.709995 
L 602.4 -518.495174 
L 602.381822 -515.280352 
L 602.084558 -512.065531 
L 601.507373 -508.850709 
L 600.653649 -505.635888 
L 599.530683 -502.421067 
L 598.149336 -499.206245 
L 596.523643 -495.991424 
L 594.670398 -492.776602 
L 592.608737 -489.561781 
L 590.359706 -486.346959 
L 587.945858 -483.132138 
L 585.39084 -479.917316 
L 582.719018 -476.702495 
L 579.955104 -473.487674 
L 577.12382 -470.272852 
L 574.249563 -467.058031 
L 571.356111 -463.843209 
L 568.466335 -460.628388 
L 565.601942 -457.413566 
L 562.783242 -454.198745 
L 560.028935 -450.983923 
L 557.355932 -447.769102 
L 554.77921 -444.554281 
L 552.311698 -441.339459 
L 549.964197 -438.124638 
L 547.745346 -434.909816 
L 545.661625 -431.694995 
L 543.717395 -428.480173 
L 541.914978 -425.265352 
L 540.254774 -422.05053 
L 538.735408 -418.835709 
L 537.3539 -415.620888 
L 536.105867 -412.406066 
L 534.985724 -409.191245 
L 533.986903 -405.976423 
L 533.102075 -402.761602 
L 532.323358 -399.54678 
L 531.642526 -396.331959 
L 531.051191 -393.117137 
z
" style="stroke: #373737; stroke-opacity: 0; stroke-width: 1.25"/>
    </defs>
    <g clip-path="url(#p42cdb16bfb)">
     <use xlink:href="#m876bad098b" x="0" y="783.256095" style="fill: #80c161; fill-opacity: 0; stroke: #373737; stroke-opacity: 0; stroke-width: 1.25"/>
    </g>
   </g>
   <g id="patch_5">
    <path d="M 156 732.961095 
L 156 732.961095 
L 156 732.961095 
L 156 732.961095 
L 156 732.961095 
z
" clip-path="url(#p42cdb16bfb)" style="fill: none; opacity: 0"/>
   </g>
   <g id="patch_6">
    <path d="M 156 732.961095 
L 156 732.961095 
L 156 732.961095 
L 156 732.961095 
L 156 732.961095 
z
" clip-path="url(#p42cdb16bfb)" style="fill: none; opacity: 0"/>
   </g>
   <g id="patch_7">
    <path d="M 156 732.961095 
L 156 732.961095 
L 156 732.961095 
L 156 732.961095 
L 156 732.961095 
z
" clip-path="url(#p42cdb16bfb)" style="fill: none; opacity: 0"/>
   </g>
   <g id="PolyCollection_4">
    <defs>
     <path id="m6de2e539f5" d="M 156.695462 -46.79786 
L 155.304538 -46.79786 
L 154.629326 -48.322114 
L 153.456181 -49.846368 
L 151.549153 -51.370622 
L 148.648209 -52.894876 
L 144.518106 -54.41913 
L 139.014698 -55.943384 
L 132.152678 -57.467638 
L 124.152349 -58.991892 
L 115.445009 -60.516147 
L 106.627991 -62.040401 
L 98.376902 -63.564655 
L 91.337146 -65.088909 
L 86.022894 -66.613163 
L 82.747747 -68.137417 
L 81.6 -69.661671 
L 82.461923 -71.185925 
L 85.061125 -72.710179 
L 89.035929 -74.234433 
L 93.996658 -75.758687 
L 99.570242 -77.282941 
L 105.424183 -78.807195 
L 111.274069 -80.331449 
L 116.883109 -81.855703 
L 122.061698 -83.379957 
L 126.670809 -84.904212 
L 130.62816 -86.428466 
L 133.912804 -87.95272 
L 136.563363 -89.476974 
L 138.667161 -91.001228 
L 140.34083 -92.525482 
L 141.706337 -94.049736 
L 142.868453 -95.57399 
L 143.89978 -97.098244 
L 144.837227 -98.622498 
L 145.689795 -100.146752 
L 146.453353 -101.671006 
L 147.12557 -103.19526 
L 147.714933 -104.719514 
L 148.241329 -106.243768 
L 148.730155 -107.768023 
L 149.204625 -109.292277 
L 149.680555 -110.816531 
L 150.165094 -112.340785 
L 150.658015 -113.865039 
L 151.153151 -115.389293 
L 151.638834 -116.913547 
L 152.098175 -118.437801 
L 152.510928 -119.962055 
L 152.857831 -121.486309 
L 153.126347 -123.010563 
L 153.31529 -124.534817 
L 153.435894 -126.059071 
L 153.508569 -127.583325 
L 153.556739 -129.107579 
L 153.600619 -130.631833 
L 153.653573 -132.156088 
L 153.722065 -133.680342 
L 153.808212 -135.204596 
L 153.912756 -136.72885 
L 154.036582 -138.253104 
L 154.180184 -139.777358 
L 154.341834 -141.301612 
L 154.515782 -142.825866 
L 154.691556 -144.35012 
L 154.854825 -145.874374 
L 154.989742 -147.398628 
L 155.082301 -148.922882 
L 155.123957 -150.447136 
L 155.114449 -151.97139 
L 155.062828 -153.495644 
L 154.986128 -155.019899 
L 154.905857 -156.544153 
L 154.843217 -158.068407 
L 154.814345 -159.592661 
L 154.826795 -161.116915 
L 154.878178 -162.641169 
L 154.957291 -164.165423 
L 155.047368 -165.689677 
L 155.130426 -167.213931 
L 155.191366 -168.738185 
L 155.220701 -170.262439 
L 155.215475 -171.786693 
L 155.178722 -173.310947 
L 155.118186 -174.835201 
L 155.044955 -176.359455 
L 154.972218 -177.883709 
L 154.914002 -179.407964 
L 154.883575 -180.932218 
L 154.891397 -182.456472 
L 154.94292 -183.980726 
L 155.036921 -185.50498 
L 155.165191 -187.029234 
L 155.314033 -188.553488 
L 155.467305 -190.077742 
L 155.610054 -191.601996 
L 155.731485 -193.12625 
L 155.826368 -194.650504 
L 155.89471 -196.174758 
L 155.940193 -197.699012 
L 156.059807 -197.699012 
L 156.059807 -197.699012 
L 156.10529 -196.174758 
L 156.173632 -194.650504 
L 156.268515 -193.12625 
L 156.389946 -191.601996 
L 156.532695 -190.077742 
L 156.685967 -188.553488 
L 156.834809 -187.029234 
L 156.963079 -185.50498 
L 157.05708 -183.980726 
L 157.108603 -182.456472 
L 157.116425 -180.932218 
L 157.085998 -179.407964 
L 157.027782 -177.883709 
L 156.955045 -176.359455 
L 156.881814 -174.835201 
L 156.821278 -173.310947 
L 156.784525 -171.786693 
L 156.779299 -170.262439 
L 156.808634 -168.738185 
L 156.869574 -167.213931 
L 156.952632 -165.689677 
L 157.042709 -164.165423 
L 157.121822 -162.641169 
L 157.173205 -161.116915 
L 157.185655 -159.592661 
L 157.156783 -158.068407 
L 157.094143 -156.544153 
L 157.013872 -155.019899 
L 156.937172 -153.495644 
L 156.885551 -151.97139 
L 156.876043 -150.447136 
L 156.917699 -148.922882 
L 157.010258 -147.398628 
L 157.145175 -145.874374 
L 157.308444 -144.35012 
L 157.484218 -142.825866 
L 157.658166 -141.301612 
L 157.819816 -139.777358 
L 157.963418 -138.253104 
L 158.087244 -136.72885 
L 158.191788 -135.204596 
L 158.277935 -133.680342 
L 158.346427 -132.156088 
L 158.399381 -130.631833 
L 158.443261 -129.107579 
L 158.491431 -127.583325 
L 158.564106 -126.059071 
L 158.68471 -124.534817 
L 158.873653 -123.010563 
L 159.142169 -121.486309 
L 159.489072 -119.962055 
L 159.901825 -118.437801 
L 160.361166 -116.913547 
L 160.846849 -115.389293 
L 161.341985 -113.865039 
L 161.834906 -112.340785 
L 162.319445 -110.816531 
L 162.795375 -109.292277 
L 163.269845 -107.768023 
L 163.758671 -106.243768 
L 164.285067 -104.719514 
L 164.87443 -103.19526 
L 165.546647 -101.671006 
L 166.310205 -100.146752 
L 167.162773 -98.622498 
L 168.10022 -97.098244 
L 169.131547 -95.57399 
L 170.293663 -94.049736 
L 171.65917 -92.525482 
L 173.332839 -91.001228 
L 175.436637 -89.476974 
L 178.087196 -87.95272 
L 181.37184 -86.428466 
L 185.329191 -84.904212 
L 189.938302 -83.379957 
L 195.116891 -81.855703 
L 200.725931 -80.331449 
L 206.575817 -78.807195 
L 212.429758 -77.282941 
L 218.003342 -75.758687 
L 222.964071 -74.234433 
L 226.938875 -72.710179 
L 229.538077 -71.185925 
L 230.4 -69.661671 
L 229.252253 -68.137417 
L 225.977106 -66.613163 
L 220.662854 -65.088909 
L 213.623098 -63.564655 
L 205.372009 -62.040401 
L 196.554991 -60.516147 
L 187.847651 -58.991892 
L 179.847322 -57.467638 
L 172.985302 -55.943384 
L 167.481894 -54.41913 
L 163.351791 -52.894876 
L 160.450847 -51.370622 
L 158.543819 -49.846368 
L 157.370674 -48.322114 
L 156.695462 -46.79786 
z
" style="stroke: #373737; stroke-opacity: 0.5; stroke-width: 1.25"/>
    </defs>
    <g clip-path="url(#p42cdb16bfb)">
     <use xlink:href="#m6de2e539f5" x="0" y="783.256095" style="fill: #4a4c7e; fill-opacity: 0.5; stroke: #373737; stroke-opacity: 0.5; stroke-width: 1.25"/>
    </g>
   </g>
   <g id="patch_8">
    <path d="M 156 732.961095 
L 156 732.961095 
L 156 732.961095 
L 156 732.961095 
z
" clip-path="url(#p42cdb16bfb)" style="fill: #4a4c7e; opacity: 0.5; stroke: #373737; stroke-width: 1.25; stroke-linejoin: miter"/>
   </g>
   <g id="PathCollection_1">
    <defs>
     <path id="C0_0_f3d683a9cc" d="M 0 5 
C 1.326016 5 2.597899 4.473168 3.535534 3.535534 
C 4.473168 2.597899 5 1.326016 5 -0 
C 5 -1.326016 4.473168 -2.597899 3.535534 -3.535534 
C 2.597899 -4.473168 1.326016 -5 0 -5 
C -1.326016 -5 -2.597899 -4.473168 -3.535534 -3.535534 
C -4.473168 -2.597899 -5 -1.326016 -5 0 
C -5 1.326016 -4.473168 2.597899 -3.535534 3.535534 
C -2.597899 4.473168 -1.326016 5 0 5 
z
"/>
    </defs>
    <g clip-path="url(#p42cdb16bfb)">
     <use xlink:href="#C0_0_f3d683a9cc" x="152.340407" y="501.961095" style="fill: #414487; fill-opacity: 0.5; stroke: #373737; stroke-opacity: 0.5; stroke-width: 0.5"/>
    </g>
    <g clip-path="url(#p42cdb16bfb)">
     <use xlink:href="#C0_0_f3d683a9cc" x="160.938874" y="501.961095" style="fill: #414487; fill-opacity: 0.5; stroke: #373737; stroke-opacity: 0.5; stroke-width: 0.5"/>
    </g>
    <g clip-path="url(#p42cdb16bfb)">
     <use xlink:href="#C0_0_f3d683a9cc" x="159.052835" y="501.961095" style="fill: #414487; fill-opacity: 0.5; stroke: #373737; stroke-opacity: 0.5; stroke-width: 0.5"/>
    </g>
    <g clip-path="url(#p42cdb16bfb)">
     <use xlink:href="#C0_0_f3d683a9cc" x="175.993316" y="501.961095" style="fill: #414487; fill-opacity: 0.5; stroke: #373737; stroke-opacity: 0.5; stroke-width: 0.5"/>
    </g>
    <g clip-path="url(#p42cdb16bfb)">
     <use xlink:href="#C0_0_f3d683a9cc" x="153.610221" y="501.961095" style="fill: #414487; fill-opacity: 0.5; stroke: #373737; stroke-opacity: 0.5; stroke-width: 0.5"/>
    </g>
   </g>
   <g id="PathCollection_2">
    <defs>
     <path id="C1_0_7dd8377739" d="M 0 5 
C 1.326016 5 2.597899 4.473168 3.535534 3.535534 
C 4.473168 2.597899 5 1.326016 5 -0 
C 5 -1.326016 4.473168 -2.597899 3.535534 -3.535534 
C 2.597899 -4.473168 1.326016 -5 0 -5 
C -1.326016 -5 -2.597899 -4.473168 -3.535534 -3.535534 
C -4.473168 -2.597899 -5 -1.326016 -5 0 
C -5 1.326016 -4.473168 2.597899 -3.535534 3.535534 
C -2.597899 4.473168 -1.326016 5 0 5 
z
"/>
    </defs>
    <g clip-path="url(#p42cdb16bfb)">
     <use xlink:href="#C1_0_7dd8377739" x="362.467435" y="501.961095" style="fill: #2a788e; fill-opacity: 0.5; stroke: #373737; stroke-opacity: 0.5; stroke-width: 0.5"/>
    </g>
    <g clip-path="url(#p42cdb16bfb)">
     <use xlink:href="#C1_0_7dd8377739" x="358.86787" y="501.961095" style="fill: #2a788e; fill-opacity: 0.5; stroke: #373737; stroke-opacity: 0.5; stroke-width: 0.5"/>
    </g>
    <g clip-path="url(#p42cdb16bfb)">
     <use xlink:href="#C1_0_7dd8377739" x="368.11445" y="501.961095" style="fill: #2a788e; fill-opacity: 0.5; stroke: #373737; stroke-opacity: 0.5; stroke-width: 0.5"/>
    </g>
    <g clip-path="url(#p42cdb16bfb)">
     <use xlink:href="#C1_0_7dd8377739" x="337.943623" y="501.961095" style="fill: #2a788e; fill-opacity: 0.5; stroke: #373737; stroke-opacity: 0.5; stroke-width: 0.5"/>
    </g>
    <g clip-path="url(#p42cdb16bfb)">
     <use xlink:href="#C1_0_7dd8377739" x="354.42931" y="501.961095" style="fill: #2a788e; fill-opacity: 0.5; stroke: #373737; stroke-opacity: 0.5; stroke-width: 0.5"/>
    </g>
    <g clip-path="url(#p42cdb16bfb)">
     <use xlink:href="#C1_0_7dd8377739" x="351.658713" y="501.961095" style="fill: #2a788e; fill-opacity: 0.5; stroke: #373737; stroke-opacity: 0.5; stroke-width: 0.5"/>
    </g>
    <g clip-path="url(#p42cdb16bfb)">
     <use xlink:href="#C1_0_7dd8377739" x="356.745711" y="501.961095" style="fill: #2a788e; fill-opacity: 0.5; stroke: #373737; stroke-opacity: 0.5; stroke-width: 0.5"/>
    </g>
    <g clip-path="url(#p42cdb16bfb)">
     <use xlink:href="#C1_0_7dd8377739" x="371.789418" y="501.961095" style="fill: #2a788e; fill-opacity: 0.5; stroke: #373737; stroke-opacity: 0.5; stroke-width: 0.5"/>
    </g>
    <g clip-path="url(#p42cdb16bfb)">
     <use xlink:href="#C1_0_7dd8377739" x="364.122663" y="501.961095" style="fill: #2a788e; fill-opacity: 0.5; stroke: #373737; stroke-opacity: 0.5; stroke-width: 0.5"/>
    </g>
    <g clip-path="url(#p42cdb16bfb)">
     <use xlink:href="#C1_0_7dd8377739" x="315.594231" y="501.961095" style="fill: #2a788e; fill-opacity: 0.5; stroke: #373737; stroke-opacity: 0.5; stroke-width: 0.5"/>
    </g>
    <g clip-path="url(#p42cdb16bfb)">
     <use xlink:href="#C1_0_7dd8377739" x="325.046409" y="501.961095" style="fill: #2a788e; fill-opacity: 0.5; stroke: #373737; stroke-opacity: 0.5; stroke-width: 0.5"/>
    </g>
    <g clip-path="url(#p42cdb16bfb)">
     <use xlink:href="#C1_0_7dd8377739" x="374.129461" y="501.961095" style="fill: #2a788e; fill-opacity: 0.5; stroke: #373737; stroke-opacity: 0.5; stroke-width: 0.5"/>
    </g>
    <g clip-path="url(#p42cdb16bfb)">
     <use xlink:href="#C1_0_7dd8377739" x="343.953041" y="501.961095" style="fill: #2a788e; fill-opacity: 0.5; stroke: #373737; stroke-opacity: 0.5; stroke-width: 0.5"/>
    </g>
    <g clip-path="url(#p42cdb16bfb)">
     <use xlink:href="#C1_0_7dd8377739" x="378.615321" y="501.961095" style="fill: #2a788e; fill-opacity: 0.5; stroke: #373737; stroke-opacity: 0.5; stroke-width: 0.5"/>
    </g>
    <g clip-path="url(#p42cdb16bfb)">
     <use xlink:href="#C1_0_7dd8377739" x="320.269308" y="501.961095" style="fill: #2a788e; fill-opacity: 0.5; stroke: #373737; stroke-opacity: 0.5; stroke-width: 0.5"/>
    </g>
   </g>
   <g id="PathCollection_3">
    <defs>
     <path id="C2_0_6f5d6934fa" d="M 0 5 
C 1.326016 5 2.597899 4.473168 3.535534 3.535534 
C 4.473168 2.597899 5 1.326016 5 -0 
C 5 -1.326016 4.473168 -2.597899 3.535534 -3.535534 
C 2.597899 -4.473168 1.326016 -5 0 -5 
C -1.326016 -5 -2.597899 -4.473168 -3.535534 -3.535534 
C -4.473168 -2.597899 -5 -1.326016 -5 0 
C -5 1.326016 -4.473168 2.597899 -3.535534 3.535534 
C -2.597899 4.473168 -1.326016 5 0 5 
z
"/>
    </defs>
    <g clip-path="url(#p42cdb16bfb)">
     <use xlink:href="#C2_0_6f5d6934fa" x="529.963007" y="501.961095" style="fill: #7ad151; fill-opacity: 0.5; stroke: #373737; stroke-opacity: 0.5; stroke-width: 0.5"/>
    </g>
    <g clip-path="url(#p42cdb16bfb)">
     <use xlink:href="#C2_0_6f5d6934fa" x="506.608927" y="501.961095" style="fill: #7ad151; fill-opacity: 0.5; stroke: #373737; stroke-opacity: 0.5; stroke-width: 0.5"/>
    </g>
    <g clip-path="url(#p42cdb16bfb)">
     <use xlink:href="#C2_0_6f5d6934fa" x="555.828949" y="501.961095" style="fill: #7ad151; fill-opacity: 0.5; stroke: #373737; stroke-opacity: 0.5; stroke-width: 0.5"/>
    </g>
    <g clip-path="url(#p42cdb16bfb)">
     <use xlink:href="#C2_0_6f5d6934fa" x="526.773501" y="501.961095" style="fill: #7ad151; fill-opacity: 0.5; stroke: #373737; stroke-opacity: 0.5; stroke-width: 0.5"/>
    </g>
    <g clip-path="url(#p42cdb16bfb)">
     <use xlink:href="#C2_0_6f5d6934fa" x="503.344322" y="501.961095" style="fill: #7ad151; fill-opacity: 0.5; stroke: #373737; stroke-opacity: 0.5; stroke-width: 0.5"/>
    </g>
    <g clip-path="url(#p42cdb16bfb)">
     <use xlink:href="#C2_0_6f5d6934fa" x="551.241655" y="501.961095" style="fill: #7ad151; fill-opacity: 0.5; stroke: #373737; stroke-opacity: 0.5; stroke-width: 0.5"/>
    </g>
    <g clip-path="url(#p42cdb16bfb)">
     <use xlink:href="#C2_0_6f5d6934fa" x="540.801947" y="501.961095" style="fill: #7ad151; fill-opacity: 0.5; stroke: #373737; stroke-opacity: 0.5; stroke-width: 0.5"/>
    </g>
    <g clip-path="url(#p42cdb16bfb)">
     <use xlink:href="#C2_0_6f5d6934fa" x="507.056992" y="501.961095" style="fill: #7ad151; fill-opacity: 0.5; stroke: #373737; stroke-opacity: 0.5; stroke-width: 0.5"/>
    </g>
    <g clip-path="url(#p42cdb16bfb)">
     <use xlink:href="#C2_0_6f5d6934fa" x="524.594842" y="501.961095" style="fill: #7ad151; fill-opacity: 0.5; stroke: #373737; stroke-opacity: 0.5; stroke-width: 0.5"/>
    </g>
   </g>
   <g id="line2d_22"/>
   <g id="line2d_23"/>
   <g id="line2d_24"/>
   <g id="legend_1">
    <g id="patch_9">
     <path d="M 560.85375 601.302345 
L 612.6 601.302345 
Q 615 601.302345 615 598.902345 
L 615 464.161095 
Q 615 461.761095 612.6 461.761095 
L 560.85375 461.761095 
Q 558.45375 461.761095 558.45375 464.161095 
L 558.45375 598.902345 
Q 558.45375 601.302345 560.85375 601.302345 
z
" style="fill: #ffffff; opacity: 0.8; stroke: #cccccc; stroke-linejoin: miter"/>
    </g>
    <g id="text_13">
     <text style="font: 12px 'Arial'; text-anchor: start" x="567.717187" y="475.29672" transform="rotate(-0 567.717187 475.29672)">numSq</text>
    </g>
    <g id="line2d_25">
     <defs>
      <path id="m2437dfdf90" d="M 0 5 
C 1.326016 5 2.597899 4.473168 3.535534 3.535534 
C 4.473168 2.597899 5 1.326016 5 0 
C 5 -1.326016 4.473168 -2.597899 3.535534 -3.535534 
C 2.597899 -4.473168 1.326016 -5 0 -5 
C -1.326016 -5 -2.597899 -4.473168 -3.535534 -3.535534 
C -4.473168 -2.597899 -5 -1.326016 -5 0 
C -5 1.326016 -4.473168 2.597899 -3.535534 3.535534 
C -2.597899 4.473168 -1.326016 5 0 5 
z
" style="stroke: #373737; stroke-opacity: 0.5; stroke-width: 0.5"/>
     </defs>
     <g>
      <use xlink:href="#m2437dfdf90" x="575.25375" y="488.071095" style="fill: #414487; fill-opacity: 0.5; stroke: #373737; stroke-opacity: 0.5; stroke-width: 0.5"/>
     </g>
    </g>
    <g id="text_14">
     <text style="font: 12px 'Arial'; text-anchor: start" x="596.85375" y="492.271095" transform="rotate(-0 596.85375 492.271095)">1</text>
    </g>
    <g id="line2d_26">
     <defs>
      <path id="md49391f053" d="M 0 5 
C 1.326016 5 2.597899 4.473168 3.535534 3.535534 
C 4.473168 2.597899 5 1.326016 5 0 
C 5 -1.326016 4.473168 -2.597899 3.535534 -3.535534 
C 2.597899 -4.473168 1.326016 -5 0 -5 
C -1.326016 -5 -2.597899 -4.473168 -3.535534 -3.535534 
C -4.473168 -2.597899 -5 -1.326016 -5 0 
C -5 1.326016 -4.473168 2.597899 -3.535534 3.535534 
C -2.597899 4.473168 -1.326016 5 0 5 
z
" style="stroke: #373737; stroke-opacity: 0.5; stroke-width: 0.5"/>
     </defs>
     <g>
      <use xlink:href="#md49391f053" x="575.25375" y="505.04547" style="fill: #2a788e; fill-opacity: 0.5; stroke: #373737; stroke-opacity: 0.5; stroke-width: 0.5"/>
     </g>
    </g>
    <g id="text_15">
     <text style="font: 12px 'Arial'; text-anchor: start" x="596.85375" y="509.24547" transform="rotate(-0 596.85375 509.24547)">5</text>
    </g>
    <g id="line2d_27">
     <defs>
      <path id="md23f714a5e" d="M 0 5 
C 1.326016 5 2.597899 4.473168 3.535534 3.535534 
C 4.473168 2.597899 5 1.326016 5 0 
C 5 -1.326016 4.473168 -2.597899 3.535534 -3.535534 
C 2.597899 -4.473168 1.326016 -5 0 -5 
C -1.326016 -5 -2.597899 -4.473168 -3.535534 -3.535534 
C -4.473168 -2.597899 -5 -1.326016 -5 0 
C -5 1.326016 -4.473168 2.597899 -3.535534 3.535534 
C -2.597899 4.473168 -1.326016 5 0 5 
z
" style="stroke: #373737; stroke-opacity: 0.5; stroke-width: 0.5"/>
     </defs>
     <g>
      <use xlink:href="#md23f714a5e" x="575.25375" y="522.019845" style="fill: #7ad151; fill-opacity: 0.5; stroke: #373737; stroke-opacity: 0.5; stroke-width: 0.5"/>
     </g>
    </g>
    <g id="text_16">
     <text style="font: 12px 'Arial'; text-anchor: start" x="596.85375" y="526.219845" transform="rotate(-0 596.85375 526.219845)">15</text>
    </g>
    <g id="patch_10">
     <path d="M 563.25375 543.19422 
L 587.25375 543.19422 
L 587.25375 534.79422 
L 563.25375 534.79422 
L 563.25375 543.19422 
z
" style="fill: none; opacity: 0"/>
    </g>
    <g id="text_17">
     <text style="font: 12px 'Arial'; text-anchor: start" x="596.85375" y="543.19422" transform="rotate(-0 596.85375 543.19422)">1</text>
    </g>
    <g id="patch_11">
     <path d="M 563.25375 560.168595 
L 587.25375 560.168595 
L 587.25375 551.768595 
L 563.25375 551.768595 
L 563.25375 560.168595 
z
" style="fill: none; opacity: 0"/>
    </g>
    <g id="text_18">
     <text style="font: 12px 'Arial'; text-anchor: start" x="596.85375" y="560.168595" transform="rotate(-0 596.85375 560.168595)">5</text>
    </g>
    <g id="patch_12">
     <path d="M 563.25375 577.14297 
L 587.25375 577.14297 
L 587.25375 568.74297 
L 563.25375 568.74297 
L 563.25375 577.14297 
z
" style="fill: none; opacity: 0"/>
    </g>
    <g id="text_19">
     <text style="font: 12px 'Arial'; text-anchor: start" x="596.85375" y="577.14297" transform="rotate(-0 596.85375 577.14297)">15</text>
    </g>
    <g id="patch_13">
     <path d="M 563.25375 594.117345 
L 587.25375 594.117345 
L 587.25375 585.717345 
L 563.25375 585.717345 
z
" style="fill: #4a4c7e; opacity: 0.5; stroke: #373737; stroke-width: 1.25; stroke-linejoin: miter"/>
    </g>
    <g id="text_20">
     <text style="font: 12px 'Arial'; text-anchor: start" x="596.85375" y="594.117345" transform="rotate(-0 596.85375 594.117345)">1</text>
    </g>
   </g>
   <g id="text_21">
    <text style="fill: #808080; font: 12px 'Arial'; text-anchor: middle" x="249" y="29.851566" transform="rotate(-0 249 29.851566)">****</text>
   </g>
   <g id="text_22">
    <text style="fill: #808080; font: 12px 'Arial'; text-anchor: middle" x="342" y="22.82047" transform="rotate(-0 342 22.82047)">****</text>
   </g>
   <g id="text_23">
    <text style="fill: #808080; font: 12px 'Arial'; text-anchor: middle" x="435" y="15.789375" transform="rotate(-0 435 15.789375)">n.s.</text>
   </g>
  </g>
 </g>
 <defs>
  <clipPath id="p42cdb16bfb">
   <rect x="63" y="455.761095" width="558" height="277.2"/>
  </clipPath>
 </defs>
</svg>
