<?xml version="1.0" encoding="utf-8" standalone="no"?>
<!DOCTYPE svg PUBLIC "-//W3C//DTD SVG 1.1//EN"
  "http://www.w3.org/Graphics/SVG/1.1/DTD/svg11.dtd">
<svg xmlns:xlink="http://www.w3.org/1999/xlink" width="607.866875pt" height="324.695pt" viewBox="0 0 607.866875 324.695" xmlns="http://www.w3.org/2000/svg" version="1.1">
 <metadata>
  <rdf:RDF xmlns:dc="http://purl.org/dc/elements/1.1/" xmlns:cc="http://creativecommons.org/ns#" xmlns:rdf="http://www.w3.org/1999/02/22-rdf-syntax-ns#">
   <cc:Work>
    <dc:type rdf:resource="http://purl.org/dc/dcmitype/StillImage"/>
    <dc:date>2024-05-11T00:33:25.981900</dc:date>
    <dc:format>image/svg+xml</dc:format>
    <dc:creator>
     <cc:Agent>
      <dc:title>Matplotlib v3.8.1, https://matplotlib.org/</dc:title>
     </cc:Agent>
    </dc:creator>
   </cc:Work>
  </rdf:RDF>
 </metadata>
 <defs>
  <style type="text/css">*{stroke-linejoin: round; stroke-linecap: butt}</style>
 </defs>
 <g id="figure_1">
  <g id="patch_1">
   <path d="M 0 324.695 
L 607.866875 324.695 
L 607.866875 0 
L 0 0 
z
" style="fill: #ffffff"/>
  </g>
  <g id="axes_1">
   <g id="patch_2">
    <path d="M 42.666875 284.4 
L 600.666875 284.4 
L 600.666875 7.2 
L 42.666875 7.2 
z
" style="fill: #ffffff"/>
   </g>
   <g id="matplotlib.axis_1">
    <g id="xtick_1">
     <g id="line2d_1">
      <defs>
       <path id="m843ed35b70" d="M 0 0 
L 0 3.5 
" style="stroke: #000000; stroke-width: 0.8"/>
      </defs>
      <g>
       <use xlink:href="#m843ed35b70" x="135.666875" y="284.4" style="stroke: #000000; stroke-width: 0.8"/>
      </g>
     </g>
     <g id="text_1">
      <text style="font: 12px 'Arial'; text-anchor: middle" x="135.666875" y="299.989375" transform="rotate(-0 135.666875 299.989375)">1</text>
     </g>
    </g>
    <g id="xtick_2">
     <g id="line2d_2">
      <g>
       <use xlink:href="#m843ed35b70" x="321.666875" y="284.4" style="stroke: #000000; stroke-width: 0.8"/>
      </g>
     </g>
     <g id="text_2">
      <text style="font: 12px 'Arial'; text-anchor: middle" x="321.666875" y="299.989375" transform="rotate(-0 321.666875 299.989375)">5</text>
     </g>
    </g>
    <g id="xtick_3">
     <g id="line2d_3">
      <g>
       <use xlink:href="#m843ed35b70" x="507.666875" y="284.4" style="stroke: #000000; stroke-width: 0.8"/>
      </g>
     </g>
     <g id="text_3">
      <text style="font: 12px 'Arial'; text-anchor: middle" x="507.666875" y="299.989375" transform="rotate(-0 507.666875 299.989375)">15</text>
     </g>
    </g>
    <g id="text_4">
     <text style="font: 12px 'Arial'; text-anchor: middle" x="321.666875" y="315.11" transform="rotate(-0 321.666875 315.11)">numSq</text>
    </g>
   </g>
   <g id="matplotlib.axis_2">
    <g id="ytick_1">
     <g id="line2d_4">
      <defs>
       <path id="m6ccddfd91a" d="M 0 0 
L -3.5 0 
" style="stroke: #000000; stroke-width: 0.8"/>
      </defs>
      <g>
       <use xlink:href="#m6ccddfd91a" x="42.666875" y="284.4" style="stroke: #000000; stroke-width: 0.8"/>
      </g>
     </g>
     <g id="text_5">
      <text style="font: 12px 'Arial'; text-anchor: end" x="35.666875" y="288.694688" transform="rotate(-0 35.666875 288.694688)">0</text>
     </g>
    </g>
    <g id="ytick_2">
     <g id="line2d_5">
      <g>
       <use xlink:href="#m6ccddfd91a" x="42.666875" y="256.68" style="stroke: #000000; stroke-width: 0.8"/>
      </g>
     </g>
     <g id="text_6">
      <text style="font: 12px 'Arial'; text-anchor: end" x="35.666875" y="260.974688" transform="rotate(-0 35.666875 260.974688)">2</text>
     </g>
    </g>
    <g id="ytick_3">
     <g id="line2d_6">
      <g>
       <use xlink:href="#m6ccddfd91a" x="42.666875" y="228.96" style="stroke: #000000; stroke-width: 0.8"/>
      </g>
     </g>
     <g id="text_7">
      <text style="font: 12px 'Arial'; text-anchor: end" x="35.666875" y="233.254688" transform="rotate(-0 35.666875 233.254688)">4</text>
     </g>
    </g>
    <g id="ytick_4">
     <g id="line2d_7">
      <g>
       <use xlink:href="#m6ccddfd91a" x="42.666875" y="201.24" style="stroke: #000000; stroke-width: 0.8"/>
      </g>
     </g>
     <g id="text_8">
      <text style="font: 12px 'Arial'; text-anchor: end" x="35.666875" y="205.534688" transform="rotate(-0 35.666875 205.534688)">6</text>
     </g>
    </g>
    <g id="ytick_5">
     <g id="line2d_8">
      <g>
       <use xlink:href="#m6ccddfd91a" x="42.666875" y="173.52" style="stroke: #000000; stroke-width: 0.8"/>
      </g>
     </g>
     <g id="text_9">
      <text style="font: 12px 'Arial'; text-anchor: end" x="35.666875" y="177.814688" transform="rotate(-0 35.666875 177.814688)">8</text>
     </g>
    </g>
    <g id="ytick_6">
     <g id="line2d_9">
      <g>
       <use xlink:href="#m6ccddfd91a" x="42.666875" y="145.8" style="stroke: #000000; stroke-width: 0.8"/>
      </g>
     </g>
     <g id="text_10">
      <text style="font: 12px 'Arial'; text-anchor: end" x="35.666875" y="150.094688" transform="rotate(-0 35.666875 150.094688)">10</text>
     </g>
    </g>
    <g id="text_11">
     <text style="font: 12px 'Arial'; text-anchor: middle" x="15.935625" y="145.8" transform="rotate(-90 15.935625 145.8)">cell_fpr</text>
    </g>
   </g>
   <g id="line2d_10">
    <path d="M 64.931419 263.455851 
L 206.402331 263.455851 
" clip-path="url(#pbbc3e8eb05)" style="fill: none; stroke-dasharray: 1.5625,0.9375; stroke-dashoffset: 0; stroke: #373737; stroke-width: 1.25"/>
   </g>
   <g id="line2d_11">
    <path d="M 65.445151 256.946724 
L 205.888599 256.946724 
" clip-path="url(#pbbc3e8eb05)" style="fill: none; stroke-dasharray: 3.125,1.25; stroke-dashoffset: 0; stroke: #373737; stroke-width: 1.25"/>
   </g>
   <g id="line2d_12">
    <path d="M 94.804002 247.956251 
L 176.529748 247.956251 
" clip-path="url(#pbbc3e8eb05)" style="fill: none; stroke-dasharray: 1.5625,0.9375; stroke-dashoffset: 0; stroke: #373737; stroke-width: 1.25"/>
   </g>
   <g id="patch_3">
    <path d="M 42.666875 284.4 
L 42.666875 7.2 
" style="fill: none; stroke: #000000; stroke-width: 0.8; stroke-linejoin: miter; stroke-linecap: square"/>
   </g>
   <g id="patch_4">
    <path d="M 42.666875 284.4 
L 600.666875 284.4 
" style="fill: none; stroke: #000000; stroke-width: 0.8; stroke-linejoin: miter; stroke-linecap: square"/>
   </g>
   <g id="PolyCollection_1">
    <defs>
     <path id="mdcbabad653" d="M 135.984644 -40.731623 
L 135.349106 -40.731623 
L 135.059476 -41.930058 
L 134.559448 -43.128494 
L 133.739093 -44.326929 
L 132.459828 -45.525365 
L 130.563502 -46.723801 
L 127.891283 -47.922236 
L 124.311618 -49.120672 
L 119.752946 -50.319108 
L 114.233567 -51.517543 
L 107.879741 -52.715979 
L 100.924947 -53.914414 
L 93.688078 -55.11285 
L 86.534497 -56.311286 
L 79.829075 -57.509721 
L 73.892296 -58.708157 
L 68.968862 -59.906593 
L 65.213493 -61.105028 
L 62.693014 -62.303464 
L 61.399381 -63.501899 
L 61.266875 -64.700335 
L 62.188294 -65.898771 
L 64.028471 -67.097206 
L 66.636178 -68.295642 
L 69.855898 -69.494078 
L 73.538901 -70.692513 
L 77.550828 -71.890949 
L 81.772858 -73.089385 
L 86.096427 -74.28782 
L 90.415643 -75.486256 
L 94.623807 -76.684691 
L 98.618618 -77.883127 
L 102.315377 -79.081563 
L 105.66197 -80.279998 
L 108.647281 -81.478434 
L 111.297513 -82.67687 
L 113.66099 -83.875305 
L 115.787856 -85.073741 
L 117.713299 -86.272176 
L 119.450653 -87.470612 
L 120.99557 -88.669048 
L 122.337427 -89.867483 
L 123.471734 -91.065919 
L 124.408107 -92.264355 
L 125.171505 -93.46279 
L 125.797676 -94.661226 
L 126.325859 -95.859661 
L 126.791944 -97.058097 
L 127.224088 -98.256533 
L 127.641146 -99.454968 
L 128.053017 -100.653404 
L 128.461627 -101.85184 
L 128.861781 -103.050275 
L 129.242101 -104.248711 
L 129.586948 -105.447146 
L 129.880151 -106.645582 
L 130.110283 -107.844018 
L 130.27595 -109.042453 
L 130.388897 -110.240889 
L 130.473363 -111.439325 
L 130.56161 -112.63776 
L 130.687121 -113.836196 
L 130.877608 -115.034632 
L 131.149584 -116.233067 
L 131.505361 -117.431503 
L 131.932615 -118.629938 
L 132.406341 -119.828374 
L 132.892864 -121.02681 
L 133.355327 -122.225245 
L 133.759614 -123.423681 
L 134.079447 -124.622117 
L 134.299639 -125.820552 
L 134.417183 -127.018988 
L 134.440561 -128.217423 
L 134.38791 -129.415859 
L 134.284438 -130.614295 
L 134.159091 -131.81273 
L 134.04043 -133.011166 
L 133.952083 -134.209602 
L 133.908766 -135.408037 
L 133.914058 -136.606473 
L 133.960771 -137.804908 
L 134.033849 -139.003344 
L 134.114946 -140.20178 
L 134.187421 -141.400215 
L 134.240554 -142.598651 
L 134.272116 -143.797087 
L 134.288764 -144.995522 
L 134.304114 -146.193958 
L 134.334798 -147.392394 
L 134.39549 -148.590829 
L 134.494354 -149.789265 
L 134.630461 -150.9877 
L 134.794064 -152.186136 
L 134.969569 -153.384572 
L 135.139977 -154.583007 
L 135.291127 -155.781443 
L 135.414372 -156.979879 
L 135.507155 -158.178314 
L 135.571854 -159.37675 
L 135.761896 -159.37675 
L 135.761896 -159.37675 
L 135.826595 -158.178314 
L 135.919378 -156.979879 
L 136.042623 -155.781443 
L 136.193773 -154.583007 
L 136.364181 -153.384572 
L 136.539686 -152.186136 
L 136.703289 -150.9877 
L 136.839396 -149.789265 
L 136.93826 -148.590829 
L 136.998952 -147.392394 
L 137.029636 -146.193958 
L 137.044986 -144.995522 
L 137.061634 -143.797087 
L 137.093196 -142.598651 
L 137.146329 -141.400215 
L 137.218804 -140.20178 
L 137.299901 -139.003344 
L 137.372979 -137.804908 
L 137.419692 -136.606473 
L 137.424984 -135.408037 
L 137.381667 -134.209602 
L 137.29332 -133.011166 
L 137.174659 -131.81273 
L 137.049312 -130.614295 
L 136.94584 -129.415859 
L 136.893189 -128.217423 
L 136.916567 -127.018988 
L 137.034111 -125.820552 
L 137.254303 -124.622117 
L 137.574136 -123.423681 
L 137.978423 -122.225245 
L 138.440886 -121.02681 
L 138.927409 -119.828374 
L 139.401135 -118.629938 
L 139.828389 -117.431503 
L 140.184166 -116.233067 
L 140.456142 -115.034632 
L 140.646629 -113.836196 
L 140.77214 -112.63776 
L 140.860387 -111.439325 
L 140.944853 -110.240889 
L 141.0578 -109.042453 
L 141.223467 -107.844018 
L 141.453599 -106.645582 
L 141.746802 -105.447146 
L 142.091649 -104.248711 
L 142.471969 -103.050275 
L 142.872123 -101.85184 
L 143.280733 -100.653404 
L 143.692604 -99.454968 
L 144.109662 -98.256533 
L 144.541806 -97.058097 
L 145.007891 -95.859661 
L 145.536074 -94.661226 
L 146.162245 -93.46279 
L 146.925643 -92.264355 
L 147.862016 -91.065919 
L 148.996323 -89.867483 
L 150.33818 -88.669048 
L 151.883097 -87.470612 
L 153.620451 -86.272176 
L 155.545894 -85.073741 
L 157.67276 -83.875305 
L 160.036237 -82.67687 
L 162.686469 -81.478434 
L 165.67178 -80.279998 
L 169.018373 -79.081563 
L 172.715132 -77.883127 
L 176.709943 -76.684691 
L 180.918107 -75.486256 
L 185.237323 -74.28782 
L 189.560892 -73.089385 
L 193.782922 -71.890949 
L 197.794849 -70.692513 
L 201.477852 -69.494078 
L 204.697572 -68.295642 
L 207.305279 -67.097206 
L 209.145456 -65.898771 
L 210.066875 -64.700335 
L 209.934369 -63.501899 
L 208.640736 -62.303464 
L 206.120257 -61.105028 
L 202.364888 -59.906593 
L 197.441454 -58.708157 
L 191.504675 -57.509721 
L 184.799253 -56.311286 
L 177.645672 -55.11285 
L 170.408803 -53.914414 
L 163.454009 -52.715979 
L 157.100183 -51.517543 
L 151.580804 -50.319108 
L 147.022132 -49.120672 
L 143.442467 -47.922236 
L 140.770248 -46.723801 
L 138.873922 -45.525365 
L 137.594657 -44.326929 
L 136.774302 -43.128494 
L 136.274274 -41.930058 
L 135.984644 -40.731623 
z
" style="stroke: #373737; stroke-opacity: 0.5; stroke-width: 1.25"/>
    </defs>
    <g clip-path="url(#pbbc3e8eb05)">
     <use xlink:href="#mdcbabad653" x="0" y="324.695" style="fill: #4a4c7e; fill-opacity: 0.5; stroke: #373737; stroke-opacity: 0.5; stroke-width: 1.25"/>
    </g>
   </g>
   <g id="patch_5">
    <path d="M 135.666875 284.4 
L 135.666875 284.4 
L 135.666875 284.4 
L 135.666875 284.4 
z
" clip-path="url(#pbbc3e8eb05)" style="fill: #4a4c7e; opacity: 0.5; stroke: #373737; stroke-width: 1.25; stroke-linejoin: miter"/>
   </g>
   <g id="PathCollection_1">
    <defs>
     <path id="C0_0_a29aa58b6a" d="M 0 5 
C 1.326016 5 2.597899 4.473168 3.535534 3.535534 
C 4.473168 2.597899 5 1.326016 5 -0 
C 5 -1.326016 4.473168 -2.597899 3.535534 -3.535534 
C 2.597899 -4.473168 1.326016 -5 0 -5 
C -1.326016 -5 -2.597899 -4.473168 -3.535534 -3.535534 
C -4.473168 -2.597899 -5 -1.326016 -5 0 
C -5 1.326016 -4.473168 2.597899 -3.535534 3.535534 
C -2.597899 4.473168 -1.326016 5 0 5 
z
"/>
    </defs>
    <g clip-path="url(#pbbc3e8eb05)">
     <use xlink:href="#C0_0_a29aa58b6a" x="153.637551" y="62.64" style="fill: #414487; fill-opacity: 0.5"/>
    </g>
    <g clip-path="url(#pbbc3e8eb05)">
     <use xlink:href="#C0_0_a29aa58b6a" x="121.188792" y="62.64" style="fill: #414487; fill-opacity: 0.5"/>
    </g>
    <g clip-path="url(#pbbc3e8eb05)">
     <use xlink:href="#C0_0_a29aa58b6a" x="126.368483" y="62.64" style="fill: #414487; fill-opacity: 0.5"/>
    </g>
    <g clip-path="url(#pbbc3e8eb05)">
     <use xlink:href="#C0_0_a29aa58b6a" x="149.862197" y="62.64" style="fill: #414487; fill-opacity: 0.5"/>
    </g>
   </g>
   <g id="PathCollection_2">
    <defs>
     <path id="C1_0_7ed590a89c" d="M 0 5 
C 1.326016 5 2.597899 4.473168 3.535534 3.535534 
C 4.473168 2.597899 5 1.326016 5 -0 
C 5 -1.326016 4.473168 -2.597899 3.535534 -3.535534 
C 2.597899 -4.473168 1.326016 -5 0 -5 
C -1.326016 -5 -2.597899 -4.473168 -3.535534 -3.535534 
C -4.473168 -2.597899 -5 -1.326016 -5 0 
C -5 1.326016 -4.473168 2.597899 -3.535534 3.535534 
C -2.597899 4.473168 -1.326016 5 0 5 
z
"/>
    </defs>
    <g clip-path="url(#pbbc3e8eb05)">
     <use xlink:href="#C1_0_7ed590a89c" x="332.685123" y="62.64" style="fill: #2a788e; fill-opacity: 0.5"/>
    </g>
    <g clip-path="url(#pbbc3e8eb05)">
     <use xlink:href="#C1_0_7ed590a89c" x="333.905634" y="62.64" style="fill: #2a788e; fill-opacity: 0.5"/>
    </g>
    <g clip-path="url(#pbbc3e8eb05)">
     <use xlink:href="#C1_0_7ed590a89c" x="330.686284" y="62.64" style="fill: #2a788e; fill-opacity: 0.5"/>
    </g>
    <g clip-path="url(#pbbc3e8eb05)">
     <use xlink:href="#C1_0_7ed590a89c" x="314.758387" y="62.64" style="fill: #2a788e; fill-opacity: 0.5"/>
    </g>
    <g clip-path="url(#pbbc3e8eb05)">
     <use xlink:href="#C1_0_7ed590a89c" x="337.40787" y="62.64" style="fill: #2a788e; fill-opacity: 0.5"/>
    </g>
    <g clip-path="url(#pbbc3e8eb05)">
     <use xlink:href="#C1_0_7ed590a89c" x="331.630728" y="62.64" style="fill: #2a788e; fill-opacity: 0.5"/>
    </g>
    <g clip-path="url(#pbbc3e8eb05)">
     <use xlink:href="#C1_0_7ed590a89c" x="338.658364" y="62.64" style="fill: #2a788e; fill-opacity: 0.5"/>
    </g>
    <g clip-path="url(#pbbc3e8eb05)">
     <use xlink:href="#C1_0_7ed590a89c" x="328.688294" y="62.64" style="fill: #2a788e; fill-opacity: 0.5"/>
    </g>
    <g clip-path="url(#pbbc3e8eb05)">
     <use xlink:href="#C1_0_7ed590a89c" x="334.136765" y="62.64" style="fill: #2a788e; fill-opacity: 0.5"/>
    </g>
    <g clip-path="url(#pbbc3e8eb05)">
     <use xlink:href="#C1_0_7ed590a89c" x="325.649459" y="62.64" style="fill: #2a788e; fill-opacity: 0.5"/>
    </g>
    <g clip-path="url(#pbbc3e8eb05)">
     <use xlink:href="#C1_0_7ed590a89c" x="325.279449" y="62.64" style="fill: #2a788e; fill-opacity: 0.5"/>
    </g>
    <g clip-path="url(#pbbc3e8eb05)">
     <use xlink:href="#C1_0_7ed590a89c" x="307.794029" y="62.64" style="fill: #2a788e; fill-opacity: 0.5"/>
    </g>
    <g clip-path="url(#pbbc3e8eb05)">
     <use xlink:href="#C1_0_7ed590a89c" x="339.142015" y="62.64" style="fill: #2a788e; fill-opacity: 0.5"/>
    </g>
    <g clip-path="url(#pbbc3e8eb05)">
     <use xlink:href="#C1_0_7ed590a89c" x="312.195249" y="62.64" style="fill: #2a788e; fill-opacity: 0.5"/>
    </g>
    <g clip-path="url(#pbbc3e8eb05)">
     <use xlink:href="#C1_0_7ed590a89c" x="313.4194" y="62.64" style="fill: #2a788e; fill-opacity: 0.5"/>
    </g>
   </g>
   <g id="PathCollection_3">
    <defs>
     <path id="C2_0_2e628a2fb6" d="M 0 5 
C 1.326016 5 2.597899 4.473168 3.535534 3.535534 
C 4.473168 2.597899 5 1.326016 5 -0 
C 5 -1.326016 4.473168 -2.597899 3.535534 -3.535534 
C 2.597899 -4.473168 1.326016 -5 0 -5 
C -1.326016 -5 -2.597899 -4.473168 -3.535534 -3.535534 
C -4.473168 -2.597899 -5 -1.326016 -5 0 
C -5 1.326016 -4.473168 2.597899 -3.535534 3.535534 
C -2.597899 4.473168 -1.326016 5 0 5 
z
"/>
    </defs>
    <g clip-path="url(#pbbc3e8eb05)">
     <use xlink:href="#C2_0_2e628a2fb6" x="525.694897" y="62.64" style="fill: #7ad151; fill-opacity: 0.5"/>
    </g>
    <g clip-path="url(#pbbc3e8eb05)">
     <use xlink:href="#C2_0_2e628a2fb6" x="517.782798" y="62.64" style="fill: #7ad151; fill-opacity: 0.5"/>
    </g>
    <g clip-path="url(#pbbc3e8eb05)">
     <use xlink:href="#C2_0_2e628a2fb6" x="491.183692" y="62.64" style="fill: #7ad151; fill-opacity: 0.5"/>
    </g>
    <g clip-path="url(#pbbc3e8eb05)">
     <use xlink:href="#C2_0_2e628a2fb6" x="495.079958" y="62.64" style="fill: #7ad151; fill-opacity: 0.5"/>
    </g>
    <g clip-path="url(#pbbc3e8eb05)">
     <use xlink:href="#C2_0_2e628a2fb6" x="493.649336" y="62.64" style="fill: #7ad151; fill-opacity: 0.5"/>
    </g>
    <g clip-path="url(#pbbc3e8eb05)">
     <use xlink:href="#C2_0_2e628a2fb6" x="512.060723" y="62.64" style="fill: #7ad151; fill-opacity: 0.5"/>
    </g>
    <g clip-path="url(#pbbc3e8eb05)">
     <use xlink:href="#C2_0_2e628a2fb6" x="519.651515" y="62.64" style="fill: #7ad151; fill-opacity: 0.5"/>
    </g>
    <g clip-path="url(#pbbc3e8eb05)">
     <use xlink:href="#C2_0_2e628a2fb6" x="494.951393" y="62.64" style="fill: #7ad151; fill-opacity: 0.5"/>
    </g>
    <g clip-path="url(#pbbc3e8eb05)">
     <use xlink:href="#C2_0_2e628a2fb6" x="513.958085" y="62.64" style="fill: #7ad151; fill-opacity: 0.5"/>
    </g>
   </g>
   <g id="line2d_13"/>
   <g id="line2d_14"/>
   <g id="line2d_15"/>
   <g id="legend_1">
    <g id="patch_6">
     <path d="M 540.520625 101.818125 
L 592.266875 101.818125 
Q 594.666875 101.818125 594.666875 99.418125 
L 594.666875 15.6 
Q 594.666875 13.2 592.266875 13.2 
L 540.520625 13.2 
Q 538.120625 13.2 538.120625 15.6 
L 538.120625 99.418125 
Q 538.120625 101.818125 540.520625 101.818125 
z
" style="fill: #ffffff; opacity: 0.8; stroke: #cccccc; stroke-linejoin: miter"/>
    </g>
    <g id="text_12">
     <text style="font: 12px 'Arial'; text-anchor: start" x="547.384063" y="26.735625" transform="rotate(-0 547.384063 26.735625)">numSq</text>
    </g>
    <g id="line2d_16">
     <defs>
      <path id="mf24283897e" d="M 0 5 
C 1.326016 5 2.597899 4.473168 3.535534 3.535534 
C 4.473168 2.597899 5 1.326016 5 0 
C 5 -1.326016 4.473168 -2.597899 3.535534 -3.535534 
C 2.597899 -4.473168 1.326016 -5 0 -5 
C -1.326016 -5 -2.597899 -4.473168 -3.535534 -3.535534 
C -4.473168 -2.597899 -5 -1.326016 -5 0 
C -5 1.326016 -4.473168 2.597899 -3.535534 3.535534 
C -2.597899 4.473168 -1.326016 5 0 5 
z
"/>
     </defs>
     <g>
      <use xlink:href="#mf24283897e" x="554.920625" y="39.51" style="fill: #414487; fill-opacity: 0.5"/>
     </g>
    </g>
    <g id="text_13">
     <text style="font: 12px 'Arial'; text-anchor: start" x="576.520625" y="43.71" transform="rotate(-0 576.520625 43.71)">1</text>
    </g>
    <g id="line2d_17">
     <defs>
      <path id="mb377f7e13f" d="M 0 5 
C 1.326016 5 2.597899 4.473168 3.535534 3.535534 
C 4.473168 2.597899 5 1.326016 5 0 
C 5 -1.326016 4.473168 -2.597899 3.535534 -3.535534 
C 2.597899 -4.473168 1.326016 -5 0 -5 
C -1.326016 -5 -2.597899 -4.473168 -3.535534 -3.535534 
C -4.473168 -2.597899 -5 -1.326016 -5 0 
C -5 1.326016 -4.473168 2.597899 -3.535534 3.535534 
C -2.597899 4.473168 -1.326016 5 0 5 
z
"/>
     </defs>
     <g>
      <use xlink:href="#mb377f7e13f" x="554.920625" y="56.484375" style="fill: #2a788e; fill-opacity: 0.5"/>
     </g>
    </g>
    <g id="text_14">
     <text style="font: 12px 'Arial'; text-anchor: start" x="576.520625" y="60.684375" transform="rotate(-0 576.520625 60.684375)">5</text>
    </g>
    <g id="line2d_18">
     <defs>
      <path id="m11b754c754" d="M 0 5 
C 1.326016 5 2.597899 4.473168 3.535534 3.535534 
C 4.473168 2.597899 5 1.326016 5 0 
C 5 -1.326016 4.473168 -2.597899 3.535534 -3.535534 
C 2.597899 -4.473168 1.326016 -5 0 -5 
C -1.326016 -5 -2.597899 -4.473168 -3.535534 -3.535534 
C -4.473168 -2.597899 -5 -1.326016 -5 0 
C -5 1.326016 -4.473168 2.597899 -3.535534 3.535534 
C -2.597899 4.473168 -1.326016 5 0 5 
z
"/>
     </defs>
     <g>
      <use xlink:href="#m11b754c754" x="554.920625" y="73.45875" style="fill: #7ad151; fill-opacity: 0.5"/>
     </g>
    </g>
    <g id="text_15">
     <text style="font: 12px 'Arial'; text-anchor: start" x="576.520625" y="77.65875" transform="rotate(-0 576.520625 77.65875)">15</text>
    </g>
    <g id="patch_7">
     <path d="M 542.920625 94.633125 
L 566.920625 94.633125 
L 566.920625 86.233125 
L 542.920625 86.233125 
z
" style="fill: #4a4c7e; opacity: 0.5; stroke: #373737; stroke-width: 1.25; stroke-linejoin: miter"/>
    </g>
    <g id="text_16">
     <text style="font: 12px 'Arial'; text-anchor: start" x="576.520625" y="94.633125" transform="rotate(-0 576.520625 94.633125)">1</text>
    </g>
   </g>
  </g>
 </g>
 <defs>
  <clipPath id="pbbc3e8eb05">
   <rect x="42.666875" y="7.2" width="558" height="277.2"/>
  </clipPath>
 </defs>
</svg>
