<?xml version="1.0" encoding="utf-8" standalone="no"?>
<!DOCTYPE svg PUBLIC "-//W3C//DTD SVG 1.1//EN"
  "http://www.w3.org/Graphics/SVG/1.1/DTD/svg11.dtd">
<svg xmlns:xlink="http://www.w3.org/1999/xlink" width="720pt" height="432pt" viewBox="0 0 720 432" xmlns="http://www.w3.org/2000/svg" version="1.1">
 <metadata>
  <rdf:RDF xmlns:dc="http://purl.org/dc/elements/1.1/" xmlns:cc="http://creativecommons.org/ns#" xmlns:rdf="http://www.w3.org/1999/02/22-rdf-syntax-ns#">
   <cc:Work>
    <dc:type rdf:resource="http://purl.org/dc/dcmitype/StillImage"/>
    <dc:date>2024-08-31T21:51:24.785911</dc:date>
    <dc:format>image/svg+xml</dc:format>
    <dc:creator>
     <cc:Agent>
      <dc:title>Matplotlib v3.8.1, https://matplotlib.org/</dc:title>
     </cc:Agent>
    </dc:creator>
   </cc:Work>
  </rdf:RDF>
 </metadata>
 <defs>
  <style type="text/css">*{stroke-linejoin: round; stroke-linecap: butt}</style>
 </defs>
 <g id="figure_1">
  <g id="patch_1">
   <path d="M 0 432 
L 720 432 
L 720 0 
L 0 0 
z
" style="fill: #ffffff"/>
  </g>
  <g id="axes_1">
   <g id="patch_2">
    <path d="M 90 384.48 
L 648 384.48 
L 648 51.84 
L 90 51.84 
z
" style="fill: #ffffff"/>
   </g>
   <g id="matplotlib.axis_1">
    <g id="xtick_1">
     <g id="line2d_1">
      <path d="M 115.363636 384.48 
L 115.363636 51.84 
" clip-path="url(#pe75fe60b29)" style="fill: none; stroke: #b0b0b0; stroke-width: 0.8; stroke-linecap: square"/>
     </g>
     <g id="line2d_2">
      <defs>
       <path id="ma3907ba0ad" d="M 0 0 
L 0 3.5 
" style="stroke: #000000; stroke-width: 0.8"/>
      </defs>
      <g>
       <use xlink:href="#ma3907ba0ad" x="115.363636" y="384.48" style="stroke: #000000; stroke-width: 0.8"/>
      </g>
     </g>
     <g id="text_1">
      <text style="font: 12px 'Arial'; text-anchor: middle" x="115.363636" y="400.069375" transform="rotate(-0 115.363636 400.069375)">0</text>
     </g>
    </g>
    <g id="xtick_2">
     <g id="line2d_3">
      <path d="M 216.818182 384.48 
L 216.818182 51.84 
" clip-path="url(#pe75fe60b29)" style="fill: none; stroke: #b0b0b0; stroke-width: 0.8; stroke-linecap: square"/>
     </g>
     <g id="line2d_4">
      <g>
       <use xlink:href="#ma3907ba0ad" x="216.818182" y="384.48" style="stroke: #000000; stroke-width: 0.8"/>
      </g>
     </g>
     <g id="text_2">
      <text style="font: 12px 'Arial'; text-anchor: middle" x="216.818182" y="400.069375" transform="rotate(-0 216.818182 400.069375)">2</text>
     </g>
    </g>
    <g id="xtick_3">
     <g id="line2d_5">
      <path d="M 318.272727 384.48 
L 318.272727 51.84 
" clip-path="url(#pe75fe60b29)" style="fill: none; stroke: #b0b0b0; stroke-width: 0.8; stroke-linecap: square"/>
     </g>
     <g id="line2d_6">
      <g>
       <use xlink:href="#ma3907ba0ad" x="318.272727" y="384.48" style="stroke: #000000; stroke-width: 0.8"/>
      </g>
     </g>
     <g id="text_3">
      <text style="font: 12px 'Arial'; text-anchor: middle" x="318.272727" y="400.069375" transform="rotate(-0 318.272727 400.069375)">4</text>
     </g>
    </g>
    <g id="xtick_4">
     <g id="line2d_7">
      <path d="M 419.727273 384.48 
L 419.727273 51.84 
" clip-path="url(#pe75fe60b29)" style="fill: none; stroke: #b0b0b0; stroke-width: 0.8; stroke-linecap: square"/>
     </g>
     <g id="line2d_8">
      <g>
       <use xlink:href="#ma3907ba0ad" x="419.727273" y="384.48" style="stroke: #000000; stroke-width: 0.8"/>
      </g>
     </g>
     <g id="text_4">
      <text style="font: 12px 'Arial'; text-anchor: middle" x="419.727273" y="400.069375" transform="rotate(-0 419.727273 400.069375)">6</text>
     </g>
    </g>
    <g id="xtick_5">
     <g id="line2d_9">
      <path d="M 521.181818 384.48 
L 521.181818 51.84 
" clip-path="url(#pe75fe60b29)" style="fill: none; stroke: #b0b0b0; stroke-width: 0.8; stroke-linecap: square"/>
     </g>
     <g id="line2d_10">
      <g>
       <use xlink:href="#ma3907ba0ad" x="521.181818" y="384.48" style="stroke: #000000; stroke-width: 0.8"/>
      </g>
     </g>
     <g id="text_5">
      <text style="font: 12px 'Arial'; text-anchor: middle" x="521.181818" y="400.069375" transform="rotate(-0 521.181818 400.069375)">8</text>
     </g>
    </g>
    <g id="xtick_6">
     <g id="line2d_11">
      <path d="M 622.636364 384.48 
L 622.636364 51.84 
" clip-path="url(#pe75fe60b29)" style="fill: none; stroke: #b0b0b0; stroke-width: 0.8; stroke-linecap: square"/>
     </g>
     <g id="line2d_12">
      <g>
       <use xlink:href="#ma3907ba0ad" x="622.636364" y="384.48" style="stroke: #000000; stroke-width: 0.8"/>
      </g>
     </g>
     <g id="text_6">
      <text style="font: 12px 'Arial'; text-anchor: middle" x="622.636364" y="400.069375" transform="rotate(-0 622.636364 400.069375)">10</text>
     </g>
    </g>
    <g id="text_7">
     <text style="font: 12px 'Arial'; text-anchor: middle" x="369" y="415.04375" transform="rotate(-0 369 415.04375)">Pulse</text>
    </g>
   </g>
   <g id="matplotlib.axis_2">
    <g id="ytick_1">
     <g id="line2d_13">
      <path d="M 90 358.360712 
L 648 358.360712 
" clip-path="url(#pe75fe60b29)" style="fill: none; stroke: #b0b0b0; stroke-width: 0.8; stroke-linecap: square"/>
     </g>
     <g id="line2d_14">
      <defs>
       <path id="mc084be0c1f" d="M 0 0 
L -3.5 0 
" style="stroke: #000000; stroke-width: 0.8"/>
      </defs>
      <g>
       <use xlink:href="#mc084be0c1f" x="90" y="358.360712" style="stroke: #000000; stroke-width: 0.8"/>
      </g>
     </g>
     <g id="text_8">
      <text style="font: 12px 'Arial'; text-anchor: end" x="83" y="362.655399" transform="rotate(-0 83 362.655399)">−40</text>
     </g>
    </g>
    <g id="ytick_2">
     <g id="line2d_15">
      <path d="M 90 304.779965 
L 648 304.779965 
" clip-path="url(#pe75fe60b29)" style="fill: none; stroke: #b0b0b0; stroke-width: 0.8; stroke-linecap: square"/>
     </g>
     <g id="line2d_16">
      <g>
       <use xlink:href="#mc084be0c1f" x="90" y="304.779965" style="stroke: #000000; stroke-width: 0.8"/>
      </g>
     </g>
     <g id="text_9">
      <text style="font: 12px 'Arial'; text-anchor: end" x="83" y="309.074653" transform="rotate(-0 83 309.074653)">−20</text>
     </g>
    </g>
    <g id="ytick_3">
     <g id="line2d_17">
      <path d="M 90 251.199219 
L 648 251.199219 
" clip-path="url(#pe75fe60b29)" style="fill: none; stroke: #b0b0b0; stroke-width: 0.8; stroke-linecap: square"/>
     </g>
     <g id="line2d_18">
      <g>
       <use xlink:href="#mc084be0c1f" x="90" y="251.199219" style="stroke: #000000; stroke-width: 0.8"/>
      </g>
     </g>
     <g id="text_10">
      <text style="font: 12px 'Arial'; text-anchor: end" x="83" y="255.493907" transform="rotate(-0 83 255.493907)">0</text>
     </g>
    </g>
    <g id="ytick_4">
     <g id="line2d_19">
      <path d="M 90 197.618473 
L 648 197.618473 
" clip-path="url(#pe75fe60b29)" style="fill: none; stroke: #b0b0b0; stroke-width: 0.8; stroke-linecap: square"/>
     </g>
     <g id="line2d_20">
      <g>
       <use xlink:href="#mc084be0c1f" x="90" y="197.618473" style="stroke: #000000; stroke-width: 0.8"/>
      </g>
     </g>
     <g id="text_11">
      <text style="font: 12px 'Arial'; text-anchor: end" x="83" y="201.913161" transform="rotate(-0 83 201.913161)">20</text>
     </g>
    </g>
    <g id="ytick_5">
     <g id="line2d_21">
      <path d="M 90 144.037727 
L 648 144.037727 
" clip-path="url(#pe75fe60b29)" style="fill: none; stroke: #b0b0b0; stroke-width: 0.8; stroke-linecap: square"/>
     </g>
     <g id="line2d_22">
      <g>
       <use xlink:href="#mc084be0c1f" x="90" y="144.037727" style="stroke: #000000; stroke-width: 0.8"/>
      </g>
     </g>
     <g id="text_12">
      <text style="font: 12px 'Arial'; text-anchor: end" x="83" y="148.332415" transform="rotate(-0 83 148.332415)">40</text>
     </g>
    </g>
    <g id="ytick_6">
     <g id="line2d_23">
      <path d="M 90 90.456981 
L 648 90.456981 
" clip-path="url(#pe75fe60b29)" style="fill: none; stroke: #b0b0b0; stroke-width: 0.8; stroke-linecap: square"/>
     </g>
     <g id="line2d_24">
      <g>
       <use xlink:href="#mc084be0c1f" x="90" y="90.456981" style="stroke: #000000; stroke-width: 0.8"/>
      </g>
     </g>
     <g id="text_13">
      <text style="font: 12px 'Arial'; text-anchor: end" x="83" y="94.751668" transform="rotate(-0 83 94.751668)">60</text>
     </g>
    </g>
    <g id="text_14">
     <text style="font: 12px 'Arial'; text-anchor: middle" x="56.26" y="218.16" transform="rotate(-90 56.26 218.16)">Predicted Peak Response</text>
    </g>
   </g>
   <g id="line2d_25">
    <path d="M 115.363636 340.374947 
L 166.090909 357.476312 
L 216.818182 366.813361 
L 267.545455 369.36 
L 318.272727 366.090135 
L 369 357.977672 
L 419.727273 345.996516 
L 470.454545 331.120574 
L 521.181818 314.323751 
L 571.909091 296.579954 
L 622.636364 278.863088 
" clip-path="url(#pe75fe60b29)" style="fill: none; stroke: #1f77b4; stroke-width: 1.5; stroke-linecap: square"/>
    <defs>
     <path id="md2eba0a775" d="M 0 3 
C 0.795609 3 1.55874 2.683901 2.12132 2.12132 
C 2.683901 1.55874 3 0.795609 3 0 
C 3 -0.795609 2.683901 -1.55874 2.12132 -2.12132 
C 1.55874 -2.683901 0.795609 -3 0 -3 
C -0.795609 -3 -1.55874 -2.683901 -2.12132 -2.12132 
C -2.683901 -1.55874 -3 -0.795609 -3 0 
C -3 0.795609 -2.683901 1.55874 -2.12132 2.12132 
C -1.55874 2.683901 -0.795609 3 0 3 
z
" style="stroke: #1f77b4"/>
    </defs>
    <g clip-path="url(#pe75fe60b29)">
     <use xlink:href="#md2eba0a775" x="115.363636" y="340.374947" style="fill: #1f77b4; stroke: #1f77b4"/>
     <use xlink:href="#md2eba0a775" x="166.090909" y="357.476312" style="fill: #1f77b4; stroke: #1f77b4"/>
     <use xlink:href="#md2eba0a775" x="216.818182" y="366.813361" style="fill: #1f77b4; stroke: #1f77b4"/>
     <use xlink:href="#md2eba0a775" x="267.545455" y="369.36" style="fill: #1f77b4; stroke: #1f77b4"/>
     <use xlink:href="#md2eba0a775" x="318.272727" y="366.090135" style="fill: #1f77b4; stroke: #1f77b4"/>
     <use xlink:href="#md2eba0a775" x="369" y="357.977672" style="fill: #1f77b4; stroke: #1f77b4"/>
     <use xlink:href="#md2eba0a775" x="419.727273" y="345.996516" style="fill: #1f77b4; stroke: #1f77b4"/>
     <use xlink:href="#md2eba0a775" x="470.454545" y="331.120574" style="fill: #1f77b4; stroke: #1f77b4"/>
     <use xlink:href="#md2eba0a775" x="521.181818" y="314.323751" style="fill: #1f77b4; stroke: #1f77b4"/>
     <use xlink:href="#md2eba0a775" x="571.909091" y="296.579954" style="fill: #1f77b4; stroke: #1f77b4"/>
     <use xlink:href="#md2eba0a775" x="622.636364" y="278.863088" style="fill: #1f77b4; stroke: #1f77b4"/>
    </g>
   </g>
   <g id="line2d_26">
    <path d="M 115.363636 66.96 
L 166.090909 85.514264 
L 216.818182 98.456509 
L 267.545455 106.794874 
L 318.272727 111.5375 
L 369 113.692526 
L 419.727273 114.26809 
L 470.454545 114.272332 
L 521.181818 114.713391 
L 571.909091 116.599408 
L 622.636364 120.93852 
" clip-path="url(#pe75fe60b29)" style="fill: none; stroke: #ff7f0e; stroke-width: 1.5; stroke-linecap: square"/>
    <defs>
     <path id="mdb8bfa387e" d="M 0 3 
C 0.795609 3 1.55874 2.683901 2.12132 2.12132 
C 2.683901 1.55874 3 0.795609 3 0 
C 3 -0.795609 2.683901 -1.55874 2.12132 -2.12132 
C 1.55874 -2.683901 0.795609 -3 0 -3 
C -0.795609 -3 -1.55874 -2.683901 -2.12132 -2.12132 
C -2.683901 -1.55874 -3 -0.795609 -3 0 
C -3 0.795609 -2.683901 1.55874 -2.12132 2.12132 
C -1.55874 2.683901 -0.795609 3 0 3 
z
" style="stroke: #ff7f0e"/>
    </defs>
    <g clip-path="url(#pe75fe60b29)">
     <use xlink:href="#mdb8bfa387e" x="115.363636" y="66.96" style="fill: #ff7f0e; stroke: #ff7f0e"/>
     <use xlink:href="#mdb8bfa387e" x="166.090909" y="85.514264" style="fill: #ff7f0e; stroke: #ff7f0e"/>
     <use xlink:href="#mdb8bfa387e" x="216.818182" y="98.456509" style="fill: #ff7f0e; stroke: #ff7f0e"/>
     <use xlink:href="#mdb8bfa387e" x="267.545455" y="106.794874" style="fill: #ff7f0e; stroke: #ff7f0e"/>
     <use xlink:href="#mdb8bfa387e" x="318.272727" y="111.5375" style="fill: #ff7f0e; stroke: #ff7f0e"/>
     <use xlink:href="#mdb8bfa387e" x="369" y="113.692526" style="fill: #ff7f0e; stroke: #ff7f0e"/>
     <use xlink:href="#mdb8bfa387e" x="419.727273" y="114.26809" style="fill: #ff7f0e; stroke: #ff7f0e"/>
     <use xlink:href="#mdb8bfa387e" x="470.454545" y="114.272332" style="fill: #ff7f0e; stroke: #ff7f0e"/>
     <use xlink:href="#mdb8bfa387e" x="521.181818" y="114.713391" style="fill: #ff7f0e; stroke: #ff7f0e"/>
     <use xlink:href="#mdb8bfa387e" x="571.909091" y="116.599408" style="fill: #ff7f0e; stroke: #ff7f0e"/>
     <use xlink:href="#mdb8bfa387e" x="622.636364" y="120.93852" style="fill: #ff7f0e; stroke: #ff7f0e"/>
    </g>
   </g>
   <g id="patch_3">
    <path d="M 90 384.48 
L 90 51.84 
" style="fill: none; stroke: #000000; stroke-width: 0.8; stroke-linejoin: miter; stroke-linecap: square"/>
   </g>
   <g id="patch_4">
    <path d="M 648 384.48 
L 648 51.84 
" style="fill: none; stroke: #000000; stroke-width: 0.8; stroke-linejoin: miter; stroke-linecap: square"/>
   </g>
   <g id="patch_5">
    <path d="M 90 384.48 
L 648 384.48 
" style="fill: none; stroke: #000000; stroke-width: 0.8; stroke-linejoin: miter; stroke-linecap: square"/>
   </g>
   <g id="patch_6">
    <path d="M 90 51.84 
L 648 51.84 
" style="fill: none; stroke: #000000; stroke-width: 0.8; stroke-linejoin: miter; stroke-linecap: square"/>
   </g>
   <g id="text_15">
    <text style="font: 14.4px 'Arial'; text-anchor: middle" x="369" y="45.84" transform="rotate(-0 369 45.84)">Predicted Peak Response vs Pulse for Different Clamp Potential Values</text>
   </g>
   <g id="legend_1">
    <g id="patch_7">
     <path d="M 485.476875 95.68125 
L 639.6 95.68125 
Q 642 95.68125 642 93.28125 
L 642 60.24 
Q 642 57.84 639.6 57.84 
L 485.476875 57.84 
Q 483.076875 57.84 483.076875 60.24 
L 483.076875 93.28125 
Q 483.076875 95.68125 485.476875 95.68125 
z
" style="fill: #ffffff; opacity: 0.8; stroke: #cccccc; stroke-linejoin: miter"/>
    </g>
    <g id="line2d_27">
     <path d="M 487.876875 67.175625 
L 499.876875 67.175625 
L 511.876875 67.175625 
" style="fill: none; stroke: #1f77b4; stroke-width: 1.5; stroke-linecap: square"/>
     <g>
      <use xlink:href="#md2eba0a775" x="499.876875" y="67.175625" style="fill: #1f77b4; stroke: #1f77b4"/>
     </g>
    </g>
    <g id="text_16">
     <text style="font: 12px 'Arial'; text-anchor: start" x="521.476875" y="71.375625" transform="rotate(-0 521.476875 71.375625)">Clamp Potential = -70</text>
    </g>
    <g id="line2d_28">
     <path d="M 487.876875 84.29625 
L 499.876875 84.29625 
L 511.876875 84.29625 
" style="fill: none; stroke: #ff7f0e; stroke-width: 1.5; stroke-linecap: square"/>
     <g>
      <use xlink:href="#mdb8bfa387e" x="499.876875" y="84.29625" style="fill: #ff7f0e; stroke: #ff7f0e"/>
     </g>
    </g>
    <g id="text_17">
     <text style="font: 12px 'Arial'; text-anchor: start" x="521.476875" y="88.49625" transform="rotate(-0 521.476875 88.49625)">Clamp Potential = 0</text>
    </g>
   </g>
  </g>
 </g>
 <defs>
  <clipPath id="pe75fe60b29">
   <rect x="90" y="51.84" width="558" height="332.64"/>
  </clipPath>
 </defs>
</svg>
