<?xml version="1.0" encoding="utf-8" standalone="no"?>
<!DOCTYPE svg PUBLIC "-//W3C//DTD SVG 1.1//EN"
  "http://www.w3.org/Graphics/SVG/1.1/DTD/svg11.dtd">
<svg xmlns:xlink="http://www.w3.org/1999/xlink" width="720pt" height="576pt" viewBox="0 0 720 576" xmlns="http://www.w3.org/2000/svg" version="1.1">
 <metadata>
  <rdf:RDF xmlns:dc="http://purl.org/dc/elements/1.1/" xmlns:cc="http://creativecommons.org/ns#" xmlns:rdf="http://www.w3.org/1999/02/22-rdf-syntax-ns#">
   <cc:Work>
    <dc:type rdf:resource="http://purl.org/dc/dcmitype/StillImage"/>
    <dc:date>2024-08-31T21:50:27.677784</dc:date>
    <dc:format>image/svg+xml</dc:format>
    <dc:creator>
     <cc:Agent>
      <dc:title>Matplotlib v3.8.1, https://matplotlib.org/</dc:title>
     </cc:Agent>
    </dc:creator>
   </cc:Work>
  </rdf:RDF>
 </metadata>
 <defs>
  <style type="text/css">*{stroke-linejoin: round; stroke-linecap: butt}</style>
 </defs>
 <g id="figure_1">
  <g id="patch_1">
   <path d="M 0 576 
L 720 576 
L 720 0 
L 0 0 
z
" style="fill: #ffffff"/>
  </g>
  <g id="patch_2">
   <path d="M 147.24 512.64 
L 590.76 512.64 
L 590.76 69.12 
L 147.24 69.12 
z
" style="fill: #ffffff"/>
  </g>
  <g id="pane3d_1">
   <g id="patch_3">
    <path d="M 180.728819 403.282182 
L 327.193607 280.512492 
L 325.157607 103.456652 
L 171.683723 215.454902 
" style="fill: #f2f2f2; opacity: 0.5; stroke: #f2f2f2; stroke-linejoin: miter"/>
   </g>
  </g>
  <g id="pane3d_2">
   <g id="patch_4">
    <path d="M 327.193607 280.512492 
L 562.217334 348.82461 
L 570.604503 165.670285 
L 325.157607 103.456652 
" style="fill: #e6e6e6; opacity: 0.5; stroke: #e6e6e6; stroke-linejoin: miter"/>
   </g>
  </g>
  <g id="pane3d_3">
   <g id="patch_5">
    <path d="M 180.728819 403.282182 
L 429.865448 484.650204 
L 562.217334 348.82461 
L 327.193607 280.512492 
" style="fill: #ececec; opacity: 0.5; stroke: #ececec; stroke-linejoin: miter"/>
   </g>
  </g>
  <g id="grid3d_1">
   <g id="Line3DCollection_1">
    <path d="M 195.81784 408.210256 
L 341.487031 284.667025 
L 340.055367 107.232799 
" style="fill: none; stroke: #b0b0b0; stroke-width: 0.8"/>
    <path d="M 225.66878 417.959573 
L 369.74147 292.879475 
L 369.515672 114.700128 
" style="fill: none; stroke: #b0b0b0; stroke-width: 0.8"/>
    <path d="M 255.908346 427.835815 
L 398.333245 301.189976 
L 399.342926 122.260468 
" style="fill: none; stroke: #b0b0b0; stroke-width: 0.8"/>
    <path d="M 286.544178 437.841478 
L 427.268433 309.600293 
L 429.544028 129.915566 
" style="fill: none; stroke: #b0b0b0; stroke-width: 0.8"/>
    <path d="M 317.584116 447.979121 
L 456.553259 318.112235 
L 460.126051 137.667218 
" style="fill: none; stroke: #b0b0b0; stroke-width: 0.8"/>
    <path d="M 349.036208 458.251375 
L 486.194099 326.727657 
L 491.096246 145.517259 
" style="fill: none; stroke: #b0b0b0; stroke-width: 0.8"/>
    <path d="M 380.908719 468.660937 
L 516.197483 335.448456 
L 522.462052 153.467577 
" style="fill: none; stroke: #b0b0b0; stroke-width: 0.8"/>
    <path d="M 413.210135 479.210579 
L 546.570106 344.276579 
L 554.231098 161.520104 
" style="fill: none; stroke: #b0b0b0; stroke-width: 0.8"/>
   </g>
  </g>
  <g id="grid3d_2">
   <g id="Line3DCollection_2">
    <path d="M 182.296822 207.709945 
L 190.82148 394.822312 
L 439.023174 475.252125 
" style="fill: none; stroke: #b0b0b0; stroke-width: 0.8"/>
    <path d="M 200.202697 194.643053 
L 207.861301 380.539197 
L 454.471845 459.397988 
" style="fill: none; stroke: #b0b0b0; stroke-width: 0.8"/>
    <path d="M 217.754076 181.834856 
L 224.578412 366.526583 
L 469.612504 443.859948 
" style="fill: none; stroke: #b0b0b0; stroke-width: 0.8"/>
    <path d="M 234.961381 169.277749 
L 240.981894 352.776859 
L 484.454271 428.628643 
" style="fill: none; stroke: #b0b0b0; stroke-width: 0.8"/>
    <path d="M 251.834632 156.964419 
L 257.080492 339.282695 
L 499.005911 413.69508 
" style="fill: none; stroke: #b0b0b0; stroke-width: 0.8"/>
    <path d="M 268.383464 144.887835 
L 272.882626 326.037033 
L 513.275849 399.050614 
" style="fill: none; stroke: #b0b0b0; stroke-width: 0.8"/>
    <path d="M 284.617143 133.041235 
L 288.396413 313.033069 
L 527.272186 384.686929 
" style="fill: none; stroke: #b0b0b0; stroke-width: 0.8"/>
    <path d="M 300.544588 121.418111 
L 303.629672 300.264249 
L 541.002717 370.596027 
" style="fill: none; stroke: #b0b0b0; stroke-width: 0.8"/>
    <path d="M 316.174383 110.012199 
L 318.589945 287.724252 
L 554.474941 356.77021 
" style="fill: none; stroke: #b0b0b0; stroke-width: 0.8"/>
   </g>
  </g>
  <g id="grid3d_3">
   <g id="Line3DCollection_3">
    <path d="M 562.659757 339.163238 
L 327.085994 271.154119 
L 180.252452 393.390124 
" style="fill: none; stroke: #b0b0b0; stroke-width: 0.8"/>
    <path d="M 564.041691 308.985316 
L 326.750009 241.93607 
L 178.763945 362.480315 
" style="fill: none; stroke: #b0b0b0; stroke-width: 0.8"/>
    <path d="M 565.444129 278.35965 
L 326.409279 212.305302 
L 177.252508 331.094347 
" style="fill: none; stroke: #b0b0b0; stroke-width: 0.8"/>
    <path d="M 566.867531 247.276199 
L 326.063702 182.25301 
L 175.717607 299.221132 
" style="fill: none; stroke: #b0b0b0; stroke-width: 0.8"/>
    <path d="M 568.312369 215.724623 
L 325.713173 151.770134 
L 174.158691 266.849235 
" style="fill: none; stroke: #b0b0b0; stroke-width: 0.8"/>
    <path d="M 569.779132 183.694266 
L 325.357586 120.847354 
L 172.575193 233.966861 
" style="fill: none; stroke: #b0b0b0; stroke-width: 0.8"/>
   </g>
  </g>
  <g id="axis3d_1">
   <g id="line2d_1">
    <path d="M 180.728819 403.282182 
L 429.865448 484.650204 
" style="fill: none; stroke: #000000; stroke-width: 0.8; stroke-linecap: square"/>
   </g>
   <g id="xtick_1">
    <g id="line2d_2">
     <path d="M 197.086319 407.134449 
L 193.275439 410.366487 
" style="fill: none; stroke: #000000; stroke-width: 0.8; stroke-linecap: square"/>
    </g>
    <g id="text_1">
     <text style="font: 12px 'Arial'; text-anchor: middle" x="188.299969" y="432.487017" transform="rotate(-0 188.299969 432.487017)">−70</text>
    </g>
   </g>
   <g id="xtick_2">
    <g id="line2d_3">
     <path d="M 226.924016 416.86981 
L 223.152887 420.143805 
" style="fill: none; stroke: #000000; stroke-width: 0.8; stroke-linecap: square"/>
    </g>
    <g id="text_2">
     <text style="font: 12px 'Arial'; text-anchor: middle" x="218.169089" y="442.35987" transform="rotate(-0 218.169089 442.35987)">−60</text>
    </g>
   </g>
   <g id="xtick_3">
    <g id="line2d_4">
     <path d="M 257.149886 426.731824 
L 253.41987 430.048597 
" style="fill: none; stroke: #000000; stroke-width: 0.8; stroke-linecap: square"/>
    </g>
    <g id="text_3">
     <text style="font: 12px 'Arial'; text-anchor: middle" x="248.42795" y="452.361547" transform="rotate(-0 248.42795 452.361547)">−50</text>
    </g>
   </g>
   <g id="xtick_4">
    <g id="line2d_5">
     <path d="M 287.771554 436.722978 
L 284.084056 440.083372 
" style="fill: none; stroke: #000000; stroke-width: 0.8; stroke-linecap: square"/>
    </g>
    <g id="text_4">
     <text style="font: 12px 'Arial'; text-anchor: middle" x="279.08423" y="462.494585" transform="rotate(-0 279.08423 462.494585)">−40</text>
    </g>
   </g>
   <g id="xtick_5">
    <g id="line2d_6">
     <path d="M 318.796845 446.845824 
L 315.153316 450.250707 
" style="fill: none; stroke: #000000; stroke-width: 0.8; stroke-linecap: square"/>
    </g>
    <g id="text_5">
     <text style="font: 12px 'Arial'; text-anchor: middle" x="310.14581" y="472.76159" transform="rotate(-0 310.14581 472.76159)">−30</text>
    </g>
   </g>
   <g id="xtick_6">
    <g id="line2d_7">
     <path d="M 350.233792 457.102985 
L 346.63573 460.553246 
" style="fill: none; stroke: #000000; stroke-width: 0.8; stroke-linecap: square"/>
    </g>
    <g id="text_6">
     <text style="font: 12px 'Arial'; text-anchor: middle" x="341.620781" y="483.165237" transform="rotate(-0 341.620781 483.165237)">−20</text>
    </g>
   </g>
   <g id="xtick_7">
    <g id="line2d_8">
     <path d="M 382.090644 467.497151 
L 378.539594 470.993703 
" style="fill: none; stroke: #000000; stroke-width: 0.8; stroke-linecap: square"/>
    </g>
    <g id="text_7">
     <text style="font: 12px 'Arial'; text-anchor: middle" x="373.51745" y="493.70827" transform="rotate(-0 373.51745 493.70827)">−10</text>
    </g>
   </g>
   <g id="xtick_8">
    <g id="line2d_9">
     <path d="M 414.375869 478.031086 
L 410.873428 481.574866 
" style="fill: none; stroke: #000000; stroke-width: 0.8; stroke-linecap: square"/>
    </g>
    <g id="text_8">
     <text style="font: 12px 'Arial'; text-anchor: middle" x="405.844351" y="504.393511" transform="rotate(-0 405.844351 504.393511)">0</text>
    </g>
   </g>
   <g id="text_9">
    <text style="font: 12px 'Arial'; text-anchor: middle" x="284.812512" y="480.997785" transform="rotate(-341.912962 284.812512 480.997785)">clampPotential</text>
   </g>
  </g>
  <g id="axis3d_2">
   <g id="line2d_10">
    <path d="M 562.217334 348.82461 
L 429.865448 484.650204 
" style="fill: none; stroke: #000000; stroke-width: 0.8; stroke-linecap: square"/>
   </g>
   <g id="xtick_9">
    <g id="line2d_11">
     <path d="M 436.931571 474.57434 
L 443.21179 476.609446 
" style="fill: none; stroke: #000000; stroke-width: 0.8; stroke-linecap: square"/>
    </g>
    <g id="text_10">
     <text style="font: 12px 'Arial'; text-anchor: middle" x="451.900724" y="497.261578" transform="rotate(-0 451.900724 497.261578)">0</text>
    </g>
   </g>
   <g id="xtick_10">
    <g id="line2d_12">
     <path d="M 452.394711 458.733782 
L 458.631432 460.728101 
" style="fill: none; stroke: #000000; stroke-width: 0.8; stroke-linecap: square"/>
    </g>
    <g id="text_11">
     <text style="font: 12px 'Arial'; text-anchor: middle" x="467.225174" y="481.266626" transform="rotate(-0 467.225174 481.266626)">1</text>
    </g>
   </g>
   <g id="xtick_11">
    <g id="line2d_13">
     <path d="M 467.549679 443.208915 
L 473.743381 445.163663 
" style="fill: none; stroke: #000000; stroke-width: 0.8; stroke-linecap: square"/>
    </g>
    <g id="text_12">
     <text style="font: 12px 'Arial'; text-anchor: middle" x="482.243981" y="465.59069" transform="rotate(-0 482.243981 465.59069)">2</text>
    </g>
   </g>
   <g id="xtick_12">
    <g id="line2d_14">
     <path d="M 482.4056 427.990397 
L 488.556756 429.906738 
" style="fill: none; stroke: #000000; stroke-width: 0.8; stroke-linecap: square"/>
    </g>
    <g id="text_13">
     <text style="font: 12px 'Arial'; text-anchor: middle" x="496.966199" y="450.22432" transform="rotate(-0 496.966199 450.22432)">3</text>
    </g>
   </g>
   <g id="xtick_13">
    <g id="line2d_15">
     <path d="M 496.971236 413.069247 
L 503.080318 414.948303 
" style="fill: none; stroke: #000000; stroke-width: 0.8; stroke-linecap: square"/>
    </g>
    <g id="text_14">
     <text style="font: 12px 'Arial'; text-anchor: middle" x="511.400528" y="435.158436" transform="rotate(-0 511.400528 435.158436)">4</text>
    </g>
   </g>
   <g id="xtick_14">
    <g id="line2d_16">
     <path d="M 511.255014 398.436835 
L 517.322492 400.279683 
" style="fill: none; stroke: #000000; stroke-width: 0.8; stroke-linecap: square"/>
    </g>
    <g id="text_15">
     <text style="font: 12px 'Arial'; text-anchor: middle" x="525.555329" y="420.384309" transform="rotate(-0 525.555329 420.384309)">5</text>
    </g>
   </g>
   <g id="xtick_15">
    <g id="line2d_17">
     <path d="M 525.265038 384.084859 
L 531.291375 385.892536 
" style="fill: none; stroke: #000000; stroke-width: 0.8; stroke-linecap: square"/>
    </g>
    <g id="text_16">
     <text style="font: 12px 'Arial'; text-anchor: middle" x="539.438646" y="405.893545" transform="rotate(-0 539.438646 405.893545)">6</text>
    </g>
   </g>
   <g id="xtick_16">
    <g id="line2d_18">
     <path d="M 539.009102 370.005334 
L 544.994759 371.778838 
" style="fill: none; stroke: #000000; stroke-width: 0.8; stroke-linecap: square"/>
    </g>
    <g id="text_17">
     <text style="font: 12px 'Arial'; text-anchor: middle" x="553.058214" y="391.67807" transform="rotate(-0 553.058214 391.67807)">7</text>
    </g>
   </g>
   <g id="xtick_17">
    <g id="line2d_19">
     <path d="M 552.494708 356.190576 
L 558.440143 357.930866 
" style="fill: none; stroke: #000000; stroke-width: 0.8; stroke-linecap: square"/>
    </g>
    <g id="text_18">
     <text style="font: 12px 'Arial'; text-anchor: middle" x="566.421478" y="377.730113" transform="rotate(-0 566.421478 377.730113)">8</text>
    </g>
   </g>
   <g id="text_19">
    <text style="font: 12px 'Arial'; text-anchor: middle" x="528.183456" y="443.85832" transform="rotate(-45.742112 528.183456 443.85832)">pulse</text>
   </g>
  </g>
  <g id="axis3d_3">
   <g id="line2d_20">
    <path d="M 562.217334 348.82461 
L 570.604503 165.670285 
" style="fill: none; stroke: #000000; stroke-width: 0.8; stroke-linecap: square"/>
   </g>
   <g id="xtick_18">
    <g id="line2d_21">
     <path d="M 560.682425 338.592391 
L 566.619133 340.306293 
" style="fill: none; stroke: #000000; stroke-width: 0.8; stroke-linecap: square"/>
    </g>
    <g id="text_20">
     <text style="font: 12px 'Arial'; text-anchor: middle" x="580.972605" y="345.155778" transform="rotate(-0 580.972605 345.155778)">−40</text>
    </g>
   </g>
   <g id="xtick_19">
    <g id="line2d_22">
     <path d="M 562.049253 308.422332 
L 568.031353 310.112637 
" style="fill: none; stroke: #000000; stroke-width: 0.8; stroke-linecap: square"/>
    </g>
    <g id="text_21">
     <text style="font: 12px 'Arial'; text-anchor: middle" x="582.486634" y="315.01365" transform="rotate(-0 582.486634 315.01365)">−20</text>
    </g>
   </g>
   <g id="xtick_20">
    <g id="line2d_23">
     <path d="M 563.436351 277.804825 
L 569.464543 279.470642 
" style="fill: none; stroke: #000000; stroke-width: 0.8; stroke-linecap: square"/>
    </g>
    <g id="text_22">
     <text style="font: 12px 'Arial'; text-anchor: middle" x="584.023084" y="284.425128" transform="rotate(-0 584.023084 284.425128)">0</text>
    </g>
   </g>
   <g id="xtick_21">
    <g id="line2d_24">
     <path d="M 564.844175 246.729842 
L 570.919174 248.370246 
" style="fill: none; stroke: #000000; stroke-width: 0.8; stroke-linecap: square"/>
    </g>
    <g id="text_23">
     <text style="font: 12px 'Arial'; text-anchor: middle" x="585.582458" y="253.380221" transform="rotate(-0 585.582458 253.380221)">20</text>
    </g>
   </g>
   <g id="xtick_22">
    <g id="line2d_25">
     <path d="M 566.273193 215.187052 
L 572.395729 216.801087 
" style="fill: none; stroke: #000000; stroke-width: 0.8; stroke-linecap: square"/>
    </g>
    <g id="text_24">
     <text style="font: 12px 'Arial'; text-anchor: middle" x="587.165274" y="221.868639" transform="rotate(-0 587.165274 221.868639)">40</text>
    </g>
   </g>
   <g id="xtick_23">
    <g id="line2d_26">
     <path d="M 567.723886 183.165811 
L 573.894709 184.752485 
" style="fill: none; stroke: #000000; stroke-width: 0.8; stroke-linecap: square"/>
    </g>
    <g id="text_25">
     <text style="font: 12px 'Arial'; text-anchor: middle" x="588.772063" y="189.879778" transform="rotate(-0 588.772063 189.879778)">60</text>
    </g>
   </g>
   <g id="text_26">
    <text style="font: 12px 'Arial'; text-anchor: middle" x="609.901252" y="253.971906" transform="rotate(-87.378092 609.901252 253.971906)">Predicted Peak Response</text>
   </g>
  </g>
  <g id="axes_1">
   <g id="Poly3DCollection_1">
    <path d="M 330.178375 261.967204 
L 542.544749 203.346386 
L 544.812431 201.364909 
L 332.592072 258.394576 
z
" clip-path="url(#p79067b3b59)" style="fill: #48c16e"/>
    <path d="M 327.759145 265.531503 
L 540.268951 205.354751 
L 542.544749 203.346386 
L 330.178375 261.967204 
z
" clip-path="url(#p79067b3b59)" style="fill: #37b878"/>
    <path d="M 325.334307 269.08515 
L 537.985133 207.387468 
L 540.268951 205.354751 
L 327.759145 265.531503 
z
" clip-path="url(#p79067b3b59)" style="fill: #28ae80"/>
    <path d="M 322.90378 272.62582 
L 535.693386 209.441987 
L 537.985133 207.387468 
L 325.334307 269.08515 
z
" clip-path="url(#p79067b3b59)" style="fill: #21a585"/>
    <path d="M 320.467477 276.151186 
L 533.393794 211.515748 
L 535.693386 209.441987 
L 322.90378 272.62582 
z
" clip-path="url(#p79067b3b59)" style="fill: #1e9c89"/>
    <path d="M 318.025306 279.658915 
L 531.08644 213.606179 
L 533.393794 211.515748 
L 320.467477 276.151186 
z
" clip-path="url(#p79067b3b59)" style="fill: #20928c"/>
    <path d="M 315.577168 283.146672 
L 528.771398 215.710694 
L 531.08644 213.606179 
L 318.025306 279.658915 
z
" clip-path="url(#p79067b3b59)" style="fill: #23898e"/>
    <path d="M 313.122959 286.612121 
L 526.448738 217.826699 
L 528.771398 215.710694 
L 315.577168 283.146672 
z
" clip-path="url(#p79067b3b59)" style="fill: #27808e"/>
    <path d="M 310.662567 290.052918 
L 524.118526 219.951586 
L 526.448738 217.826699 
L 313.122959 286.612121 
z
" clip-path="url(#p79067b3b59)" style="fill: #2a778e"/>
    <path d="M 308.195874 293.466718 
L 521.78082 222.082737 
L 524.118526 219.951586 
L 310.662567 290.052918 
z
" clip-path="url(#p79067b3b59)" style="fill: #2e6e8e"/>
    <path d="M 305.722756 296.851169 
L 519.435676 224.217522 
L 521.78082 222.082737 
L 308.195874 293.466718 
z
" clip-path="url(#p79067b3b59)" style="fill: #32658e"/>
    <path d="M 303.243084 300.203915 
L 517.083141 226.353298 
L 519.435676 224.217522 
L 305.722756 296.851169 
z
" clip-path="url(#p79067b3b59)" style="fill: #365d8d"/>
    <path d="M 300.756719 303.522595 
L 514.723258 228.487412 
L 517.083141 226.353298 
L 303.243084 300.203915 
z
" clip-path="url(#p79067b3b59)" style="fill: #3a538b"/>
    <path d="M 298.263518 306.804842 
L 512.356064 230.6172 
L 514.723258 228.487412 
L 300.756719 303.522595 
z
" clip-path="url(#p79067b3b59)" style="fill: #3e4a89"/>
    <path d="M 295.763331 310.048281 
L 509.981589 232.739983 
L 512.356064 230.6172 
L 298.263518 306.804842 
z
" clip-path="url(#p79067b3b59)" style="fill: #424186"/>
    <path d="M 293.255999 313.250533 
L 507.599859 234.853072 
L 509.981589 232.739983 
L 295.763331 310.048281 
z
" clip-path="url(#p79067b3b59)" style="fill: #443983"/>
    <path d="M 290.741358 316.40921 
L 505.210892 236.953765 
L 507.599859 234.853072 
L 293.255999 313.250533 
z
" clip-path="url(#p79067b3b59)" style="fill: #46307e"/>
    <path d="M 288.219236 319.521915 
L 502.814702 239.039347 
L 505.210892 236.953765 
L 290.741358 316.40921 
z
" clip-path="url(#p79067b3b59)" style="fill: #482979"/>
    <path d="M 285.689455 322.586243 
L 500.411295 241.107089 
L 502.814702 239.039347 
L 288.219236 319.521915 
z
" clip-path="url(#p79067b3b59)" style="fill: #482173"/>
    <path d="M 283.151828 325.599782 
L 498.000671 243.154251 
L 500.411295 241.107089 
L 285.689455 322.586243 
z
" clip-path="url(#p79067b3b59)" style="fill: #481b6d"/>
    <path d="M 280.606161 328.560107 
L 495.582823 245.178077 
L 498.000671 243.154251 
L 283.151828 325.599782 
z
" clip-path="url(#p79067b3b59)" style="fill: #481467"/>
    <path d="M 278.052254 331.464784 
L 493.157739 247.175797 
L 495.582823 245.178077 
L 280.606161 328.560107 
z
" clip-path="url(#p79067b3b59)" style="fill: #470e61"/>
    <path d="M 275.489897 334.311366 
L 490.725399 249.144626 
L 493.157739 247.175797 
L 278.052254 331.464784 
z
" clip-path="url(#p79067b3b59)" style="fill: #460a5d"/>
    <path d="M 272.918873 337.097396 
L 488.285776 251.081764 
L 490.725399 249.144626 
L 275.489897 334.311366 
z
" clip-path="url(#p79067b3b59)" style="fill: #450559"/>
    <path d="M 270.338958 339.820403 
L 485.838838 252.984396 
L 488.285776 251.081764 
L 272.918873 337.097396 
z
" clip-path="url(#p79067b3b59)" style="fill: #440256"/>
    <path d="M 267.749919 342.477901 
L 483.384544 254.849689 
L 485.838838 252.984396 
L 270.338958 339.820403 
z
" clip-path="url(#p79067b3b59)" style="fill: #440154"/>
    <path d="M 265.151515 345.067391 
L 480.922846 256.674793 
L 483.384544 254.849689 
L 267.749919 342.477901 
z
" clip-path="url(#p79067b3b59)" style="fill: #440154"/>
    <path d="M 262.543496 347.586356 
L 478.453691 258.45684 
L 480.922846 256.674793 
L 265.151515 345.067391 
z
" clip-path="url(#p79067b3b59)" style="fill: #440154"/>
    <path d="M 259.925604 350.032265 
L 475.977016 260.192944 
L 478.453691 258.45684 
L 262.543496 347.586356 
z
" clip-path="url(#p79067b3b59)" style="fill: #440256"/>
    <path d="M 257.297572 352.402568 
L 473.492751 261.880199 
L 475.977016 260.192944 
L 259.925604 350.032265 
z
" clip-path="url(#p79067b3b59)" style="fill: #450559"/>
    <path d="M 254.659124 354.694695 
L 471.000821 263.515679 
L 473.492751 261.880199 
L 257.297572 352.402568 
z
" clip-path="url(#p79067b3b59)" style="fill: #460a5d"/>
    <path d="M 252.009976 356.906057 
L 468.501139 265.096436 
L 471.000821 263.515679 
L 254.659124 354.694695 
z
" clip-path="url(#p79067b3b59)" style="fill: #471063"/>
    <path d="M 249.349834 359.034045 
L 465.993614 266.619501 
L 468.501139 265.096436 
L 252.009976 356.906057 
z
" clip-path="url(#p79067b3b59)" style="fill: #481769"/>
    <path d="M 246.678392 361.076025 
L 463.478146 268.08188 
L 465.993614 266.619501 
L 249.349834 359.034045 
z
" clip-path="url(#p79067b3b59)" style="fill: #481f70"/>
    <path d="M 243.995339 363.029342 
L 460.954624 269.480555 
L 463.478146 268.08188 
L 246.678392 361.076025 
z
" clip-path="url(#p79067b3b59)" style="fill: #482878"/>
    <path d="M 241.30035 364.891315 
L 458.422933 270.812484 
L 460.954624 269.480555 
L 243.995339 363.029342 
z
" clip-path="url(#p79067b3b59)" style="fill: #46327e"/>
    <path d="M 238.593093 366.659236 
L 455.882947 272.074598 
L 458.422933 270.812484 
L 241.30035 364.891315 
z
" clip-path="url(#p79067b3b59)" style="fill: #433e85"/>
    <path d="M 235.873222 368.330371 
L 453.334532 273.263798 
L 455.882947 272.074598 
L 238.593093 366.659236 
z
" clip-path="url(#p79067b3b59)" style="fill: #3e4989"/>
    <path d="M 233.140385 369.901955 
L 450.777546 274.376958 
L 453.334532 273.263798 
L 235.873222 368.330371 
z
" clip-path="url(#p79067b3b59)" style="fill: #39568c"/>
    <path d="M 230.394214 371.371192 
L 448.211836 275.410921 
L 450.777546 274.376958 
L 233.140385 369.901955 
z
" clip-path="url(#p79067b3b59)" style="fill: #33638d"/>
    <path d="M 227.634334 372.735257 
L 445.637243 276.362496 
L 448.211836 275.410921 
L 230.394214 371.371192 
z
" clip-path="url(#p79067b3b59)" style="fill: #2d718e"/>
    <path d="M 224.860357 373.991287 
L 443.053595 277.228462 
L 445.637243 276.362496 
L 227.634334 372.735257 
z
" clip-path="url(#p79067b3b59)" style="fill: #27808e"/>
    <path d="M 222.071883 375.136386 
L 440.460714 278.00556 
L 443.053595 277.228462 
L 224.860357 373.991287 
z
" clip-path="url(#p79067b3b59)" style="fill: #218f8d"/>
    <path d="M 219.268499 376.167618 
L 437.858411 278.690494 
L 440.460714 278.00556 
L 222.071883 375.136386 
z
" clip-path="url(#p79067b3b59)" style="fill: #1fa088"/>
    <path d="M 216.449783 377.082011 
L 435.246486 279.279932 
L 437.858411 278.690494 
L 219.268499 376.167618 
z
" clip-path="url(#p79067b3b59)" style="fill: #2db27d"/>
    <path d="M 213.615296 377.876548 
L 432.62473 279.770499 
L 435.246486 279.279932 
L 216.449783 377.082011 
z
" clip-path="url(#p79067b3b59)" style="fill: #4ec36b"/>
    <path d="M 210.764589 378.548172 
L 429.992924 280.158778 
L 432.62473 279.770499 
L 213.615296 377.876548 
z
" clip-path="url(#p79067b3b59)" style="fill: #81d34d"/>
    <path d="M 207.897198 379.093778 
L 427.350837 280.44131 
L 429.992924 280.158778 
L 210.764589 378.548172 
z
" clip-path="url(#p79067b3b59)" style="fill: #bddf26"/>
    <path d="M 205.012647 379.510214 
L 424.69823 280.614587 
L 427.350837 280.44131 
L 207.897198 379.093778 
z
" clip-path="url(#p79067b3b59)" style="fill: #fde725"/>
   </g>
   <g id="text_27">
    <text style="font: 14.4px 'Arial'; text-anchor: middle" x="369" y="63.12" transform="rotate(-0 369 63.12)">3D Surface Plot of Predicted Peak Response (clampPotential vs. pulse)</text>
   </g>
  </g>
 </g>
 <defs>
  <clipPath id="p79067b3b59">
   <rect x="147.24" y="69.12" width="443.52" height="443.52"/>
  </clipPath>
 </defs>
</svg>
