<?xml version="1.0" encoding="utf-8" standalone="no"?>
<!DOCTYPE svg PUBLIC "-//W3C//DTD SVG 1.1//EN"
  "http://www.w3.org/Graphics/SVG/1.1/DTD/svg11.dtd">
<svg xmlns:xlink="http://www.w3.org/1999/xlink" width="460.8pt" height="345.6pt" viewBox="0 0 460.8 345.6" xmlns="http://www.w3.org/2000/svg" version="1.1">
 <metadata>
  <rdf:RDF xmlns:dc="http://purl.org/dc/elements/1.1/" xmlns:cc="http://creativecommons.org/ns#" xmlns:rdf="http://www.w3.org/1999/02/22-rdf-syntax-ns#">
   <cc:Work>
    <dc:type rdf:resource="http://purl.org/dc/dcmitype/StillImage"/>
    <dc:date>2024-03-17T18:54:29.975663</dc:date>
    <dc:format>image/svg+xml</dc:format>
    <dc:creator>
     <cc:Agent>
      <dc:title>Matplotlib v3.8.1, https://matplotlib.org/</dc:title>
     </cc:Agent>
    </dc:creator>
   </cc:Work>
  </rdf:RDF>
 </metadata>
 <defs>
  <style type="text/css">*{stroke-linejoin: round; stroke-linecap: butt}</style>
 </defs>
 <g id="figure_1">
  <g id="patch_1">
   <path d="M 0 345.6 
L 460.8 345.6 
L 460.8 0 
L 0 0 
z
" style="fill: #ffffff"/>
  </g>
  <g id="axes_1">
   <g id="patch_2">
    <path d="M 57.6 307.584 
L 414.72 307.584 
L 414.72 41.472 
L 57.6 41.472 
z
" style="fill: #ffffff"/>
   </g>
   <g id="matplotlib.axis_1">
    <g id="xtick_1">
     <g id="line2d_1">
      <defs>
       <path id="m264202b49e" d="M 0 0 
L 0 4.8 
" style="stroke: #000000"/>
      </defs>
      <g>
       <use xlink:href="#m264202b49e" x="73.832727" y="307.584" style="stroke: #000000"/>
      </g>
     </g>
     <g id="text_1">
      <!-- 0 -->
      <g transform="translate(71.033227 322.570625) scale(0.088 -0.088)">
       <defs>
        <path id="DejaVuSans-30" d="M 2034 4250 
Q 1547 4250 1301 3770 
Q 1056 3291 1056 2328 
Q 1056 1369 1301 889 
Q 1547 409 2034 409 
Q 2525 409 2770 889 
Q 3016 1369 3016 2328 
Q 3016 3291 2770 3770 
Q 2525 4250 2034 4250 
z
M 2034 4750 
Q 2819 4750 3233 4129 
Q 3647 3509 3647 2328 
Q 3647 1150 3233 529 
Q 2819 -91 2034 -91 
Q 1250 -91 836 529 
Q 422 1150 422 2328 
Q 422 3509 836 4129 
Q 1250 4750 2034 4750 
z
" transform="scale(0.015625)"/>
       </defs>
       <use xlink:href="#DejaVuSans-30"/>
      </g>
     </g>
    </g>
    <g id="xtick_2">
     <g id="line2d_2">
      <g>
       <use xlink:href="#m264202b49e" x="114.414545" y="307.584" style="stroke: #000000"/>
      </g>
     </g>
     <g id="text_2">
      <!-- 1 -->
      <g transform="translate(111.615045 322.570625) scale(0.088 -0.088)">
       <defs>
        <path id="DejaVuSans-31" d="M 794 531 
L 1825 531 
L 1825 4091 
L 703 3866 
L 703 4441 
L 1819 4666 
L 2450 4666 
L 2450 531 
L 3481 531 
L 3481 0 
L 794 0 
L 794 531 
z
" transform="scale(0.015625)"/>
       </defs>
       <use xlink:href="#DejaVuSans-31"/>
      </g>
     </g>
    </g>
    <g id="xtick_3">
     <g id="line2d_3">
      <g>
       <use xlink:href="#m264202b49e" x="154.996364" y="307.584" style="stroke: #000000"/>
      </g>
     </g>
     <g id="text_3">
      <!-- 2 -->
      <g transform="translate(152.196864 322.570625) scale(0.088 -0.088)">
       <defs>
        <path id="DejaVuSans-32" d="M 1228 531 
L 3431 531 
L 3431 0 
L 469 0 
L 469 531 
Q 828 903 1448 1529 
Q 2069 2156 2228 2338 
Q 2531 2678 2651 2914 
Q 2772 3150 2772 3378 
Q 2772 3750 2511 3984 
Q 2250 4219 1831 4219 
Q 1534 4219 1204 4116 
Q 875 4013 500 3803 
L 500 4441 
Q 881 4594 1212 4672 
Q 1544 4750 1819 4750 
Q 2544 4750 2975 4387 
Q 3406 4025 3406 3419 
Q 3406 3131 3298 2873 
Q 3191 2616 2906 2266 
Q 2828 2175 2409 1742 
Q 1991 1309 1228 531 
z
" transform="scale(0.015625)"/>
       </defs>
       <use xlink:href="#DejaVuSans-32"/>
      </g>
     </g>
    </g>
    <g id="xtick_4">
     <g id="line2d_4">
      <g>
       <use xlink:href="#m264202b49e" x="195.578182" y="307.584" style="stroke: #000000"/>
      </g>
     </g>
     <g id="text_4">
      <!-- 3 -->
      <g transform="translate(192.778682 322.570625) scale(0.088 -0.088)">
       <defs>
        <path id="DejaVuSans-33" d="M 2597 2516 
Q 3050 2419 3304 2112 
Q 3559 1806 3559 1356 
Q 3559 666 3084 287 
Q 2609 -91 1734 -91 
Q 1441 -91 1130 -33 
Q 819 25 488 141 
L 488 750 
Q 750 597 1062 519 
Q 1375 441 1716 441 
Q 2309 441 2620 675 
Q 2931 909 2931 1356 
Q 2931 1769 2642 2001 
Q 2353 2234 1838 2234 
L 1294 2234 
L 1294 2753 
L 1863 2753 
Q 2328 2753 2575 2939 
Q 2822 3125 2822 3475 
Q 2822 3834 2567 4026 
Q 2313 4219 1838 4219 
Q 1578 4219 1281 4162 
Q 984 4106 628 3988 
L 628 4550 
Q 988 4650 1302 4700 
Q 1616 4750 1894 4750 
Q 2613 4750 3031 4423 
Q 3450 4097 3450 3541 
Q 3450 3153 3228 2886 
Q 3006 2619 2597 2516 
z
" transform="scale(0.015625)"/>
       </defs>
       <use xlink:href="#DejaVuSans-33"/>
      </g>
     </g>
    </g>
    <g id="xtick_5">
     <g id="line2d_5">
      <g>
       <use xlink:href="#m264202b49e" x="236.16" y="307.584" style="stroke: #000000"/>
      </g>
     </g>
     <g id="text_5">
      <!-- 4 -->
      <g transform="translate(233.3605 322.570625) scale(0.088 -0.088)">
       <defs>
        <path id="DejaVuSans-34" d="M 2419 4116 
L 825 1625 
L 2419 1625 
L 2419 4116 
z
M 2253 4666 
L 3047 4666 
L 3047 1625 
L 3713 1625 
L 3713 1100 
L 3047 1100 
L 3047 0 
L 2419 0 
L 2419 1100 
L 313 1100 
L 313 1709 
L 2253 4666 
z
" transform="scale(0.015625)"/>
       </defs>
       <use xlink:href="#DejaVuSans-34"/>
      </g>
     </g>
    </g>
    <g id="xtick_6">
     <g id="line2d_6">
      <g>
       <use xlink:href="#m264202b49e" x="276.741818" y="307.584" style="stroke: #000000"/>
      </g>
     </g>
     <g id="text_6">
      <!-- 5 -->
      <g transform="translate(273.942318 322.570625) scale(0.088 -0.088)">
       <defs>
        <path id="DejaVuSans-35" d="M 691 4666 
L 3169 4666 
L 3169 4134 
L 1269 4134 
L 1269 2991 
Q 1406 3038 1543 3061 
Q 1681 3084 1819 3084 
Q 2600 3084 3056 2656 
Q 3513 2228 3513 1497 
Q 3513 744 3044 326 
Q 2575 -91 1722 -91 
Q 1428 -91 1123 -41 
Q 819 9 494 109 
L 494 744 
Q 775 591 1075 516 
Q 1375 441 1709 441 
Q 2250 441 2565 725 
Q 2881 1009 2881 1497 
Q 2881 1984 2565 2268 
Q 2250 2553 1709 2553 
Q 1456 2553 1204 2497 
Q 953 2441 691 2322 
L 691 4666 
z
" transform="scale(0.015625)"/>
       </defs>
       <use xlink:href="#DejaVuSans-35"/>
      </g>
     </g>
    </g>
    <g id="xtick_7">
     <g id="line2d_7">
      <g>
       <use xlink:href="#m264202b49e" x="317.323636" y="307.584" style="stroke: #000000"/>
      </g>
     </g>
     <g id="text_7">
      <!-- 6 -->
      <g transform="translate(314.524136 322.570625) scale(0.088 -0.088)">
       <defs>
        <path id="DejaVuSans-36" d="M 2113 2584 
Q 1688 2584 1439 2293 
Q 1191 2003 1191 1497 
Q 1191 994 1439 701 
Q 1688 409 2113 409 
Q 2538 409 2786 701 
Q 3034 994 3034 1497 
Q 3034 2003 2786 2293 
Q 2538 2584 2113 2584 
z
M 3366 4563 
L 3366 3988 
Q 3128 4100 2886 4159 
Q 2644 4219 2406 4219 
Q 1781 4219 1451 3797 
Q 1122 3375 1075 2522 
Q 1259 2794 1537 2939 
Q 1816 3084 2150 3084 
Q 2853 3084 3261 2657 
Q 3669 2231 3669 1497 
Q 3669 778 3244 343 
Q 2819 -91 2113 -91 
Q 1303 -91 875 529 
Q 447 1150 447 2328 
Q 447 3434 972 4092 
Q 1497 4750 2381 4750 
Q 2619 4750 2861 4703 
Q 3103 4656 3366 4563 
z
" transform="scale(0.015625)"/>
       </defs>
       <use xlink:href="#DejaVuSans-36"/>
      </g>
     </g>
    </g>
    <g id="xtick_8">
     <g id="line2d_8">
      <g>
       <use xlink:href="#m264202b49e" x="357.905455" y="307.584" style="stroke: #000000"/>
      </g>
     </g>
     <g id="text_8">
      <!-- 7 -->
      <g transform="translate(355.105955 322.570625) scale(0.088 -0.088)">
       <defs>
        <path id="DejaVuSans-37" d="M 525 4666 
L 3525 4666 
L 3525 4397 
L 1831 0 
L 1172 0 
L 2766 4134 
L 525 4134 
L 525 4666 
z
" transform="scale(0.015625)"/>
       </defs>
       <use xlink:href="#DejaVuSans-37"/>
      </g>
     </g>
    </g>
    <g id="xtick_9">
     <g id="line2d_9">
      <g>
       <use xlink:href="#m264202b49e" x="398.487273" y="307.584" style="stroke: #000000"/>
      </g>
     </g>
     <g id="text_9">
      <!-- 8 -->
      <g transform="translate(395.687773 322.570625) scale(0.088 -0.088)">
       <defs>
        <path id="DejaVuSans-38" d="M 2034 2216 
Q 1584 2216 1326 1975 
Q 1069 1734 1069 1313 
Q 1069 891 1326 650 
Q 1584 409 2034 409 
Q 2484 409 2743 651 
Q 3003 894 3003 1313 
Q 3003 1734 2745 1975 
Q 2488 2216 2034 2216 
z
M 1403 2484 
Q 997 2584 770 2862 
Q 544 3141 544 3541 
Q 544 4100 942 4425 
Q 1341 4750 2034 4750 
Q 2731 4750 3128 4425 
Q 3525 4100 3525 3541 
Q 3525 3141 3298 2862 
Q 3072 2584 2669 2484 
Q 3125 2378 3379 2068 
Q 3634 1759 3634 1313 
Q 3634 634 3220 271 
Q 2806 -91 2034 -91 
Q 1263 -91 848 271 
Q 434 634 434 1313 
Q 434 1759 690 2068 
Q 947 2378 1403 2484 
z
M 1172 3481 
Q 1172 3119 1398 2916 
Q 1625 2713 2034 2713 
Q 2441 2713 2670 2916 
Q 2900 3119 2900 3481 
Q 2900 3844 2670 4047 
Q 2441 4250 2034 4250 
Q 1625 4250 1398 4047 
Q 1172 3844 1172 3481 
z
" transform="scale(0.015625)"/>
       </defs>
       <use xlink:href="#DejaVuSans-38"/>
      </g>
     </g>
    </g>
   </g>
   <g id="matplotlib.axis_2">
    <g id="ytick_1">
     <g id="line2d_10">
      <defs>
       <path id="m2e60dc1cf0" d="M 0 0 
L -4.8 0 
" style="stroke: #000000"/>
      </defs>
      <g>
       <use xlink:href="#m2e60dc1cf0" x="57.6" y="292.52107" style="stroke: #000000"/>
      </g>
     </g>
     <g id="text_10">
      <!-- −8 -->
      <g transform="translate(36.326875 295.864383) scale(0.088 -0.088)">
       <defs>
        <path id="DejaVuSans-2212" d="M 678 2272 
L 4684 2272 
L 4684 1741 
L 678 1741 
L 678 2272 
z
" transform="scale(0.015625)"/>
       </defs>
       <use xlink:href="#DejaVuSans-2212"/>
       <use xlink:href="#DejaVuSans-38" x="83.789062"/>
      </g>
     </g>
    </g>
    <g id="ytick_2">
     <g id="line2d_11">
      <g>
       <use xlink:href="#m2e60dc1cf0" x="57.6" y="258.11385" style="stroke: #000000"/>
      </g>
     </g>
     <g id="text_11">
      <!-- −7 -->
      <g transform="translate(36.326875 261.457162) scale(0.088 -0.088)">
       <use xlink:href="#DejaVuSans-2212"/>
       <use xlink:href="#DejaVuSans-37" x="83.789062"/>
      </g>
     </g>
    </g>
    <g id="ytick_3">
     <g id="line2d_12">
      <g>
       <use xlink:href="#m2e60dc1cf0" x="57.6" y="223.70663" style="stroke: #000000"/>
      </g>
     </g>
     <g id="text_12">
      <!-- −6 -->
      <g transform="translate(36.326875 227.049942) scale(0.088 -0.088)">
       <use xlink:href="#DejaVuSans-2212"/>
       <use xlink:href="#DejaVuSans-36" x="83.789062"/>
      </g>
     </g>
    </g>
    <g id="ytick_4">
     <g id="line2d_13">
      <g>
       <use xlink:href="#m2e60dc1cf0" x="57.6" y="189.29941" style="stroke: #000000"/>
      </g>
     </g>
     <g id="text_13">
      <!-- −5 -->
      <g transform="translate(36.326875 192.642722) scale(0.088 -0.088)">
       <use xlink:href="#DejaVuSans-2212"/>
       <use xlink:href="#DejaVuSans-35" x="83.789062"/>
      </g>
     </g>
    </g>
    <g id="ytick_5">
     <g id="line2d_14">
      <g>
       <use xlink:href="#m2e60dc1cf0" x="57.6" y="154.89219" style="stroke: #000000"/>
      </g>
     </g>
     <g id="text_14">
      <!-- −4 -->
      <g transform="translate(36.326875 158.235502) scale(0.088 -0.088)">
       <use xlink:href="#DejaVuSans-2212"/>
       <use xlink:href="#DejaVuSans-34" x="83.789062"/>
      </g>
     </g>
    </g>
    <g id="ytick_6">
     <g id="line2d_15">
      <g>
       <use xlink:href="#m2e60dc1cf0" x="57.6" y="120.48497" style="stroke: #000000"/>
      </g>
     </g>
     <g id="text_15">
      <!-- −3 -->
      <g transform="translate(36.326875 123.828282) scale(0.088 -0.088)">
       <use xlink:href="#DejaVuSans-2212"/>
       <use xlink:href="#DejaVuSans-33" x="83.789062"/>
      </g>
     </g>
    </g>
    <g id="ytick_7">
     <g id="line2d_16">
      <g>
       <use xlink:href="#m2e60dc1cf0" x="57.6" y="86.07775" style="stroke: #000000"/>
      </g>
     </g>
     <g id="text_16">
      <!-- −2 -->
      <g transform="translate(36.326875 89.421062) scale(0.088 -0.088)">
       <use xlink:href="#DejaVuSans-2212"/>
       <use xlink:href="#DejaVuSans-32" x="83.789062"/>
      </g>
     </g>
    </g>
    <g id="ytick_8">
     <g id="line2d_17">
      <g>
       <use xlink:href="#m2e60dc1cf0" x="57.6" y="51.67053" style="stroke: #000000"/>
      </g>
     </g>
     <g id="text_17">
      <!-- −1 -->
      <g transform="translate(36.326875 55.013842) scale(0.088 -0.088)">
       <use xlink:href="#DejaVuSans-2212"/>
       <use xlink:href="#DejaVuSans-31" x="83.789062"/>
      </g>
     </g>
    </g>
   </g>
   <g id="line2d_18">
    <path d="M 73.832727 98.987826 
L 114.414545 131.071979 
L 154.996364 138.437007 
L 195.578182 108.925133 
L 236.16 88.438265 
L 276.741818 102.523565 
L 317.323636 98.029092 
L 357.905455 121.073777 
L 398.487273 147.851094 
" clip-path="url(#p722ae285a7)" style="fill: none; stroke: #8c2981; stroke-width: 2; stroke-linecap: square"/>
    <defs>
     <path id="m2418e84d0f" d="M 0 1.2 
C 0.318244 1.2 0.623496 1.07356 0.848528 0.848528 
C 1.07356 0.623496 1.2 0.318244 1.2 0 
C 1.2 -0.318244 1.07356 -0.623496 0.848528 -0.848528 
C 0.623496 -1.07356 0.318244 -1.2 0 -1.2 
C -0.318244 -1.2 -0.623496 -1.07356 -0.848528 -0.848528 
C -1.07356 -0.623496 -1.2 -0.318244 -1.2 0 
C -1.2 0.318244 -1.07356 0.623496 -0.848528 0.848528 
C -0.623496 1.07356 -0.318244 1.2 0 1.2 
z
" style="stroke: #8c2981"/>
    </defs>
    <g clip-path="url(#p722ae285a7)">
     <use xlink:href="#m2418e84d0f" x="73.832727" y="98.987826" style="fill: #8c2981; stroke: #8c2981"/>
     <use xlink:href="#m2418e84d0f" x="114.414545" y="131.071979" style="fill: #8c2981; stroke: #8c2981"/>
     <use xlink:href="#m2418e84d0f" x="154.996364" y="138.437007" style="fill: #8c2981; stroke: #8c2981"/>
     <use xlink:href="#m2418e84d0f" x="195.578182" y="108.925133" style="fill: #8c2981; stroke: #8c2981"/>
     <use xlink:href="#m2418e84d0f" x="236.16" y="88.438265" style="fill: #8c2981; stroke: #8c2981"/>
     <use xlink:href="#m2418e84d0f" x="276.741818" y="102.523565" style="fill: #8c2981; stroke: #8c2981"/>
     <use xlink:href="#m2418e84d0f" x="317.323636" y="98.029092" style="fill: #8c2981; stroke: #8c2981"/>
     <use xlink:href="#m2418e84d0f" x="357.905455" y="121.073777" style="fill: #8c2981; stroke: #8c2981"/>
     <use xlink:href="#m2418e84d0f" x="398.487273" y="147.851094" style="fill: #8c2981; stroke: #8c2981"/>
    </g>
   </g>
   <g id="line2d_19">
    <path d="M 73.832727 295.488 
L 114.414545 237.361197 
L 154.996364 255.876778 
L 195.578182 165.270458 
L 236.16 219.551526 
L 276.741818 246.26046 
L 317.323636 277.17153 
L 357.905455 254.301368 
L 398.487273 257.897976 
" clip-path="url(#p722ae285a7)" style="fill: none; stroke: #b73779; stroke-width: 2; stroke-linecap: square"/>
    <defs>
     <path id="m339c8aa5d2" d="M 0 1.2 
C 0.318244 1.2 0.623496 1.07356 0.848528 0.848528 
C 1.07356 0.623496 1.2 0.318244 1.2 0 
C 1.2 -0.318244 1.07356 -0.623496 0.848528 -0.848528 
C 0.623496 -1.07356 0.318244 -1.2 0 -1.2 
C -0.318244 -1.2 -0.623496 -1.07356 -0.848528 -0.848528 
C -1.07356 -0.623496 -1.2 -0.318244 -1.2 0 
C -1.2 0.318244 -1.07356 0.623496 -0.848528 0.848528 
C -0.623496 1.07356 -0.318244 1.2 0 1.2 
z
" style="stroke: #b73779"/>
    </defs>
    <g clip-path="url(#p722ae285a7)">
     <use xlink:href="#m339c8aa5d2" x="73.832727" y="295.488" style="fill: #b73779; stroke: #b73779"/>
     <use xlink:href="#m339c8aa5d2" x="114.414545" y="237.361197" style="fill: #b73779; stroke: #b73779"/>
     <use xlink:href="#m339c8aa5d2" x="154.996364" y="255.876778" style="fill: #b73779; stroke: #b73779"/>
     <use xlink:href="#m339c8aa5d2" x="195.578182" y="165.270458" style="fill: #b73779; stroke: #b73779"/>
     <use xlink:href="#m339c8aa5d2" x="236.16" y="219.551526" style="fill: #b73779; stroke: #b73779"/>
     <use xlink:href="#m339c8aa5d2" x="276.741818" y="246.26046" style="fill: #b73779; stroke: #b73779"/>
     <use xlink:href="#m339c8aa5d2" x="317.323636" y="277.17153" style="fill: #b73779; stroke: #b73779"/>
     <use xlink:href="#m339c8aa5d2" x="357.905455" y="254.301368" style="fill: #b73779; stroke: #b73779"/>
     <use xlink:href="#m339c8aa5d2" x="398.487273" y="257.897976" style="fill: #b73779; stroke: #b73779"/>
    </g>
   </g>
   <g id="line2d_20">
    <path d="M 73.832727 85.772154 
L 114.414545 92.338807 
L 154.996364 94.159251 
L 195.578182 68.956832 
L 236.16 76.178391 
L 276.741818 53.568 
L 317.323636 66.028472 
L 357.905455 72.712008 
L 398.487273 71.687331 
" clip-path="url(#p722ae285a7)" style="fill: none; stroke: #f7705c; stroke-width: 2; stroke-linecap: square"/>
    <defs>
     <path id="ma14fbdd4ec" d="M 0 1.2 
C 0.318244 1.2 0.623496 1.07356 0.848528 0.848528 
C 1.07356 0.623496 1.2 0.318244 1.2 0 
C 1.2 -0.318244 1.07356 -0.623496 0.848528 -0.848528 
C 0.623496 -1.07356 0.318244 -1.2 0 -1.2 
C -0.318244 -1.2 -0.623496 -1.07356 -0.848528 -0.848528 
C -1.07356 -0.623496 -1.2 -0.318244 -1.2 0 
C -1.2 0.318244 -1.07356 0.623496 -0.848528 0.848528 
C -0.623496 1.07356 -0.318244 1.2 0 1.2 
z
" style="stroke: #f7705c"/>
    </defs>
    <g clip-path="url(#p722ae285a7)">
     <use xlink:href="#ma14fbdd4ec" x="73.832727" y="85.772154" style="fill: #f7705c; stroke: #f7705c"/>
     <use xlink:href="#ma14fbdd4ec" x="114.414545" y="92.338807" style="fill: #f7705c; stroke: #f7705c"/>
     <use xlink:href="#ma14fbdd4ec" x="154.996364" y="94.159251" style="fill: #f7705c; stroke: #f7705c"/>
     <use xlink:href="#ma14fbdd4ec" x="195.578182" y="68.956832" style="fill: #f7705c; stroke: #f7705c"/>
     <use xlink:href="#ma14fbdd4ec" x="236.16" y="76.178391" style="fill: #f7705c; stroke: #f7705c"/>
     <use xlink:href="#ma14fbdd4ec" x="276.741818" y="53.568" style="fill: #f7705c; stroke: #f7705c"/>
     <use xlink:href="#ma14fbdd4ec" x="317.323636" y="66.028472" style="fill: #f7705c; stroke: #f7705c"/>
     <use xlink:href="#ma14fbdd4ec" x="357.905455" y="72.712008" style="fill: #f7705c; stroke: #f7705c"/>
     <use xlink:href="#ma14fbdd4ec" x="398.487273" y="71.687331" style="fill: #f7705c; stroke: #f7705c"/>
    </g>
   </g>
   <g id="patch_3">
    <path d="M 57.6 307.584 
L 57.6 41.472 
" style="fill: none; stroke: #000000; stroke-linejoin: miter; stroke-linecap: square"/>
   </g>
   <g id="patch_4">
    <path d="M 57.6 307.584 
L 414.72 307.584 
" style="fill: none; stroke: #000000; stroke-linejoin: miter; stroke-linecap: square"/>
   </g>
   <g id="legend_1">
    <g id="patch_5">
     <path d="M 357.9655 303.184 
L 408.56 303.184 
Q 410.32 303.184 410.32 301.424 
L 410.32 263.55375 
Q 410.32 261.79375 408.56 261.79375 
L 357.9655 261.79375 
Q 356.2055 261.79375 356.2055 263.55375 
L 356.2055 301.424 
Q 356.2055 303.184 357.9655 303.184 
z
" style="fill: #ffffff; opacity: 0.8; stroke: #cccccc; stroke-width: 0.8; stroke-linejoin: miter"/>
    </g>
    <g id="line2d_21">
     <path d="M 359.7255 268.920375 
L 368.5255 268.920375 
L 377.3255 268.920375 
" style="fill: none; stroke: #8c2981; stroke-width: 2; stroke-linecap: square"/>
     <g>
      <use xlink:href="#m2418e84d0f" x="368.5255" y="268.920375" style="fill: #8c2981; stroke: #8c2981"/>
     </g>
    </g>
    <g id="text_18">
     <!-- 20Hz -->
     <g transform="translate(384.3655 272.000375) scale(0.088 -0.088)">
      <defs>
       <path id="DejaVuSans-48" d="M 628 4666 
L 1259 4666 
L 1259 2753 
L 3553 2753 
L 3553 4666 
L 4184 4666 
L 4184 0 
L 3553 0 
L 3553 2222 
L 1259 2222 
L 1259 0 
L 628 0 
L 628 4666 
z
" transform="scale(0.015625)"/>
       <path id="DejaVuSans-7a" d="M 353 3500 
L 3084 3500 
L 3084 2975 
L 922 459 
L 3084 459 
L 3084 0 
L 275 0 
L 275 525 
L 2438 3041 
L 353 3041 
L 353 3500 
z
" transform="scale(0.015625)"/>
      </defs>
      <use xlink:href="#DejaVuSans-32"/>
      <use xlink:href="#DejaVuSans-30" x="63.623047"/>
      <use xlink:href="#DejaVuSans-48" x="127.246094"/>
      <use xlink:href="#DejaVuSans-7a" x="202.441406"/>
     </g>
    </g>
    <g id="line2d_22">
     <path d="M 359.7255 281.837125 
L 368.5255 281.837125 
L 377.3255 281.837125 
" style="fill: none; stroke: #b73779; stroke-width: 2; stroke-linecap: square"/>
     <g>
      <use xlink:href="#m339c8aa5d2" x="368.5255" y="281.837125" style="fill: #b73779; stroke: #b73779"/>
     </g>
    </g>
    <g id="text_19">
     <!-- 30Hz -->
     <g transform="translate(384.3655 284.917125) scale(0.088 -0.088)">
      <use xlink:href="#DejaVuSans-33"/>
      <use xlink:href="#DejaVuSans-30" x="63.623047"/>
      <use xlink:href="#DejaVuSans-48" x="127.246094"/>
      <use xlink:href="#DejaVuSans-7a" x="202.441406"/>
     </g>
    </g>
    <g id="line2d_23">
     <path d="M 359.7255 294.753875 
L 368.5255 294.753875 
L 377.3255 294.753875 
" style="fill: none; stroke: #f7705c; stroke-width: 2; stroke-linecap: square"/>
     <g>
      <use xlink:href="#ma14fbdd4ec" x="368.5255" y="294.753875" style="fill: #f7705c; stroke: #f7705c"/>
     </g>
    </g>
    <g id="text_20">
     <!-- 50Hz -->
     <g transform="translate(384.3655 297.833875) scale(0.088 -0.088)">
      <use xlink:href="#DejaVuSans-35"/>
      <use xlink:href="#DejaVuSans-30" x="63.623047"/>
      <use xlink:href="#DejaVuSans-48" x="127.246094"/>
      <use xlink:href="#DejaVuSans-7a" x="202.441406"/>
     </g>
    </g>
   </g>
  </g>
 </g>
 <defs>
  <clipPath id="p722ae285a7">
   <rect x="57.6" y="41.472" width="357.12" height="266.112"/>
  </clipPath>
 </defs>
</svg>
