<?xml version="1.0" encoding="utf-8" standalone="no"?>
<!DOCTYPE svg PUBLIC "-//W3C//DTD SVG 1.1//EN"
  "http://www.w3.org/Graphics/SVG/1.1/DTD/svg11.dtd">
<svg xmlns:xlink="http://www.w3.org/1999/xlink" width="1080pt" height="360pt" viewBox="0 0 1080 360" xmlns="http://www.w3.org/2000/svg" version="1.1">
 <metadata>
  <rdf:RDF xmlns:dc="http://purl.org/dc/elements/1.1/" xmlns:cc="http://creativecommons.org/ns#" xmlns:rdf="http://www.w3.org/1999/02/22-rdf-syntax-ns#">
   <cc:Work>
    <dc:type rdf:resource="http://purl.org/dc/dcmitype/StillImage"/>
    <dc:date>2024-07-13T12:58:38.048642</dc:date>
    <dc:format>image/svg+xml</dc:format>
    <dc:creator>
     <cc:Agent>
      <dc:title>Matplotlib v3.8.1, https://matplotlib.org/</dc:title>
     </cc:Agent>
    </dc:creator>
   </cc:Work>
  </rdf:RDF>
 </metadata>
 <defs>
  <style type="text/css">*{stroke-linejoin: round; stroke-linecap: butt}</style>
 </defs>
 <g id="figure_1">
  <g id="patch_1">
   <path d="M 0 360 
L 1080 360 
L 1080 0 
L 0 0 
z
" style="fill: #ffffff"/>
  </g>
  <g id="axes_1">
   <g id="patch_2">
    <path d="M 135 320.4 
L 972 320.4 
L 972 43.2 
L 135 43.2 
z
" style="fill: #ffffff"/>
   </g>
   <g id="matplotlib.axis_1">
    <g id="xtick_1">
     <g id="text_1">
      <!-- 20 -->
      <g style="fill: #262626" transform="translate(233.507969 337.773594) scale(0.11 -0.11)">
       <defs>
        <path id="ArialMT-32" d="M 3222 541 
L 3222 0 
L 194 0 
Q 188 203 259 391 
Q 375 700 629 1000 
Q 884 1300 1366 1694 
Q 2113 2306 2375 2664 
Q 2638 3022 2638 3341 
Q 2638 3675 2398 3904 
Q 2159 4134 1775 4134 
Q 1369 4134 1125 3890 
Q 881 3647 878 3216 
L 300 3275 
Q 359 3922 746 4261 
Q 1134 4600 1788 4600 
Q 2447 4600 2831 4234 
Q 3216 3869 3216 3328 
Q 3216 3053 3103 2787 
Q 2991 2522 2730 2228 
Q 2469 1934 1863 1422 
Q 1356 997 1212 845 
Q 1069 694 975 541 
L 3222 541 
z
" transform="scale(0.015625)"/>
        <path id="ArialMT-30" d="M 266 2259 
Q 266 3072 433 3567 
Q 600 4063 929 4331 
Q 1259 4600 1759 4600 
Q 2128 4600 2406 4451 
Q 2684 4303 2865 4023 
Q 3047 3744 3150 3342 
Q 3253 2941 3253 2259 
Q 3253 1453 3087 958 
Q 2922 463 2592 192 
Q 2263 -78 1759 -78 
Q 1097 -78 719 397 
Q 266 969 266 2259 
z
M 844 2259 
Q 844 1131 1108 757 
Q 1372 384 1759 384 
Q 2147 384 2411 759 
Q 2675 1134 2675 2259 
Q 2675 3391 2411 3762 
Q 2147 4134 1753 4134 
Q 1366 4134 1134 3806 
Q 844 3388 844 2259 
z
" transform="scale(0.015625)"/>
       </defs>
       <use xlink:href="#ArialMT-32"/>
       <use xlink:href="#ArialMT-30" x="55.615234"/>
      </g>
     </g>
    </g>
    <g id="xtick_2">
     <g id="text_2">
      <!-- 30 -->
      <g style="fill: #262626" transform="translate(442.757969 337.773594) scale(0.11 -0.11)">
       <defs>
        <path id="ArialMT-33" d="M 269 1209 
L 831 1284 
Q 928 806 1161 595 
Q 1394 384 1728 384 
Q 2125 384 2398 659 
Q 2672 934 2672 1341 
Q 2672 1728 2419 1979 
Q 2166 2231 1775 2231 
Q 1616 2231 1378 2169 
L 1441 2663 
Q 1497 2656 1531 2656 
Q 1891 2656 2178 2843 
Q 2466 3031 2466 3422 
Q 2466 3731 2256 3934 
Q 2047 4138 1716 4138 
Q 1388 4138 1169 3931 
Q 950 3725 888 3313 
L 325 3413 
Q 428 3978 793 4289 
Q 1159 4600 1703 4600 
Q 2078 4600 2393 4439 
Q 2709 4278 2876 4000 
Q 3044 3722 3044 3409 
Q 3044 3113 2884 2869 
Q 2725 2625 2413 2481 
Q 2819 2388 3044 2092 
Q 3269 1797 3269 1353 
Q 3269 753 2831 336 
Q 2394 -81 1725 -81 
Q 1122 -81 723 278 
Q 325 638 269 1209 
z
" transform="scale(0.015625)"/>
       </defs>
       <use xlink:href="#ArialMT-33"/>
       <use xlink:href="#ArialMT-30" x="55.615234"/>
      </g>
     </g>
    </g>
    <g id="xtick_3">
     <g id="text_3">
      <!-- 40 -->
      <g style="fill: #262626" transform="translate(652.007969 337.773594) scale(0.11 -0.11)">
       <defs>
        <path id="ArialMT-34" d="M 2069 0 
L 2069 1097 
L 81 1097 
L 81 1613 
L 2172 4581 
L 2631 4581 
L 2631 1613 
L 3250 1613 
L 3250 1097 
L 2631 1097 
L 2631 0 
L 2069 0 
z
M 2069 1613 
L 2069 3678 
L 634 1613 
L 2069 1613 
z
" transform="scale(0.015625)"/>
       </defs>
       <use xlink:href="#ArialMT-34"/>
       <use xlink:href="#ArialMT-30" x="55.615234"/>
      </g>
     </g>
    </g>
    <g id="xtick_4">
     <g id="text_4">
      <!-- 50 -->
      <g style="fill: #262626" transform="translate(861.257969 337.773594) scale(0.11 -0.11)">
       <defs>
        <path id="ArialMT-35" d="M 266 1200 
L 856 1250 
Q 922 819 1161 601 
Q 1400 384 1738 384 
Q 2144 384 2425 690 
Q 2706 997 2706 1503 
Q 2706 1984 2436 2262 
Q 2166 2541 1728 2541 
Q 1456 2541 1237 2417 
Q 1019 2294 894 2097 
L 366 2166 
L 809 4519 
L 3088 4519 
L 3088 3981 
L 1259 3981 
L 1013 2750 
Q 1425 3038 1878 3038 
Q 2478 3038 2890 2622 
Q 3303 2206 3303 1553 
Q 3303 931 2941 478 
Q 2500 -78 1738 -78 
Q 1113 -78 717 272 
Q 322 622 266 1200 
z
" transform="scale(0.015625)"/>
       </defs>
       <use xlink:href="#ArialMT-35"/>
       <use xlink:href="#ArialMT-30" x="55.615234"/>
      </g>
     </g>
    </g>
    <g id="text_5">
     <!-- Stimulation Frequency (Hz) -->
     <g style="fill: #262626" transform="translate(480.812813 352.695469) scale(0.12 -0.12)">
      <defs>
       <path id="ArialMT-53" d="M 288 1472 
L 859 1522 
Q 900 1178 1048 958 
Q 1197 738 1509 602 
Q 1822 466 2213 466 
Q 2559 466 2825 569 
Q 3091 672 3220 851 
Q 3350 1031 3350 1244 
Q 3350 1459 3225 1620 
Q 3100 1781 2813 1891 
Q 2628 1963 1997 2114 
Q 1366 2266 1113 2400 
Q 784 2572 623 2826 
Q 463 3081 463 3397 
Q 463 3744 659 4045 
Q 856 4347 1234 4503 
Q 1613 4659 2075 4659 
Q 2584 4659 2973 4495 
Q 3363 4331 3572 4012 
Q 3781 3694 3797 3291 
L 3216 3247 
Q 3169 3681 2898 3903 
Q 2628 4125 2100 4125 
Q 1550 4125 1298 3923 
Q 1047 3722 1047 3438 
Q 1047 3191 1225 3031 
Q 1400 2872 2139 2705 
Q 2878 2538 3153 2413 
Q 3553 2228 3743 1945 
Q 3934 1663 3934 1294 
Q 3934 928 3725 604 
Q 3516 281 3123 101 
Q 2731 -78 2241 -78 
Q 1619 -78 1198 103 
Q 778 284 539 648 
Q 300 1013 288 1472 
z
" transform="scale(0.015625)"/>
       <path id="ArialMT-74" d="M 1650 503 
L 1731 6 
Q 1494 -44 1306 -44 
Q 1000 -44 831 53 
Q 663 150 594 308 
Q 525 466 525 972 
L 525 2881 
L 113 2881 
L 113 3319 
L 525 3319 
L 525 4141 
L 1084 4478 
L 1084 3319 
L 1650 3319 
L 1650 2881 
L 1084 2881 
L 1084 941 
Q 1084 700 1114 631 
Q 1144 563 1211 522 
Q 1278 481 1403 481 
Q 1497 481 1650 503 
z
" transform="scale(0.015625)"/>
       <path id="ArialMT-69" d="M 425 3934 
L 425 4581 
L 988 4581 
L 988 3934 
L 425 3934 
z
M 425 0 
L 425 3319 
L 988 3319 
L 988 0 
L 425 0 
z
" transform="scale(0.015625)"/>
       <path id="ArialMT-6d" d="M 422 0 
L 422 3319 
L 925 3319 
L 925 2853 
Q 1081 3097 1340 3245 
Q 1600 3394 1931 3394 
Q 2300 3394 2536 3241 
Q 2772 3088 2869 2813 
Q 3263 3394 3894 3394 
Q 4388 3394 4653 3120 
Q 4919 2847 4919 2278 
L 4919 0 
L 4359 0 
L 4359 2091 
Q 4359 2428 4304 2576 
Q 4250 2725 4106 2815 
Q 3963 2906 3769 2906 
Q 3419 2906 3187 2673 
Q 2956 2441 2956 1928 
L 2956 0 
L 2394 0 
L 2394 2156 
Q 2394 2531 2256 2718 
Q 2119 2906 1806 2906 
Q 1569 2906 1367 2781 
Q 1166 2656 1075 2415 
Q 984 2175 984 1722 
L 984 0 
L 422 0 
z
" transform="scale(0.015625)"/>
       <path id="ArialMT-75" d="M 2597 0 
L 2597 488 
Q 2209 -75 1544 -75 
Q 1250 -75 995 37 
Q 741 150 617 320 
Q 494 491 444 738 
Q 409 903 409 1263 
L 409 3319 
L 972 3319 
L 972 1478 
Q 972 1038 1006 884 
Q 1059 663 1231 536 
Q 1403 409 1656 409 
Q 1909 409 2131 539 
Q 2353 669 2445 892 
Q 2538 1116 2538 1541 
L 2538 3319 
L 3100 3319 
L 3100 0 
L 2597 0 
z
" transform="scale(0.015625)"/>
       <path id="ArialMT-6c" d="M 409 0 
L 409 4581 
L 972 4581 
L 972 0 
L 409 0 
z
" transform="scale(0.015625)"/>
       <path id="ArialMT-61" d="M 2588 409 
Q 2275 144 1986 34 
Q 1697 -75 1366 -75 
Q 819 -75 525 192 
Q 231 459 231 875 
Q 231 1119 342 1320 
Q 453 1522 633 1644 
Q 813 1766 1038 1828 
Q 1203 1872 1538 1913 
Q 2219 1994 2541 2106 
Q 2544 2222 2544 2253 
Q 2544 2597 2384 2738 
Q 2169 2928 1744 2928 
Q 1347 2928 1158 2789 
Q 969 2650 878 2297 
L 328 2372 
Q 403 2725 575 2942 
Q 747 3159 1072 3276 
Q 1397 3394 1825 3394 
Q 2250 3394 2515 3294 
Q 2781 3194 2906 3042 
Q 3031 2891 3081 2659 
Q 3109 2516 3109 2141 
L 3109 1391 
Q 3109 606 3145 398 
Q 3181 191 3288 0 
L 2700 0 
Q 2613 175 2588 409 
z
M 2541 1666 
Q 2234 1541 1622 1453 
Q 1275 1403 1131 1340 
Q 988 1278 909 1158 
Q 831 1038 831 891 
Q 831 666 1001 516 
Q 1172 366 1500 366 
Q 1825 366 2078 508 
Q 2331 650 2450 897 
Q 2541 1088 2541 1459 
L 2541 1666 
z
" transform="scale(0.015625)"/>
       <path id="ArialMT-6f" d="M 213 1659 
Q 213 2581 725 3025 
Q 1153 3394 1769 3394 
Q 2453 3394 2887 2945 
Q 3322 2497 3322 1706 
Q 3322 1066 3130 698 
Q 2938 331 2570 128 
Q 2203 -75 1769 -75 
Q 1072 -75 642 372 
Q 213 819 213 1659 
z
M 791 1659 
Q 791 1022 1069 705 
Q 1347 388 1769 388 
Q 2188 388 2466 706 
Q 2744 1025 2744 1678 
Q 2744 2294 2464 2611 
Q 2184 2928 1769 2928 
Q 1347 2928 1069 2612 
Q 791 2297 791 1659 
z
" transform="scale(0.015625)"/>
       <path id="ArialMT-6e" d="M 422 0 
L 422 3319 
L 928 3319 
L 928 2847 
Q 1294 3394 1984 3394 
Q 2284 3394 2536 3286 
Q 2788 3178 2913 3003 
Q 3038 2828 3088 2588 
Q 3119 2431 3119 2041 
L 3119 0 
L 2556 0 
L 2556 2019 
Q 2556 2363 2490 2533 
Q 2425 2703 2258 2804 
Q 2091 2906 1866 2906 
Q 1506 2906 1245 2678 
Q 984 2450 984 1813 
L 984 0 
L 422 0 
z
" transform="scale(0.015625)"/>
       <path id="ArialMT-20" transform="scale(0.015625)"/>
       <path id="ArialMT-46" d="M 525 0 
L 525 4581 
L 3616 4581 
L 3616 4041 
L 1131 4041 
L 1131 2622 
L 3281 2622 
L 3281 2081 
L 1131 2081 
L 1131 0 
L 525 0 
z
" transform="scale(0.015625)"/>
       <path id="ArialMT-72" d="M 416 0 
L 416 3319 
L 922 3319 
L 922 2816 
Q 1116 3169 1280 3281 
Q 1444 3394 1641 3394 
Q 1925 3394 2219 3213 
L 2025 2691 
Q 1819 2813 1613 2813 
Q 1428 2813 1281 2702 
Q 1134 2591 1072 2394 
Q 978 2094 978 1738 
L 978 0 
L 416 0 
z
" transform="scale(0.015625)"/>
       <path id="ArialMT-65" d="M 2694 1069 
L 3275 997 
Q 3138 488 2766 206 
Q 2394 -75 1816 -75 
Q 1088 -75 661 373 
Q 234 822 234 1631 
Q 234 2469 665 2931 
Q 1097 3394 1784 3394 
Q 2450 3394 2872 2941 
Q 3294 2488 3294 1666 
Q 3294 1616 3291 1516 
L 816 1516 
Q 847 969 1125 678 
Q 1403 388 1819 388 
Q 2128 388 2347 550 
Q 2566 713 2694 1069 
z
M 847 1978 
L 2700 1978 
Q 2663 2397 2488 2606 
Q 2219 2931 1791 2931 
Q 1403 2931 1139 2672 
Q 875 2413 847 1978 
z
" transform="scale(0.015625)"/>
       <path id="ArialMT-71" d="M 2538 -1272 
L 2538 353 
Q 2406 169 2170 47 
Q 1934 -75 1669 -75 
Q 1078 -75 651 397 
Q 225 869 225 1691 
Q 225 2191 398 2587 
Q 572 2984 901 3189 
Q 1231 3394 1625 3394 
Q 2241 3394 2594 2875 
L 2594 3319 
L 3100 3319 
L 3100 -1272 
L 2538 -1272 
z
M 803 1669 
Q 803 1028 1072 708 
Q 1341 388 1716 388 
Q 2075 388 2334 692 
Q 2594 997 2594 1619 
Q 2594 2281 2320 2615 
Q 2047 2950 1678 2950 
Q 1313 2950 1058 2639 
Q 803 2328 803 1669 
z
" transform="scale(0.015625)"/>
       <path id="ArialMT-63" d="M 2588 1216 
L 3141 1144 
Q 3050 572 2676 248 
Q 2303 -75 1759 -75 
Q 1078 -75 664 370 
Q 250 816 250 1647 
Q 250 2184 428 2587 
Q 606 2991 970 3192 
Q 1334 3394 1763 3394 
Q 2303 3394 2647 3120 
Q 2991 2847 3088 2344 
L 2541 2259 
Q 2463 2594 2264 2762 
Q 2066 2931 1784 2931 
Q 1359 2931 1093 2626 
Q 828 2322 828 1663 
Q 828 994 1084 691 
Q 1341 388 1753 388 
Q 2084 388 2306 591 
Q 2528 794 2588 1216 
z
" transform="scale(0.015625)"/>
       <path id="ArialMT-79" d="M 397 -1278 
L 334 -750 
Q 519 -800 656 -800 
Q 844 -800 956 -737 
Q 1069 -675 1141 -563 
Q 1194 -478 1313 -144 
Q 1328 -97 1363 -6 
L 103 3319 
L 709 3319 
L 1400 1397 
Q 1534 1031 1641 628 
Q 1738 1016 1872 1384 
L 2581 3319 
L 3144 3319 
L 1881 -56 
Q 1678 -603 1566 -809 
Q 1416 -1088 1222 -1217 
Q 1028 -1347 759 -1347 
Q 597 -1347 397 -1278 
z
" transform="scale(0.015625)"/>
       <path id="ArialMT-28" d="M 1497 -1347 
Q 1031 -759 709 28 
Q 388 816 388 1659 
Q 388 2403 628 3084 
Q 909 3875 1497 4659 
L 1900 4659 
Q 1522 4009 1400 3731 
Q 1209 3300 1100 2831 
Q 966 2247 966 1656 
Q 966 153 1900 -1347 
L 1497 -1347 
z
" transform="scale(0.015625)"/>
       <path id="ArialMT-48" d="M 513 0 
L 513 4581 
L 1119 4581 
L 1119 2700 
L 3500 2700 
L 3500 4581 
L 4106 4581 
L 4106 0 
L 3500 0 
L 3500 2159 
L 1119 2159 
L 1119 0 
L 513 0 
z
" transform="scale(0.015625)"/>
       <path id="ArialMT-7a" d="M 125 0 
L 125 456 
L 2238 2881 
Q 1878 2863 1603 2863 
L 250 2863 
L 250 3319 
L 2963 3319 
L 2963 2947 
L 1166 841 
L 819 456 
Q 1197 484 1528 484 
L 3063 484 
L 3063 0 
L 125 0 
z
" transform="scale(0.015625)"/>
       <path id="ArialMT-29" d="M 791 -1347 
L 388 -1347 
Q 1322 153 1322 1656 
Q 1322 2244 1188 2822 
Q 1081 3291 891 3722 
Q 769 4003 388 4659 
L 791 4659 
Q 1378 3875 1659 3084 
Q 1900 2403 1900 1659 
Q 1900 816 1576 28 
Q 1253 -759 791 -1347 
z
" transform="scale(0.015625)"/>
      </defs>
      <use xlink:href="#ArialMT-53"/>
      <use xlink:href="#ArialMT-74" x="66.699219"/>
      <use xlink:href="#ArialMT-69" x="94.482422"/>
      <use xlink:href="#ArialMT-6d" x="116.699219"/>
      <use xlink:href="#ArialMT-75" x="200"/>
      <use xlink:href="#ArialMT-6c" x="255.615234"/>
      <use xlink:href="#ArialMT-61" x="277.832031"/>
      <use xlink:href="#ArialMT-74" x="333.447266"/>
      <use xlink:href="#ArialMT-69" x="361.230469"/>
      <use xlink:href="#ArialMT-6f" x="383.447266"/>
      <use xlink:href="#ArialMT-6e" x="439.0625"/>
      <use xlink:href="#ArialMT-20" x="494.677734"/>
      <use xlink:href="#ArialMT-46" x="522.460938"/>
      <use xlink:href="#ArialMT-72" x="583.544922"/>
      <use xlink:href="#ArialMT-65" x="616.845703"/>
      <use xlink:href="#ArialMT-71" x="672.460938"/>
      <use xlink:href="#ArialMT-75" x="728.076172"/>
      <use xlink:href="#ArialMT-65" x="783.691406"/>
      <use xlink:href="#ArialMT-6e" x="839.306641"/>
      <use xlink:href="#ArialMT-63" x="894.921875"/>
      <use xlink:href="#ArialMT-79" x="944.921875"/>
      <use xlink:href="#ArialMT-20" x="994.921875"/>
      <use xlink:href="#ArialMT-28" x="1022.705078"/>
      <use xlink:href="#ArialMT-48" x="1056.005859"/>
      <use xlink:href="#ArialMT-7a" x="1128.222656"/>
      <use xlink:href="#ArialMT-29" x="1178.222656"/>
     </g>
    </g>
   </g>
   <g id="matplotlib.axis_2">
    <g id="ytick_1">
     <g id="line2d_1">
      <path d="M 135 292.68 
L 972 292.68 
" clip-path="url(#pe926a46b49)" style="fill: none; stroke: #cccccc; stroke-linecap: round"/>
     </g>
     <g id="text_6">
      <!-- 0 -->
      <g style="fill: #262626" transform="translate(119.382969 296.616797) scale(0.11 -0.11)">
       <use xlink:href="#ArialMT-30"/>
      </g>
     </g>
    </g>
    <g id="ytick_2">
     <g id="line2d_2">
      <path d="M 135 237.24 
L 972 237.24 
" clip-path="url(#pe926a46b49)" style="fill: none; stroke: #cccccc; stroke-linecap: round"/>
     </g>
     <g id="text_7">
      <!-- 2 -->
      <g style="fill: #262626" transform="translate(119.382969 241.176797) scale(0.11 -0.11)">
       <use xlink:href="#ArialMT-32"/>
      </g>
     </g>
    </g>
    <g id="ytick_3">
     <g id="line2d_3">
      <path d="M 135 181.8 
L 972 181.8 
" clip-path="url(#pe926a46b49)" style="fill: none; stroke: #cccccc; stroke-linecap: round"/>
     </g>
     <g id="text_8">
      <!-- 4 -->
      <g style="fill: #262626" transform="translate(119.382969 185.736797) scale(0.11 -0.11)">
       <use xlink:href="#ArialMT-34"/>
      </g>
     </g>
    </g>
    <g id="ytick_4">
     <g id="line2d_4">
      <path d="M 135 126.36 
L 972 126.36 
" clip-path="url(#pe926a46b49)" style="fill: none; stroke: #cccccc; stroke-linecap: round"/>
     </g>
     <g id="text_9">
      <!-- 6 -->
      <g style="fill: #262626" transform="translate(119.382969 130.296797) scale(0.11 -0.11)">
       <defs>
        <path id="ArialMT-36" d="M 3184 3459 
L 2625 3416 
Q 2550 3747 2413 3897 
Q 2184 4138 1850 4138 
Q 1581 4138 1378 3988 
Q 1113 3794 959 3422 
Q 806 3050 800 2363 
Q 1003 2672 1297 2822 
Q 1591 2972 1913 2972 
Q 2475 2972 2870 2558 
Q 3266 2144 3266 1488 
Q 3266 1056 3080 686 
Q 2894 316 2569 119 
Q 2244 -78 1831 -78 
Q 1128 -78 684 439 
Q 241 956 241 2144 
Q 241 3472 731 4075 
Q 1159 4600 1884 4600 
Q 2425 4600 2770 4297 
Q 3116 3994 3184 3459 
z
M 888 1484 
Q 888 1194 1011 928 
Q 1134 663 1356 523 
Q 1578 384 1822 384 
Q 2178 384 2434 671 
Q 2691 959 2691 1453 
Q 2691 1928 2437 2201 
Q 2184 2475 1800 2475 
Q 1419 2475 1153 2201 
Q 888 1928 888 1484 
z
" transform="scale(0.015625)"/>
       </defs>
       <use xlink:href="#ArialMT-36"/>
      </g>
     </g>
    </g>
    <g id="ytick_5">
     <g id="line2d_5">
      <path d="M 135 70.92 
L 972 70.92 
" clip-path="url(#pe926a46b49)" style="fill: none; stroke: #cccccc; stroke-linecap: round"/>
     </g>
     <g id="text_10">
      <!-- 8 -->
      <g style="fill: #262626" transform="translate(119.382969 74.856797) scale(0.11 -0.11)">
       <defs>
        <path id="ArialMT-38" d="M 1131 2484 
Q 781 2613 612 2850 
Q 444 3088 444 3419 
Q 444 3919 803 4259 
Q 1163 4600 1759 4600 
Q 2359 4600 2725 4251 
Q 3091 3903 3091 3403 
Q 3091 3084 2923 2848 
Q 2756 2613 2416 2484 
Q 2838 2347 3058 2040 
Q 3278 1734 3278 1309 
Q 3278 722 2862 322 
Q 2447 -78 1769 -78 
Q 1091 -78 675 323 
Q 259 725 259 1325 
Q 259 1772 486 2073 
Q 713 2375 1131 2484 
z
M 1019 3438 
Q 1019 3113 1228 2906 
Q 1438 2700 1772 2700 
Q 2097 2700 2305 2904 
Q 2513 3109 2513 3406 
Q 2513 3716 2298 3927 
Q 2084 4138 1766 4138 
Q 1444 4138 1231 3931 
Q 1019 3725 1019 3438 
z
M 838 1322 
Q 838 1081 952 856 
Q 1066 631 1291 507 
Q 1516 384 1775 384 
Q 2178 384 2440 643 
Q 2703 903 2703 1303 
Q 2703 1709 2433 1975 
Q 2163 2241 1756 2241 
Q 1359 2241 1098 1978 
Q 838 1716 838 1322 
z
" transform="scale(0.015625)"/>
       </defs>
       <use xlink:href="#ArialMT-38"/>
      </g>
     </g>
    </g>
    <g id="text_11">
     <!-- Location of Max Response in the sweep (peak #) -->
     <g style="fill: #262626" transform="translate(112.857344 311.865937) rotate(-90) scale(0.12 -0.12)">
      <defs>
       <path id="ArialMT-4c" d="M 469 0 
L 469 4581 
L 1075 4581 
L 1075 541 
L 3331 541 
L 3331 0 
L 469 0 
z
" transform="scale(0.015625)"/>
       <path id="ArialMT-66" d="M 556 0 
L 556 2881 
L 59 2881 
L 59 3319 
L 556 3319 
L 556 3672 
Q 556 4006 616 4169 
Q 697 4388 901 4523 
Q 1106 4659 1475 4659 
Q 1713 4659 2000 4603 
L 1916 4113 
Q 1741 4144 1584 4144 
Q 1328 4144 1222 4034 
Q 1116 3925 1116 3625 
L 1116 3319 
L 1763 3319 
L 1763 2881 
L 1116 2881 
L 1116 0 
L 556 0 
z
" transform="scale(0.015625)"/>
       <path id="ArialMT-4d" d="M 475 0 
L 475 4581 
L 1388 4581 
L 2472 1338 
Q 2622 884 2691 659 
Q 2769 909 2934 1394 
L 4031 4581 
L 4847 4581 
L 4847 0 
L 4263 0 
L 4263 3834 
L 2931 0 
L 2384 0 
L 1059 3900 
L 1059 0 
L 475 0 
z
" transform="scale(0.015625)"/>
       <path id="ArialMT-78" d="M 47 0 
L 1259 1725 
L 138 3319 
L 841 3319 
L 1350 2541 
Q 1494 2319 1581 2169 
Q 1719 2375 1834 2534 
L 2394 3319 
L 3066 3319 
L 1919 1756 
L 3153 0 
L 2463 0 
L 1781 1031 
L 1600 1309 
L 728 0 
L 47 0 
z
" transform="scale(0.015625)"/>
       <path id="ArialMT-52" d="M 503 0 
L 503 4581 
L 2534 4581 
Q 3147 4581 3465 4457 
Q 3784 4334 3975 4021 
Q 4166 3709 4166 3331 
Q 4166 2844 3850 2509 
Q 3534 2175 2875 2084 
Q 3116 1969 3241 1856 
Q 3506 1613 3744 1247 
L 4541 0 
L 3778 0 
L 3172 953 
Q 2906 1366 2734 1584 
Q 2563 1803 2427 1890 
Q 2291 1978 2150 2013 
Q 2047 2034 1813 2034 
L 1109 2034 
L 1109 0 
L 503 0 
z
M 1109 2559 
L 2413 2559 
Q 2828 2559 3062 2645 
Q 3297 2731 3419 2920 
Q 3541 3109 3541 3331 
Q 3541 3656 3305 3865 
Q 3069 4075 2559 4075 
L 1109 4075 
L 1109 2559 
z
" transform="scale(0.015625)"/>
       <path id="ArialMT-73" d="M 197 991 
L 753 1078 
Q 800 744 1014 566 
Q 1228 388 1613 388 
Q 2000 388 2187 545 
Q 2375 703 2375 916 
Q 2375 1106 2209 1216 
Q 2094 1291 1634 1406 
Q 1016 1563 777 1677 
Q 538 1791 414 1992 
Q 291 2194 291 2438 
Q 291 2659 392 2848 
Q 494 3038 669 3163 
Q 800 3259 1026 3326 
Q 1253 3394 1513 3394 
Q 1903 3394 2198 3281 
Q 2494 3169 2634 2976 
Q 2775 2784 2828 2463 
L 2278 2388 
Q 2241 2644 2061 2787 
Q 1881 2931 1553 2931 
Q 1166 2931 1000 2803 
Q 834 2675 834 2503 
Q 834 2394 903 2306 
Q 972 2216 1119 2156 
Q 1203 2125 1616 2013 
Q 2213 1853 2448 1751 
Q 2684 1650 2818 1456 
Q 2953 1263 2953 975 
Q 2953 694 2789 445 
Q 2625 197 2315 61 
Q 2006 -75 1616 -75 
Q 969 -75 630 194 
Q 291 463 197 991 
z
" transform="scale(0.015625)"/>
       <path id="ArialMT-70" d="M 422 -1272 
L 422 3319 
L 934 3319 
L 934 2888 
Q 1116 3141 1344 3267 
Q 1572 3394 1897 3394 
Q 2322 3394 2647 3175 
Q 2972 2956 3137 2557 
Q 3303 2159 3303 1684 
Q 3303 1175 3120 767 
Q 2938 359 2589 142 
Q 2241 -75 1856 -75 
Q 1575 -75 1351 44 
Q 1128 163 984 344 
L 984 -1272 
L 422 -1272 
z
M 931 1641 
Q 931 1000 1190 694 
Q 1450 388 1819 388 
Q 2194 388 2461 705 
Q 2728 1022 2728 1688 
Q 2728 2322 2467 2637 
Q 2206 2953 1844 2953 
Q 1484 2953 1207 2617 
Q 931 2281 931 1641 
z
" transform="scale(0.015625)"/>
       <path id="ArialMT-68" d="M 422 0 
L 422 4581 
L 984 4581 
L 984 2938 
Q 1378 3394 1978 3394 
Q 2347 3394 2619 3248 
Q 2891 3103 3008 2847 
Q 3125 2591 3125 2103 
L 3125 0 
L 2563 0 
L 2563 2103 
Q 2563 2525 2380 2717 
Q 2197 2909 1863 2909 
Q 1613 2909 1392 2779 
Q 1172 2650 1078 2428 
Q 984 2206 984 1816 
L 984 0 
L 422 0 
z
" transform="scale(0.015625)"/>
       <path id="ArialMT-77" d="M 1034 0 
L 19 3319 
L 600 3319 
L 1128 1403 
L 1325 691 
Q 1338 744 1497 1375 
L 2025 3319 
L 2603 3319 
L 3100 1394 
L 3266 759 
L 3456 1400 
L 4025 3319 
L 4572 3319 
L 3534 0 
L 2950 0 
L 2422 1988 
L 2294 2553 
L 1622 0 
L 1034 0 
z
" transform="scale(0.015625)"/>
       <path id="ArialMT-6b" d="M 425 0 
L 425 4581 
L 988 4581 
L 988 1969 
L 2319 3319 
L 3047 3319 
L 1778 2088 
L 3175 0 
L 2481 0 
L 1384 1697 
L 988 1316 
L 988 0 
L 425 0 
z
" transform="scale(0.015625)"/>
       <path id="ArialMT-23" d="M 322 -78 
L 594 1253 
L 66 1253 
L 66 1719 
L 688 1719 
L 919 2853 
L 66 2853 
L 66 3319 
L 1013 3319 
L 1284 4659 
L 1753 4659 
L 1481 3319 
L 2466 3319 
L 2738 4659 
L 3209 4659 
L 2938 3319 
L 3478 3319 
L 3478 2853 
L 2844 2853 
L 2609 1719 
L 3478 1719 
L 3478 1253 
L 2516 1253 
L 2244 -78 
L 1775 -78 
L 2044 1253 
L 1063 1253 
L 791 -78 
L 322 -78 
z
M 1156 1719 
L 2138 1719 
L 2372 2853 
L 1388 2853 
L 1156 1719 
z
" transform="scale(0.015625)"/>
      </defs>
      <use xlink:href="#ArialMT-4c"/>
      <use xlink:href="#ArialMT-6f" x="55.615234"/>
      <use xlink:href="#ArialMT-63" x="111.230469"/>
      <use xlink:href="#ArialMT-61" x="161.230469"/>
      <use xlink:href="#ArialMT-74" x="216.845703"/>
      <use xlink:href="#ArialMT-69" x="244.628906"/>
      <use xlink:href="#ArialMT-6f" x="266.845703"/>
      <use xlink:href="#ArialMT-6e" x="322.460938"/>
      <use xlink:href="#ArialMT-20" x="378.076172"/>
      <use xlink:href="#ArialMT-6f" x="405.859375"/>
      <use xlink:href="#ArialMT-66" x="461.474609"/>
      <use xlink:href="#ArialMT-20" x="489.257812"/>
      <use xlink:href="#ArialMT-4d" x="517.041016"/>
      <use xlink:href="#ArialMT-61" x="600.341797"/>
      <use xlink:href="#ArialMT-78" x="655.957031"/>
      <use xlink:href="#ArialMT-20" x="705.957031"/>
      <use xlink:href="#ArialMT-52" x="733.740234"/>
      <use xlink:href="#ArialMT-65" x="805.957031"/>
      <use xlink:href="#ArialMT-73" x="861.572266"/>
      <use xlink:href="#ArialMT-70" x="911.572266"/>
      <use xlink:href="#ArialMT-6f" x="967.1875"/>
      <use xlink:href="#ArialMT-6e" x="1022.802734"/>
      <use xlink:href="#ArialMT-73" x="1078.417969"/>
      <use xlink:href="#ArialMT-65" x="1128.417969"/>
      <use xlink:href="#ArialMT-20" x="1184.033203"/>
      <use xlink:href="#ArialMT-69" x="1211.816406"/>
      <use xlink:href="#ArialMT-6e" x="1234.033203"/>
      <use xlink:href="#ArialMT-20" x="1289.648438"/>
      <use xlink:href="#ArialMT-74" x="1317.431641"/>
      <use xlink:href="#ArialMT-68" x="1345.214844"/>
      <use xlink:href="#ArialMT-65" x="1400.830078"/>
      <use xlink:href="#ArialMT-20" x="1456.445312"/>
      <use xlink:href="#ArialMT-73" x="1484.228516"/>
      <use xlink:href="#ArialMT-77" x="1534.228516"/>
      <use xlink:href="#ArialMT-65" x="1606.445312"/>
      <use xlink:href="#ArialMT-65" x="1662.060547"/>
      <use xlink:href="#ArialMT-70" x="1717.675781"/>
      <use xlink:href="#ArialMT-20" x="1773.291016"/>
      <use xlink:href="#ArialMT-28" x="1801.074219"/>
      <use xlink:href="#ArialMT-70" x="1834.375"/>
      <use xlink:href="#ArialMT-65" x="1889.990234"/>
      <use xlink:href="#ArialMT-61" x="1945.605469"/>
      <use xlink:href="#ArialMT-6b" x="2001.220703"/>
      <use xlink:href="#ArialMT-20" x="2051.220703"/>
      <use xlink:href="#ArialMT-23" x="2079.003906"/>
      <use xlink:href="#ArialMT-29" x="2134.619141"/>
     </g>
    </g>
   </g>
   <g id="PolyCollection_1">
    <defs>
     <path id="meec90fb147" d="M 184.73139 -23.007629 
L 182.91861 -23.007629 
L 182.630404 -26.142829 
L 182.280713 -29.278028 
L 181.866567 -32.413228 
L 181.388001 -35.548427 
L 180.84863 -38.683626 
L 180.255926 -41.818826 
L 179.621044 -44.954025 
L 178.95814 -48.089225 
L 178.283143 -51.224424 
L 177.61204 -54.359623 
L 176.958823 -57.494823 
L 176.333311 -60.630022 
L 175.739148 -63.765222 
L 175.172271 -66.900421 
L 174.620147 -70.03562 
L 174.062007 -73.17082 
L 173.470211 -76.306019 
L 172.81273 -79.441219 
L 172.056594 -82.576418 
L 171.172007 -85.711617 
L 170.136693 -88.846817 
L 168.939977 -91.982016 
L 167.586059 -95.117216 
L 166.09599 -98.252415 
L 164.507976 -101.387614 
L 162.875828 -104.522814 
L 161.265578 -107.658013 
L 159.750554 -110.793213 
L 158.405417 -113.928412 
L 157.299829 -117.063612 
L 156.492496 -120.198811 
L 156.02629 -123.33401 
L 155.925 -126.46921 
L 156.192032 -129.604409 
L 156.811097 -132.739609 
L 157.748654 -135.874808 
L 158.957652 -139.010007 
L 160.381993 -142.145207 
L 161.961127 -145.280406 
L 163.634247 -148.415606 
L 165.343738 -151.550805 
L 167.03768 -154.686004 
L 168.671429 -157.821204 
L 170.208386 -160.956403 
L 171.620172 -164.091603 
L 172.886428 -167.226802 
L 173.994421 -170.362001 
L 174.938561 -173.497201 
L 175.719875 -176.6324 
L 176.345409 -179.7676 
L 176.827501 -182.902799 
L 177.182876 -186.037999 
L 177.431523 -189.173198 
L 177.59536 -192.308397 
L 177.696774 -195.443597 
L 177.757107 -198.578796 
L 177.795257 -201.713996 
L 177.826514 -204.849195 
L 177.861758 -207.984394 
L 177.907116 -211.119594 
L 177.964104 -214.254793 
L 178.03023 -217.389993 
L 178.099985 -220.525192 
L 178.166103 -223.660391 
L 178.220919 -226.795591 
L 178.257702 -229.93079 
L 178.271774 -233.06599 
L 178.261336 -236.201189 
L 178.227886 -239.336388 
L 178.176226 -242.471588 
L 178.114061 -245.606787 
L 178.051257 -248.741987 
L 177.99887 -251.877186 
L 177.968056 -255.012386 
L 177.969011 -258.147585 
L 178.010057 -261.282784 
L 178.096972 -264.417984 
L 178.232626 -267.553183 
L 178.416933 -270.688383 
L 178.647087 -273.823582 
L 178.918021 -276.958781 
L 179.223001 -280.093981 
L 179.554255 -283.22918 
L 179.903572 -286.36438 
L 180.262805 -289.499579 
L 180.624251 -292.634778 
L 180.980909 -295.769978 
L 181.326629 -298.905177 
L 181.656192 -302.040377 
L 181.965338 -305.175576 
L 182.250767 -308.310775 
L 182.510133 -311.445975 
L 182.742024 -314.581174 
L 182.945928 -317.716374 
L 183.122175 -320.851573 
L 183.271844 -323.986772 
L 183.396648 -327.121972 
L 183.49879 -330.257171 
L 183.580799 -333.392371 
L 184.069201 -333.392371 
L 184.069201 -333.392371 
L 184.15121 -330.257171 
L 184.253352 -327.121972 
L 184.378156 -323.986772 
L 184.527825 -320.851573 
L 184.704072 -317.716374 
L 184.907976 -314.581174 
L 185.139867 -311.445975 
L 185.399233 -308.310775 
L 185.684662 -305.175576 
L 185.993808 -302.040377 
L 186.323371 -298.905177 
L 186.669091 -295.769978 
L 187.025749 -292.634778 
L 187.387195 -289.499579 
L 187.746428 -286.36438 
L 188.095745 -283.22918 
L 188.426999 -280.093981 
L 188.731979 -276.958781 
L 189.002913 -273.823582 
L 189.233067 -270.688383 
L 189.417374 -267.553183 
L 189.553028 -264.417984 
L 189.639943 -261.282784 
L 189.680989 -258.147585 
L 189.681944 -255.012386 
L 189.65113 -251.877186 
L 189.598743 -248.741987 
L 189.535939 -245.606787 
L 189.473774 -242.471588 
L 189.422114 -239.336388 
L 189.388664 -236.201189 
L 189.378226 -233.06599 
L 189.392298 -229.93079 
L 189.429081 -226.795591 
L 189.483897 -223.660391 
L 189.550015 -220.525192 
L 189.61977 -217.389993 
L 189.685896 -214.254793 
L 189.742884 -211.119594 
L 189.788242 -207.984394 
L 189.823486 -204.849195 
L 189.854743 -201.713996 
L 189.892893 -198.578796 
L 189.953226 -195.443597 
L 190.05464 -192.308397 
L 190.218477 -189.173198 
L 190.467124 -186.037999 
L 190.822499 -182.902799 
L 191.304591 -179.7676 
L 191.930125 -176.6324 
L 192.711439 -173.497201 
L 193.655579 -170.362001 
L 194.763572 -167.226802 
L 196.029828 -164.091603 
L 197.441614 -160.956403 
L 198.978571 -157.821204 
L 200.61232 -154.686004 
L 202.306262 -151.550805 
L 204.015753 -148.415606 
L 205.688873 -145.280406 
L 207.268007 -142.145207 
L 208.692348 -139.010007 
L 209.901346 -135.874808 
L 210.838903 -132.739609 
L 211.457968 -129.604409 
L 211.725 -126.46921 
L 211.62371 -123.33401 
L 211.157504 -120.198811 
L 210.350171 -117.063612 
L 209.244583 -113.928412 
L 207.899446 -110.793213 
L 206.384422 -107.658013 
L 204.774172 -104.522814 
L 203.142024 -101.387614 
L 201.55401 -98.252415 
L 200.063941 -95.117216 
L 198.710023 -91.982016 
L 197.513307 -88.846817 
L 196.477993 -85.711617 
L 195.593406 -82.576418 
L 194.83727 -79.441219 
L 194.179789 -76.306019 
L 193.587993 -73.17082 
L 193.029853 -70.03562 
L 192.477729 -66.900421 
L 191.910852 -63.765222 
L 191.316689 -60.630022 
L 190.691177 -57.494823 
L 190.03796 -54.359623 
L 189.366857 -51.224424 
L 188.69186 -48.089225 
L 188.028956 -44.954025 
L 187.394074 -41.818826 
L 186.80137 -38.683626 
L 186.261999 -35.548427 
L 185.783433 -32.413228 
L 185.369287 -29.278028 
L 185.019596 -26.142829 
L 184.73139 -23.007629 
z
" style="stroke: #373737; stroke-width: 1.25"/>
    </defs>
    <g clip-path="url(#pe926a46b49)">
     <use xlink:href="#meec90fb147" x="0" y="360" style="fill: #4a4c7e; stroke: #373737; stroke-width: 1.25"/>
    </g>
   </g>
   <g id="PolyCollection_2">
    <defs>
     <path id="mebd785dce1" d="M 239.995038 -22.352202 
L 239.254962 -22.352202 
L 239.138371 -25.500642 
L 238.997009 -28.649083 
L 238.829608 -31.797523 
L 238.636066 -34.945963 
L 238.417696 -38.094404 
L 238.17736 -41.242844 
L 237.919456 -44.391284 
L 237.64972 -47.539725 
L 237.374843 -50.688165 
L 237.101902 -53.836606 
L 236.837673 -56.985046 
L 236.587885 -60.133486 
L 236.356514 -63.281927 
L 236.145215 -66.430367 
L 235.952984 -69.578807 
L 235.776121 -72.727248 
L 235.608538 -75.875688 
L 235.442392 -79.024128 
L 235.269008 -82.172569 
L 235.080003 -85.321009 
L 234.86847 -88.46945 
L 234.630103 -91.61789 
L 234.364103 -94.76633 
L 234.073741 -97.914771 
L 233.766491 -101.063211 
L 233.453672 -104.211651 
L 233.149623 -107.360092 
L 232.870478 -110.508532 
L 232.632669 -113.656972 
L 232.451332 -116.805413 
L 232.338797 -119.953853 
L 232.303353 -123.102294 
L 232.348432 -126.250734 
L 232.472312 -129.399174 
L 232.66836 -132.547615 
L 232.925773 -135.696055 
L 233.230702 -138.844495 
L 233.567611 -141.992936 
L 233.920699 -145.141376 
L 234.275213 -148.289817 
L 234.618519 -151.438257 
L 234.940847 -154.586697 
L 235.235661 -157.735138 
L 235.499662 -160.883578 
L 235.732495 -164.032018 
L 235.936223 -167.180459 
L 236.114668 -170.328899 
L 236.272713 -173.477339 
L 236.415646 -176.62578 
L 236.548601 -179.77422 
L 236.676145 -182.922661 
L 236.802007 -186.071101 
L 236.928957 -189.219541 
L 237.058802 -192.367982 
L 237.192464 -195.516422 
L 237.330119 -198.664862 
L 237.471349 -201.813303 
L 237.615293 -204.961743 
L 237.760785 -208.110183 
L 237.90646 -211.258624 
L 238.050841 -214.407064 
L 238.192403 -217.555505 
L 238.329628 -220.703945 
L 238.461042 -223.852385 
L 238.585254 -227.000826 
L 238.700982 -230.149266 
L 238.807078 -233.297706 
L 238.902552 -236.446147 
L 238.986583 -239.594587 
L 239.058549 -242.743028 
L 239.118045 -245.891468 
L 239.164917 -249.039908 
L 239.199297 -252.188349 
L 239.221647 -255.336789 
L 239.232786 -258.485229 
L 239.233921 -261.63367 
L 239.22664 -264.78211 
L 239.212884 -267.93055 
L 239.194875 -271.078991 
L 239.175011 -274.227431 
L 239.155731 -277.375872 
L 239.139359 -280.524312 
L 239.127941 -283.672752 
L 239.123104 -286.821193 
L 239.125941 -289.969633 
L 239.136944 -293.118073 
L 239.155996 -296.266514 
L 239.182412 -299.414954 
L 239.215033 -302.563394 
L 239.252357 -305.711835 
L 239.292695 -308.860275 
L 239.334319 -312.008716 
L 239.375605 -315.157156 
L 239.415146 -318.305596 
L 239.451826 -321.454037 
L 239.484857 -324.602477 
L 239.513784 -327.750917 
L 239.53845 -330.899358 
L 239.558951 -334.047798 
L 239.691049 -334.047798 
L 239.691049 -334.047798 
L 239.71155 -330.899358 
L 239.736216 -327.750917 
L 239.765143 -324.602477 
L 239.798174 -321.454037 
L 239.834854 -318.305596 
L 239.874395 -315.157156 
L 239.915681 -312.008716 
L 239.957305 -308.860275 
L 239.997643 -305.711835 
L 240.034967 -302.563394 
L 240.067588 -299.414954 
L 240.094004 -296.266514 
L 240.113056 -293.118073 
L 240.124059 -289.969633 
L 240.126896 -286.821193 
L 240.122059 -283.672752 
L 240.110641 -280.524312 
L 240.094269 -277.375872 
L 240.074989 -274.227431 
L 240.055125 -271.078991 
L 240.037116 -267.93055 
L 240.02336 -264.78211 
L 240.016079 -261.63367 
L 240.017214 -258.485229 
L 240.028353 -255.336789 
L 240.050703 -252.188349 
L 240.085083 -249.039908 
L 240.131955 -245.891468 
L 240.191451 -242.743028 
L 240.263417 -239.594587 
L 240.347448 -236.446147 
L 240.442922 -233.297706 
L 240.549018 -230.149266 
L 240.664746 -227.000826 
L 240.788958 -223.852385 
L 240.920372 -220.703945 
L 241.057597 -217.555505 
L 241.199159 -214.407064 
L 241.34354 -211.258624 
L 241.489215 -208.110183 
L 241.634707 -204.961743 
L 241.778651 -201.813303 
L 241.919881 -198.664862 
L 242.057536 -195.516422 
L 242.191198 -192.367982 
L 242.321043 -189.219541 
L 242.447993 -186.071101 
L 242.573855 -182.922661 
L 242.701399 -179.77422 
L 242.834354 -176.62578 
L 242.977287 -173.477339 
L 243.135332 -170.328899 
L 243.313777 -167.180459 
L 243.517505 -164.032018 
L 243.750338 -160.883578 
L 244.014339 -157.735138 
L 244.309153 -154.586697 
L 244.631481 -151.438257 
L 244.974787 -148.289817 
L 245.329301 -145.141376 
L 245.682389 -141.992936 
L 246.019298 -138.844495 
L 246.324227 -135.696055 
L 246.58164 -132.547615 
L 246.777688 -129.399174 
L 246.901568 -126.250734 
L 246.946647 -123.102294 
L 246.911203 -119.953853 
L 246.798668 -116.805413 
L 246.617331 -113.656972 
L 246.379522 -110.508532 
L 246.100377 -107.360092 
L 245.796328 -104.211651 
L 245.483509 -101.063211 
L 245.176259 -97.914771 
L 244.885897 -94.76633 
L 244.619897 -91.61789 
L 244.38153 -88.46945 
L 244.169997 -85.321009 
L 243.980992 -82.172569 
L 243.807608 -79.024128 
L 243.641462 -75.875688 
L 243.473879 -72.727248 
L 243.297016 -69.578807 
L 243.104785 -66.430367 
L 242.893486 -63.281927 
L 242.662115 -60.133486 
L 242.412327 -56.985046 
L 242.148098 -53.836606 
L 241.875157 -50.688165 
L 241.60028 -47.539725 
L 241.330544 -44.391284 
L 241.07264 -41.242844 
L 240.832304 -38.094404 
L 240.613934 -34.945963 
L 240.420392 -31.797523 
L 240.252991 -28.649083 
L 240.111629 -25.500642 
L 239.995038 -22.352202 
z
" style="stroke: #373737; stroke-width: 1.25"/>
    </defs>
    <g clip-path="url(#pe926a46b49)">
     <use xlink:href="#mebd785dce1" x="0" y="360" style="fill: #367182; stroke: #373737; stroke-width: 1.25"/>
    </g>
   </g>
   <g id="PolyCollection_3">
    <defs>
     <path id="m4a73405f25" d="M 295.979154 -13.802925 
L 294.870846 -13.802925 
L 294.717212 -17.124078 
L 294.534123 -20.445231 
L 294.319797 -23.766384 
L 294.073365 -27.087537 
L 293.795056 -30.40869 
L 293.486319 -33.729843 
L 293.149837 -37.050996 
L 292.789419 -40.372149 
L 292.409766 -43.693302 
L 292.0161 -47.014456 
L 291.613696 -50.335609 
L 291.207345 -53.656762 
L 290.800821 -56.977915 
L 290.396406 -60.299068 
L 289.994559 -63.620221 
L 289.593788 -66.941374 
L 289.190765 -70.262527 
L 288.780723 -73.58368 
L 288.358106 -76.904833 
L 287.917431 -80.225986 
L 287.45428 -83.547139 
L 286.966316 -86.868292 
L 286.454189 -90.189445 
L 285.922232 -93.510598 
L 285.378815 -96.831751 
L 284.836303 -100.152904 
L 284.310585 -103.474057 
L 283.820181 -106.79521 
L 283.385022 -110.116363 
L 283.025 -113.437516 
L 282.75843 -116.758669 
L 282.6006 -120.079822 
L 282.562543 -123.400975 
L 282.650159 -126.722128 
L 282.863773 -130.043281 
L 283.19816 -133.364434 
L 283.643014 -136.685587 
L 284.183806 -140.00674 
L 284.802906 -143.327893 
L 285.480863 -146.649046 
L 286.1977 -149.970199 
L 286.934104 -153.291352 
L 287.672424 -156.612505 
L 288.397404 -159.933658 
L 289.096623 -163.254811 
L 289.76066 -166.575964 
L 290.382996 -169.897117 
L 290.959735 -173.21827 
L 291.489177 -176.539423 
L 291.971341 -179.860577 
L 292.407462 -183.18173 
L 292.799545 -186.502883 
L 293.149977 -189.824036 
L 293.461236 -193.145189 
L 293.735691 -196.466342 
L 293.975493 -199.787495 
L 294.182528 -203.108648 
L 294.358442 -206.429801 
L 294.504685 -209.750954 
L 294.622582 -213.072107 
L 294.713416 -216.39326 
L 294.77849 -219.714413 
L 294.819194 -223.035566 
L 294.837049 -226.356719 
L 294.833742 -229.677872 
L 294.811146 -232.999025 
L 294.771332 -236.320178 
L 294.71657 -239.641331 
L 294.649325 -242.962484 
L 294.572243 -246.283637 
L 294.488132 -249.60479 
L 294.399936 -252.925943 
L 294.310689 -256.247096 
L 294.223469 -259.568249 
L 294.141331 -262.889402 
L 294.067226 -266.210555 
L 294.003912 -269.531708 
L 293.953853 -272.852861 
L 293.919119 -276.174014 
L 293.901284 -279.495167 
L 293.901345 -282.81632 
L 293.919655 -286.137473 
L 293.955895 -289.458626 
L 294.009075 -292.779779 
L 294.077575 -296.100932 
L 294.159232 -299.422085 
L 294.251452 -302.743238 
L 294.351358 -306.064391 
L 294.455941 -309.385544 
L 294.562227 -312.706698 
L 294.667422 -316.027851 
L 294.769041 -319.349004 
L 294.865006 -322.670157 
L 294.953707 -325.99131 
L 295.034026 -329.312463 
L 295.105326 -332.633616 
L 295.167411 -335.954769 
L 295.220465 -339.275922 
L 295.264972 -342.597075 
L 295.585028 -342.597075 
L 295.585028 -342.597075 
L 295.629535 -339.275922 
L 295.682589 -335.954769 
L 295.744674 -332.633616 
L 295.815974 -329.312463 
L 295.896293 -325.99131 
L 295.984994 -322.670157 
L 296.080959 -319.349004 
L 296.182578 -316.027851 
L 296.287773 -312.706698 
L 296.394059 -309.385544 
L 296.498642 -306.064391 
L 296.598548 -302.743238 
L 296.690768 -299.422085 
L 296.772425 -296.100932 
L 296.840925 -292.779779 
L 296.894105 -289.458626 
L 296.930345 -286.137473 
L 296.948655 -282.81632 
L 296.948716 -279.495167 
L 296.930881 -276.174014 
L 296.896147 -272.852861 
L 296.846088 -269.531708 
L 296.782774 -266.210555 
L 296.708669 -262.889402 
L 296.626531 -259.568249 
L 296.539311 -256.247096 
L 296.450064 -252.925943 
L 296.361868 -249.60479 
L 296.277757 -246.283637 
L 296.200675 -242.962484 
L 296.13343 -239.641331 
L 296.078668 -236.320178 
L 296.038854 -232.999025 
L 296.016258 -229.677872 
L 296.012951 -226.356719 
L 296.030806 -223.035566 
L 296.07151 -219.714413 
L 296.136584 -216.39326 
L 296.227418 -213.072107 
L 296.345315 -209.750954 
L 296.491558 -206.429801 
L 296.667472 -203.108648 
L 296.874507 -199.787495 
L 297.114309 -196.466342 
L 297.388764 -193.145189 
L 297.700023 -189.824036 
L 298.050455 -186.502883 
L 298.442538 -183.18173 
L 298.878659 -179.860577 
L 299.360823 -176.539423 
L 299.890265 -173.21827 
L 300.467004 -169.897117 
L 301.08934 -166.575964 
L 301.753377 -163.254811 
L 302.452596 -159.933658 
L 303.177576 -156.612505 
L 303.915896 -153.291352 
L 304.6523 -149.970199 
L 305.369137 -146.649046 
L 306.047094 -143.327893 
L 306.666194 -140.00674 
L 307.206986 -136.685587 
L 307.65184 -133.364434 
L 307.986227 -130.043281 
L 308.199841 -126.722128 
L 308.287457 -123.400975 
L 308.2494 -120.079822 
L 308.09157 -116.758669 
L 307.825 -113.437516 
L 307.464978 -110.116363 
L 307.029819 -106.79521 
L 306.539415 -103.474057 
L 306.013697 -100.152904 
L 305.471185 -96.831751 
L 304.927768 -93.510598 
L 304.395811 -90.189445 
L 303.883684 -86.868292 
L 303.39572 -83.547139 
L 302.932569 -80.225986 
L 302.491894 -76.904833 
L 302.069277 -73.58368 
L 301.659235 -70.262527 
L 301.256212 -66.941374 
L 300.855441 -63.620221 
L 300.453594 -60.299068 
L 300.049179 -56.977915 
L 299.642655 -53.656762 
L 299.236304 -50.335609 
L 298.8339 -47.014456 
L 298.440234 -43.693302 
L 298.060581 -40.372149 
L 297.700163 -37.050996 
L 297.363681 -33.729843 
L 297.054944 -30.40869 
L 296.776635 -27.087537 
L 296.530203 -23.766384 
L 296.315877 -20.445231 
L 296.132788 -17.124078 
L 295.979154 -13.802925 
z
" style="stroke: #373737; stroke-width: 1.25"/>
    </defs>
    <g clip-path="url(#pe926a46b49)">
     <use xlink:href="#m4a73405f25" x="0" y="360" style="fill: #80c161; stroke: #373737; stroke-width: 1.25"/>
    </g>
   </g>
   <g id="PolyCollection_4">
    <defs>
     <path id="m23628f1e97" d="M 449.020321 -39.381159 
L 448.729679 -39.381159 
L 448.691256 -41.06558 
L 448.645982 -42.750001 
L 448.593606 -44.434422 
L 448.534135 -46.118843 
L 448.467896 -47.803264 
L 448.395565 -49.487686 
L 448.31818 -51.172107 
L 448.237129 -52.856528 
L 448.154098 -54.540949 
L 448.070991 -56.22537 
L 447.989815 -57.909791 
L 447.912548 -59.594212 
L 447.840989 -61.278633 
L 447.776607 -62.963054 
L 447.720404 -64.647475 
L 447.672801 -66.331896 
L 447.633563 -68.016317 
L 447.601759 -69.700738 
L 447.575761 -71.385159 
L 447.553285 -73.06958 
L 447.531442 -74.754001 
L 447.506807 -76.438422 
L 447.47547 -78.122843 
L 447.433066 -79.807264 
L 447.374779 -81.491685 
L 447.2953 -83.176106 
L 447.188771 -84.860527 
L 447.048726 -86.544948 
L 446.86806 -88.229369 
L 446.639059 -89.91379 
L 446.353553 -91.598211 
L 446.003197 -93.282632 
L 445.579925 -94.967053 
L 445.076584 -96.651474 
L 444.487708 -98.335895 
L 443.810409 -100.020316 
L 443.045293 -101.704737 
L 442.197314 -103.389158 
L 441.276446 -105.073579 
L 440.298066 -106.758 
L 439.282952 -108.442421 
L 438.256813 -110.126842 
L 437.249337 -111.811263 
L 436.292779 -113.495684 
L 435.420162 -115.180105 
L 434.663242 -116.864526 
L 434.05039 -118.548947 
L 433.604605 -120.233368 
L 433.341847 -121.917789 
L 433.269857 -123.602211 
L 433.387602 -125.286632 
L 433.685401 -126.971053 
L 434.145715 -128.655474 
L 434.744532 -130.339895 
L 435.453199 -132.024316 
L 436.240509 -133.708737 
L 437.07484 -135.393158 
L 437.926142 -137.077579 
L 438.7676 -138.762 
L 439.576844 -140.446421 
L 440.336639 -142.130842 
L 441.03506 -143.815263 
L 441.665196 -145.499684 
L 442.224493 -147.184105 
L 442.713855 -148.868526 
L 443.136664 -150.552947 
L 443.497817 -152.237368 
L 443.802918 -153.921789 
L 444.057676 -155.60621 
L 444.267544 -157.290631 
L 444.437598 -158.975052 
L 444.572602 -160.659473 
L 444.677203 -162.343894 
L 444.756179 -164.028315 
L 444.814668 -165.712736 
L 444.858309 -167.397157 
L 444.893262 -169.081578 
L 444.926086 -170.765999 
L 444.963485 -172.45042 
L 445.011955 -174.134841 
L 445.077368 -175.819262 
L 445.164563 -177.503683 
L 445.276989 -179.188104 
L 445.416448 -180.872525 
L 445.58297 -182.556946 
L 445.774833 -184.241367 
L 445.988734 -185.925788 
L 446.220071 -187.610209 
L 446.463328 -189.29463 
L 446.712494 -190.979051 
L 446.961497 -192.663472 
L 447.204599 -194.347893 
L 447.436726 -196.032314 
L 447.653705 -197.716736 
L 447.852414 -199.401157 
L 448.030821 -201.085578 
L 448.18795 -202.769999 
L 448.323768 -204.45442 
L 448.439038 -206.138841 
L 449.310962 -206.138841 
L 449.310962 -206.138841 
L 449.426232 -204.45442 
L 449.56205 -202.769999 
L 449.719179 -201.085578 
L 449.897586 -199.401157 
L 450.096295 -197.716736 
L 450.313274 -196.032314 
L 450.545401 -194.347893 
L 450.788503 -192.663472 
L 451.037506 -190.979051 
L 451.286672 -189.29463 
L 451.529929 -187.610209 
L 451.761266 -185.925788 
L 451.975167 -184.241367 
L 452.16703 -182.556946 
L 452.333552 -180.872525 
L 452.473011 -179.188104 
L 452.585437 -177.503683 
L 452.672632 -175.819262 
L 452.738045 -174.134841 
L 452.786515 -172.45042 
L 452.823914 -170.765999 
L 452.856738 -169.081578 
L 452.891691 -167.397157 
L 452.935332 -165.712736 
L 452.993821 -164.028315 
L 453.072797 -162.343894 
L 453.177398 -160.659473 
L 453.312402 -158.975052 
L 453.482456 -157.290631 
L 453.692324 -155.60621 
L 453.947082 -153.921789 
L 454.252183 -152.237368 
L 454.613336 -150.552947 
L 455.036145 -148.868526 
L 455.525507 -147.184105 
L 456.084804 -145.499684 
L 456.71494 -143.815263 
L 457.413361 -142.130842 
L 458.173156 -140.446421 
L 458.9824 -138.762 
L 459.823858 -137.077579 
L 460.67516 -135.393158 
L 461.509491 -133.708737 
L 462.296801 -132.024316 
L 463.005468 -130.339895 
L 463.604285 -128.655474 
L 464.064599 -126.971053 
L 464.362398 -125.286632 
L 464.480143 -123.602211 
L 464.408153 -121.917789 
L 464.145395 -120.233368 
L 463.69961 -118.548947 
L 463.086758 -116.864526 
L 462.329838 -115.180105 
L 461.457221 -113.495684 
L 460.500663 -111.811263 
L 459.493187 -110.126842 
L 458.467048 -108.442421 
L 457.451934 -106.758 
L 456.473554 -105.073579 
L 455.552686 -103.389158 
L 454.704707 -101.704737 
L 453.939591 -100.020316 
L 453.262292 -98.335895 
L 452.673416 -96.651474 
L 452.170075 -94.967053 
L 451.746803 -93.282632 
L 451.396447 -91.598211 
L 451.110941 -89.91379 
L 450.88194 -88.229369 
L 450.701274 -86.544948 
L 450.561229 -84.860527 
L 450.4547 -83.176106 
L 450.375221 -81.491685 
L 450.316934 -79.807264 
L 450.27453 -78.122843 
L 450.243193 -76.438422 
L 450.218558 -74.754001 
L 450.196715 -73.06958 
L 450.174239 -71.385159 
L 450.148241 -69.700738 
L 450.116437 -68.016317 
L 450.077199 -66.331896 
L 450.029596 -64.647475 
L 449.973393 -62.963054 
L 449.909011 -61.278633 
L 449.837452 -59.594212 
L 449.760185 -57.909791 
L 449.679009 -56.22537 
L 449.595902 -54.540949 
L 449.512871 -52.856528 
L 449.43182 -51.172107 
L 449.354435 -49.487686 
L 449.282104 -47.803264 
L 449.215865 -46.118843 
L 449.156394 -44.434422 
L 449.104018 -42.750001 
L 449.058744 -41.06558 
L 449.020321 -39.381159 
z
" style="stroke: #373737; stroke-width: 1.25"/>
    </defs>
    <g clip-path="url(#pe926a46b49)">
     <use xlink:href="#m23628f1e97" x="0" y="360" style="fill: #367182; stroke: #373737; stroke-width: 1.25"/>
    </g>
   </g>
   <g id="PolyCollection_5">
    <defs>
     <path id="md8d4bec8fd" d="M 505.089122 -39.702515 
L 504.260878 -39.702515 
L 504.17053 -41.100444 
L 504.066738 -42.498373 
L 503.949069 -43.896302 
L 503.81747 -45.294231 
L 503.672342 -46.69216 
L 503.514605 -48.090089 
L 503.345744 -49.488018 
L 503.167833 -50.885947 
L 502.983529 -52.283876 
L 502.796034 -53.681805 
L 502.609023 -55.079734 
L 502.426537 -56.477663 
L 502.252845 -57.875592 
L 502.092279 -59.273521 
L 501.94905 -60.67145 
L 501.827062 -62.069379 
L 501.729716 -63.467308 
L 501.659735 -64.865237 
L 501.619013 -66.263166 
L 501.608488 -67.661095 
L 501.628062 -69.059024 
L 501.676551 -70.456953 
L 501.75169 -71.854882 
L 501.850161 -73.252811 
L 501.967665 -74.65074 
L 502.099007 -76.048669 
L 502.238202 -77.446598 
L 502.378583 -78.844527 
L 502.512902 -80.242456 
L 502.633429 -81.640385 
L 502.732028 -83.038314 
L 502.800233 -84.436243 
L 502.829311 -85.834172 
L 502.810326 -87.232101 
L 502.734229 -88.63003 
L 502.591965 -90.027959 
L 502.374626 -91.425888 
L 502.073663 -92.823817 
L 501.681158 -94.221746 
L 501.190154 -95.619675 
L 500.595056 -97.017604 
L 499.892074 -98.415533 
L 499.079683 -99.813462 
L 498.159087 -101.211391 
L 497.134627 -102.60932 
L 496.014113 -104.007249 
L 494.809013 -105.405178 
L 493.534486 -106.803107 
L 492.209197 -108.201036 
L 490.854924 -109.598964 
L 489.495925 -110.996893 
L 488.158101 -112.394822 
L 486.867974 -113.792751 
L 485.651533 -115.19068 
L 484.533027 -116.588609 
L 483.533775 -117.986538 
L 482.671079 -119.384467 
L 481.957337 -120.782396 
L 481.399409 -122.180325 
L 480.998321 -123.578254 
L 480.749317 -124.976183 
L 480.642291 -126.374112 
L 480.662556 -127.772041 
L 480.791918 -129.16997 
L 481.009965 -130.567899 
L 481.295484 -131.965828 
L 481.627905 -133.363757 
L 481.988646 -134.761686 
L 482.362268 -136.159615 
L 482.737363 -137.557544 
L 483.10709 -138.955473 
L 483.469344 -140.353402 
L 483.826551 -141.751331 
L 484.185113 -143.14926 
L 484.554559 -144.547189 
L 484.946492 -145.945118 
L 485.373406 -147.343047 
L 485.847488 -148.740976 
L 486.379487 -150.138905 
L 486.977747 -151.536834 
L 487.647462 -152.934763 
L 488.390199 -154.332692 
L 489.203718 -155.730621 
L 490.082067 -157.12855 
L 491.015942 -158.526479 
L 491.993258 -159.924408 
L 492.999876 -161.322337 
L 494.02041 -162.720266 
L 495.039071 -164.118195 
L 496.040463 -165.516124 
L 497.01029 -166.914053 
L 497.935941 -168.311982 
L 498.806915 -169.709911 
L 499.615085 -171.10784 
L 500.354803 -172.505769 
L 501.022858 -173.903698 
L 501.618313 -175.301627 
L 502.142243 -176.699556 
L 502.597415 -178.097485 
L 506.752585 -178.097485 
L 506.752585 -178.097485 
L 507.207757 -176.699556 
L 507.731687 -175.301627 
L 508.327142 -173.903698 
L 508.995197 -172.505769 
L 509.734915 -171.10784 
L 510.543085 -169.709911 
L 511.414059 -168.311982 
L 512.33971 -166.914053 
L 513.309537 -165.516124 
L 514.310929 -164.118195 
L 515.32959 -162.720266 
L 516.350124 -161.322337 
L 517.356742 -159.924408 
L 518.334058 -158.526479 
L 519.267933 -157.12855 
L 520.146282 -155.730621 
L 520.959801 -154.332692 
L 521.702538 -152.934763 
L 522.372253 -151.536834 
L 522.970513 -150.138905 
L 523.502512 -148.740976 
L 523.976594 -147.343047 
L 524.403508 -145.945118 
L 524.795441 -144.547189 
L 525.164887 -143.14926 
L 525.523449 -141.751331 
L 525.880656 -140.353402 
L 526.24291 -138.955473 
L 526.612637 -137.557544 
L 526.987732 -136.159615 
L 527.361354 -134.761686 
L 527.722095 -133.363757 
L 528.054516 -131.965828 
L 528.340035 -130.567899 
L 528.558082 -129.16997 
L 528.687444 -127.772041 
L 528.707709 -126.374112 
L 528.600683 -124.976183 
L 528.351679 -123.578254 
L 527.950591 -122.180325 
L 527.392663 -120.782396 
L 526.678921 -119.384467 
L 525.816225 -117.986538 
L 524.816973 -116.588609 
L 523.698467 -115.19068 
L 522.482026 -113.792751 
L 521.191899 -112.394822 
L 519.854075 -110.996893 
L 518.495076 -109.598964 
L 517.140803 -108.201036 
L 515.815514 -106.803107 
L 514.540987 -105.405178 
L 513.335887 -104.007249 
L 512.215373 -102.60932 
L 511.190913 -101.211391 
L 510.270317 -99.813462 
L 509.457926 -98.415533 
L 508.754944 -97.017604 
L 508.159846 -95.619675 
L 507.668842 -94.221746 
L 507.276337 -92.823817 
L 506.975374 -91.425888 
L 506.758035 -90.027959 
L 506.615771 -88.63003 
L 506.539674 -87.232101 
L 506.520689 -85.834172 
L 506.549767 -84.436243 
L 506.617972 -83.038314 
L 506.716571 -81.640385 
L 506.837098 -80.242456 
L 506.971417 -78.844527 
L 507.111798 -77.446598 
L 507.250993 -76.048669 
L 507.382335 -74.65074 
L 507.499839 -73.252811 
L 507.59831 -71.854882 
L 507.673449 -70.456953 
L 507.721938 -69.059024 
L 507.741512 -67.661095 
L 507.730987 -66.263166 
L 507.690265 -64.865237 
L 507.620284 -63.467308 
L 507.522938 -62.069379 
L 507.40095 -60.67145 
L 507.257721 -59.273521 
L 507.097155 -57.875592 
L 506.923463 -56.477663 
L 506.740977 -55.079734 
L 506.553966 -53.681805 
L 506.366471 -52.283876 
L 506.182167 -50.885947 
L 506.004256 -49.488018 
L 505.835395 -48.090089 
L 505.677658 -46.69216 
L 505.53253 -45.294231 
L 505.400931 -43.896302 
L 505.283262 -42.498373 
L 505.17947 -41.100444 
L 505.089122 -39.702515 
z
" style="stroke: #373737; stroke-width: 1.25"/>
    </defs>
    <g clip-path="url(#pe926a46b49)">
     <use xlink:href="#md8d4bec8fd" x="0" y="360" style="fill: #80c161; stroke: #373737; stroke-width: 1.25"/>
    </g>
   </g>
   <g id="PolyCollection_6">
    <defs>
     <path id="m8c35f44969" d="M 661.898483 -107.020884 
L 654.351517 -107.020884 
L 653.744862 -107.618846 
L 653.069946 -108.216808 
L 652.32462 -108.81477 
L 651.507718 -109.412732 
L 650.619225 -110.010694 
L 649.660446 -110.608656 
L 648.634145 -111.206618 
L 647.544668 -111.80458 
L 646.398023 -112.402542 
L 645.201929 -113.000504 
L 643.965813 -113.598466 
L 642.700752 -114.196428 
L 641.419367 -114.79439 
L 640.135656 -115.392351 
L 638.864772 -115.990313 
L 637.622745 -116.588275 
L 636.426167 -117.186237 
L 635.291825 -117.784199 
L 634.236318 -118.382161 
L 633.275646 -118.980123 
L 632.424807 -119.578085 
L 631.697392 -120.176047 
L 631.105219 -120.774009 
L 630.657993 -121.371971 
L 630.363022 -121.969933 
L 630.225 -122.567895 
L 630.245849 -123.165857 
L 630.424648 -123.763818 
L 630.757633 -124.36178 
L 631.23828 -124.959742 
L 631.857459 -125.557704 
L 632.60366 -126.155666 
L 633.46328 -126.753628 
L 634.42095 -127.35159 
L 635.459912 -127.949552 
L 636.562405 -128.547514 
L 637.710074 -129.145476 
L 638.884369 -129.743438 
L 640.066926 -130.3414 
L 641.239932 -130.939362 
L 642.38645 -131.537324 
L 643.4907 -132.135286 
L 644.538307 -132.733247 
L 645.516488 -133.331209 
L 646.414203 -133.929171 
L 647.222256 -134.527133 
L 647.933353 -135.125095 
L 648.542125 -135.723057 
L 649.045116 -136.321019 
L 649.440739 -136.918981 
L 649.729217 -137.516943 
L 649.912496 -138.114905 
L 649.994148 -138.712867 
L 649.979253 -139.310829 
L 649.874286 -139.908791 
L 649.686975 -140.506753 
L 649.426163 -141.104714 
L 649.101658 -141.702676 
L 648.724071 -142.300638 
L 648.304645 -142.8986 
L 647.855079 -143.496562 
L 647.387335 -144.094524 
L 646.913448 -144.692486 
L 646.445318 -145.290448 
L 645.99451 -145.88841 
L 645.572048 -146.486372 
L 645.188219 -147.084334 
L 644.852383 -147.682296 
L 644.572804 -148.280258 
L 644.356496 -148.87822 
L 644.209099 -149.476182 
L 644.13479 -150.074143 
L 644.136216 -150.672105 
L 644.214475 -151.270067 
L 644.369132 -151.868029 
L 644.598274 -152.465991 
L 644.898595 -153.063953 
L 645.265526 -153.661915 
L 645.693385 -154.259877 
L 646.175555 -154.857839 
L 646.70468 -155.455801 
L 647.272869 -156.053763 
L 647.87191 -156.651725 
L 648.493475 -157.249687 
L 649.12932 -157.847649 
L 649.771467 -158.44561 
L 650.41237 -159.043572 
L 651.045051 -159.641534 
L 651.663216 -160.239496 
L 652.261339 -160.837458 
L 652.834715 -161.43542 
L 653.379491 -162.033382 
L 653.892667 -162.631344 
L 654.372075 -163.229306 
L 654.816333 -163.827268 
L 655.224793 -164.42523 
L 655.597462 -165.023192 
L 655.934924 -165.621154 
L 656.238254 -166.219116 
L 660.011746 -166.219116 
L 660.011746 -166.219116 
L 660.315076 -165.621154 
L 660.652538 -165.023192 
L 661.025207 -164.42523 
L 661.433667 -163.827268 
L 661.877925 -163.229306 
L 662.357333 -162.631344 
L 662.870509 -162.033382 
L 663.415285 -161.43542 
L 663.988661 -160.837458 
L 664.586784 -160.239496 
L 665.204949 -159.641534 
L 665.83763 -159.043572 
L 666.478533 -158.44561 
L 667.12068 -157.847649 
L 667.756525 -157.249687 
L 668.37809 -156.651725 
L 668.977131 -156.053763 
L 669.54532 -155.455801 
L 670.074445 -154.857839 
L 670.556615 -154.259877 
L 670.984474 -153.661915 
L 671.351405 -153.063953 
L 671.651726 -152.465991 
L 671.880868 -151.868029 
L 672.035525 -151.270067 
L 672.113784 -150.672105 
L 672.11521 -150.074143 
L 672.040901 -149.476182 
L 671.893504 -148.87822 
L 671.677196 -148.280258 
L 671.397617 -147.682296 
L 671.061781 -147.084334 
L 670.677952 -146.486372 
L 670.25549 -145.88841 
L 669.804682 -145.290448 
L 669.336552 -144.692486 
L 668.862665 -144.094524 
L 668.394921 -143.496562 
L 667.945355 -142.8986 
L 667.525929 -142.300638 
L 667.148342 -141.702676 
L 666.823837 -141.104714 
L 666.563025 -140.506753 
L 666.375714 -139.908791 
L 666.270747 -139.310829 
L 666.255852 -138.712867 
L 666.337504 -138.114905 
L 666.520783 -137.516943 
L 666.809261 -136.918981 
L 667.204884 -136.321019 
L 667.707875 -135.723057 
L 668.316647 -135.125095 
L 669.027744 -134.527133 
L 669.835797 -133.929171 
L 670.733512 -133.331209 
L 671.711693 -132.733247 
L 672.7593 -132.135286 
L 673.86355 -131.537324 
L 675.010068 -130.939362 
L 676.183074 -130.3414 
L 677.365631 -129.743438 
L 678.539926 -129.145476 
L 679.687595 -128.547514 
L 680.790088 -127.949552 
L 681.82905 -127.35159 
L 682.78672 -126.753628 
L 683.64634 -126.155666 
L 684.392541 -125.557704 
L 685.01172 -124.959742 
L 685.492367 -124.36178 
L 685.825352 -123.763818 
L 686.004151 -123.165857 
L 686.025 -122.567895 
L 685.886978 -121.969933 
L 685.592007 -121.371971 
L 685.144781 -120.774009 
L 684.552608 -120.176047 
L 683.825193 -119.578085 
L 682.974354 -118.980123 
L 682.013682 -118.382161 
L 680.958175 -117.784199 
L 679.823833 -117.186237 
L 678.627255 -116.588275 
L 677.385228 -115.990313 
L 676.114344 -115.392351 
L 674.830633 -114.79439 
L 673.549248 -114.196428 
L 672.284187 -113.598466 
L 671.048071 -113.000504 
L 669.851977 -112.402542 
L 668.705332 -111.80458 
L 667.615855 -111.206618 
L 666.589554 -110.608656 
L 665.630775 -110.010694 
L 664.742282 -109.412732 
L 663.92538 -108.81477 
L 663.180054 -108.216808 
L 662.505138 -107.618846 
L 661.898483 -107.020884 
z
" style="stroke: #373737; stroke-width: 1.25"/>
    </defs>
    <g clip-path="url(#pe926a46b49)">
     <use xlink:href="#m8c35f44969" x="0" y="360" style="fill: #367182; stroke: #373737; stroke-width: 1.25"/>
    </g>
   </g>
   <g id="PolyCollection_7">
    <defs>
     <path id="md3525874fb" d="M 714.53387 -36.795855 
L 713.31613 -36.795855 
L 713.191419 -38.252504 
L 713.049179 -39.709153 
L 712.888838 -41.165803 
L 712.710257 -42.622452 
L 712.513807 -44.079102 
L 712.300447 -45.535751 
L 712.071777 -46.9924 
L 711.830073 -48.44905 
L 711.578294 -49.905699 
L 711.32005 -51.362349 
L 711.059545 -52.818998 
L 710.801473 -54.275647 
L 710.550882 -55.732297 
L 710.313011 -57.188946 
L 710.093091 -58.645596 
L 709.896137 -60.102245 
L 709.726726 -61.558894 
L 709.588773 -63.015544 
L 709.485326 -64.472193 
L 709.418376 -65.928843 
L 709.388703 -67.385492 
L 709.39575 -68.842141 
L 709.437545 -70.298791 
L 709.510666 -71.75544 
L 709.610244 -73.21209 
L 709.730011 -74.668739 
L 709.862379 -76.125388 
L 709.998556 -77.582038 
L 710.128679 -79.038687 
L 710.241982 -80.495337 
L 710.326967 -81.951986 
L 710.37161 -83.408635 
L 710.363575 -84.865285 
L 710.290455 -86.321934 
L 710.140043 -87.778584 
L 709.900628 -89.235233 
L 709.561332 -90.691882 
L 709.112479 -92.148532 
L 708.546003 -93.605181 
L 707.855876 -95.061831 
L 707.038552 -96.51848 
L 706.093403 -97.975129 
L 705.023131 -99.431779 
L 703.834108 -100.888428 
L 702.536636 -102.345078 
L 701.145077 -103.801727 
L 699.677825 -105.258376 
L 698.15711 -106.715026 
L 696.6086 -108.171675 
L 695.060809 -109.628325 
L 693.544312 -111.084974 
L 692.090801 -112.541624 
L 690.732007 -113.998273 
L 689.498545 -115.454922 
L 688.418741 -116.911572 
L 687.517502 -118.368221 
L 686.815298 -119.824871 
L 686.327321 -121.28152 
L 686.06287 -122.738169 
L 686.025 -124.194819 
L 686.210471 -125.651468 
L 686.609987 -127.108118 
L 687.208712 -128.564767 
L 687.987048 -130.021416 
L 688.921592 -131.478066 
L 689.986244 -132.934715 
L 691.153377 -134.391365 
L 692.395007 -135.848014 
L 693.683887 -137.304663 
L 694.994484 -138.761313 
L 696.303771 -140.217962 
L 697.591821 -141.674612 
L 698.842179 -143.131261 
L 700.042005 -144.58791 
L 701.182032 -146.04456 
L 702.256325 -147.501209 
L 703.261924 -148.957859 
L 704.198368 -150.414508 
L 705.067184 -151.871157 
L 705.871348 -153.327807 
L 706.614781 -154.784456 
L 707.301893 -156.241106 
L 707.9372 -157.697755 
L 708.525027 -159.154404 
L 709.069305 -160.611054 
L 709.573448 -162.067703 
L 710.04031 -163.524353 
L 710.472202 -164.981002 
L 710.87096 -166.437651 
L 711.238038 -167.894301 
L 711.574621 -169.35095 
L 711.881736 -170.8076 
L 712.160353 -172.264249 
L 712.411471 -173.720898 
L 712.636181 -175.177548 
L 712.835705 -176.634197 
L 713.011413 -178.090847 
L 713.16482 -179.547496 
L 713.297566 -181.004145 
L 714.552434 -181.004145 
L 714.552434 -181.004145 
L 714.68518 -179.547496 
L 714.838587 -178.090847 
L 715.014295 -176.634197 
L 715.213819 -175.177548 
L 715.438529 -173.720898 
L 715.689647 -172.264249 
L 715.968264 -170.8076 
L 716.275379 -169.35095 
L 716.611962 -167.894301 
L 716.97904 -166.437651 
L 717.377798 -164.981002 
L 717.80969 -163.524353 
L 718.276552 -162.067703 
L 718.780695 -160.611054 
L 719.324973 -159.154404 
L 719.9128 -157.697755 
L 720.548107 -156.241106 
L 721.235219 -154.784456 
L 721.978652 -153.327807 
L 722.782816 -151.871157 
L 723.651632 -150.414508 
L 724.588076 -148.957859 
L 725.593675 -147.501209 
L 726.667968 -146.04456 
L 727.807995 -144.58791 
L 729.007821 -143.131261 
L 730.258179 -141.674612 
L 731.546229 -140.217962 
L 732.855516 -138.761313 
L 734.166113 -137.304663 
L 735.454993 -135.848014 
L 736.696623 -134.391365 
L 737.863756 -132.934715 
L 738.928408 -131.478066 
L 739.862952 -130.021416 
L 740.641288 -128.564767 
L 741.240013 -127.108118 
L 741.639529 -125.651468 
L 741.825 -124.194819 
L 741.78713 -122.738169 
L 741.522679 -121.28152 
L 741.034702 -119.824871 
L 740.332498 -118.368221 
L 739.431259 -116.911572 
L 738.351455 -115.454922 
L 737.117993 -113.998273 
L 735.759199 -112.541624 
L 734.305688 -111.084974 
L 732.789191 -109.628325 
L 731.2414 -108.171675 
L 729.69289 -106.715026 
L 728.172175 -105.258376 
L 726.704923 -103.801727 
L 725.313364 -102.345078 
L 724.015892 -100.888428 
L 722.826869 -99.431779 
L 721.756597 -97.975129 
L 720.811448 -96.51848 
L 719.994124 -95.061831 
L 719.303997 -93.605181 
L 718.737521 -92.148532 
L 718.288668 -90.691882 
L 717.949372 -89.235233 
L 717.709957 -87.778584 
L 717.559545 -86.321934 
L 717.486425 -84.865285 
L 717.47839 -83.408635 
L 717.523033 -81.951986 
L 717.608018 -80.495337 
L 717.721321 -79.038687 
L 717.851444 -77.582038 
L 717.987621 -76.125388 
L 718.119989 -74.668739 
L 718.239756 -73.21209 
L 718.339334 -71.75544 
L 718.412455 -70.298791 
L 718.45425 -68.842141 
L 718.461297 -67.385492 
L 718.431624 -65.928843 
L 718.364674 -64.472193 
L 718.261227 -63.015544 
L 718.123274 -61.558894 
L 717.953863 -60.102245 
L 717.756909 -58.645596 
L 717.536989 -57.188946 
L 717.299118 -55.732297 
L 717.048527 -54.275647 
L 716.790455 -52.818998 
L 716.52995 -51.362349 
L 716.271706 -49.905699 
L 716.019927 -48.44905 
L 715.778223 -46.9924 
L 715.549553 -45.535751 
L 715.336193 -44.079102 
L 715.139743 -42.622452 
L 714.961162 -41.165803 
L 714.800821 -39.709153 
L 714.658581 -38.252504 
L 714.53387 -36.795855 
z
" style="stroke: #373737; stroke-width: 1.25"/>
    </defs>
    <g clip-path="url(#pe926a46b49)">
     <use xlink:href="#md3525874fb" x="0" y="360" style="fill: #80c161; stroke: #373737; stroke-width: 1.25"/>
    </g>
   </g>
   <g id="PolyCollection_8">
    <defs>
     <path id="m016fb5f7b6" d="M 867.547731 -20.236545 
L 867.202269 -20.236545 
L 867.1486 -23.427726 
L 867.083201 -26.618907 
L 867.005067 -29.810088 
L 866.913522 -33.001269 
L 866.808305 -36.19245 
L 866.689606 -39.38363 
L 866.558068 -42.574811 
L 866.414721 -45.765992 
L 866.260854 -48.957173 
L 866.097835 -52.148354 
L 865.926883 -55.339535 
L 865.748822 -58.530716 
L 865.563853 -61.721897 
L 865.371368 -64.913078 
L 865.169856 -68.104259 
L 864.956909 -71.29544 
L 864.729368 -74.48662 
L 864.483592 -77.677801 
L 864.215857 -80.868982 
L 863.92283 -84.060163 
L 863.602105 -87.251344 
L 863.252707 -90.442525 
L 862.87554 -93.633706 
L 862.473693 -96.824887 
L 862.052576 -100.016068 
L 861.619849 -103.207249 
L 861.185145 -106.39843 
L 860.759603 -109.58961 
L 860.355263 -112.780791 
L 859.984375 -115.971972 
L 859.658704 -119.163153 
L 859.388884 -122.354334 
L 859.183884 -125.545515 
L 859.050624 -128.736696 
L 858.993737 -131.927877 
L 859.015482 -135.119058 
L 859.115772 -138.310239 
L 859.292296 -141.50142 
L 859.540688 -144.6926 
L 859.854743 -147.883781 
L 860.226652 -151.074962 
L 860.647259 -154.266143 
L 861.106362 -157.457324 
L 861.593043 -160.648505 
L 862.096038 -163.839686 
L 862.604136 -167.030867 
L 863.106587 -170.222048 
L 863.593489 -173.413229 
L 864.056125 -176.60441 
L 864.487225 -179.79559 
L 864.881135 -182.986771 
L 865.233882 -186.177952 
L 865.543152 -189.369133 
L 865.808179 -192.560314 
L 866.029592 -195.751495 
L 866.209209 -198.942676 
L 866.349834 -202.133857 
L 866.45504 -205.325038 
L 866.528962 -208.516219 
L 866.576105 -211.7074 
L 866.601148 -214.89858 
L 866.608769 -218.089761 
L 866.603467 -221.280942 
L 866.589399 -224.472123 
L 866.570242 -227.663304 
L 866.549072 -230.854485 
L 866.528289 -234.045666 
L 866.509588 -237.236847 
L 866.493979 -240.428028 
L 866.481863 -243.619209 
L 866.473145 -246.81039 
L 866.467385 -250.00157 
L 866.463969 -253.192751 
L 866.462274 -256.383932 
L 866.461818 -259.575113 
L 866.462373 -262.766294 
L 866.464033 -265.957475 
L 866.467233 -269.148656 
L 866.47271 -272.339837 
L 866.48142 -275.531018 
L 866.494424 -278.722199 
L 866.512746 -281.91338 
L 866.53724 -285.10456 
L 866.568463 -288.295741 
L 866.606587 -291.486922 
L 866.651348 -294.678103 
L 866.702043 -297.869284 
L 866.757579 -301.060465 
L 866.816553 -304.251646 
L 866.877369 -307.442827 
L 866.938366 -310.634008 
L 866.997937 -313.825189 
L 867.054648 -317.01637 
L 867.10732 -320.20755 
L 867.155082 -323.398731 
L 867.197392 -326.589912 
L 867.234027 -329.781093 
L 867.265045 -332.972274 
L 867.290737 -336.163455 
L 867.459263 -336.163455 
L 867.459263 -336.163455 
L 867.484955 -332.972274 
L 867.515973 -329.781093 
L 867.552608 -326.589912 
L 867.594918 -323.398731 
L 867.64268 -320.20755 
L 867.695352 -317.01637 
L 867.752063 -313.825189 
L 867.811634 -310.634008 
L 867.872631 -307.442827 
L 867.933447 -304.251646 
L 867.992421 -301.060465 
L 868.047957 -297.869284 
L 868.098652 -294.678103 
L 868.143413 -291.486922 
L 868.181537 -288.295741 
L 868.21276 -285.10456 
L 868.237254 -281.91338 
L 868.255576 -278.722199 
L 868.26858 -275.531018 
L 868.27729 -272.339837 
L 868.282767 -269.148656 
L 868.285967 -265.957475 
L 868.287627 -262.766294 
L 868.288182 -259.575113 
L 868.287726 -256.383932 
L 868.286031 -253.192751 
L 868.282615 -250.00157 
L 868.276855 -246.81039 
L 868.268137 -243.619209 
L 868.256021 -240.428028 
L 868.240412 -237.236847 
L 868.221711 -234.045666 
L 868.200928 -230.854485 
L 868.179758 -227.663304 
L 868.160601 -224.472123 
L 868.146533 -221.280942 
L 868.141231 -218.089761 
L 868.148852 -214.89858 
L 868.173895 -211.7074 
L 868.221038 -208.516219 
L 868.29496 -205.325038 
L 868.400166 -202.133857 
L 868.540791 -198.942676 
L 868.720408 -195.751495 
L 868.941821 -192.560314 
L 869.206848 -189.369133 
L 869.516118 -186.177952 
L 869.868865 -182.986771 
L 870.262775 -179.79559 
L 870.693875 -176.60441 
L 871.156511 -173.413229 
L 871.643413 -170.222048 
L 872.145864 -167.030867 
L 872.653962 -163.839686 
L 873.156957 -160.648505 
L 873.643638 -157.457324 
L 874.102741 -154.266143 
L 874.523348 -151.074962 
L 874.895257 -147.883781 
L 875.209312 -144.6926 
L 875.457704 -141.50142 
L 875.634228 -138.310239 
L 875.734518 -135.119058 
L 875.756263 -131.927877 
L 875.699376 -128.736696 
L 875.566116 -125.545515 
L 875.361116 -122.354334 
L 875.091296 -119.163153 
L 874.765625 -115.971972 
L 874.394737 -112.780791 
L 873.990397 -109.58961 
L 873.564855 -106.39843 
L 873.130151 -103.207249 
L 872.697424 -100.016068 
L 872.276307 -96.824887 
L 871.87446 -93.633706 
L 871.497293 -90.442525 
L 871.147895 -87.251344 
L 870.82717 -84.060163 
L 870.534143 -80.868982 
L 870.266408 -77.677801 
L 870.020632 -74.48662 
L 869.793091 -71.29544 
L 869.580144 -68.104259 
L 869.378632 -64.913078 
L 869.186147 -61.721897 
L 869.001178 -58.530716 
L 868.823117 -55.339535 
L 868.652165 -52.148354 
L 868.489146 -48.957173 
L 868.335279 -45.765992 
L 868.191932 -42.574811 
L 868.060394 -39.38363 
L 867.941695 -36.19245 
L 867.836478 -33.001269 
L 867.744933 -29.810088 
L 867.666799 -26.618907 
L 867.6014 -23.427726 
L 867.547731 -20.236545 
z
" style="stroke: #373737; stroke-width: 1.25"/>
    </defs>
    <g clip-path="url(#pe926a46b49)">
     <use xlink:href="#m016fb5f7b6" x="0" y="360" style="fill: #367182; stroke: #373737; stroke-width: 1.25"/>
    </g>
   </g>
   <g id="PolyCollection_9">
    <defs>
     <path id="m6f72dd1b82" d="M 923.412033 -28.915939 
L 922.937967 -28.915939 
L 922.853604 -31.931778 
L 922.749518 -34.947618 
L 922.624914 -37.963458 
L 922.480272 -40.979297 
L 922.317551 -43.995137 
L 922.140225 -47.010977 
L 921.953061 -50.026816 
L 921.76162 -53.042656 
L 921.571467 -56.058495 
L 921.387149 -59.074335 
L 921.211039 -62.090175 
L 921.042185 -65.106014 
L 920.875316 -68.121854 
L 920.70019 -71.137694 
L 920.501423 -74.153533 
L 920.25894 -77.169373 
L 919.949105 -80.185212 
L 919.546565 -83.201052 
L 919.026733 -86.216892 
L 918.368745 -89.232731 
L 917.558634 -92.248571 
L 916.592343 -95.26441 
L 915.478132 -98.28025 
L 914.237915 -101.29609 
L 912.907138 -104.311929 
L 911.532981 -107.327769 
L 910.170898 -110.343609 
L 908.879858 -113.359448 
L 907.716881 -116.375288 
L 906.731695 -119.391127 
L 905.962333 -122.406967 
L 905.43237 -125.422807 
L 905.150175 -128.438646 
L 905.110138 -131.454486 
L 905.295479 -134.470326 
L 905.681915 -137.486165 
L 906.241398 -140.502005 
L 906.945219 -143.517844 
L 907.766019 -146.533684 
L 908.67862 -149.549524 
L 909.659879 -152.565363 
L 910.687989 -155.581203 
L 911.741724 -158.597042 
L 912.800031 -161.612882 
L 913.842165 -164.628722 
L 914.848382 -167.644561 
L 915.800984 -170.660401 
L 916.685439 -173.676241 
L 917.491294 -176.69208 
L 918.212662 -179.70792 
L 918.84822 -182.723759 
L 919.400739 -185.739599 
L 919.876275 -188.755439 
L 920.28318 -191.771278 
L 920.631074 -194.787118 
L 920.92992 -197.802958 
L 921.189245 -200.818797 
L 921.417555 -203.834637 
L 921.62195 -206.850476 
L 921.807916 -209.866316 
L 921.979288 -212.882156 
L 922.138362 -215.897995 
L 922.286113 -218.913835 
L 922.422506 -221.929674 
L 922.546838 -224.945514 
L 922.658066 -227.961354 
L 922.755097 -230.977193 
L 922.836986 -233.993033 
L 922.90305 -237.008873 
L 922.952896 -240.024712 
L 922.986391 -243.040552 
L 923.003602 -246.056391 
L 923.004757 -249.072231 
L 922.990239 -252.088071 
L 922.960638 -255.10391 
L 922.916868 -258.11975 
L 922.860308 -261.13559 
L 922.792964 -264.151429 
L 922.717573 -267.167269 
L 922.637639 -270.183108 
L 922.557345 -273.198948 
L 922.481336 -276.214788 
L 922.414391 -279.230627 
L 922.361 -282.246467 
L 922.324925 -285.262306 
L 922.308798 -288.278146 
L 922.313829 -291.293986 
L 922.339672 -294.309825 
L 922.384471 -297.325665 
L 922.445092 -300.341505 
L 922.517483 -303.357344 
L 922.597125 -306.373184 
L 922.679495 -309.389023 
L 922.760476 -312.404863 
L 922.836672 -315.420703 
L 922.90559 -318.436542 
L 922.965696 -321.452382 
L 923.016355 -324.468222 
L 923.057682 -327.484061 
L 923.292318 -327.484061 
L 923.292318 -327.484061 
L 923.333645 -324.468222 
L 923.384304 -321.452382 
L 923.44441 -318.436542 
L 923.513328 -315.420703 
L 923.589524 -312.404863 
L 923.670505 -309.389023 
L 923.752875 -306.373184 
L 923.832517 -303.357344 
L 923.904908 -300.341505 
L 923.965529 -297.325665 
L 924.010328 -294.309825 
L 924.036171 -291.293986 
L 924.041202 -288.278146 
L 924.025075 -285.262306 
L 923.989 -282.246467 
L 923.935609 -279.230627 
L 923.868664 -276.214788 
L 923.792655 -273.198948 
L 923.712361 -270.183108 
L 923.632427 -267.167269 
L 923.557036 -264.151429 
L 923.489692 -261.13559 
L 923.433132 -258.11975 
L 923.389362 -255.10391 
L 923.359761 -252.088071 
L 923.345243 -249.072231 
L 923.346398 -246.056391 
L 923.363609 -243.040552 
L 923.397104 -240.024712 
L 923.44695 -237.008873 
L 923.513014 -233.993033 
L 923.594903 -230.977193 
L 923.691934 -227.961354 
L 923.803162 -224.945514 
L 923.927494 -221.929674 
L 924.063887 -218.913835 
L 924.211638 -215.897995 
L 924.370712 -212.882156 
L 924.542084 -209.866316 
L 924.72805 -206.850476 
L 924.932445 -203.834637 
L 925.160755 -200.818797 
L 925.42008 -197.802958 
L 925.718926 -194.787118 
L 926.06682 -191.771278 
L 926.473725 -188.755439 
L 926.949261 -185.739599 
L 927.50178 -182.723759 
L 928.137338 -179.70792 
L 928.858706 -176.69208 
L 929.664561 -173.676241 
L 930.549016 -170.660401 
L 931.501618 -167.644561 
L 932.507835 -164.628722 
L 933.549969 -161.612882 
L 934.608276 -158.597042 
L 935.662011 -155.581203 
L 936.690121 -152.565363 
L 937.67138 -149.549524 
L 938.583981 -146.533684 
L 939.404781 -143.517844 
L 940.108602 -140.502005 
L 940.668085 -137.486165 
L 941.054521 -134.470326 
L 941.239862 -131.454486 
L 941.199825 -128.438646 
L 940.91763 -125.422807 
L 940.387667 -122.406967 
L 939.618305 -119.391127 
L 938.633119 -116.375288 
L 937.470142 -113.359448 
L 936.179102 -110.343609 
L 934.817019 -107.327769 
L 933.442862 -104.311929 
L 932.112085 -101.29609 
L 930.871868 -98.28025 
L 929.757657 -95.26441 
L 928.791366 -92.248571 
L 927.981255 -89.232731 
L 927.323267 -86.216892 
L 926.803435 -83.201052 
L 926.400895 -80.185212 
L 926.09106 -77.169373 
L 925.848577 -74.153533 
L 925.64981 -71.137694 
L 925.474684 -68.121854 
L 925.307815 -65.106014 
L 925.138961 -62.090175 
L 924.962851 -59.074335 
L 924.778533 -56.058495 
L 924.58838 -53.042656 
L 924.396939 -50.026816 
L 924.209775 -47.010977 
L 924.032449 -43.995137 
L 923.869728 -40.979297 
L 923.725086 -37.963458 
L 923.600482 -34.947618 
L 923.496396 -31.931778 
L 923.412033 -28.915939 
z
" style="stroke: #373737; stroke-width: 1.25"/>
    </defs>
    <g clip-path="url(#pe926a46b49)">
     <use xlink:href="#m6f72dd1b82" x="0" y="360" style="fill: #80c161; stroke: #373737; stroke-width: 1.25"/>
    </g>
   </g>
   <g id="patch_3">
    <path d="M 239.625 292.68 
L 239.625 292.68 
L 239.625 292.68 
L 239.625 292.68 
z
" clip-path="url(#pe926a46b49)" style="fill: #4a4c7e; stroke: #373737; stroke-width: 1.25; stroke-linejoin: miter"/>
   </g>
   <g id="patch_4">
    <path d="M 239.625 292.68 
L 239.625 292.68 
L 239.625 292.68 
L 239.625 292.68 
z
" clip-path="url(#pe926a46b49)" style="fill: #367182; stroke: #373737; stroke-width: 1.25; stroke-linejoin: miter"/>
   </g>
   <g id="patch_5">
    <path d="M 239.625 292.68 
L 239.625 292.68 
L 239.625 292.68 
L 239.625 292.68 
z
" clip-path="url(#pe926a46b49)" style="fill: #80c161; stroke: #373737; stroke-width: 1.25; stroke-linejoin: miter"/>
   </g>
   <g id="line2d_6">
    <path d="M 156.111646 237.24 
L 211.538354 237.24 
" clip-path="url(#pe926a46b49)" style="fill: none; stroke-dasharray: 1.5625,0.9375; stroke-dashoffset: 0; stroke: #373737; stroke-width: 1.25"/>
   </g>
   <g id="line2d_7">
    <path d="M 156.111646 237.24 
L 211.538354 237.24 
" clip-path="url(#pe926a46b49)" style="fill: none; stroke-dasharray: 3.125,1.25; stroke-dashoffset: 0; stroke: #373737; stroke-width: 1.25"/>
   </g>
   <g id="line2d_8">
    <path d="M 164.759873 209.52 
L 202.890127 209.52 
" clip-path="url(#pe926a46b49)" style="fill: none; stroke-dasharray: 1.5625,0.9375; stroke-dashoffset: 0; stroke: #373737; stroke-width: 1.25"/>
   </g>
   <g id="line2d_9">
    <path d="M 234.338864 264.96 
L 244.911136 264.96 
" clip-path="url(#pe926a46b49)" style="fill: none; stroke-dasharray: 1.5625,0.9375; stroke-dashoffset: 0; stroke: #373737; stroke-width: 1.25"/>
   </g>
   <g id="line2d_10">
    <path d="M 232.307206 237.24 
L 246.942794 237.24 
" clip-path="url(#pe926a46b49)" style="fill: none; stroke-dasharray: 3.125,1.25; stroke-dashoffset: 0; stroke: #373737; stroke-width: 1.25"/>
   </g>
   <g id="line2d_11">
    <path d="M 234.51403 209.52 
L 244.73597 209.52 
" clip-path="url(#pe926a46b49)" style="fill: none; stroke-dasharray: 1.5625,0.9375; stroke-dashoffset: 0; stroke: #373737; stroke-width: 1.25"/>
   </g>
   <g id="line2d_12">
    <path d="M 282.832969 244.17 
L 308.017031 244.17 
" clip-path="url(#pe926a46b49)" style="fill: none; stroke-dasharray: 1.5625,0.9375; stroke-dashoffset: 0; stroke: #373737; stroke-width: 1.25"/>
   </g>
   <g id="line2d_13">
    <path d="M 282.569888 237.24 
L 308.280112 237.24 
" clip-path="url(#pe926a46b49)" style="fill: none; stroke-dasharray: 3.125,1.25; stroke-dashoffset: 0; stroke: #373737; stroke-width: 1.25"/>
   </g>
   <g id="line2d_14">
    <path d="M 282.841051 230.31 
L 308.008949 230.31 
" clip-path="url(#pe926a46b49)" style="fill: none; stroke-dasharray: 1.5625,0.9375; stroke-dashoffset: 0; stroke: #373737; stroke-width: 1.25"/>
   </g>
   <g id="line2d_15">
    <path d="M 433.305852 237.24 
L 464.444148 237.24 
" clip-path="url(#pe926a46b49)" style="fill: none; stroke-dasharray: 1.5625,0.9375; stroke-dashoffset: 0; stroke: #373737; stroke-width: 1.25"/>
   </g>
   <g id="line2d_16">
    <path d="M 433.305852 237.24 
L 464.444148 237.24 
" clip-path="url(#pe926a46b49)" style="fill: none; stroke-dasharray: 3.125,1.25; stroke-dashoffset: 0; stroke: #373737; stroke-width: 1.25"/>
   </g>
   <g id="line2d_17">
    <path d="M 440.925072 216.45 
L 456.824928 216.45 
" clip-path="url(#pe926a46b49)" style="fill: none; stroke-dasharray: 1.5625,0.9375; stroke-dashoffset: 0; stroke: #373737; stroke-width: 1.25"/>
   </g>
   <g id="line2d_18">
    <path d="M 481.233091 237.24 
L 528.116909 237.24 
" clip-path="url(#pe926a46b49)" style="fill: none; stroke-dasharray: 1.5625,0.9375; stroke-dashoffset: 0; stroke: #373737; stroke-width: 1.25"/>
   </g>
   <g id="line2d_19">
    <path d="M 481.233091 237.24 
L 528.116909 237.24 
" clip-path="url(#pe926a46b49)" style="fill: none; stroke-dasharray: 3.125,1.25; stroke-dashoffset: 0; stroke: #373737; stroke-width: 1.25"/>
   </g>
   <g id="line2d_20">
    <path d="M 486.525463 209.52 
L 522.824537 209.52 
" clip-path="url(#pe926a46b49)" style="fill: none; stroke-dasharray: 1.5625,0.9375; stroke-dashoffset: 0; stroke: #373737; stroke-width: 1.25"/>
   </g>
   <g id="line2d_21">
    <path d="M 630.231698 237.24 
L 686.018302 237.24 
" clip-path="url(#pe926a46b49)" style="fill: none; stroke-dasharray: 1.5625,0.9375; stroke-dashoffset: 0; stroke: #373737; stroke-width: 1.25"/>
   </g>
   <g id="line2d_22">
    <path d="M 630.231698 237.24 
L 686.018302 237.24 
" clip-path="url(#pe926a46b49)" style="fill: none; stroke-dasharray: 3.125,1.25; stroke-dashoffset: 0; stroke: #373737; stroke-width: 1.25"/>
   </g>
   <g id="line2d_23">
    <path d="M 644.135758 209.52 
L 672.114242 209.52 
" clip-path="url(#pe926a46b49)" style="fill: none; stroke-dasharray: 1.5625,0.9375; stroke-dashoffset: 0; stroke: #373737; stroke-width: 1.25"/>
   </g>
   <g id="line2d_24">
    <path d="M 686.062302 237.24 
L 741.787698 237.24 
" clip-path="url(#pe926a46b49)" style="fill: none; stroke-dasharray: 1.5625,0.9375; stroke-dashoffset: 0; stroke: #373737; stroke-width: 1.25"/>
   </g>
   <g id="line2d_25">
    <path d="M 686.062302 237.24 
L 741.787698 237.24 
" clip-path="url(#pe926a46b49)" style="fill: none; stroke-dasharray: 3.125,1.25; stroke-dashoffset: 0; stroke: #373737; stroke-width: 1.25"/>
   </g>
   <g id="line2d_26">
    <path d="M 686.062302 237.24 
L 741.787698 237.24 
" clip-path="url(#pe926a46b49)" style="fill: none; stroke-dasharray: 1.5625,0.9375; stroke-dashoffset: 0; stroke: #373737; stroke-width: 1.25"/>
   </g>
   <g id="line2d_27">
    <path d="M 859.362824 237.24 
L 875.387176 237.24 
" clip-path="url(#pe926a46b49)" style="fill: none; stroke-dasharray: 1.5625,0.9375; stroke-dashoffset: 0; stroke: #373737; stroke-width: 1.25"/>
   </g>
   <g id="line2d_28">
    <path d="M 859.362824 237.24 
L 875.387176 237.24 
" clip-path="url(#pe926a46b49)" style="fill: none; stroke-dasharray: 3.125,1.25; stroke-dashoffset: 0; stroke: #373737; stroke-width: 1.25"/>
   </g>
   <g id="line2d_29">
    <path d="M 860.157313 209.52 
L 874.592687 209.52 
" clip-path="url(#pe926a46b49)" style="fill: none; stroke-dasharray: 1.5625,0.9375; stroke-dashoffset: 0; stroke: #373737; stroke-width: 1.25"/>
   </g>
   <g id="line2d_30">
    <path d="M 905.900295 237.24 
L 940.449705 237.24 
" clip-path="url(#pe926a46b49)" style="fill: none; stroke-dasharray: 1.5625,0.9375; stroke-dashoffset: 0; stroke: #373737; stroke-width: 1.25"/>
   </g>
   <g id="line2d_31">
    <path d="M 905.900295 237.24 
L 940.449705 237.24 
" clip-path="url(#pe926a46b49)" style="fill: none; stroke-dasharray: 3.125,1.25; stroke-dashoffset: 0; stroke: #373737; stroke-width: 1.25"/>
   </g>
   <g id="line2d_32">
    <path d="M 908.981368 209.52 
L 937.368632 209.52 
" clip-path="url(#pe926a46b49)" style="fill: none; stroke-dasharray: 1.5625,0.9375; stroke-dashoffset: 0; stroke: #373737; stroke-width: 1.25"/>
   </g>
   <g id="patch_6">
    <path d="M 135 320.4 
L 135 43.2 
" style="fill: none; stroke: #cccccc; stroke-width: 1.25; stroke-linejoin: miter; stroke-linecap: square"/>
   </g>
   <g id="patch_7">
    <path d="M 972 320.4 
L 972 43.2 
" style="fill: none; stroke: #cccccc; stroke-width: 1.25; stroke-linejoin: miter; stroke-linecap: square"/>
   </g>
   <g id="patch_8">
    <path d="M 135 320.4 
L 972 320.4 
" style="fill: none; stroke: #cccccc; stroke-width: 1.25; stroke-linejoin: miter; stroke-linecap: square"/>
   </g>
   <g id="patch_9">
    <path d="M 135 43.2 
L 972 43.2 
" style="fill: none; stroke: #cccccc; stroke-width: 1.25; stroke-linejoin: miter; stroke-linecap: square"/>
   </g>
   <g id="text_12">
    <!-- Location of Max Field Response for trials with subthreshold responses -->
    <g style="fill: #262626" transform="translate(367.084687 37.2) scale(0.12 -0.12)">
     <defs>
      <path id="ArialMT-64" d="M 2575 0 
L 2575 419 
Q 2259 -75 1647 -75 
Q 1250 -75 917 144 
Q 584 363 401 755 
Q 219 1147 219 1656 
Q 219 2153 384 2558 
Q 550 2963 881 3178 
Q 1213 3394 1622 3394 
Q 1922 3394 2156 3267 
Q 2391 3141 2538 2938 
L 2538 4581 
L 3097 4581 
L 3097 0 
L 2575 0 
z
M 797 1656 
Q 797 1019 1065 703 
Q 1334 388 1700 388 
Q 2069 388 2326 689 
Q 2584 991 2584 1609 
Q 2584 2291 2321 2609 
Q 2059 2928 1675 2928 
Q 1300 2928 1048 2622 
Q 797 2316 797 1656 
z
" transform="scale(0.015625)"/>
      <path id="ArialMT-62" d="M 941 0 
L 419 0 
L 419 4581 
L 981 4581 
L 981 2947 
Q 1338 3394 1891 3394 
Q 2197 3394 2470 3270 
Q 2744 3147 2920 2923 
Q 3097 2700 3197 2384 
Q 3297 2069 3297 1709 
Q 3297 856 2875 390 
Q 2453 -75 1863 -75 
Q 1275 -75 941 416 
L 941 0 
z
M 934 1684 
Q 934 1088 1097 822 
Q 1363 388 1816 388 
Q 2184 388 2453 708 
Q 2722 1028 2722 1663 
Q 2722 2313 2464 2622 
Q 2206 2931 1841 2931 
Q 1472 2931 1203 2611 
Q 934 2291 934 1684 
z
" transform="scale(0.015625)"/>
     </defs>
     <use xlink:href="#ArialMT-4c"/>
     <use xlink:href="#ArialMT-6f" x="55.615234"/>
     <use xlink:href="#ArialMT-63" x="111.230469"/>
     <use xlink:href="#ArialMT-61" x="161.230469"/>
     <use xlink:href="#ArialMT-74" x="216.845703"/>
     <use xlink:href="#ArialMT-69" x="244.628906"/>
     <use xlink:href="#ArialMT-6f" x="266.845703"/>
     <use xlink:href="#ArialMT-6e" x="322.460938"/>
     <use xlink:href="#ArialMT-20" x="378.076172"/>
     <use xlink:href="#ArialMT-6f" x="405.859375"/>
     <use xlink:href="#ArialMT-66" x="461.474609"/>
     <use xlink:href="#ArialMT-20" x="489.257812"/>
     <use xlink:href="#ArialMT-4d" x="517.041016"/>
     <use xlink:href="#ArialMT-61" x="600.341797"/>
     <use xlink:href="#ArialMT-78" x="655.957031"/>
     <use xlink:href="#ArialMT-20" x="705.957031"/>
     <use xlink:href="#ArialMT-46" x="733.740234"/>
     <use xlink:href="#ArialMT-69" x="794.824219"/>
     <use xlink:href="#ArialMT-65" x="817.041016"/>
     <use xlink:href="#ArialMT-6c" x="872.65625"/>
     <use xlink:href="#ArialMT-64" x="894.873047"/>
     <use xlink:href="#ArialMT-20" x="950.488281"/>
     <use xlink:href="#ArialMT-52" x="978.271484"/>
     <use xlink:href="#ArialMT-65" x="1050.488281"/>
     <use xlink:href="#ArialMT-73" x="1106.103516"/>
     <use xlink:href="#ArialMT-70" x="1156.103516"/>
     <use xlink:href="#ArialMT-6f" x="1211.71875"/>
     <use xlink:href="#ArialMT-6e" x="1267.333984"/>
     <use xlink:href="#ArialMT-73" x="1322.949219"/>
     <use xlink:href="#ArialMT-65" x="1372.949219"/>
     <use xlink:href="#ArialMT-20" x="1428.564453"/>
     <use xlink:href="#ArialMT-66" x="1456.347656"/>
     <use xlink:href="#ArialMT-6f" x="1484.130859"/>
     <use xlink:href="#ArialMT-72" x="1539.746094"/>
     <use xlink:href="#ArialMT-20" x="1573.046875"/>
     <use xlink:href="#ArialMT-74" x="1600.830078"/>
     <use xlink:href="#ArialMT-72" x="1628.613281"/>
     <use xlink:href="#ArialMT-69" x="1661.914062"/>
     <use xlink:href="#ArialMT-61" x="1684.130859"/>
     <use xlink:href="#ArialMT-6c" x="1739.746094"/>
     <use xlink:href="#ArialMT-73" x="1761.962891"/>
     <use xlink:href="#ArialMT-20" x="1811.962891"/>
     <use xlink:href="#ArialMT-77" x="1839.746094"/>
     <use xlink:href="#ArialMT-69" x="1911.962891"/>
     <use xlink:href="#ArialMT-74" x="1934.179688"/>
     <use xlink:href="#ArialMT-68" x="1961.962891"/>
     <use xlink:href="#ArialMT-20" x="2017.578125"/>
     <use xlink:href="#ArialMT-73" x="2045.361328"/>
     <use xlink:href="#ArialMT-75" x="2095.361328"/>
     <use xlink:href="#ArialMT-62" x="2150.976562"/>
     <use xlink:href="#ArialMT-74" x="2206.591797"/>
     <use xlink:href="#ArialMT-68" x="2234.375"/>
     <use xlink:href="#ArialMT-72" x="2289.990234"/>
     <use xlink:href="#ArialMT-65" x="2323.291016"/>
     <use xlink:href="#ArialMT-73" x="2378.90625"/>
     <use xlink:href="#ArialMT-68" x="2428.90625"/>
     <use xlink:href="#ArialMT-6f" x="2484.521484"/>
     <use xlink:href="#ArialMT-6c" x="2540.136719"/>
     <use xlink:href="#ArialMT-64" x="2562.353516"/>
     <use xlink:href="#ArialMT-20" x="2617.96875"/>
     <use xlink:href="#ArialMT-72" x="2645.751953"/>
     <use xlink:href="#ArialMT-65" x="2679.052734"/>
     <use xlink:href="#ArialMT-73" x="2734.667969"/>
     <use xlink:href="#ArialMT-70" x="2784.667969"/>
     <use xlink:href="#ArialMT-6f" x="2840.283203"/>
     <use xlink:href="#ArialMT-6e" x="2895.898438"/>
     <use xlink:href="#ArialMT-73" x="2951.513672"/>
     <use xlink:href="#ArialMT-65" x="3001.513672"/>
     <use xlink:href="#ArialMT-73" x="3057.128906"/>
    </g>
   </g>
   <g id="legend_1">
    <g id="patch_10">
     <path d="M 916.865938 115.300156 
L 964.3 115.300156 
Q 966.5 115.300156 966.5 113.100156 
L 966.5 50.9 
Q 966.5 48.7 964.3 48.7 
L 916.865938 48.7 
Q 914.665938 48.7 914.665938 50.9 
L 914.665938 113.100156 
Q 914.665938 115.300156 916.865938 115.300156 
z
" style="fill: #ffffff; opacity: 0.8; stroke: #cccccc; stroke-linejoin: miter"/>
    </g>
    <g id="text_13">
     <!-- numSq -->
     <g style="fill: #262626" transform="translate(921.573281 61.835625) scale(0.12 -0.12)">
      <use xlink:href="#ArialMT-6e"/>
      <use xlink:href="#ArialMT-75" x="55.615234"/>
      <use xlink:href="#ArialMT-6d" x="111.230469"/>
      <use xlink:href="#ArialMT-53" x="194.53125"/>
      <use xlink:href="#ArialMT-71" x="261.230469"/>
     </g>
    </g>
    <g id="patch_11">
     <path d="M 919.065938 77.594219 
L 941.065938 77.594219 
L 941.065938 69.894219 
L 919.065938 69.894219 
z
" style="fill: #4a4c7e; stroke: #373737; stroke-width: 1.25; stroke-linejoin: miter"/>
    </g>
    <g id="text_14">
     <!-- 1 -->
     <g style="fill: #262626" transform="translate(949.865937 77.594219) scale(0.11 -0.11)">
      <defs>
       <path id="ArialMT-31" d="M 2384 0 
L 1822 0 
L 1822 3584 
Q 1619 3391 1289 3197 
Q 959 3003 697 2906 
L 697 3450 
Q 1169 3672 1522 3987 
Q 1875 4303 2022 4600 
L 2384 4600 
L 2384 0 
z
" transform="scale(0.015625)"/>
      </defs>
      <use xlink:href="#ArialMT-31"/>
     </g>
    </g>
    <g id="patch_12">
     <path d="M 919.065938 93.154062 
L 941.065938 93.154062 
L 941.065938 85.454062 
L 919.065938 85.454062 
z
" style="fill: #367182; stroke: #373737; stroke-width: 1.25; stroke-linejoin: miter"/>
    </g>
    <g id="text_15">
     <!-- 5 -->
     <g style="fill: #262626" transform="translate(949.865937 93.154062) scale(0.11 -0.11)">
      <use xlink:href="#ArialMT-35"/>
     </g>
    </g>
    <g id="patch_13">
     <path d="M 919.065938 108.713906 
L 941.065938 108.713906 
L 941.065938 101.013906 
L 919.065938 101.013906 
z
" style="fill: #80c161; stroke: #373737; stroke-width: 1.25; stroke-linejoin: miter"/>
    </g>
    <g id="text_16">
     <!-- 15 -->
     <g style="fill: #262626" transform="translate(949.865937 108.713906) scale(0.11 -0.11)">
      <use xlink:href="#ArialMT-31"/>
      <use xlink:href="#ArialMT-35" x="55.615234"/>
     </g>
    </g>
   </g>
  </g>
 </g>
 <defs>
  <clipPath id="pe926a46b49">
   <rect x="135" y="43.2" width="837" height="277.2"/>
  </clipPath>
 </defs>
</svg>
