<?xml version="1.0" encoding="utf-8" standalone="no"?>
<!DOCTYPE svg PUBLIC "-//W3C//DTD SVG 1.1//EN"
  "http://www.w3.org/Graphics/SVG/1.1/DTD/svg11.dtd">
<svg xmlns:xlink="http://www.w3.org/1999/xlink" width="1080pt" height="360pt" viewBox="0 0 1080 360" xmlns="http://www.w3.org/2000/svg" version="1.1">
 <metadata>
  <rdf:RDF xmlns:dc="http://purl.org/dc/elements/1.1/" xmlns:cc="http://creativecommons.org/ns#" xmlns:rdf="http://www.w3.org/1999/02/22-rdf-syntax-ns#">
   <cc:Work>
    <dc:type rdf:resource="http://purl.org/dc/dcmitype/StillImage"/>
    <dc:date>2024-07-13T12:58:42.656353</dc:date>
    <dc:format>image/svg+xml</dc:format>
    <dc:creator>
     <cc:Agent>
      <dc:title>Matplotlib v3.8.1, https://matplotlib.org/</dc:title>
     </cc:Agent>
    </dc:creator>
   </cc:Work>
  </rdf:RDF>
 </metadata>
 <defs>
  <style type="text/css">*{stroke-linejoin: round; stroke-linecap: butt}</style>
 </defs>
 <g id="figure_1">
  <g id="patch_1">
   <path d="M 0 360 
L 1080 360 
L 1080 0 
L 0 0 
z
" style="fill: #ffffff"/>
  </g>
  <g id="axes_1">
   <g id="patch_2">
    <path d="M 135 320.4 
L 972 320.4 
L 972 43.2 
L 135 43.2 
z
" style="fill: #ffffff"/>
   </g>
   <g id="matplotlib.axis_1">
    <g id="xtick_1">
     <g id="text_1">
      <!-- 20 -->
      <g style="fill: #262626" transform="translate(233.507969 337.773594) scale(0.11 -0.11)">
       <defs>
        <path id="ArialMT-32" d="M 3222 541 
L 3222 0 
L 194 0 
Q 188 203 259 391 
Q 375 700 629 1000 
Q 884 1300 1366 1694 
Q 2113 2306 2375 2664 
Q 2638 3022 2638 3341 
Q 2638 3675 2398 3904 
Q 2159 4134 1775 4134 
Q 1369 4134 1125 3890 
Q 881 3647 878 3216 
L 300 3275 
Q 359 3922 746 4261 
Q 1134 4600 1788 4600 
Q 2447 4600 2831 4234 
Q 3216 3869 3216 3328 
Q 3216 3053 3103 2787 
Q 2991 2522 2730 2228 
Q 2469 1934 1863 1422 
Q 1356 997 1212 845 
Q 1069 694 975 541 
L 3222 541 
z
" transform="scale(0.015625)"/>
        <path id="ArialMT-30" d="M 266 2259 
Q 266 3072 433 3567 
Q 600 4063 929 4331 
Q 1259 4600 1759 4600 
Q 2128 4600 2406 4451 
Q 2684 4303 2865 4023 
Q 3047 3744 3150 3342 
Q 3253 2941 3253 2259 
Q 3253 1453 3087 958 
Q 2922 463 2592 192 
Q 2263 -78 1759 -78 
Q 1097 -78 719 397 
Q 266 969 266 2259 
z
M 844 2259 
Q 844 1131 1108 757 
Q 1372 384 1759 384 
Q 2147 384 2411 759 
Q 2675 1134 2675 2259 
Q 2675 3391 2411 3762 
Q 2147 4134 1753 4134 
Q 1366 4134 1134 3806 
Q 844 3388 844 2259 
z
" transform="scale(0.015625)"/>
       </defs>
       <use xlink:href="#ArialMT-32"/>
       <use xlink:href="#ArialMT-30" x="55.615234"/>
      </g>
     </g>
    </g>
    <g id="xtick_2">
     <g id="text_2">
      <!-- 30 -->
      <g style="fill: #262626" transform="translate(442.757969 337.773594) scale(0.11 -0.11)">
       <defs>
        <path id="ArialMT-33" d="M 269 1209 
L 831 1284 
Q 928 806 1161 595 
Q 1394 384 1728 384 
Q 2125 384 2398 659 
Q 2672 934 2672 1341 
Q 2672 1728 2419 1979 
Q 2166 2231 1775 2231 
Q 1616 2231 1378 2169 
L 1441 2663 
Q 1497 2656 1531 2656 
Q 1891 2656 2178 2843 
Q 2466 3031 2466 3422 
Q 2466 3731 2256 3934 
Q 2047 4138 1716 4138 
Q 1388 4138 1169 3931 
Q 950 3725 888 3313 
L 325 3413 
Q 428 3978 793 4289 
Q 1159 4600 1703 4600 
Q 2078 4600 2393 4439 
Q 2709 4278 2876 4000 
Q 3044 3722 3044 3409 
Q 3044 3113 2884 2869 
Q 2725 2625 2413 2481 
Q 2819 2388 3044 2092 
Q 3269 1797 3269 1353 
Q 3269 753 2831 336 
Q 2394 -81 1725 -81 
Q 1122 -81 723 278 
Q 325 638 269 1209 
z
" transform="scale(0.015625)"/>
       </defs>
       <use xlink:href="#ArialMT-33"/>
       <use xlink:href="#ArialMT-30" x="55.615234"/>
      </g>
     </g>
    </g>
    <g id="xtick_3">
     <g id="text_3">
      <!-- 40 -->
      <g style="fill: #262626" transform="translate(652.007969 337.773594) scale(0.11 -0.11)">
       <defs>
        <path id="ArialMT-34" d="M 2069 0 
L 2069 1097 
L 81 1097 
L 81 1613 
L 2172 4581 
L 2631 4581 
L 2631 1613 
L 3250 1613 
L 3250 1097 
L 2631 1097 
L 2631 0 
L 2069 0 
z
M 2069 1613 
L 2069 3678 
L 634 1613 
L 2069 1613 
z
" transform="scale(0.015625)"/>
       </defs>
       <use xlink:href="#ArialMT-34"/>
       <use xlink:href="#ArialMT-30" x="55.615234"/>
      </g>
     </g>
    </g>
    <g id="xtick_4">
     <g id="text_4">
      <!-- 50 -->
      <g style="fill: #262626" transform="translate(861.257969 337.773594) scale(0.11 -0.11)">
       <defs>
        <path id="ArialMT-35" d="M 266 1200 
L 856 1250 
Q 922 819 1161 601 
Q 1400 384 1738 384 
Q 2144 384 2425 690 
Q 2706 997 2706 1503 
Q 2706 1984 2436 2262 
Q 2166 2541 1728 2541 
Q 1456 2541 1237 2417 
Q 1019 2294 894 2097 
L 366 2166 
L 809 4519 
L 3088 4519 
L 3088 3981 
L 1259 3981 
L 1013 2750 
Q 1425 3038 1878 3038 
Q 2478 3038 2890 2622 
Q 3303 2206 3303 1553 
Q 3303 931 2941 478 
Q 2500 -78 1738 -78 
Q 1113 -78 717 272 
Q 322 622 266 1200 
z
" transform="scale(0.015625)"/>
       </defs>
       <use xlink:href="#ArialMT-35"/>
       <use xlink:href="#ArialMT-30" x="55.615234"/>
      </g>
     </g>
    </g>
    <g id="text_5">
     <!-- Stimulation Frequency (Hz) -->
     <g style="fill: #262626" transform="translate(480.812813 352.695469) scale(0.12 -0.12)">
      <defs>
       <path id="ArialMT-53" d="M 288 1472 
L 859 1522 
Q 900 1178 1048 958 
Q 1197 738 1509 602 
Q 1822 466 2213 466 
Q 2559 466 2825 569 
Q 3091 672 3220 851 
Q 3350 1031 3350 1244 
Q 3350 1459 3225 1620 
Q 3100 1781 2813 1891 
Q 2628 1963 1997 2114 
Q 1366 2266 1113 2400 
Q 784 2572 623 2826 
Q 463 3081 463 3397 
Q 463 3744 659 4045 
Q 856 4347 1234 4503 
Q 1613 4659 2075 4659 
Q 2584 4659 2973 4495 
Q 3363 4331 3572 4012 
Q 3781 3694 3797 3291 
L 3216 3247 
Q 3169 3681 2898 3903 
Q 2628 4125 2100 4125 
Q 1550 4125 1298 3923 
Q 1047 3722 1047 3438 
Q 1047 3191 1225 3031 
Q 1400 2872 2139 2705 
Q 2878 2538 3153 2413 
Q 3553 2228 3743 1945 
Q 3934 1663 3934 1294 
Q 3934 928 3725 604 
Q 3516 281 3123 101 
Q 2731 -78 2241 -78 
Q 1619 -78 1198 103 
Q 778 284 539 648 
Q 300 1013 288 1472 
z
" transform="scale(0.015625)"/>
       <path id="ArialMT-74" d="M 1650 503 
L 1731 6 
Q 1494 -44 1306 -44 
Q 1000 -44 831 53 
Q 663 150 594 308 
Q 525 466 525 972 
L 525 2881 
L 113 2881 
L 113 3319 
L 525 3319 
L 525 4141 
L 1084 4478 
L 1084 3319 
L 1650 3319 
L 1650 2881 
L 1084 2881 
L 1084 941 
Q 1084 700 1114 631 
Q 1144 563 1211 522 
Q 1278 481 1403 481 
Q 1497 481 1650 503 
z
" transform="scale(0.015625)"/>
       <path id="ArialMT-69" d="M 425 3934 
L 425 4581 
L 988 4581 
L 988 3934 
L 425 3934 
z
M 425 0 
L 425 3319 
L 988 3319 
L 988 0 
L 425 0 
z
" transform="scale(0.015625)"/>
       <path id="ArialMT-6d" d="M 422 0 
L 422 3319 
L 925 3319 
L 925 2853 
Q 1081 3097 1340 3245 
Q 1600 3394 1931 3394 
Q 2300 3394 2536 3241 
Q 2772 3088 2869 2813 
Q 3263 3394 3894 3394 
Q 4388 3394 4653 3120 
Q 4919 2847 4919 2278 
L 4919 0 
L 4359 0 
L 4359 2091 
Q 4359 2428 4304 2576 
Q 4250 2725 4106 2815 
Q 3963 2906 3769 2906 
Q 3419 2906 3187 2673 
Q 2956 2441 2956 1928 
L 2956 0 
L 2394 0 
L 2394 2156 
Q 2394 2531 2256 2718 
Q 2119 2906 1806 2906 
Q 1569 2906 1367 2781 
Q 1166 2656 1075 2415 
Q 984 2175 984 1722 
L 984 0 
L 422 0 
z
" transform="scale(0.015625)"/>
       <path id="ArialMT-75" d="M 2597 0 
L 2597 488 
Q 2209 -75 1544 -75 
Q 1250 -75 995 37 
Q 741 150 617 320 
Q 494 491 444 738 
Q 409 903 409 1263 
L 409 3319 
L 972 3319 
L 972 1478 
Q 972 1038 1006 884 
Q 1059 663 1231 536 
Q 1403 409 1656 409 
Q 1909 409 2131 539 
Q 2353 669 2445 892 
Q 2538 1116 2538 1541 
L 2538 3319 
L 3100 3319 
L 3100 0 
L 2597 0 
z
" transform="scale(0.015625)"/>
       <path id="ArialMT-6c" d="M 409 0 
L 409 4581 
L 972 4581 
L 972 0 
L 409 0 
z
" transform="scale(0.015625)"/>
       <path id="ArialMT-61" d="M 2588 409 
Q 2275 144 1986 34 
Q 1697 -75 1366 -75 
Q 819 -75 525 192 
Q 231 459 231 875 
Q 231 1119 342 1320 
Q 453 1522 633 1644 
Q 813 1766 1038 1828 
Q 1203 1872 1538 1913 
Q 2219 1994 2541 2106 
Q 2544 2222 2544 2253 
Q 2544 2597 2384 2738 
Q 2169 2928 1744 2928 
Q 1347 2928 1158 2789 
Q 969 2650 878 2297 
L 328 2372 
Q 403 2725 575 2942 
Q 747 3159 1072 3276 
Q 1397 3394 1825 3394 
Q 2250 3394 2515 3294 
Q 2781 3194 2906 3042 
Q 3031 2891 3081 2659 
Q 3109 2516 3109 2141 
L 3109 1391 
Q 3109 606 3145 398 
Q 3181 191 3288 0 
L 2700 0 
Q 2613 175 2588 409 
z
M 2541 1666 
Q 2234 1541 1622 1453 
Q 1275 1403 1131 1340 
Q 988 1278 909 1158 
Q 831 1038 831 891 
Q 831 666 1001 516 
Q 1172 366 1500 366 
Q 1825 366 2078 508 
Q 2331 650 2450 897 
Q 2541 1088 2541 1459 
L 2541 1666 
z
" transform="scale(0.015625)"/>
       <path id="ArialMT-6f" d="M 213 1659 
Q 213 2581 725 3025 
Q 1153 3394 1769 3394 
Q 2453 3394 2887 2945 
Q 3322 2497 3322 1706 
Q 3322 1066 3130 698 
Q 2938 331 2570 128 
Q 2203 -75 1769 -75 
Q 1072 -75 642 372 
Q 213 819 213 1659 
z
M 791 1659 
Q 791 1022 1069 705 
Q 1347 388 1769 388 
Q 2188 388 2466 706 
Q 2744 1025 2744 1678 
Q 2744 2294 2464 2611 
Q 2184 2928 1769 2928 
Q 1347 2928 1069 2612 
Q 791 2297 791 1659 
z
" transform="scale(0.015625)"/>
       <path id="ArialMT-6e" d="M 422 0 
L 422 3319 
L 928 3319 
L 928 2847 
Q 1294 3394 1984 3394 
Q 2284 3394 2536 3286 
Q 2788 3178 2913 3003 
Q 3038 2828 3088 2588 
Q 3119 2431 3119 2041 
L 3119 0 
L 2556 0 
L 2556 2019 
Q 2556 2363 2490 2533 
Q 2425 2703 2258 2804 
Q 2091 2906 1866 2906 
Q 1506 2906 1245 2678 
Q 984 2450 984 1813 
L 984 0 
L 422 0 
z
" transform="scale(0.015625)"/>
       <path id="ArialMT-20" transform="scale(0.015625)"/>
       <path id="ArialMT-46" d="M 525 0 
L 525 4581 
L 3616 4581 
L 3616 4041 
L 1131 4041 
L 1131 2622 
L 3281 2622 
L 3281 2081 
L 1131 2081 
L 1131 0 
L 525 0 
z
" transform="scale(0.015625)"/>
       <path id="ArialMT-72" d="M 416 0 
L 416 3319 
L 922 3319 
L 922 2816 
Q 1116 3169 1280 3281 
Q 1444 3394 1641 3394 
Q 1925 3394 2219 3213 
L 2025 2691 
Q 1819 2813 1613 2813 
Q 1428 2813 1281 2702 
Q 1134 2591 1072 2394 
Q 978 2094 978 1738 
L 978 0 
L 416 0 
z
" transform="scale(0.015625)"/>
       <path id="ArialMT-65" d="M 2694 1069 
L 3275 997 
Q 3138 488 2766 206 
Q 2394 -75 1816 -75 
Q 1088 -75 661 373 
Q 234 822 234 1631 
Q 234 2469 665 2931 
Q 1097 3394 1784 3394 
Q 2450 3394 2872 2941 
Q 3294 2488 3294 1666 
Q 3294 1616 3291 1516 
L 816 1516 
Q 847 969 1125 678 
Q 1403 388 1819 388 
Q 2128 388 2347 550 
Q 2566 713 2694 1069 
z
M 847 1978 
L 2700 1978 
Q 2663 2397 2488 2606 
Q 2219 2931 1791 2931 
Q 1403 2931 1139 2672 
Q 875 2413 847 1978 
z
" transform="scale(0.015625)"/>
       <path id="ArialMT-71" d="M 2538 -1272 
L 2538 353 
Q 2406 169 2170 47 
Q 1934 -75 1669 -75 
Q 1078 -75 651 397 
Q 225 869 225 1691 
Q 225 2191 398 2587 
Q 572 2984 901 3189 
Q 1231 3394 1625 3394 
Q 2241 3394 2594 2875 
L 2594 3319 
L 3100 3319 
L 3100 -1272 
L 2538 -1272 
z
M 803 1669 
Q 803 1028 1072 708 
Q 1341 388 1716 388 
Q 2075 388 2334 692 
Q 2594 997 2594 1619 
Q 2594 2281 2320 2615 
Q 2047 2950 1678 2950 
Q 1313 2950 1058 2639 
Q 803 2328 803 1669 
z
" transform="scale(0.015625)"/>
       <path id="ArialMT-63" d="M 2588 1216 
L 3141 1144 
Q 3050 572 2676 248 
Q 2303 -75 1759 -75 
Q 1078 -75 664 370 
Q 250 816 250 1647 
Q 250 2184 428 2587 
Q 606 2991 970 3192 
Q 1334 3394 1763 3394 
Q 2303 3394 2647 3120 
Q 2991 2847 3088 2344 
L 2541 2259 
Q 2463 2594 2264 2762 
Q 2066 2931 1784 2931 
Q 1359 2931 1093 2626 
Q 828 2322 828 1663 
Q 828 994 1084 691 
Q 1341 388 1753 388 
Q 2084 388 2306 591 
Q 2528 794 2588 1216 
z
" transform="scale(0.015625)"/>
       <path id="ArialMT-79" d="M 397 -1278 
L 334 -750 
Q 519 -800 656 -800 
Q 844 -800 956 -737 
Q 1069 -675 1141 -563 
Q 1194 -478 1313 -144 
Q 1328 -97 1363 -6 
L 103 3319 
L 709 3319 
L 1400 1397 
Q 1534 1031 1641 628 
Q 1738 1016 1872 1384 
L 2581 3319 
L 3144 3319 
L 1881 -56 
Q 1678 -603 1566 -809 
Q 1416 -1088 1222 -1217 
Q 1028 -1347 759 -1347 
Q 597 -1347 397 -1278 
z
" transform="scale(0.015625)"/>
       <path id="ArialMT-28" d="M 1497 -1347 
Q 1031 -759 709 28 
Q 388 816 388 1659 
Q 388 2403 628 3084 
Q 909 3875 1497 4659 
L 1900 4659 
Q 1522 4009 1400 3731 
Q 1209 3300 1100 2831 
Q 966 2247 966 1656 
Q 966 153 1900 -1347 
L 1497 -1347 
z
" transform="scale(0.015625)"/>
       <path id="ArialMT-48" d="M 513 0 
L 513 4581 
L 1119 4581 
L 1119 2700 
L 3500 2700 
L 3500 4581 
L 4106 4581 
L 4106 0 
L 3500 0 
L 3500 2159 
L 1119 2159 
L 1119 0 
L 513 0 
z
" transform="scale(0.015625)"/>
       <path id="ArialMT-7a" d="M 125 0 
L 125 456 
L 2238 2881 
Q 1878 2863 1603 2863 
L 250 2863 
L 250 3319 
L 2963 3319 
L 2963 2947 
L 1166 841 
L 819 456 
Q 1197 484 1528 484 
L 3063 484 
L 3063 0 
L 125 0 
z
" transform="scale(0.015625)"/>
       <path id="ArialMT-29" d="M 791 -1347 
L 388 -1347 
Q 1322 153 1322 1656 
Q 1322 2244 1188 2822 
Q 1081 3291 891 3722 
Q 769 4003 388 4659 
L 791 4659 
Q 1378 3875 1659 3084 
Q 1900 2403 1900 1659 
Q 1900 816 1576 28 
Q 1253 -759 791 -1347 
z
" transform="scale(0.015625)"/>
      </defs>
      <use xlink:href="#ArialMT-53"/>
      <use xlink:href="#ArialMT-74" x="66.699219"/>
      <use xlink:href="#ArialMT-69" x="94.482422"/>
      <use xlink:href="#ArialMT-6d" x="116.699219"/>
      <use xlink:href="#ArialMT-75" x="200"/>
      <use xlink:href="#ArialMT-6c" x="255.615234"/>
      <use xlink:href="#ArialMT-61" x="277.832031"/>
      <use xlink:href="#ArialMT-74" x="333.447266"/>
      <use xlink:href="#ArialMT-69" x="361.230469"/>
      <use xlink:href="#ArialMT-6f" x="383.447266"/>
      <use xlink:href="#ArialMT-6e" x="439.0625"/>
      <use xlink:href="#ArialMT-20" x="494.677734"/>
      <use xlink:href="#ArialMT-46" x="522.460938"/>
      <use xlink:href="#ArialMT-72" x="583.544922"/>
      <use xlink:href="#ArialMT-65" x="616.845703"/>
      <use xlink:href="#ArialMT-71" x="672.460938"/>
      <use xlink:href="#ArialMT-75" x="728.076172"/>
      <use xlink:href="#ArialMT-65" x="783.691406"/>
      <use xlink:href="#ArialMT-6e" x="839.306641"/>
      <use xlink:href="#ArialMT-63" x="894.921875"/>
      <use xlink:href="#ArialMT-79" x="944.921875"/>
      <use xlink:href="#ArialMT-20" x="994.921875"/>
      <use xlink:href="#ArialMT-28" x="1022.705078"/>
      <use xlink:href="#ArialMT-48" x="1056.005859"/>
      <use xlink:href="#ArialMT-7a" x="1128.222656"/>
      <use xlink:href="#ArialMT-29" x="1178.222656"/>
     </g>
    </g>
   </g>
   <g id="matplotlib.axis_2">
    <g id="ytick_1">
     <g id="line2d_1">
      <path d="M 135 292.68 
L 972 292.68 
" clip-path="url(#p2817d685ca)" style="fill: none; stroke: #cccccc; stroke-linecap: round"/>
     </g>
     <g id="text_6">
      <!-- 0 -->
      <g style="fill: #262626" transform="translate(119.382969 296.616797) scale(0.11 -0.11)">
       <use xlink:href="#ArialMT-30"/>
      </g>
     </g>
    </g>
    <g id="ytick_2">
     <g id="line2d_2">
      <path d="M 135 237.24 
L 972 237.24 
" clip-path="url(#p2817d685ca)" style="fill: none; stroke: #cccccc; stroke-linecap: round"/>
     </g>
     <g id="text_7">
      <!-- 2 -->
      <g style="fill: #262626" transform="translate(119.382969 241.176797) scale(0.11 -0.11)">
       <use xlink:href="#ArialMT-32"/>
      </g>
     </g>
    </g>
    <g id="ytick_3">
     <g id="line2d_3">
      <path d="M 135 181.8 
L 972 181.8 
" clip-path="url(#p2817d685ca)" style="fill: none; stroke: #cccccc; stroke-linecap: round"/>
     </g>
     <g id="text_8">
      <!-- 4 -->
      <g style="fill: #262626" transform="translate(119.382969 185.736797) scale(0.11 -0.11)">
       <use xlink:href="#ArialMT-34"/>
      </g>
     </g>
    </g>
    <g id="ytick_4">
     <g id="line2d_4">
      <path d="M 135 126.36 
L 972 126.36 
" clip-path="url(#p2817d685ca)" style="fill: none; stroke: #cccccc; stroke-linecap: round"/>
     </g>
     <g id="text_9">
      <!-- 6 -->
      <g style="fill: #262626" transform="translate(119.382969 130.296797) scale(0.11 -0.11)">
       <defs>
        <path id="ArialMT-36" d="M 3184 3459 
L 2625 3416 
Q 2550 3747 2413 3897 
Q 2184 4138 1850 4138 
Q 1581 4138 1378 3988 
Q 1113 3794 959 3422 
Q 806 3050 800 2363 
Q 1003 2672 1297 2822 
Q 1591 2972 1913 2972 
Q 2475 2972 2870 2558 
Q 3266 2144 3266 1488 
Q 3266 1056 3080 686 
Q 2894 316 2569 119 
Q 2244 -78 1831 -78 
Q 1128 -78 684 439 
Q 241 956 241 2144 
Q 241 3472 731 4075 
Q 1159 4600 1884 4600 
Q 2425 4600 2770 4297 
Q 3116 3994 3184 3459 
z
M 888 1484 
Q 888 1194 1011 928 
Q 1134 663 1356 523 
Q 1578 384 1822 384 
Q 2178 384 2434 671 
Q 2691 959 2691 1453 
Q 2691 1928 2437 2201 
Q 2184 2475 1800 2475 
Q 1419 2475 1153 2201 
Q 888 1928 888 1484 
z
" transform="scale(0.015625)"/>
       </defs>
       <use xlink:href="#ArialMT-36"/>
      </g>
     </g>
    </g>
    <g id="ytick_5">
     <g id="line2d_5">
      <path d="M 135 70.92 
L 972 70.92 
" clip-path="url(#p2817d685ca)" style="fill: none; stroke: #cccccc; stroke-linecap: round"/>
     </g>
     <g id="text_10">
      <!-- 8 -->
      <g style="fill: #262626" transform="translate(119.382969 74.856797) scale(0.11 -0.11)">
       <defs>
        <path id="ArialMT-38" d="M 1131 2484 
Q 781 2613 612 2850 
Q 444 3088 444 3419 
Q 444 3919 803 4259 
Q 1163 4600 1759 4600 
Q 2359 4600 2725 4251 
Q 3091 3903 3091 3403 
Q 3091 3084 2923 2848 
Q 2756 2613 2416 2484 
Q 2838 2347 3058 2040 
Q 3278 1734 3278 1309 
Q 3278 722 2862 322 
Q 2447 -78 1769 -78 
Q 1091 -78 675 323 
Q 259 725 259 1325 
Q 259 1772 486 2073 
Q 713 2375 1131 2484 
z
M 1019 3438 
Q 1019 3113 1228 2906 
Q 1438 2700 1772 2700 
Q 2097 2700 2305 2904 
Q 2513 3109 2513 3406 
Q 2513 3716 2298 3927 
Q 2084 4138 1766 4138 
Q 1444 4138 1231 3931 
Q 1019 3725 1019 3438 
z
M 838 1322 
Q 838 1081 952 856 
Q 1066 631 1291 507 
Q 1516 384 1775 384 
Q 2178 384 2440 643 
Q 2703 903 2703 1303 
Q 2703 1709 2433 1975 
Q 2163 2241 1756 2241 
Q 1359 2241 1098 1978 
Q 838 1716 838 1322 
z
" transform="scale(0.015625)"/>
       </defs>
       <use xlink:href="#ArialMT-38"/>
      </g>
     </g>
    </g>
    <g id="text_11">
     <!-- Location of Max Response in the sweep (peak #) -->
     <g style="fill: #262626" transform="translate(112.857344 311.865937) rotate(-90) scale(0.12 -0.12)">
      <defs>
       <path id="ArialMT-4c" d="M 469 0 
L 469 4581 
L 1075 4581 
L 1075 541 
L 3331 541 
L 3331 0 
L 469 0 
z
" transform="scale(0.015625)"/>
       <path id="ArialMT-66" d="M 556 0 
L 556 2881 
L 59 2881 
L 59 3319 
L 556 3319 
L 556 3672 
Q 556 4006 616 4169 
Q 697 4388 901 4523 
Q 1106 4659 1475 4659 
Q 1713 4659 2000 4603 
L 1916 4113 
Q 1741 4144 1584 4144 
Q 1328 4144 1222 4034 
Q 1116 3925 1116 3625 
L 1116 3319 
L 1763 3319 
L 1763 2881 
L 1116 2881 
L 1116 0 
L 556 0 
z
" transform="scale(0.015625)"/>
       <path id="ArialMT-4d" d="M 475 0 
L 475 4581 
L 1388 4581 
L 2472 1338 
Q 2622 884 2691 659 
Q 2769 909 2934 1394 
L 4031 4581 
L 4847 4581 
L 4847 0 
L 4263 0 
L 4263 3834 
L 2931 0 
L 2384 0 
L 1059 3900 
L 1059 0 
L 475 0 
z
" transform="scale(0.015625)"/>
       <path id="ArialMT-78" d="M 47 0 
L 1259 1725 
L 138 3319 
L 841 3319 
L 1350 2541 
Q 1494 2319 1581 2169 
Q 1719 2375 1834 2534 
L 2394 3319 
L 3066 3319 
L 1919 1756 
L 3153 0 
L 2463 0 
L 1781 1031 
L 1600 1309 
L 728 0 
L 47 0 
z
" transform="scale(0.015625)"/>
       <path id="ArialMT-52" d="M 503 0 
L 503 4581 
L 2534 4581 
Q 3147 4581 3465 4457 
Q 3784 4334 3975 4021 
Q 4166 3709 4166 3331 
Q 4166 2844 3850 2509 
Q 3534 2175 2875 2084 
Q 3116 1969 3241 1856 
Q 3506 1613 3744 1247 
L 4541 0 
L 3778 0 
L 3172 953 
Q 2906 1366 2734 1584 
Q 2563 1803 2427 1890 
Q 2291 1978 2150 2013 
Q 2047 2034 1813 2034 
L 1109 2034 
L 1109 0 
L 503 0 
z
M 1109 2559 
L 2413 2559 
Q 2828 2559 3062 2645 
Q 3297 2731 3419 2920 
Q 3541 3109 3541 3331 
Q 3541 3656 3305 3865 
Q 3069 4075 2559 4075 
L 1109 4075 
L 1109 2559 
z
" transform="scale(0.015625)"/>
       <path id="ArialMT-73" d="M 197 991 
L 753 1078 
Q 800 744 1014 566 
Q 1228 388 1613 388 
Q 2000 388 2187 545 
Q 2375 703 2375 916 
Q 2375 1106 2209 1216 
Q 2094 1291 1634 1406 
Q 1016 1563 777 1677 
Q 538 1791 414 1992 
Q 291 2194 291 2438 
Q 291 2659 392 2848 
Q 494 3038 669 3163 
Q 800 3259 1026 3326 
Q 1253 3394 1513 3394 
Q 1903 3394 2198 3281 
Q 2494 3169 2634 2976 
Q 2775 2784 2828 2463 
L 2278 2388 
Q 2241 2644 2061 2787 
Q 1881 2931 1553 2931 
Q 1166 2931 1000 2803 
Q 834 2675 834 2503 
Q 834 2394 903 2306 
Q 972 2216 1119 2156 
Q 1203 2125 1616 2013 
Q 2213 1853 2448 1751 
Q 2684 1650 2818 1456 
Q 2953 1263 2953 975 
Q 2953 694 2789 445 
Q 2625 197 2315 61 
Q 2006 -75 1616 -75 
Q 969 -75 630 194 
Q 291 463 197 991 
z
" transform="scale(0.015625)"/>
       <path id="ArialMT-70" d="M 422 -1272 
L 422 3319 
L 934 3319 
L 934 2888 
Q 1116 3141 1344 3267 
Q 1572 3394 1897 3394 
Q 2322 3394 2647 3175 
Q 2972 2956 3137 2557 
Q 3303 2159 3303 1684 
Q 3303 1175 3120 767 
Q 2938 359 2589 142 
Q 2241 -75 1856 -75 
Q 1575 -75 1351 44 
Q 1128 163 984 344 
L 984 -1272 
L 422 -1272 
z
M 931 1641 
Q 931 1000 1190 694 
Q 1450 388 1819 388 
Q 2194 388 2461 705 
Q 2728 1022 2728 1688 
Q 2728 2322 2467 2637 
Q 2206 2953 1844 2953 
Q 1484 2953 1207 2617 
Q 931 2281 931 1641 
z
" transform="scale(0.015625)"/>
       <path id="ArialMT-68" d="M 422 0 
L 422 4581 
L 984 4581 
L 984 2938 
Q 1378 3394 1978 3394 
Q 2347 3394 2619 3248 
Q 2891 3103 3008 2847 
Q 3125 2591 3125 2103 
L 3125 0 
L 2563 0 
L 2563 2103 
Q 2563 2525 2380 2717 
Q 2197 2909 1863 2909 
Q 1613 2909 1392 2779 
Q 1172 2650 1078 2428 
Q 984 2206 984 1816 
L 984 0 
L 422 0 
z
" transform="scale(0.015625)"/>
       <path id="ArialMT-77" d="M 1034 0 
L 19 3319 
L 600 3319 
L 1128 1403 
L 1325 691 
Q 1338 744 1497 1375 
L 2025 3319 
L 2603 3319 
L 3100 1394 
L 3266 759 
L 3456 1400 
L 4025 3319 
L 4572 3319 
L 3534 0 
L 2950 0 
L 2422 1988 
L 2294 2553 
L 1622 0 
L 1034 0 
z
" transform="scale(0.015625)"/>
       <path id="ArialMT-6b" d="M 425 0 
L 425 4581 
L 988 4581 
L 988 1969 
L 2319 3319 
L 3047 3319 
L 1778 2088 
L 3175 0 
L 2481 0 
L 1384 1697 
L 988 1316 
L 988 0 
L 425 0 
z
" transform="scale(0.015625)"/>
       <path id="ArialMT-23" d="M 322 -78 
L 594 1253 
L 66 1253 
L 66 1719 
L 688 1719 
L 919 2853 
L 66 2853 
L 66 3319 
L 1013 3319 
L 1284 4659 
L 1753 4659 
L 1481 3319 
L 2466 3319 
L 2738 4659 
L 3209 4659 
L 2938 3319 
L 3478 3319 
L 3478 2853 
L 2844 2853 
L 2609 1719 
L 3478 1719 
L 3478 1253 
L 2516 1253 
L 2244 -78 
L 1775 -78 
L 2044 1253 
L 1063 1253 
L 791 -78 
L 322 -78 
z
M 1156 1719 
L 2138 1719 
L 2372 2853 
L 1388 2853 
L 1156 1719 
z
" transform="scale(0.015625)"/>
      </defs>
      <use xlink:href="#ArialMT-4c"/>
      <use xlink:href="#ArialMT-6f" x="55.615234"/>
      <use xlink:href="#ArialMT-63" x="111.230469"/>
      <use xlink:href="#ArialMT-61" x="161.230469"/>
      <use xlink:href="#ArialMT-74" x="216.845703"/>
      <use xlink:href="#ArialMT-69" x="244.628906"/>
      <use xlink:href="#ArialMT-6f" x="266.845703"/>
      <use xlink:href="#ArialMT-6e" x="322.460938"/>
      <use xlink:href="#ArialMT-20" x="378.076172"/>
      <use xlink:href="#ArialMT-6f" x="405.859375"/>
      <use xlink:href="#ArialMT-66" x="461.474609"/>
      <use xlink:href="#ArialMT-20" x="489.257812"/>
      <use xlink:href="#ArialMT-4d" x="517.041016"/>
      <use xlink:href="#ArialMT-61" x="600.341797"/>
      <use xlink:href="#ArialMT-78" x="655.957031"/>
      <use xlink:href="#ArialMT-20" x="705.957031"/>
      <use xlink:href="#ArialMT-52" x="733.740234"/>
      <use xlink:href="#ArialMT-65" x="805.957031"/>
      <use xlink:href="#ArialMT-73" x="861.572266"/>
      <use xlink:href="#ArialMT-70" x="911.572266"/>
      <use xlink:href="#ArialMT-6f" x="967.1875"/>
      <use xlink:href="#ArialMT-6e" x="1022.802734"/>
      <use xlink:href="#ArialMT-73" x="1078.417969"/>
      <use xlink:href="#ArialMT-65" x="1128.417969"/>
      <use xlink:href="#ArialMT-20" x="1184.033203"/>
      <use xlink:href="#ArialMT-69" x="1211.816406"/>
      <use xlink:href="#ArialMT-6e" x="1234.033203"/>
      <use xlink:href="#ArialMT-20" x="1289.648438"/>
      <use xlink:href="#ArialMT-74" x="1317.431641"/>
      <use xlink:href="#ArialMT-68" x="1345.214844"/>
      <use xlink:href="#ArialMT-65" x="1400.830078"/>
      <use xlink:href="#ArialMT-20" x="1456.445312"/>
      <use xlink:href="#ArialMT-73" x="1484.228516"/>
      <use xlink:href="#ArialMT-77" x="1534.228516"/>
      <use xlink:href="#ArialMT-65" x="1606.445312"/>
      <use xlink:href="#ArialMT-65" x="1662.060547"/>
      <use xlink:href="#ArialMT-70" x="1717.675781"/>
      <use xlink:href="#ArialMT-20" x="1773.291016"/>
      <use xlink:href="#ArialMT-28" x="1801.074219"/>
      <use xlink:href="#ArialMT-70" x="1834.375"/>
      <use xlink:href="#ArialMT-65" x="1889.990234"/>
      <use xlink:href="#ArialMT-61" x="1945.605469"/>
      <use xlink:href="#ArialMT-6b" x="2001.220703"/>
      <use xlink:href="#ArialMT-20" x="2051.220703"/>
      <use xlink:href="#ArialMT-23" x="2079.003906"/>
      <use xlink:href="#ArialMT-29" x="2134.619141"/>
     </g>
    </g>
   </g>
   <g id="PolyCollection_1">
    <defs>
     <path id="m6e67649961" d="M 200.487691 -19.125562 
L 195.062309 -19.125562 
L 194.337035 -22.059187 
L 193.481297 -24.992812 
L 192.49049 -27.926437 
L 191.365331 -30.860062 
L 190.112968 -33.793687 
L 188.747783 -36.727312 
L 187.291773 -39.660937 
L 185.774361 -42.594562 
L 184.231589 -45.528187 
L 182.704634 -48.461812 
L 181.237729 -51.395437 
L 179.87558 -54.329062 
L 178.660496 -57.262687 
L 177.629462 -60.196312 
L 176.811428 -63.129937 
L 176.225113 -66.063562 
L 175.877526 -68.997187 
L 175.763419 -71.930812 
L 175.865733 -74.864437 
L 176.157034 -77.798062 
L 176.601813 -80.731687 
L 177.159443 -83.665312 
L 177.787508 -86.598937 
L 178.445191 -89.532562 
L 179.096385 -92.466187 
L 179.712264 -95.399812 
L 180.273066 -98.333437 
L 180.768959 -101.267062 
L 181.199958 -104.200687 
L 181.574939 -107.134312 
L 181.909898 -110.067937 
L 182.225674 -113.001562 
L 182.545379 -115.935187 
L 182.891818 -118.868812 
L 183.285125 -121.802437 
L 183.740856 -124.736062 
L 184.268651 -127.669687 
L 184.871574 -130.603312 
L 185.546113 -133.536937 
L 186.28278 -136.470562 
L 187.067202 -139.404187 
L 187.881534 -142.337812 
L 188.706034 -145.271437 
L 189.52063 -148.205062 
L 190.306345 -151.138687 
L 191.04646 -154.072312 
L 191.727364 -157.005937 
L 192.339053 -159.939562 
L 192.8753 -162.873187 
L 193.333538 -165.806813 
L 193.714518 -168.740438 
L 194.021813 -171.674063 
L 194.261232 -174.607688 
L 194.440215 -177.541313 
L 194.567247 -180.474938 
L 194.651326 -183.408563 
L 194.701505 -186.342188 
L 194.726521 -189.275813 
L 194.73449 -192.209438 
L 194.732689 -195.143063 
L 194.727396 -198.076688 
L 194.723796 -201.010313 
L 194.725934 -203.943938 
L 194.736726 -206.877563 
L 194.75801 -209.811188 
L 194.790643 -212.744813 
L 194.834636 -215.678438 
L 194.889316 -218.612063 
L 194.953511 -221.545688 
L 195.025739 -224.479313 
L 195.104395 -227.412938 
L 195.187919 -230.346563 
L 195.274936 -233.280188 
L 195.364355 -236.213813 
L 195.45543 -239.147438 
L 195.54777 -242.081063 
L 195.641309 -245.014688 
L 195.736245 -247.948313 
L 195.832946 -250.881938 
L 195.931845 -253.815563 
L 196.033329 -256.749188 
L 196.137639 -259.682813 
L 196.244792 -262.616438 
L 196.354523 -265.550063 
L 196.466266 -268.483688 
L 196.579164 -271.417313 
L 196.692113 -274.350938 
L 196.803822 -277.284563 
L 196.912907 -280.218188 
L 197.017973 -283.151813 
L 197.117711 -286.085438 
L 197.210973 -289.019063 
L 197.296842 -291.952688 
L 197.374665 -294.886313 
L 197.444077 -297.819938 
L 197.505 -300.753563 
L 197.557611 -303.687188 
L 197.602313 -306.620813 
L 197.639683 -309.554438 
L 197.910317 -309.554438 
L 197.910317 -309.554438 
L 197.947687 -306.620813 
L 197.992389 -303.687188 
L 198.045 -300.753563 
L 198.105923 -297.819938 
L 198.175335 -294.886313 
L 198.253158 -291.952688 
L 198.339027 -289.019063 
L 198.432289 -286.085438 
L 198.532027 -283.151813 
L 198.637093 -280.218188 
L 198.746178 -277.284563 
L 198.857887 -274.350938 
L 198.970836 -271.417313 
L 199.083734 -268.483688 
L 199.195477 -265.550063 
L 199.305208 -262.616438 
L 199.412361 -259.682813 
L 199.516671 -256.749188 
L 199.618155 -253.815563 
L 199.717054 -250.881938 
L 199.813755 -247.948313 
L 199.908691 -245.014688 
L 200.00223 -242.081063 
L 200.09457 -239.147438 
L 200.185645 -236.213813 
L 200.275064 -233.280188 
L 200.362081 -230.346563 
L 200.445605 -227.412938 
L 200.524261 -224.479313 
L 200.596489 -221.545688 
L 200.660684 -218.612063 
L 200.715364 -215.678438 
L 200.759357 -212.744813 
L 200.79199 -209.811188 
L 200.813274 -206.877563 
L 200.824066 -203.943938 
L 200.826204 -201.010313 
L 200.822604 -198.076688 
L 200.817311 -195.143063 
L 200.81551 -192.209438 
L 200.823479 -189.275813 
L 200.848495 -186.342188 
L 200.898674 -183.408563 
L 200.982753 -180.474938 
L 201.109785 -177.541313 
L 201.288768 -174.607688 
L 201.528187 -171.674063 
L 201.835482 -168.740438 
L 202.216462 -165.806813 
L 202.6747 -162.873187 
L 203.210947 -159.939562 
L 203.822636 -157.005937 
L 204.50354 -154.072312 
L 205.243655 -151.138687 
L 206.02937 -148.205062 
L 206.843966 -145.271437 
L 207.668466 -142.337812 
L 208.482798 -139.404187 
L 209.26722 -136.470562 
L 210.003887 -133.536937 
L 210.678426 -130.603312 
L 211.281349 -127.669687 
L 211.809144 -124.736062 
L 212.264875 -121.802437 
L 212.658182 -118.868812 
L 213.004621 -115.935187 
L 213.324326 -113.001562 
L 213.640102 -110.067937 
L 213.975061 -107.134312 
L 214.350042 -104.200687 
L 214.781041 -101.267062 
L 215.276934 -98.333437 
L 215.837736 -95.399812 
L 216.453615 -92.466187 
L 217.104809 -89.532562 
L 217.762492 -86.598937 
L 218.390557 -83.665312 
L 218.948187 -80.731687 
L 219.392966 -77.798062 
L 219.684267 -74.864437 
L 219.786581 -71.930812 
L 219.672474 -68.997187 
L 219.324887 -66.063562 
L 218.738572 -63.129937 
L 217.920538 -60.196312 
L 216.889504 -57.262687 
L 215.67442 -54.329062 
L 214.312271 -51.395437 
L 212.845366 -48.461812 
L 211.318411 -45.528187 
L 209.775639 -42.594562 
L 208.258227 -39.660937 
L 206.802217 -36.727312 
L 205.437032 -33.793687 
L 204.184669 -30.860062 
L 203.05951 -27.926437 
L 202.068703 -24.992812 
L 201.212965 -22.059187 
L 200.487691 -19.125562 
z
" style="stroke: #373737; stroke-width: 1.25"/>
    </defs>
    <g clip-path="url(#p2817d685ca)">
     <use xlink:href="#m6e67649961" x="0" y="360" style="fill: #367182; stroke: #373737; stroke-width: 1.25"/>
    </g>
   </g>
   <g id="PolyCollection_2">
    <defs>
     <path id="mf5e3553b0f" d="M 287.037159 -36.332963 
L 275.912841 -36.332963 
L 274.55005 -38.078963 
L 272.961949 -39.824964 
L 271.141404 -41.570965 
L 269.089362 -43.316966 
L 266.8165 -45.062966 
L 264.344528 -46.808967 
L 261.70698 -48.554968 
L 258.949329 -50.300969 
L 256.128314 -52.046969 
L 253.310398 -53.79297 
L 250.569383 -55.538971 
L 247.983244 -57.284972 
L 245.630372 -59.030973 
L 243.585456 -60.776973 
L 241.915299 -62.522974 
L 240.674892 -64.268975 
L 239.904066 -66.014976 
L 239.625 -67.760976 
L 239.840795 -69.506977 
L 240.535245 -71.252978 
L 241.673806 -72.998979 
L 243.20568 -74.744979 
L 245.066826 -76.49098 
L 247.183632 -78.236981 
L 249.47694 -79.982982 
L 251.866114 -81.728982 
L 254.272847 -83.474983 
L 256.624472 -85.220984 
L 258.856605 -86.966985 
L 260.915017 -88.712985 
L 262.756755 -90.458986 
L 264.350543 -92.204987 
L 265.676597 -93.950988 
L 266.725995 -95.696988 
L 267.49974 -97.442989 
L 268.007671 -99.18899 
L 268.267299 -100.934991 
L 268.302664 -102.680991 
L 268.143214 -104.426992 
L 267.822712 -106.172993 
L 267.378143 -107.918994 
L 266.848569 -109.664994 
L 266.273929 -111.410995 
L 265.693742 -113.156996 
L 265.145752 -114.902997 
L 264.664555 -116.648997 
L 264.280278 -118.394998 
L 264.017399 -120.140999 
L 263.893813 -121.887 
L 263.920223 -123.633 
L 264.099928 -125.379001 
L 264.429035 -127.125002 
L 264.897098 -128.871003 
L 265.488127 -130.617003 
L 266.181896 -132.363004 
L 266.955427 -134.109005 
L 267.784534 -135.855006 
L 268.645304 -137.601006 
L 269.515388 -139.347007 
L 270.375038 -141.093008 
L 271.207812 -142.839009 
L 272.000944 -144.585009 
L 272.745398 -146.33101 
L 273.435634 -148.077011 
L 274.069177 -149.823012 
L 274.646053 -151.569012 
L 275.168171 -153.315013 
L 275.63873 -155.061014 
L 276.061694 -156.807015 
L 276.441383 -158.553015 
L 276.782176 -160.299016 
L 277.08834 -162.045017 
L 277.363949 -163.791018 
L 277.612879 -165.537018 
L 277.838832 -167.283019 
L 278.045376 -169.02902 
L 278.235959 -170.775021 
L 278.413903 -172.521021 
L 278.582354 -174.267022 
L 278.744204 -176.013023 
L 278.902 -177.759024 
L 279.057839 -179.505024 
L 279.213282 -181.251025 
L 279.369296 -182.997026 
L 279.52623 -184.743027 
L 279.683838 -186.489027 
L 279.841344 -188.235028 
L 279.997541 -189.981029 
L 280.150919 -191.72703 
L 280.299805 -193.473031 
L 280.442505 -195.219031 
L 280.577436 -196.965032 
L 280.703231 -198.711033 
L 280.818819 -200.457034 
L 280.923475 -202.203034 
L 281.016836 -203.949035 
L 281.098891 -205.695036 
L 281.169942 -207.441037 
L 281.230559 -209.187037 
L 281.719441 -209.187037 
L 281.719441 -209.187037 
L 281.780058 -207.441037 
L 281.851109 -205.695036 
L 281.933164 -203.949035 
L 282.026525 -202.203034 
L 282.131181 -200.457034 
L 282.246769 -198.711033 
L 282.372564 -196.965032 
L 282.507495 -195.219031 
L 282.650195 -193.473031 
L 282.799081 -191.72703 
L 282.952459 -189.981029 
L 283.108656 -188.235028 
L 283.266162 -186.489027 
L 283.42377 -184.743027 
L 283.580704 -182.997026 
L 283.736718 -181.251025 
L 283.892161 -179.505024 
L 284.048 -177.759024 
L 284.205796 -176.013023 
L 284.367646 -174.267022 
L 284.536097 -172.521021 
L 284.714041 -170.775021 
L 284.904624 -169.02902 
L 285.111168 -167.283019 
L 285.337121 -165.537018 
L 285.586051 -163.791018 
L 285.86166 -162.045017 
L 286.167824 -160.299016 
L 286.508617 -158.553015 
L 286.888306 -156.807015 
L 287.31127 -155.061014 
L 287.781829 -153.315013 
L 288.303947 -151.569012 
L 288.880823 -149.823012 
L 289.514366 -148.077011 
L 290.204602 -146.33101 
L 290.949056 -144.585009 
L 291.742188 -142.839009 
L 292.574962 -141.093008 
L 293.434612 -139.347007 
L 294.304696 -137.601006 
L 295.165466 -135.855006 
L 295.994573 -134.109005 
L 296.768104 -132.363004 
L 297.461873 -130.617003 
L 298.052902 -128.871003 
L 298.520965 -127.125002 
L 298.850072 -125.379001 
L 299.029777 -123.633 
L 299.056187 -121.887 
L 298.932601 -120.140999 
L 298.669722 -118.394998 
L 298.285445 -116.648997 
L 297.804248 -114.902997 
L 297.256258 -113.156996 
L 296.676071 -111.410995 
L 296.101431 -109.664994 
L 295.571857 -107.918994 
L 295.127288 -106.172993 
L 294.806786 -104.426992 
L 294.647336 -102.680991 
L 294.682701 -100.934991 
L 294.942329 -99.18899 
L 295.45026 -97.442989 
L 296.224005 -95.696988 
L 297.273403 -93.950988 
L 298.599457 -92.204987 
L 300.193245 -90.458986 
L 302.034983 -88.712985 
L 304.093395 -86.966985 
L 306.325528 -85.220984 
L 308.677153 -83.474983 
L 311.083886 -81.728982 
L 313.47306 -79.982982 
L 315.766368 -78.236981 
L 317.883174 -76.49098 
L 319.74432 -74.744979 
L 321.276194 -72.998979 
L 322.414755 -71.252978 
L 323.109205 -69.506977 
L 323.325 -67.760976 
L 323.045934 -66.014976 
L 322.275108 -64.268975 
L 321.034701 -62.522974 
L 319.364544 -60.776973 
L 317.319628 -59.030973 
L 314.966756 -57.284972 
L 312.380617 -55.538971 
L 309.639602 -53.79297 
L 306.821686 -52.046969 
L 304.000671 -50.300969 
L 301.24302 -48.554968 
L 298.605472 -46.808967 
L 296.1335 -45.062966 
L 293.860638 -43.316966 
L 291.808596 -41.570965 
L 289.988051 -39.824964 
L 288.39995 -38.078963 
L 287.037159 -36.332963 
z
" style="stroke: #373737; stroke-width: 1.25"/>
    </defs>
    <g clip-path="url(#p2817d685ca)">
     <use xlink:href="#mf5e3553b0f" x="0" y="360" style="fill: #80c161; stroke: #373737; stroke-width: 1.25"/>
    </g>
   </g>
   <g id="PolyCollection_3">
    <defs>
     <path id="m133e4ed456" d="M 409.443644 -25.982819 
L 404.606356 -25.982819 
L 403.959148 -28.497914 
L 403.195054 -31.013008 
L 402.309641 -33.528103 
L 401.303108 -36.043198 
L 400.181247 -38.558292 
L 398.956145 -41.073387 
L 397.646504 -43.588481 
L 396.277478 -46.103576 
L 394.879941 -48.61867 
L 393.489184 -51.133765 
L 392.14306 -53.648859 
L 390.879698 -56.163954 
L 389.734945 -58.679049 
L 388.73973 -61.194143 
L 387.917617 -63.709238 
L 387.282763 -66.224332 
L 386.838502 -68.739427 
L 386.576728 -71.254521 
L 386.478162 -73.769616 
L 386.513529 -76.28471 
L 386.645569 -78.799805 
L 386.831742 -81.3149 
L 387.027427 -83.829994 
L 387.189355 -86.345089 
L 387.279014 -88.860183 
L 387.265761 -91.375278 
L 387.129389 -93.890372 
L 386.861948 -96.405467 
L 386.468667 -98.920562 
L 385.967897 -101.435656 
L 385.390048 -103.950751 
L 384.775592 -106.465845 
L 384.172265 -108.98094 
L 383.631668 -111.496034 
L 383.20553 -114.011129 
L 382.941923 -116.526223 
L 382.881736 -119.041318 
L 383.05571 -121.556413 
L 383.482258 -124.071507 
L 384.166265 -126.586602 
L 385.098944 -129.101696 
L 386.258725 -131.616791 
L 387.613074 -134.131885 
L 389.12104 -136.64698 
L 390.736266 -139.162074 
L 392.410179 -141.677169 
L 394.095075 -144.192264 
L 395.746849 -146.707358 
L 397.32717 -149.222453 
L 398.80499 -151.737547 
L 400.157339 -154.252642 
L 401.369445 -156.767736 
L 402.434261 -159.282831 
L 403.351543 -161.797926 
L 404.126619 -164.31302 
L 404.769009 -166.828115 
L 405.291037 -169.343209 
L 405.706541 -171.858304 
L 406.029758 -174.373398 
L 406.274442 -176.888493 
L 406.453218 -179.403587 
L 406.577176 -181.918682 
L 406.655672 -184.433777 
L 406.696314 -186.948871 
L 406.705076 -189.463966 
L 406.686525 -191.97906 
L 406.644103 -194.494155 
L 406.580453 -197.009249 
L 406.497742 -199.524344 
L 406.397978 -202.039438 
L 406.283282 -204.554533 
L 406.156112 -207.069628 
L 406.01942 -209.584722 
L 405.876724 -212.099817 
L 405.732109 -214.614911 
L 405.590131 -217.130006 
L 405.455657 -219.6451 
L 405.333634 -222.160195 
L 405.228821 -224.67529 
L 405.145497 -227.190384 
L 405.087187 -229.705479 
L 405.05642 -232.220573 
L 405.054552 -234.735668 
L 405.081667 -237.250762 
L 405.136579 -239.765857 
L 405.216911 -242.280951 
L 405.319271 -244.796046 
L 405.439489 -247.311141 
L 405.572896 -249.826235 
L 405.714625 -252.34133 
L 405.859903 -254.856424 
L 406.0043 -257.371519 
L 406.143945 -259.886613 
L 406.275663 -262.401708 
L 406.397057 -264.916802 
L 406.506519 -267.431897 
L 406.603193 -269.946992 
L 406.686885 -272.462086 
L 406.757955 -274.977181 
L 407.292045 -274.977181 
L 407.292045 -274.977181 
L 407.363115 -272.462086 
L 407.446807 -269.946992 
L 407.543481 -267.431897 
L 407.652943 -264.916802 
L 407.774337 -262.401708 
L 407.906055 -259.886613 
L 408.0457 -257.371519 
L 408.190097 -254.856424 
L 408.335375 -252.34133 
L 408.477104 -249.826235 
L 408.610511 -247.311141 
L 408.730729 -244.796046 
L 408.833089 -242.280951 
L 408.913421 -239.765857 
L 408.968333 -237.250762 
L 408.995448 -234.735668 
L 408.99358 -232.220573 
L 408.962813 -229.705479 
L 408.904503 -227.190384 
L 408.821179 -224.67529 
L 408.716366 -222.160195 
L 408.594343 -219.6451 
L 408.459869 -217.130006 
L 408.317891 -214.614911 
L 408.173276 -212.099817 
L 408.03058 -209.584722 
L 407.893888 -207.069628 
L 407.766718 -204.554533 
L 407.652022 -202.039438 
L 407.552258 -199.524344 
L 407.469547 -197.009249 
L 407.405897 -194.494155 
L 407.363475 -191.97906 
L 407.344924 -189.463966 
L 407.353686 -186.948871 
L 407.394328 -184.433777 
L 407.472824 -181.918682 
L 407.596782 -179.403587 
L 407.775558 -176.888493 
L 408.020242 -174.373398 
L 408.343459 -171.858304 
L 408.758963 -169.343209 
L 409.280991 -166.828115 
L 409.923381 -164.31302 
L 410.698457 -161.797926 
L 411.615739 -159.282831 
L 412.680555 -156.767736 
L 413.892661 -154.252642 
L 415.24501 -151.737547 
L 416.72283 -149.222453 
L 418.303151 -146.707358 
L 419.954925 -144.192264 
L 421.639821 -141.677169 
L 423.313734 -139.162074 
L 424.92896 -136.64698 
L 426.436926 -134.131885 
L 427.791275 -131.616791 
L 428.951056 -129.101696 
L 429.883735 -126.586602 
L 430.567742 -124.071507 
L 430.99429 -121.556413 
L 431.168264 -119.041318 
L 431.108077 -116.526223 
L 430.84447 -114.011129 
L 430.418332 -111.496034 
L 429.877735 -108.98094 
L 429.274408 -106.465845 
L 428.659952 -103.950751 
L 428.082103 -101.435656 
L 427.581333 -98.920562 
L 427.188052 -96.405467 
L 426.920611 -93.890372 
L 426.784239 -91.375278 
L 426.770986 -88.860183 
L 426.860645 -86.345089 
L 427.022573 -83.829994 
L 427.218258 -81.3149 
L 427.404431 -78.799805 
L 427.536471 -76.28471 
L 427.571838 -73.769616 
L 427.473272 -71.254521 
L 427.211498 -68.739427 
L 426.767237 -66.224332 
L 426.132383 -63.709238 
L 425.31027 -61.194143 
L 424.315055 -58.679049 
L 423.170302 -56.163954 
L 421.90694 -53.648859 
L 420.560816 -51.133765 
L 419.170059 -48.61867 
L 417.772522 -46.103576 
L 416.403496 -43.588481 
L 415.093855 -41.073387 
L 413.868753 -38.558292 
L 412.746892 -36.043198 
L 411.740359 -33.528103 
L 410.854946 -31.013008 
L 410.090852 -28.497914 
L 409.443644 -25.982819 
z
" style="stroke: #373737; stroke-width: 1.25"/>
    </defs>
    <g clip-path="url(#p2817d685ca)">
     <use xlink:href="#m133e4ed456" x="0" y="360" style="fill: #367182; stroke: #373737; stroke-width: 1.25"/>
    </g>
   </g>
   <g id="PolyCollection_4">
    <defs>
     <path id="mcab4d0bc28" d="M 494.392966 -18.028004 
L 487.057034 -18.028004 
L 486.095653 -20.983802 
L 484.965532 -23.9396 
L 483.661535 -26.895398 
L 482.185509 -29.851196 
L 480.547696 -32.806994 
L 478.767774 -35.762792 
L 476.875362 -38.718589 
L 474.909814 -41.674387 
L 472.919219 -44.630185 
L 470.958554 -47.585983 
L 469.087046 -50.541781 
L 467.364889 -53.497579 
L 465.849536 -56.453377 
L 464.591872 -59.409175 
L 463.632609 -62.364973 
L 462.999251 -65.320771 
L 462.703942 -68.276568 
L 462.742445 -71.232366 
L 463.094376 -74.188164 
L 463.724711 -77.143962 
L 464.58645 -80.09976 
L 465.624193 -83.055558 
L 466.778299 -86.011356 
L 467.989252 -88.967154 
L 469.201815 -91.922952 
L 470.36863 -94.878749 
L 471.452936 -97.834547 
L 472.430236 -100.790345 
L 473.288814 -103.746143 
L 474.029135 -106.701941 
L 474.66228 -109.657739 
L 475.207635 -112.613537 
L 475.690113 -115.569335 
L 476.137215 -118.525133 
L 476.576202 -121.480931 
L 477.031639 -124.436728 
L 477.523489 -127.392526 
L 478.065849 -130.348324 
L 478.666381 -133.304122 
L 479.326378 -136.25992 
L 480.041378 -139.215718 
L 480.802184 -142.171516 
L 481.596131 -145.127314 
L 482.408455 -148.083112 
L 483.223613 -151.038909 
L 484.026457 -153.994707 
L 484.80317 -156.950505 
L 485.541949 -159.906303 
L 486.233409 -162.862101 
L 486.870741 -165.817899 
L 487.449661 -168.773697 
L 487.968199 -171.729495 
L 488.426376 -174.685293 
L 488.825831 -177.641091 
L 489.169423 -180.596888 
L 489.460847 -183.552686 
L 489.704284 -186.508484 
L 489.904104 -189.464282 
L 490.064616 -192.42008 
L 490.189883 -195.375878 
L 490.283586 -198.331676 
L 490.348943 -201.287474 
L 490.388681 -204.243272 
L 490.405044 -207.199069 
L 490.399854 -210.154867 
L 490.374599 -213.110665 
L 490.330553 -216.066463 
L 490.268917 -219.022261 
L 490.190968 -221.978059 
L 490.098209 -224.933857 
L 489.992496 -227.889655 
L 489.876145 -230.845453 
L 489.751986 -233.801251 
L 489.623376 -236.757048 
L 489.494141 -239.712846 
L 489.368469 -242.668644 
L 489.25074 -245.624442 
L 489.145317 -248.58024 
L 489.056308 -251.536038 
L 488.987324 -254.491836 
L 488.941251 -257.447634 
L 488.920058 -260.403432 
L 488.924668 -263.359229 
L 488.954895 -266.315027 
L 489.009458 -269.270825 
L 489.086079 -272.226623 
L 489.181633 -275.182421 
L 489.29237 -278.138219 
L 489.414152 -281.094017 
L 489.542708 -284.049815 
L 489.673885 -287.005613 
L 489.803852 -289.961411 
L 489.929277 -292.917208 
L 490.047439 -295.873006 
L 490.156294 -298.828804 
L 490.254477 -301.784602 
L 490.341269 -304.7404 
L 490.41652 -307.696198 
L 490.480556 -310.651996 
L 490.969444 -310.651996 
L 490.969444 -310.651996 
L 491.03348 -307.696198 
L 491.108731 -304.7404 
L 491.195523 -301.784602 
L 491.293706 -298.828804 
L 491.402561 -295.873006 
L 491.520723 -292.917208 
L 491.646148 -289.961411 
L 491.776115 -287.005613 
L 491.907292 -284.049815 
L 492.035848 -281.094017 
L 492.15763 -278.138219 
L 492.268367 -275.182421 
L 492.363921 -272.226623 
L 492.440542 -269.270825 
L 492.495105 -266.315027 
L 492.525332 -263.359229 
L 492.529942 -260.403432 
L 492.508749 -257.447634 
L 492.462676 -254.491836 
L 492.393692 -251.536038 
L 492.304683 -248.58024 
L 492.19926 -245.624442 
L 492.081531 -242.668644 
L 491.955859 -239.712846 
L 491.826624 -236.757048 
L 491.698014 -233.801251 
L 491.573855 -230.845453 
L 491.457504 -227.889655 
L 491.351791 -224.933857 
L 491.259032 -221.978059 
L 491.181083 -219.022261 
L 491.119447 -216.066463 
L 491.075401 -213.110665 
L 491.050146 -210.154867 
L 491.044956 -207.199069 
L 491.061319 -204.243272 
L 491.101057 -201.287474 
L 491.166414 -198.331676 
L 491.260117 -195.375878 
L 491.385384 -192.42008 
L 491.545896 -189.464282 
L 491.745716 -186.508484 
L 491.989153 -183.552686 
L 492.280577 -180.596888 
L 492.624169 -177.641091 
L 493.023624 -174.685293 
L 493.481801 -171.729495 
L 494.000339 -168.773697 
L 494.579259 -165.817899 
L 495.216591 -162.862101 
L 495.908051 -159.906303 
L 496.64683 -156.950505 
L 497.423543 -153.994707 
L 498.226387 -151.038909 
L 499.041545 -148.083112 
L 499.853869 -145.127314 
L 500.647816 -142.171516 
L 501.408622 -139.215718 
L 502.123622 -136.25992 
L 502.783619 -133.304122 
L 503.384151 -130.348324 
L 503.926511 -127.392526 
L 504.418361 -124.436728 
L 504.873798 -121.480931 
L 505.312785 -118.525133 
L 505.759887 -115.569335 
L 506.242365 -112.613537 
L 506.78772 -109.657739 
L 507.420865 -106.701941 
L 508.161186 -103.746143 
L 509.019764 -100.790345 
L 509.997064 -97.834547 
L 511.08137 -94.878749 
L 512.248185 -91.922952 
L 513.460748 -88.967154 
L 514.671701 -86.011356 
L 515.825807 -83.055558 
L 516.86355 -80.09976 
L 517.725289 -77.143962 
L 518.355624 -74.188164 
L 518.707555 -71.232366 
L 518.746058 -68.276568 
L 518.450749 -65.320771 
L 517.817391 -62.364973 
L 516.858128 -59.409175 
L 515.600464 -56.453377 
L 514.085111 -53.497579 
L 512.362954 -50.541781 
L 510.491446 -47.585983 
L 508.530781 -44.630185 
L 506.540186 -41.674387 
L 504.574638 -38.718589 
L 502.682226 -35.762792 
L 500.902304 -32.806994 
L 499.264491 -29.851196 
L 497.788465 -26.895398 
L 496.484468 -23.9396 
L 495.354347 -20.983802 
L 494.392966 -18.028004 
z
" style="stroke: #373737; stroke-width: 1.25"/>
    </defs>
    <g clip-path="url(#p2817d685ca)">
     <use xlink:href="#mcab4d0bc28" x="0" y="360" style="fill: #80c161; stroke: #373737; stroke-width: 1.25"/>
    </g>
   </g>
   <g id="PolyCollection_5">
    <defs>
     <path id="ma760ed674a" d="M 621.926591 -31.380319 
L 610.623409 -31.380319 
L 609.770385 -32.666373 
L 608.826853 -33.952428 
L 607.790025 -35.238482 
L 606.658241 -36.524536 
L 605.431171 -37.81059 
L 604.109989 -39.096644 
L 602.697548 -40.382698 
L 601.198515 -41.668753 
L 599.619485 -42.954807 
L 597.969047 -44.240861 
L 596.257813 -45.526915 
L 594.498382 -46.812969 
L 592.705261 -48.099023 
L 590.894722 -49.385077 
L 589.084596 -50.671132 
L 587.294014 -51.957186 
L 585.543093 -53.24324 
L 583.852574 -54.529294 
L 582.243416 -55.815348 
L 580.736365 -57.101402 
L 579.351507 -58.387457 
L 578.107806 -59.673511 
L 577.022663 -60.959565 
L 576.111489 -62.245619 
L 575.387322 -63.531673 
L 574.86049 -64.817727 
L 574.538332 -66.103782 
L 574.425 -67.389836 
L 574.52133 -68.67589 
L 574.824801 -69.961944 
L 575.329572 -71.247998 
L 576.026614 -72.534052 
L 576.903907 -73.820106 
L 577.94672 -75.106161 
L 579.137951 -76.392215 
L 580.458515 -77.678269 
L 581.887781 -78.964323 
L 583.404022 -80.250377 
L 584.984896 -81.536431 
L 586.607906 -82.822486 
L 588.25086 -84.10854 
L 589.892301 -85.394594 
L 591.511898 -86.680648 
L 593.090801 -87.966702 
L 594.611932 -89.252756 
L 596.060233 -90.53881 
L 597.422847 -91.824865 
L 598.689247 -93.110919 
L 599.851301 -94.396973 
L 600.903285 -95.683027 
L 601.841844 -96.969081 
L 602.665909 -98.255135 
L 603.376568 -99.54119 
L 603.976905 -100.827244 
L 604.47181 -102.113298 
L 604.867766 -103.399352 
L 605.172618 -104.685406 
L 605.395331 -105.97146 
L 605.545746 -107.257514 
L 605.634327 -108.543569 
L 605.671919 -109.829623 
L 605.669513 -111.115677 
L 605.638017 -112.401731 
L 605.58805 -113.687785 
L 605.529743 -114.973839 
L 605.472576 -116.259894 
L 605.425218 -117.545948 
L 605.395411 -118.832002 
L 605.389863 -120.118056 
L 605.414182 -121.40411 
L 605.472822 -122.690164 
L 605.569074 -123.976218 
L 605.705062 -125.262273 
L 605.881785 -126.548327 
L 606.099167 -127.834381 
L 606.356134 -129.120435 
L 606.650711 -130.406489 
L 606.980127 -131.692543 
L 607.340942 -132.978598 
L 607.729168 -134.264652 
L 608.14041 -135.550706 
L 608.569993 -136.83676 
L 609.013094 -138.122814 
L 609.464865 -139.408868 
L 609.920549 -140.694923 
L 610.375579 -141.980977 
L 610.825669 -143.267031 
L 611.266888 -144.553085 
L 611.695714 -145.839139 
L 612.10908 -147.125193 
L 612.504397 -148.411247 
L 612.879567 -149.697302 
L 613.232979 -150.983356 
L 613.563493 -152.26941 
L 613.87042 -153.555464 
L 614.15348 -154.841518 
L 614.412769 -156.127572 
L 614.64871 -157.413627 
L 614.862007 -158.699681 
L 617.687993 -158.699681 
L 617.687993 -158.699681 
L 617.90129 -157.413627 
L 618.137231 -156.127572 
L 618.39652 -154.841518 
L 618.67958 -153.555464 
L 618.986507 -152.26941 
L 619.317021 -150.983356 
L 619.670433 -149.697302 
L 620.045603 -148.411247 
L 620.44092 -147.125193 
L 620.854286 -145.839139 
L 621.283112 -144.553085 
L 621.724331 -143.267031 
L 622.174421 -141.980977 
L 622.629451 -140.694923 
L 623.085135 -139.408868 
L 623.536906 -138.122814 
L 623.980007 -136.83676 
L 624.40959 -135.550706 
L 624.820832 -134.264652 
L 625.209058 -132.978598 
L 625.569873 -131.692543 
L 625.899289 -130.406489 
L 626.193866 -129.120435 
L 626.450833 -127.834381 
L 626.668215 -126.548327 
L 626.844938 -125.262273 
L 626.980926 -123.976218 
L 627.077178 -122.690164 
L 627.135818 -121.40411 
L 627.160137 -120.118056 
L 627.154589 -118.832002 
L 627.124782 -117.545948 
L 627.077424 -116.259894 
L 627.020257 -114.973839 
L 626.96195 -113.687785 
L 626.911983 -112.401731 
L 626.880487 -111.115677 
L 626.878081 -109.829623 
L 626.915673 -108.543569 
L 627.004254 -107.257514 
L 627.154669 -105.97146 
L 627.377382 -104.685406 
L 627.682234 -103.399352 
L 628.07819 -102.113298 
L 628.573095 -100.827244 
L 629.173432 -99.54119 
L 629.884091 -98.255135 
L 630.708156 -96.969081 
L 631.646715 -95.683027 
L 632.698699 -94.396973 
L 633.860753 -93.110919 
L 635.127153 -91.824865 
L 636.489767 -90.53881 
L 637.938068 -89.252756 
L 639.459199 -87.966702 
L 641.038102 -86.680648 
L 642.657699 -85.394594 
L 644.29914 -84.10854 
L 645.942094 -82.822486 
L 647.565104 -81.536431 
L 649.145978 -80.250377 
L 650.662219 -78.964323 
L 652.091485 -77.678269 
L 653.412049 -76.392215 
L 654.60328 -75.106161 
L 655.646093 -73.820106 
L 656.523386 -72.534052 
L 657.220428 -71.247998 
L 657.725199 -69.961944 
L 658.02867 -68.67589 
L 658.125 -67.389836 
L 658.011668 -66.103782 
L 657.68951 -64.817727 
L 657.162678 -63.531673 
L 656.438511 -62.245619 
L 655.527337 -60.959565 
L 654.442194 -59.673511 
L 653.198493 -58.387457 
L 651.813635 -57.101402 
L 650.306584 -55.815348 
L 648.697426 -54.529294 
L 647.006907 -53.24324 
L 645.255986 -51.957186 
L 643.465404 -50.671132 
L 641.655278 -49.385077 
L 639.844739 -48.099023 
L 638.051618 -46.812969 
L 636.292187 -45.526915 
L 634.580953 -44.240861 
L 632.930515 -42.954807 
L 631.351485 -41.668753 
L 629.852452 -40.382698 
L 628.440011 -39.096644 
L 627.118829 -37.81059 
L 625.891759 -36.524536 
L 624.759975 -35.238482 
L 623.723147 -33.952428 
L 622.779615 -32.666373 
L 621.926591 -31.380319 
z
" style="stroke: #373737; stroke-width: 1.25"/>
    </defs>
    <g clip-path="url(#p2817d685ca)">
     <use xlink:href="#ma760ed674a" x="0" y="360" style="fill: #367182; stroke: #373737; stroke-width: 1.25"/>
    </g>
   </g>
   <g id="PolyCollection_6">
    <defs>
     <path id="m70f8088293" d="M 704.757998 -26.760308 
L 695.192002 -26.760308 
L 694.360367 -28.419695 
L 693.428103 -30.079083 
L 692.391966 -31.738471 
L 691.250431 -33.397859 
L 690.003998 -35.057246 
L 688.655485 -36.716634 
L 687.210273 -38.376022 
L 685.676497 -40.035409 
L 684.065167 -41.694797 
L 682.390189 -43.354185 
L 680.668305 -45.013573 
L 678.918904 -46.67296 
L 677.163742 -48.332348 
L 675.42653 -49.991736 
L 673.732432 -51.651124 
L 672.107467 -53.310511 
L 670.577829 -54.969899 
L 669.169163 -56.629287 
L 667.905808 -58.288674 
L 666.810048 -59.948062 
L 665.901395 -61.60745 
L 665.195931 -63.266838 
L 664.705757 -64.926225 
L 664.438543 -66.585613 
L 664.397236 -68.245001 
L 664.579907 -69.904388 
L 664.979775 -71.563776 
L 665.58538 -73.223164 
L 666.380925 -74.882552 
L 667.346755 -76.541939 
L 668.45996 -78.201327 
L 669.69508 -79.860715 
L 671.024872 -81.520103 
L 672.421126 -83.17949 
L 673.855478 -84.838878 
L 675.30021 -86.498266 
L 676.728986 -88.157653 
L 678.117519 -89.817041 
L 679.444141 -91.476429 
L 680.690252 -93.135817 
L 681.840655 -94.795204 
L 682.883755 -96.454592 
L 683.81164 -98.11398 
L 684.620032 -99.773368 
L 685.308131 -101.432755 
L 685.878366 -103.092143 
L 686.336054 -104.751531 
L 686.689003 -106.410918 
L 686.947069 -108.070306 
L 687.121682 -109.729694 
L 687.225371 -111.389082 
L 687.271294 -113.048469 
L 687.272793 -114.707857 
L 687.242987 -116.367245 
L 687.194418 -118.026632 
L 687.138745 -119.68602 
L 687.086507 -121.345408 
L 687.046945 -123.004796 
L 687.027892 -124.664183 
L 687.035719 -126.323571 
L 687.075336 -127.982959 
L 687.150248 -129.642347 
L 687.262642 -131.301734 
L 687.413515 -132.961122 
L 687.602813 -134.62051 
L 687.829589 -136.279897 
L 688.092166 -137.939285 
L 688.388291 -139.598673 
L 688.715277 -141.258061 
L 689.070142 -142.917448 
L 689.44971 -144.576836 
L 689.850713 -146.236224 
L 690.269852 -147.895612 
L 690.703859 -149.554999 
L 691.149527 -151.214387 
L 691.603735 -152.873775 
L 692.06346 -154.533162 
L 692.525784 -156.19255 
L 692.987896 -157.851938 
L 693.447099 -159.511326 
L 693.900808 -161.170713 
L 694.346566 -162.830101 
L 694.782052 -164.489489 
L 695.205097 -166.148876 
L 695.613706 -167.808264 
L 696.006078 -169.467652 
L 696.38063 -171.12704 
L 696.736012 -172.786427 
L 697.071133 -174.445815 
L 697.385165 -176.105203 
L 697.677558 -177.764591 
L 697.948035 -179.423978 
L 698.196592 -181.083366 
L 698.423478 -182.742754 
L 698.629183 -184.402141 
L 698.81441 -186.061529 
L 698.980048 -187.720917 
L 699.127139 -189.380305 
L 699.256847 -191.039692 
L 700.693153 -191.039692 
L 700.693153 -191.039692 
L 700.822861 -189.380305 
L 700.969952 -187.720917 
L 701.13559 -186.061529 
L 701.320817 -184.402141 
L 701.526522 -182.742754 
L 701.753408 -181.083366 
L 702.001965 -179.423978 
L 702.272442 -177.764591 
L 702.564835 -176.105203 
L 702.878867 -174.445815 
L 703.213988 -172.786427 
L 703.56937 -171.12704 
L 703.943922 -169.467652 
L 704.336294 -167.808264 
L 704.744903 -166.148876 
L 705.167948 -164.489489 
L 705.603434 -162.830101 
L 706.049192 -161.170713 
L 706.502901 -159.511326 
L 706.962104 -157.851938 
L 707.424216 -156.19255 
L 707.88654 -154.533162 
L 708.346265 -152.873775 
L 708.800473 -151.214387 
L 709.246141 -149.554999 
L 709.680148 -147.895612 
L 710.099287 -146.236224 
L 710.50029 -144.576836 
L 710.879858 -142.917448 
L 711.234723 -141.258061 
L 711.561709 -139.598673 
L 711.857834 -137.939285 
L 712.120411 -136.279897 
L 712.347187 -134.62051 
L 712.536485 -132.961122 
L 712.687358 -131.301734 
L 712.799752 -129.642347 
L 712.874664 -127.982959 
L 712.914281 -126.323571 
L 712.922108 -124.664183 
L 712.903055 -123.004796 
L 712.863493 -121.345408 
L 712.811255 -119.68602 
L 712.755582 -118.026632 
L 712.707013 -116.367245 
L 712.677207 -114.707857 
L 712.678706 -113.048469 
L 712.724629 -111.389082 
L 712.828318 -109.729694 
L 713.002931 -108.070306 
L 713.260997 -106.410918 
L 713.613946 -104.751531 
L 714.071634 -103.092143 
L 714.641869 -101.432755 
L 715.329968 -99.773368 
L 716.13836 -98.11398 
L 717.066245 -96.454592 
L 718.109345 -94.795204 
L 719.259748 -93.135817 
L 720.505859 -91.476429 
L 721.832481 -89.817041 
L 723.221014 -88.157653 
L 724.64979 -86.498266 
L 726.094522 -84.838878 
L 727.528874 -83.17949 
L 728.925128 -81.520103 
L 730.25492 -79.860715 
L 731.49004 -78.201327 
L 732.603245 -76.541939 
L 733.569075 -74.882552 
L 734.36462 -73.223164 
L 734.970225 -71.563776 
L 735.370093 -69.904388 
L 735.552764 -68.245001 
L 735.511457 -66.585613 
L 735.244243 -64.926225 
L 734.754069 -63.266838 
L 734.048605 -61.60745 
L 733.139952 -59.948062 
L 732.044192 -58.288674 
L 730.780837 -56.629287 
L 729.372171 -54.969899 
L 727.842533 -53.310511 
L 726.217568 -51.651124 
L 724.52347 -49.991736 
L 722.786258 -48.332348 
L 721.031096 -46.67296 
L 719.281695 -45.013573 
L 717.559811 -43.354185 
L 715.884833 -41.694797 
L 714.273503 -40.035409 
L 712.739727 -38.376022 
L 711.294515 -36.716634 
L 709.946002 -35.057246 
L 708.699569 -33.397859 
L 707.558034 -31.738471 
L 706.521897 -30.079083 
L 705.589633 -28.419695 
L 704.757998 -26.760308 
z
" style="stroke: #373737; stroke-width: 1.25"/>
    </defs>
    <g clip-path="url(#p2817d685ca)">
     <use xlink:href="#m70f8088293" x="0" y="360" style="fill: #80c161; stroke: #373737; stroke-width: 1.25"/>
    </g>
   </g>
   <g id="PolyCollection_7">
    <path d="M 826.481961 366.144369 
L 824.568039 366.144369 
L 824.352507 362.420241 
L 824.102181 358.696112 
L 823.814791 354.971983 
L 823.488657 351.247855 
L 823.122838 347.523726 
L 822.717263 343.799597 
L 822.272835 340.075469 
L 821.791489 336.35134 
L 821.276212 332.627211 
L 820.731007 328.903083 
L 820.160801 325.178954 
L 819.571305 321.454825 
L 818.968828 317.730697 
L 818.360064 314.006568 
L 817.751851 310.282439 
L 817.15094 306.55831 
L 816.563776 302.834182 
L 815.996314 299.110053 
L 815.453881 295.385924 
L 814.941089 291.661796 
L 814.461816 287.937667 
L 814.019227 284.213538 
L 813.615851 280.48941 
L 813.253683 276.765281 
L 812.934307 273.041152 
L 812.659003 269.317024 
L 812.428844 265.592895 
L 812.244753 261.868766 
L 812.107517 258.144638 
L 812.017753 254.420509 
L 811.975838 250.69638 
L 811.981801 246.972252 
L 812.0352 243.248123 
L 812.135007 239.523994 
L 812.279501 235.799866 
L 812.466212 232.075737 
L 812.691905 228.351608 
L 812.952623 224.62748 
L 813.243797 220.903351 
L 813.560397 217.179222 
L 813.897132 213.455094 
L 814.248674 209.730965 
L 814.609886 206.006836 
L 814.976033 202.282708 
L 815.342965 198.558579 
L 815.70725 194.83445 
L 816.066245 191.110322 
L 816.418109 187.386193 
L 816.761756 183.662064 
L 817.096744 179.937936 
L 817.42314 176.213807 
L 817.741341 172.489678 
L 818.0519 168.76555 
L 818.355353 165.041421 
L 818.652072 161.317292 
L 818.942157 157.593164 
L 819.225367 153.869035 
L 819.501104 150.144906 
L 819.768445 146.420778 
L 820.026212 142.696649 
L 820.273082 138.97252 
L 820.507711 135.248392 
L 820.728878 131.524263 
L 820.935612 127.800134 
L 821.127311 124.076006 
L 821.303833 120.351877 
L 821.46555 116.627748 
L 821.613366 112.90362 
L 821.74869 109.179491 
L 821.873378 105.455362 
L 821.989636 101.731234 
L 822.099906 98.007105 
L 822.206727 94.282976 
L 822.312597 90.558848 
L 822.419842 86.834719 
L 822.530486 83.11059 
L 822.646161 79.386462 
L 822.768026 75.662333 
L 822.896725 71.938204 
L 823.032381 68.214076 
L 823.174609 64.489947 
L 823.322563 60.765818 
L 823.475009 57.04169 
L 823.630406 53.317561 
L 823.787003 49.593432 
L 823.942943 45.869303 
L 824.096352 42.145175 
L 824.245436 38.421046 
L 824.388553 34.696917 
L 824.524277 30.972789 
L 824.651439 27.24866 
L 824.769159 23.524531 
L 824.876849 19.800403 
L 824.974208 16.076274 
L 825.061207 12.352145 
L 825.138053 8.628017 
L 825.205158 4.903888 
L 825.263091 1.179759 
L 825.312545 -2.544369 
L 825.737455 -2.544369 
L 825.737455 -2.544369 
L 825.786909 1.179759 
L 825.844842 4.903888 
L 825.911947 8.628017 
L 825.988793 12.352145 
L 826.075792 16.076274 
L 826.173151 19.800403 
L 826.280841 23.524531 
L 826.398561 27.24866 
L 826.525723 30.972789 
L 826.661447 34.696917 
L 826.804564 38.421046 
L 826.953648 42.145175 
L 827.107057 45.869303 
L 827.262997 49.593432 
L 827.419594 53.317561 
L 827.574991 57.04169 
L 827.727437 60.765818 
L 827.875391 64.489947 
L 828.017619 68.214076 
L 828.153275 71.938204 
L 828.281974 75.662333 
L 828.403839 79.386462 
L 828.519514 83.11059 
L 828.630158 86.834719 
L 828.737403 90.558848 
L 828.843273 94.282976 
L 828.950094 98.007105 
L 829.060364 101.731234 
L 829.176622 105.455362 
L 829.30131 109.179491 
L 829.436634 112.90362 
L 829.58445 116.627748 
L 829.746167 120.351877 
L 829.922689 124.076006 
L 830.114388 127.800134 
L 830.321122 131.524263 
L 830.542289 135.248392 
L 830.776918 138.97252 
L 831.023788 142.696649 
L 831.281555 146.420778 
L 831.548896 150.144906 
L 831.824633 153.869035 
L 832.107843 157.593164 
L 832.397928 161.317292 
L 832.694647 165.041421 
L 832.9981 168.76555 
L 833.308659 172.489678 
L 833.62686 176.213807 
L 833.953256 179.937936 
L 834.288244 183.662064 
L 834.631891 187.386193 
L 834.983755 191.110322 
L 835.34275 194.83445 
L 835.707035 198.558579 
L 836.073967 202.282708 
L 836.440114 206.006836 
L 836.801326 209.730965 
L 837.152868 213.455094 
L 837.489603 217.179222 
L 837.806203 220.903351 
L 838.097377 224.62748 
L 838.358095 228.351608 
L 838.583788 232.075737 
L 838.770499 235.799866 
L 838.914993 239.523994 
L 839.0148 243.248123 
L 839.068199 246.972252 
L 839.074162 250.69638 
L 839.032247 254.420509 
L 838.942483 258.144638 
L 838.805247 261.868766 
L 838.621156 265.592895 
L 838.390997 269.317024 
L 838.115693 273.041152 
L 837.796317 276.765281 
L 837.434149 280.48941 
L 837.030773 284.213538 
L 836.588184 287.937667 
L 836.108911 291.661796 
L 835.596119 295.385924 
L 835.053686 299.110053 
L 834.486224 302.834182 
L 833.89906 306.55831 
L 833.298149 310.282439 
L 832.689936 314.006568 
L 832.081172 317.730697 
L 831.478695 321.454825 
L 830.889199 325.178954 
L 830.318993 328.903083 
L 829.773788 332.627211 
L 829.258511 336.35134 
L 828.777165 340.075469 
L 828.332737 343.799597 
L 827.927162 347.523726 
L 827.561343 351.247855 
L 827.235209 354.971983 
L 826.947819 358.696112 
L 826.697493 362.420241 
L 826.481961 366.144369 
z
" clip-path="url(#p2817d685ca)" style="fill: #367182; stroke: #373737; stroke-width: 1.25"/>
   </g>
   <g id="PolyCollection_8">
    <defs>
     <path id="m403a5ddcdb" d="M 911.456763 -12.764201 
L 906.993237 -12.764201 
L 906.388943 -16.106339 
L 905.673485 -19.448476 
L 904.841988 -22.790613 
L 903.893779 -26.132751 
L 902.833279 -29.474888 
L 901.670648 -32.817025 
L 900.422069 -36.159163 
L 899.109575 -39.5013 
L 897.760365 -42.843437 
L 896.405578 -46.185575 
L 895.07861 -49.527712 
L 893.813054 -52.869849 
L 892.640459 -56.211987 
L 891.588112 -59.554124 
L 890.677076 -62.896261 
L 889.920711 -66.238399 
L 889.323861 -69.580536 
L 888.882827 -72.922674 
L 888.586155 -76.264811 
L 888.416175 -79.606948 
L 888.351144 -82.949086 
L 888.367753 -86.291223 
L 888.443717 -89.63336 
L 888.560169 -92.975498 
L 888.703578 -96.317635 
L 888.866971 -99.659772 
L 889.050355 -103.00191 
L 889.260285 -106.344047 
L 889.508659 -109.686184 
L 889.810914 -113.028322 
L 890.18383 -116.370459 
L 890.643224 -119.712596 
L 891.20179 -123.054734 
L 891.867328 -126.396871 
L 892.641528 -129.739008 
L 893.51942 -133.081146 
L 894.489501 -136.423283 
L 895.534482 -139.76542 
L 896.632537 -143.107558 
L 897.758878 -146.449695 
L 898.887489 -149.791833 
L 899.992825 -153.13397 
L 901.051338 -156.476107 
L 902.042703 -159.818245 
L 902.950693 -163.160382 
L 903.76366 -166.502519 
L 904.474662 -169.844657 
L 905.081268 -173.186794 
L 905.58512 -176.528931 
L 905.991316 -179.871069 
L 906.307705 -183.213206 
L 906.544147 -186.555343 
L 906.711786 -189.897481 
L 906.822395 -193.239618 
L 906.887793 -196.581755 
L 906.919363 -199.923893 
L 906.927667 -203.26603 
L 906.922151 -206.608167 
L 906.910942 -209.950305 
L 906.900719 -213.292442 
L 906.896647 -216.63458 
L 906.902386 -219.976717 
L 906.92013 -223.318854 
L 906.950719 -226.660992 
L 906.993772 -230.003129 
L 907.047874 -233.345266 
L 907.110796 -236.687404 
L 907.179733 -240.029541 
L 907.251576 -243.371678 
L 907.323179 -246.713816 
L 907.39163 -250.055953 
L 907.454483 -253.39809 
L 907.509967 -256.740228 
L 907.557119 -260.082365 
L 907.595863 -263.424502 
L 907.627 -266.76664 
L 907.652128 -270.108777 
L 907.673482 -273.450914 
L 907.693729 -276.793052 
L 907.715717 -280.135189 
L 907.742216 -283.477326 
L 907.775669 -286.819464 
L 907.817984 -290.161601 
L 907.87038 -293.503739 
L 907.933299 -296.845876 
L 908.006395 -300.188013 
L 908.088592 -303.530151 
L 908.178203 -306.872288 
L 908.273089 -310.214425 
L 908.370845 -313.556563 
L 908.468994 -316.8987 
L 908.565162 -320.240837 
L 908.657225 -323.582975 
L 908.743424 -326.925112 
L 908.822428 -330.267249 
L 908.89336 -333.609387 
L 908.955786 -336.951524 
L 909.009668 -340.293661 
L 909.055302 -343.635799 
L 909.394698 -343.635799 
L 909.394698 -343.635799 
L 909.440332 -340.293661 
L 909.494214 -336.951524 
L 909.55664 -333.609387 
L 909.627572 -330.267249 
L 909.706576 -326.925112 
L 909.792775 -323.582975 
L 909.884838 -320.240837 
L 909.981006 -316.8987 
L 910.079155 -313.556563 
L 910.176911 -310.214425 
L 910.271797 -306.872288 
L 910.361408 -303.530151 
L 910.443605 -300.188013 
L 910.516701 -296.845876 
L 910.57962 -293.503739 
L 910.632016 -290.161601 
L 910.674331 -286.819464 
L 910.707784 -283.477326 
L 910.734283 -280.135189 
L 910.756271 -276.793052 
L 910.776518 -273.450914 
L 910.797872 -270.108777 
L 910.823 -266.76664 
L 910.854137 -263.424502 
L 910.892881 -260.082365 
L 910.940033 -256.740228 
L 910.995517 -253.39809 
L 911.05837 -250.055953 
L 911.126821 -246.713816 
L 911.198424 -243.371678 
L 911.270267 -240.029541 
L 911.339204 -236.687404 
L 911.402126 -233.345266 
L 911.456228 -230.003129 
L 911.499281 -226.660992 
L 911.52987 -223.318854 
L 911.547614 -219.976717 
L 911.553353 -216.63458 
L 911.549281 -213.292442 
L 911.539058 -209.950305 
L 911.527849 -206.608167 
L 911.522333 -203.26603 
L 911.530637 -199.923893 
L 911.562207 -196.581755 
L 911.627605 -193.239618 
L 911.738214 -189.897481 
L 911.905853 -186.555343 
L 912.142295 -183.213206 
L 912.458684 -179.871069 
L 912.86488 -176.528931 
L 913.368732 -173.186794 
L 913.975338 -169.844657 
L 914.68634 -166.502519 
L 915.499307 -163.160382 
L 916.407297 -159.818245 
L 917.398662 -156.476107 
L 918.457175 -153.13397 
L 919.562511 -149.791833 
L 920.691122 -146.449695 
L 921.817463 -143.107558 
L 922.915518 -139.76542 
L 923.960499 -136.423283 
L 924.93058 -133.081146 
L 925.808472 -129.739008 
L 926.582672 -126.396871 
L 927.24821 -123.054734 
L 927.806776 -119.712596 
L 928.26617 -116.370459 
L 928.639086 -113.028322 
L 928.941341 -109.686184 
L 929.189715 -106.344047 
L 929.399645 -103.00191 
L 929.583029 -99.659772 
L 929.746422 -96.317635 
L 929.889831 -92.975498 
L 930.006283 -89.63336 
L 930.082247 -86.291223 
L 930.098856 -82.949086 
L 930.033825 -79.606948 
L 929.863845 -76.264811 
L 929.567173 -72.922674 
L 929.126139 -69.580536 
L 928.529289 -66.238399 
L 927.772924 -62.896261 
L 926.861888 -59.554124 
L 925.809541 -56.211987 
L 924.636946 -52.869849 
L 923.37139 -49.527712 
L 922.044422 -46.185575 
L 920.689635 -42.843437 
L 919.340425 -39.5013 
L 918.027931 -36.159163 
L 916.779352 -32.817025 
L 915.616721 -29.474888 
L 914.556221 -26.132751 
L 913.608012 -22.790613 
L 912.776515 -19.448476 
L 912.061057 -16.106339 
L 911.456763 -12.764201 
z
" style="stroke: #373737; stroke-width: 1.25"/>
    </defs>
    <g clip-path="url(#p2817d685ca)">
     <use xlink:href="#m403a5ddcdb" x="0" y="360" style="fill: #80c161; stroke: #373737; stroke-width: 1.25"/>
    </g>
   </g>
   <g id="patch_3">
    <path d="M 239.625 292.68 
L 239.625 292.68 
L 239.625 292.68 
L 239.625 292.68 
z
" clip-path="url(#p2817d685ca)" style="fill: #367182; stroke: #373737; stroke-width: 1.25; stroke-linejoin: miter"/>
   </g>
   <g id="patch_4">
    <path d="M 239.625 292.68 
L 239.625 292.68 
L 239.625 292.68 
L 239.625 292.68 
z
" clip-path="url(#p2817d685ca)" style="fill: #80c161; stroke: #373737; stroke-width: 1.25; stroke-linejoin: miter"/>
   </g>
   <g id="line2d_6">
    <path d="M 176.076245 292.68 
L 219.473755 292.68 
" clip-path="url(#p2817d685ca)" style="fill: none; stroke-dasharray: 1.5625,0.9375; stroke-dashoffset: 0; stroke: #373737; stroke-width: 1.25"/>
   </g>
   <g id="line2d_7">
    <path d="M 176.076245 292.68 
L 219.473755 292.68 
" clip-path="url(#p2817d685ca)" style="fill: none; stroke-dasharray: 3.125,1.25; stroke-dashoffset: 0; stroke: #373737; stroke-width: 1.25"/>
   </g>
   <g id="line2d_8">
    <path d="M 183.43388 237.24 
L 212.11612 237.24 
" clip-path="url(#p2817d685ca)" style="fill: none; stroke-dasharray: 1.5625,0.9375; stroke-dashoffset: 0; stroke: #373737; stroke-width: 1.25"/>
   </g>
   <g id="line2d_9">
    <path d="M 239.695482 292.68 
L 323.254518 292.68 
" clip-path="url(#p2817d685ca)" style="fill: none; stroke-dasharray: 1.5625,0.9375; stroke-dashoffset: 0; stroke: #373737; stroke-width: 1.25"/>
   </g>
   <g id="line2d_10">
    <path d="M 239.695482 292.68 
L 323.254518 292.68 
" clip-path="url(#p2817d685ca)" style="fill: none; stroke-dasharray: 3.125,1.25; stroke-dashoffset: 0; stroke: #373737; stroke-width: 1.25"/>
   </g>
   <g id="line2d_11">
    <path d="M 263.907018 237.24 
L 299.042982 237.24 
" clip-path="url(#p2817d685ca)" style="fill: none; stroke-dasharray: 1.5625,0.9375; stroke-dashoffset: 0; stroke: #373737; stroke-width: 1.25"/>
   </g>
   <g id="line2d_12">
    <path d="M 387.089227 292.68 
L 426.960773 292.68 
" clip-path="url(#p2817d685ca)" style="fill: none; stroke-dasharray: 1.5625,0.9375; stroke-dashoffset: 0; stroke: #373737; stroke-width: 1.25"/>
   </g>
   <g id="line2d_13">
    <path d="M 383.259832 237.24 
L 430.790168 237.24 
" clip-path="url(#p2817d685ca)" style="fill: none; stroke-dasharray: 3.125,1.25; stroke-dashoffset: 0; stroke: #373737; stroke-width: 1.25"/>
   </g>
   <g id="line2d_14">
    <path d="M 383.259832 237.24 
L 430.790168 237.24 
" clip-path="url(#p2817d685ca)" style="fill: none; stroke-dasharray: 1.5625,0.9375; stroke-dashoffset: 0; stroke: #373737; stroke-width: 1.25"/>
   </g>
   <g id="line2d_15">
    <path d="M 462.799511 292.68 
L 518.650489 292.68 
" clip-path="url(#p2817d685ca)" style="fill: none; stroke-dasharray: 1.5625,0.9375; stroke-dashoffset: 0; stroke: #373737; stroke-width: 1.25"/>
   </g>
   <g id="line2d_16">
    <path d="M 462.799511 292.68 
L 518.650489 292.68 
" clip-path="url(#p2817d685ca)" style="fill: none; stroke-dasharray: 3.125,1.25; stroke-dashoffset: 0; stroke: #373737; stroke-width: 1.25"/>
   </g>
   <g id="line2d_17">
    <path d="M 476.773284 237.24 
L 504.676716 237.24 
" clip-path="url(#p2817d685ca)" style="fill: none; stroke-dasharray: 1.5625,0.9375; stroke-dashoffset: 0; stroke: #373737; stroke-width: 1.25"/>
   </g>
   <g id="line2d_18">
    <path d="M 574.431154 292.68 
L 658.118846 292.68 
" clip-path="url(#p2817d685ca)" style="fill: none; stroke-dasharray: 1.5625,0.9375; stroke-dashoffset: 0; stroke: #373737; stroke-width: 1.25"/>
   </g>
   <g id="line2d_19">
    <path d="M 574.431154 292.68 
L 658.118846 292.68 
" clip-path="url(#p2817d685ca)" style="fill: none; stroke-dasharray: 3.125,1.25; stroke-dashoffset: 0; stroke: #373737; stroke-width: 1.25"/>
   </g>
   <g id="line2d_20">
    <path d="M 574.431154 292.68 
L 658.118846 292.68 
" clip-path="url(#p2817d685ca)" style="fill: none; stroke-dasharray: 1.5625,0.9375; stroke-dashoffset: 0; stroke: #373737; stroke-width: 1.25"/>
   </g>
   <g id="line2d_21">
    <path d="M 664.420262 292.68 
L 735.529738 292.68 
" clip-path="url(#p2817d685ca)" style="fill: none; stroke-dasharray: 1.5625,0.9375; stroke-dashoffset: 0; stroke: #373737; stroke-width: 1.25"/>
   </g>
   <g id="line2d_22">
    <path d="M 664.420262 292.68 
L 735.529738 292.68 
" clip-path="url(#p2817d685ca)" style="fill: none; stroke-dasharray: 3.125,1.25; stroke-dashoffset: 0; stroke: #373737; stroke-width: 1.25"/>
   </g>
   <g id="line2d_23">
    <path d="M 687.034375 251.1 
L 712.915625 251.1 
" clip-path="url(#p2817d685ca)" style="fill: none; stroke-dasharray: 1.5625,0.9375; stroke-dashoffset: 0; stroke: #373737; stroke-width: 1.25"/>
   </g>
   <g id="line2d_24">
    <path d="M 813.453502 278.82 
L 837.596498 278.82 
" clip-path="url(#p2817d685ca)" style="fill: none; stroke-dasharray: 1.5625,0.9375; stroke-dashoffset: 0; stroke: #373737; stroke-width: 1.25"/>
   </g>
   <g id="line2d_25">
    <path d="M 812.223625 237.24 
L 838.826375 237.24 
" clip-path="url(#p2817d685ca)" style="fill: none; stroke-dasharray: 3.125,1.25; stroke-dashoffset: 0; stroke: #373737; stroke-width: 1.25"/>
   </g>
   <g id="line2d_26">
    <path d="M 816.92925 181.8 
L 834.12075 181.8 
" clip-path="url(#p2817d685ca)" style="fill: none; stroke-dasharray: 1.5625,0.9375; stroke-dashoffset: 0; stroke: #373737; stroke-width: 1.25"/>
   </g>
   <g id="line2d_27">
    <path d="M 889.727555 292.68 
L 928.722445 292.68 
" clip-path="url(#p2817d685ca)" style="fill: none; stroke-dasharray: 1.5625,0.9375; stroke-dashoffset: 0; stroke: #373737; stroke-width: 1.25"/>
   </g>
   <g id="line2d_28">
    <path d="M 889.450233 251.1 
L 928.999767 251.1 
" clip-path="url(#p2817d685ca)" style="fill: none; stroke-dasharray: 3.125,1.25; stroke-dashoffset: 0; stroke: #373737; stroke-width: 1.25"/>
   </g>
   <g id="line2d_29">
    <path d="M 891.152531 237.24 
L 927.297469 237.24 
" clip-path="url(#p2817d685ca)" style="fill: none; stroke-dasharray: 1.5625,0.9375; stroke-dashoffset: 0; stroke: #373737; stroke-width: 1.25"/>
   </g>
   <g id="patch_5">
    <path d="M 135 320.4 
L 135 43.2 
" style="fill: none; stroke: #cccccc; stroke-width: 1.25; stroke-linejoin: miter; stroke-linecap: square"/>
   </g>
   <g id="patch_6">
    <path d="M 972 320.4 
L 972 43.2 
" style="fill: none; stroke: #cccccc; stroke-width: 1.25; stroke-linejoin: miter; stroke-linecap: square"/>
   </g>
   <g id="patch_7">
    <path d="M 135 320.4 
L 972 320.4 
" style="fill: none; stroke: #cccccc; stroke-width: 1.25; stroke-linejoin: miter; stroke-linecap: square"/>
   </g>
   <g id="patch_8">
    <path d="M 135 43.2 
L 972 43.2 
" style="fill: none; stroke: #cccccc; stroke-width: 1.25; stroke-linejoin: miter; stroke-linecap: square"/>
   </g>
   <g id="text_12">
    <!-- Location of Max Response for trials with suprethreshold responses -->
    <g style="fill: #262626" transform="translate(376.42125 37.2) scale(0.12 -0.12)">
     <defs>
      <path id="ArialMT-64" d="M 2575 0 
L 2575 419 
Q 2259 -75 1647 -75 
Q 1250 -75 917 144 
Q 584 363 401 755 
Q 219 1147 219 1656 
Q 219 2153 384 2558 
Q 550 2963 881 3178 
Q 1213 3394 1622 3394 
Q 1922 3394 2156 3267 
Q 2391 3141 2538 2938 
L 2538 4581 
L 3097 4581 
L 3097 0 
L 2575 0 
z
M 797 1656 
Q 797 1019 1065 703 
Q 1334 388 1700 388 
Q 2069 388 2326 689 
Q 2584 991 2584 1609 
Q 2584 2291 2321 2609 
Q 2059 2928 1675 2928 
Q 1300 2928 1048 2622 
Q 797 2316 797 1656 
z
" transform="scale(0.015625)"/>
     </defs>
     <use xlink:href="#ArialMT-4c"/>
     <use xlink:href="#ArialMT-6f" x="55.615234"/>
     <use xlink:href="#ArialMT-63" x="111.230469"/>
     <use xlink:href="#ArialMT-61" x="161.230469"/>
     <use xlink:href="#ArialMT-74" x="216.845703"/>
     <use xlink:href="#ArialMT-69" x="244.628906"/>
     <use xlink:href="#ArialMT-6f" x="266.845703"/>
     <use xlink:href="#ArialMT-6e" x="322.460938"/>
     <use xlink:href="#ArialMT-20" x="378.076172"/>
     <use xlink:href="#ArialMT-6f" x="405.859375"/>
     <use xlink:href="#ArialMT-66" x="461.474609"/>
     <use xlink:href="#ArialMT-20" x="489.257812"/>
     <use xlink:href="#ArialMT-4d" x="517.041016"/>
     <use xlink:href="#ArialMT-61" x="600.341797"/>
     <use xlink:href="#ArialMT-78" x="655.957031"/>
     <use xlink:href="#ArialMT-20" x="705.957031"/>
     <use xlink:href="#ArialMT-52" x="733.740234"/>
     <use xlink:href="#ArialMT-65" x="805.957031"/>
     <use xlink:href="#ArialMT-73" x="861.572266"/>
     <use xlink:href="#ArialMT-70" x="911.572266"/>
     <use xlink:href="#ArialMT-6f" x="967.1875"/>
     <use xlink:href="#ArialMT-6e" x="1022.802734"/>
     <use xlink:href="#ArialMT-73" x="1078.417969"/>
     <use xlink:href="#ArialMT-65" x="1128.417969"/>
     <use xlink:href="#ArialMT-20" x="1184.033203"/>
     <use xlink:href="#ArialMT-66" x="1211.816406"/>
     <use xlink:href="#ArialMT-6f" x="1239.599609"/>
     <use xlink:href="#ArialMT-72" x="1295.214844"/>
     <use xlink:href="#ArialMT-20" x="1328.515625"/>
     <use xlink:href="#ArialMT-74" x="1356.298828"/>
     <use xlink:href="#ArialMT-72" x="1384.082031"/>
     <use xlink:href="#ArialMT-69" x="1417.382812"/>
     <use xlink:href="#ArialMT-61" x="1439.599609"/>
     <use xlink:href="#ArialMT-6c" x="1495.214844"/>
     <use xlink:href="#ArialMT-73" x="1517.431641"/>
     <use xlink:href="#ArialMT-20" x="1567.431641"/>
     <use xlink:href="#ArialMT-77" x="1595.214844"/>
     <use xlink:href="#ArialMT-69" x="1667.431641"/>
     <use xlink:href="#ArialMT-74" x="1689.648438"/>
     <use xlink:href="#ArialMT-68" x="1717.431641"/>
     <use xlink:href="#ArialMT-20" x="1773.046875"/>
     <use xlink:href="#ArialMT-73" x="1800.830078"/>
     <use xlink:href="#ArialMT-75" x="1850.830078"/>
     <use xlink:href="#ArialMT-70" x="1906.445312"/>
     <use xlink:href="#ArialMT-72" x="1962.060547"/>
     <use xlink:href="#ArialMT-65" x="1995.361328"/>
     <use xlink:href="#ArialMT-74" x="2050.976562"/>
     <use xlink:href="#ArialMT-68" x="2078.759766"/>
     <use xlink:href="#ArialMT-72" x="2134.375"/>
     <use xlink:href="#ArialMT-65" x="2167.675781"/>
     <use xlink:href="#ArialMT-73" x="2223.291016"/>
     <use xlink:href="#ArialMT-68" x="2273.291016"/>
     <use xlink:href="#ArialMT-6f" x="2328.90625"/>
     <use xlink:href="#ArialMT-6c" x="2384.521484"/>
     <use xlink:href="#ArialMT-64" x="2406.738281"/>
     <use xlink:href="#ArialMT-20" x="2462.353516"/>
     <use xlink:href="#ArialMT-72" x="2490.136719"/>
     <use xlink:href="#ArialMT-65" x="2523.4375"/>
     <use xlink:href="#ArialMT-73" x="2579.052734"/>
     <use xlink:href="#ArialMT-70" x="2629.052734"/>
     <use xlink:href="#ArialMT-6f" x="2684.667969"/>
     <use xlink:href="#ArialMT-6e" x="2740.283203"/>
     <use xlink:href="#ArialMT-73" x="2795.898438"/>
     <use xlink:href="#ArialMT-65" x="2845.898438"/>
     <use xlink:href="#ArialMT-73" x="2901.513672"/>
    </g>
   </g>
   <g id="legend_1">
    <g id="patch_9">
     <path d="M 916.865938 99.740312 
L 964.3 99.740312 
Q 966.5 99.740312 966.5 97.540312 
L 966.5 50.9 
Q 966.5 48.7 964.3 48.7 
L 916.865938 48.7 
Q 914.665938 48.7 914.665938 50.9 
L 914.665938 97.540312 
Q 914.665938 99.740312 916.865938 99.740312 
z
" style="fill: #ffffff; opacity: 0.8; stroke: #cccccc; stroke-linejoin: miter"/>
    </g>
    <g id="text_13">
     <!-- numSq -->
     <g style="fill: #262626" transform="translate(921.573281 61.835625) scale(0.12 -0.12)">
      <use xlink:href="#ArialMT-6e"/>
      <use xlink:href="#ArialMT-75" x="55.615234"/>
      <use xlink:href="#ArialMT-6d" x="111.230469"/>
      <use xlink:href="#ArialMT-53" x="194.53125"/>
      <use xlink:href="#ArialMT-71" x="261.230469"/>
     </g>
    </g>
    <g id="patch_10">
     <path d="M 919.065938 77.594219 
L 941.065938 77.594219 
L 941.065938 69.894219 
L 919.065938 69.894219 
z
" style="fill: #367182; stroke: #373737; stroke-width: 1.25; stroke-linejoin: miter"/>
    </g>
    <g id="text_14">
     <!-- 5 -->
     <g style="fill: #262626" transform="translate(949.865937 77.594219) scale(0.11 -0.11)">
      <use xlink:href="#ArialMT-35"/>
     </g>
    </g>
    <g id="patch_11">
     <path d="M 919.065938 93.154062 
L 941.065938 93.154062 
L 941.065938 85.454062 
L 919.065938 85.454062 
z
" style="fill: #80c161; stroke: #373737; stroke-width: 1.25; stroke-linejoin: miter"/>
    </g>
    <g id="text_15">
     <!-- 15 -->
     <g style="fill: #262626" transform="translate(949.865937 93.154062) scale(0.11 -0.11)">
      <defs>
       <path id="ArialMT-31" d="M 2384 0 
L 1822 0 
L 1822 3584 
Q 1619 3391 1289 3197 
Q 959 3003 697 2906 
L 697 3450 
Q 1169 3672 1522 3987 
Q 1875 4303 2022 4600 
L 2384 4600 
L 2384 0 
z
" transform="scale(0.015625)"/>
      </defs>
      <use xlink:href="#ArialMT-31"/>
      <use xlink:href="#ArialMT-35" x="55.615234"/>
     </g>
    </g>
   </g>
  </g>
 </g>
 <defs>
  <clipPath id="p2817d685ca">
   <rect x="135" y="43.2" width="837" height="277.2"/>
  </clipPath>
 </defs>
</svg>
